<?xml version="1.0" encoding="UTF-8"?>
<svg width="44px" height="36px" viewBox="0 0 44 36" version="1.1" xmlns="http://www.w3.org/2000/svg" xmlns:xlink="http://www.w3.org/1999/xlink">
    <!-- Generator: Sketch 44 (41411) - http://www.bohemiancoding.com/sketch -->
    <title>icons/arrow-left-blue</title>
    <desc>Created with Sketch.</desc>
    <defs></defs>
    <g id="Page-1" stroke="none" stroke-width="1" fill="none" fill-rule="evenodd">
        <g id="Icons" transform="translate(-190.000000, -142.000000)" fill="#183458">
            <g id="icons/arrow-down/blue" transform="translate(212.166667, 160.000000) rotate(90.000000) translate(-212.166667, -160.000000) translate(194.166667, 138.500000)">
                <g id="Group-3-Copy-2">
                    <path d="M19.8996824,36.9641424 L32.4923206,24.3715042 C33.2341928,23.6296321 34.4370051,23.6296321 35.1788773,24.3715042 C35.9207494,25.1133763 35.9207494,26.3161887 35.1788773,27.0580608 L19.3432783,42.8936598 C18.6014062,43.6355319 17.3985938,43.6355319 16.6567217,42.8936598 L0.821122726,27.0580608 C0.0792505924,26.3161887 0.0792505924,25.1133763 0.821122726,24.3715042 C1.56299486,23.6296321 2.76580724,23.6296321 3.50767938,24.3715042 L16.1003176,36.9641424 L16.1003176,1.92018129 C16.1003176,0.871015653 16.9508344,0.0204988609 18,0.0204988609 C19.0491656,0.0204988609 19.8996824,0.871015653 19.8996824,1.92018129 L19.8996824,36.9641424 Z" id="Combined-Shape" fill-rule="nonzero"></path>
                </g>
            </g>
        </g>
    </g>
</svg>