<?xml version="1.0" encoding="UTF-8"?>
<svg width="287px" height="87px" viewBox="0 0 287 87" version="1.1" xmlns="http://www.w3.org/2000/svg" xmlns:xlink="http://www.w3.org/1999/xlink">
    <!-- Generator: Sketch 43.2 (39069) - http://www.bohemiancoding.com/sketch -->
    <title>wortpaare/echt-punktgenau-neg</title>
    <desc>Created with Sketch.</desc>
    <defs>
        <polygon id="path-1" points="14.86782 0.9144 0 0.9144 0 32.4576 29.73564 32.4576 29.73564 0.9144 14.86782 0.9144"></polygon>
        <polygon id="path-3" points="23.3568 31.50396 23.3568 1.10916 1.2582 1.10916 1.2582 31.50396 23.3568 31.50396"></polygon>
    </defs>
    <g id="Page-1" stroke="none" stroke-width="1" fill="none" fill-rule="evenodd">
        <g id="wortpaare/echt-punktgenau/neg" transform="translate(0.000000, -3.000000)">
            <g id="wortpaare/echt-punktgenau">
                <path d="M24.81804,65.26116 L24.81804,65.14956 C24.81804,60.18516 21.46644,56.89116 17.51004,56.89116 C13.54644,56.89116 10.25604,60.18516 10.25604,65.14956 L10.25604,65.26116 C10.25604,70.22556 13.54644,73.51956 17.51004,73.51956 C21.46644,73.51956 24.81804,70.28316 24.81804,65.26116 L24.81804,65.26116 Z M1.88244,50.24916 L10.36764,50.24916 L10.36764,54.54396 C12.43044,51.75756 15.27444,49.69476 19.68444,49.69476 C26.65764,49.69476 33.29604,55.15956 33.29604,65.14956 L33.29604,65.26116 C33.29604,75.24396 26.76924,80.71596 19.68444,80.71596 C15.16284,80.71596 12.37284,78.64956 10.36764,76.25196 L10.36764,89.08236 L1.88244,89.08236 L1.88244,50.24916 Z" id="Fill-1" fill="#FFFFFF"></path>
                <g id="Group-5" transform="translate(0.000000, 2.684520)">
                    <mask id="mask-2" fill="white">
                        <use xlink:href="#path-1"></use>
                    </mask>
                    <g id="Clip-4"></g>
                    <path d="M21.36924,14.256 C20.85804,10.4112 18.60084,7.812 14.98644,7.812 C11.42244,7.812 9.10404,10.3536 8.42724,14.256 L21.36924,14.256 Z M-0.00036,16.8012 L-0.00036,16.686 C-0.00036,8.0352 6.16284,0.9144 14.98644,0.9144 C25.10244,0.9144 29.73564,8.7732 29.73564,17.3664 C29.73564,18.0432 29.68164,18.8352 29.62404,19.6272 L8.53884,19.6272 C9.38844,23.5296 12.09924,25.56 15.94044,25.56 C18.82764,25.56 20.91924,24.6564 23.29164,22.4532 L28.20924,26.8056 C25.38324,30.3084 21.31164,32.4576 15.83244,32.4576 C6.72804,32.4576 -0.00036,26.0712 -0.00036,16.8012 L-0.00036,16.8012 Z" id="Fill-3" fill="#FFFFFF" mask="url(#mask-2)"></path>
                </g>
                <path d="M56.14236,6.19848 L56.14236,11.53368 C53.53956,9.35568 50.84316,8.26848 48.06036,8.26848 C44.99316,8.26848 42.40836,9.37008 40.30596,11.57328 C38.19276,13.76568 37.13436,16.44768 37.13436,19.61928 C37.13436,22.75128 38.19276,25.39368 40.30596,27.54648 C42.41916,29.69928 45.01116,30.77568 48.07836,30.77568 C49.66596,30.77568 51.01236,30.51648 52.12116,30.00168 C52.74036,29.74248 53.38116,29.39328 54.04356,28.95768 C54.70956,28.51848 55.40796,27.98928 56.14236,27.37008 L56.14236,32.80608 C53.56476,34.26048 50.85756,34.99128 48.02076,34.99128 C43.75476,34.99128 40.11156,33.50088 37.09476,30.52368 C34.09236,27.51768 32.59116,23.89968 32.59116,19.65528 C32.59116,15.85368 33.84756,12.46248 36.36036,9.48528 C39.45636,5.83848 43.45956,4.01328 48.36996,4.01328 C51.04836,4.01328 53.64036,4.74048 56.14236,6.19848" id="Fill-6" fill="#FFFFFF"></path>
                <polygon id="Fill-8" fill="#FFFFFF" points="67.16376 16.27236 80.04096 16.27236 80.04096 4.59396 84.54816 4.59396 84.54816 34.44876 80.04096 34.44876 80.04096 20.50596 67.16376 20.50596 67.16376 34.44876 62.66016 34.44876 62.66016 4.59396 67.16376 4.59396"></polygon>
                <polygon id="Fill-10" fill="#FFFFFF" points="99.93816 8.82828 99.93816 34.44948 95.43456 34.44948 95.43456 8.82828 88.56936 8.82828 88.56936 4.59468 106.78176 4.59468 106.78176 8.82828"></polygon>
                <path d="M42.29244,50.59368 L42.29244,68.57208 C42.29244,71.13888 42.71004,73.01808 43.54884,74.20248 C44.79804,75.91248 46.55844,76.76928 48.82644,76.76928 C51.10884,76.76928 52.87644,75.91248 54.12564,74.20248 C54.96444,73.05048 55.38204,71.17848 55.38204,68.57208 L55.38204,50.59368 L59.88924,50.59368 L59.88924,69.81048 C59.88924,72.95688 58.91004,75.54888 56.94804,77.58648 C54.74484,79.85448 52.03764,80.98848 48.82644,80.98848 C45.61884,80.98848 42.91884,79.85448 40.72644,77.58648 C38.76804,75.54888 37.78884,72.95688 37.78884,69.81048 L37.78884,50.59368 L42.29244,50.59368 Z" id="Fill-12" fill="#FFFFFF"></path>
                <polygon id="Fill-14" fill="#FFFFFF" points="67.04244 80.44848 67.04244 48.56328 88.81524 71.34048 88.81524 50.59368 93.31884 50.59368 93.31884 82.26288 71.54604 59.54328 71.54604 80.44848"></polygon>
                <polygon id="Fill-16" fill="#FFFFFF" points="104.9796 62.50464 116.6004 50.59224 122.6124 50.59224 109.116 64.10664 122.6916 80.44704 116.658 80.44704 105.9084 67.16304 104.9796 68.09184 104.9796 80.44704 100.476 80.44704 100.476 50.59224 104.9796 50.59224"></polygon>
                <polygon id="Fill-18" fill="#FFFFFF" points="136.57464 54.82656 136.57464 80.44776 132.07104 80.44776 132.07104 54.82656 125.20584 54.82656 125.20584 50.59296 143.41824 50.59296 143.41824 54.82656"></polygon>
                <path d="M161.80812,64.90224 L174.14532,64.90224 L174.14532,65.88504 C174.14532,68.12784 173.88252,70.11144 173.35332,71.84304 C172.83492,73.43784 171.96732,74.93544 170.73972,76.32864 C167.96772,79.44984 164.44332,81.00864 160.16292,81.00864 C155.98692,81.00864 152.41212,79.50024 149.43132,76.48344 C146.45412,73.45224 144.96732,69.81624 144.96732,65.57544 C144.96732,61.24464 146.48292,57.57264 149.51052,54.55584 C152.53812,51.52824 156.22812,50.00904 160.56972,50.00904 C162.90252,50.00904 165.08412,50.48784 167.10732,51.44544 C169.04052,52.39584 170.94132,53.94384 172.80972,56.08584 L169.60212,59.15664 C167.15052,55.89504 164.16612,54.26424 160.64892,54.26424 C157.48812,54.26424 154.83852,55.35504 152.70012,57.53304 C150.56172,59.67144 149.49252,62.35704 149.49252,65.57544 C149.49252,68.90184 150.68412,71.64144 153.06732,73.79784 C155.29932,75.79224 157.71492,76.79304 160.31772,76.79304 C162.53532,76.79304 164.52612,76.04784 166.29372,74.55024 C168.06132,73.04184 169.04772,71.23824 169.25292,69.13584 L161.80812,69.13584 L161.80812,64.90224 Z" id="Fill-20" fill="#FFFFFF"></path>
                <polygon id="Fill-22" fill="#FFFFFF" points="196.28388 54.82656 184.31388 54.82656 184.31388 61.99776 195.93468 61.99776 195.93468 66.23496 184.31388 66.23496 184.31388 76.21056 196.28388 76.21056 196.28388 80.44776 179.81028 80.44776 179.81028 50.59296 196.28388 50.59296"></polygon>
                <polygon id="Fill-24" fill="#FFFFFF" points="202.20084 80.44848 202.20084 48.56328 223.97364 71.34048 223.97364 50.59368 228.47724 50.59368 228.47724 82.26288 206.70444 59.54328 206.70444 80.44848"></polygon>
                <path d="M251.56548,68.95944 L247.13748,58.81104 L242.49708,68.95944 L251.56548,68.95944 Z M253.40148,73.19664 L240.62148,73.19664 L237.29508,80.44704 L232.44228,80.44704 L247.21668,48.71664 L261.46548,80.44704 L256.53348,80.44704 L253.40148,73.19664 Z" id="Fill-26" fill="#FFFFFF"></path>
                <g id="Group-30" transform="translate(262.800000, 49.484520)">
                    <mask id="mask-4" fill="white">
                        <use xlink:href="#path-3"></use>
                    </mask>
                    <g id="Clip-29"></g>
                    <path d="M5.7618,1.10916 L5.7618,19.08756 C5.7618,21.65436 6.1794,23.53356 7.0182,24.71796 C8.2674,26.42796 10.0278,27.28476 12.2958,27.28476 C14.5782,27.28476 16.3458,26.42796 17.595,24.71796 C18.4338,23.56596 18.8514,21.69396 18.8514,19.08756 L18.8514,1.10916 L23.3586,1.10916 L23.3586,20.32596 C23.3586,23.47236 22.3794,26.06436 20.4174,28.10196 C18.2142,30.36996 15.507,31.50396 12.2958,31.50396 C9.0882,31.50396 6.3882,30.36996 4.1958,28.10196 C2.2374,26.06436 1.2582,23.47236 1.2582,20.32596 L1.2582,1.10916 L5.7618,1.10916 Z" id="Fill-28" fill="#FFFFFF" mask="url(#mask-4)"></path>
                </g>
            </g>
        </g>
    </g>
</svg>