<?xml version="1.0" encoding="UTF-8"?>
<svg width="541px" height="162px" viewBox="0 0 541 162" version="1.1" xmlns="http://www.w3.org/2000/svg" xmlns:xlink="http://www.w3.org/1999/xlink">
    <!-- Generator: Sketch 44 (41411) - http://www.bohemiancoding.com/sketch -->
    <title>wortpaare/echt-punktgenau-pos</title>
    <desc>Created with Sketch.</desc>
    <defs></defs>
    <g id="Page-1" stroke="none" stroke-width="1" fill="none" fill-rule="evenodd">
        <g id="Wortpaare" transform="translate(-198.000000, -214.000000)">
            <g id="wortpaare/echt-punktgenau/pos" transform="translate(198.000000, 212.000000)">
                <g id="Group">
                    <path d="M46.87852,118.83272 L46.87852,118.62192 C46.87852,109.24472 40.54772,103.02272 33.07452,103.02272 C25.58772,103.02272 19.37252,109.24472 19.37252,118.62192 L19.37252,118.83272 C19.37252,128.20992 25.58772,134.43192 33.07452,134.43192 C40.54772,134.43192 46.87852,128.31872 46.87852,118.83272 L46.87852,118.83272 Z M3.55572,90.47672 L19.58332,90.47672 L19.58332,98.58912 C23.47972,93.32592 28.85172,89.42952 37.18172,89.42952 C50.35332,89.42952 62.89252,99.75192 62.89252,118.62192 L62.89252,118.83272 C62.89252,137.68912 50.56412,148.02512 37.18172,148.02512 C28.64092,148.02512 23.37092,144.12192 19.58332,139.59312 L19.58332,163.82832 L3.55572,163.82832 L3.55572,90.47672 Z" id="Fill-24" fill="#DB071A"></path>
                    <path d="M40.36412,27.56108 C39.40532,20.29868 35.13492,15.38908 28.30772,15.38908 C21.57572,15.38908 17.19652,20.18988 15.91812,27.56108 L40.36412,27.56108 Z M-0.000680000008,32.36868 L-0.000680000008,32.15108 C-0.000680000008,15.81068 11.64092,2.36028 28.30772,2.36028 C47.41572,2.36028 56.16732,17.20468 56.16732,33.43628 C56.16732,34.71468 56.06532,36.21068 55.95652,37.70668 L16.12892,37.70668 C17.73372,45.07788 22.85412,48.91308 30.10972,48.91308 C35.56332,48.91308 39.51412,47.20628 43.99532,43.04468 L53.28412,51.26588 C47.94612,57.88228 40.25532,61.94188 29.90572,61.94188 C12.70852,61.94188 -0.000680000008,49.87868 -0.000680000008,32.36868 L-0.000680000008,32.36868 Z" id="Fill-25" fill="#DB071A"></path>
                    <path d="M106.04668,7.27056 L106.04668,17.34816 C101.13028,13.23416 96.03708,11.18056 90.78068,11.18056 C84.98708,11.18056 80.10468,13.26136 76.13348,17.42296 C72.14188,21.56416 70.14268,26.63016 70.14268,32.62096 C70.14268,38.53696 72.14188,43.52816 76.13348,47.59456 C80.12508,51.66096 85.02108,53.69416 90.81468,53.69416 C93.81348,53.69416 96.35668,53.20456 98.45108,52.23216 C99.62068,51.74256 100.83108,51.08296 102.08228,50.26016 C103.34028,49.43056 104.65948,48.43096 106.04668,47.26136 L106.04668,57.52936 C101.17788,60.27656 96.06428,61.65696 90.70588,61.65696 C82.64788,61.65696 75.76628,58.84176 70.06788,53.21816 C64.39668,47.54016 61.56108,40.70616 61.56108,32.68896 C61.56108,25.50816 63.93428,19.10256 68.68068,13.47896 C74.52868,6.59056 82.09028,3.14296 91.36548,3.14296 C96.42468,3.14296 101.32068,4.51656 106.04668,7.27056" id="Fill-26" fill="#4B4A4A"></path>
                    <polygon id="Fill-27" fill="#4B4A4A" points="126.86488 26.299 151.18848 26.299 151.18848 4.2398 159.70208 4.2398 159.70208 60.6322 151.18848 60.6322 151.18848 34.2958 126.86488 34.2958 126.86488 60.6322 118.35808 60.6322 118.35808 4.2398 126.86488 4.2398"></polygon>
                    <polygon id="Fill-28" fill="#4B4A4A" points="188.77208 12.23728 188.77208 60.63288 180.26528 60.63288 180.26528 12.23728 167.29768 12.23728 167.29768 4.24048 201.69888 4.24048 201.69888 12.23728"></polygon>
                    <path d="M79.88572,91.12816 L79.88572,125.08736 C79.88572,129.93576 80.67452,133.48536 82.25892,135.72256 C84.61852,138.95256 87.94372,140.57096 92.22772,140.57096 C96.53892,140.57096 99.87772,138.95256 102.23732,135.72256 C103.82172,133.54656 104.61052,130.01056 104.61052,125.08736 L104.61052,91.12816 L113.12412,91.12816 L113.12412,127.42656 C113.12412,133.36976 111.27452,138.26576 107.56852,142.11456 C103.40692,146.39856 98.29332,148.54056 92.22772,148.54056 C86.16892,148.54056 81.06892,146.39856 76.92772,142.11456 C73.22852,138.26576 71.37892,133.36976 71.37892,127.42656 L71.37892,91.12816 L79.88572,91.12816 Z" id="Fill-29" fill="#4B4A4A"></path>
                    <polygon id="Fill-30" fill="#4B4A4A" points="126.63572 147.52056 126.63572 87.29296 167.76212 130.31656 167.76212 91.12816 176.26892 91.12816 176.26892 150.94776 135.14252 108.03296 135.14252 147.52056"></polygon>
                    <polygon id="Fill-31" fill="#4B4A4A" points="198.2948 113.62664 220.2452 91.12544 231.6012 91.12544 206.108 116.65264 231.7508 147.51784 220.354 147.51784 200.0492 122.42584 198.2948 124.18024 198.2948 147.51784 189.788 147.51784 189.788 91.12544 198.2948 91.12544"></polygon>
                    <polygon id="Fill-32" fill="#4B4A4A" points="257.97364 99.1236 257.97364 147.5192 249.46684 147.5192 249.46684 99.1236 236.49924 99.1236 236.49924 91.1268 270.90044 91.1268 270.90044 99.1236"></polygon>
                    <path d="M305.63688,118.15544 L328.94048,118.15544 L328.94048,120.01184 C328.94048,124.24824 328.44408,127.99504 327.44448,131.26584 C326.46528,134.27824 324.82648,137.10704 322.50768,139.73864 C317.27168,145.63424 310.61448,148.57864 302.52928,148.57864 C294.64128,148.57864 287.88888,145.72944 282.25848,140.03104 C276.63488,134.30544 273.82648,127.43744 273.82648,119.42704 C273.82648,111.24664 276.68928,104.31064 282.40808,98.61224 C288.12688,92.89344 295.09688,90.02384 303.29768,90.02384 C307.70408,90.02384 311.82488,90.92824 315.64648,92.73704 C319.29808,94.53224 322.88848,97.45624 326.41768,101.50224 L320.35888,107.30264 C315.72808,101.14184 310.09088,98.06144 303.44728,98.06144 C297.47688,98.06144 292.47208,100.12184 288.43288,104.23584 C284.39368,108.27504 282.37408,113.34784 282.37408,119.42704 C282.37408,125.71024 284.62488,130.88504 289.12648,134.95824 C293.34248,138.72544 297.90528,140.61584 302.82168,140.61584 C307.01048,140.61584 310.77088,139.20824 314.10968,136.37944 C317.44848,133.53024 319.31168,130.12344 319.69928,126.15224 L305.63688,126.15224 L305.63688,118.15544 Z" id="Fill-33" fill="#4B4A4A"></path>
                    <polygon id="Fill-34" fill="#4B4A4A" points="370.75844 99.1236 348.14844 99.1236 348.14844 112.6692 370.09884 112.6692 370.09884 120.6728 348.14844 120.6728 348.14844 139.5156 370.75844 139.5156 370.75844 147.5192 339.64164 147.5192 339.64164 91.1268 370.75844 91.1268"></polygon>
                    <polygon id="Fill-35" fill="#4B4A4A" points="381.93424 147.52056 381.93424 87.29296 423.06064 130.31656 423.06064 91.12816 431.56744 91.12816 431.56744 150.94776 390.44104 108.03296 390.44104 147.52056"></polygon>
                    <path d="M475.17924,125.81904 L466.81524,106.64984 L458.05004,125.81904 L475.17924,125.81904 Z M478.64724,133.82264 L454.50724,133.82264 L448.22404,147.51784 L439.05764,147.51784 L466.96484,87.58264 L493.87924,147.51784 L484.56324,147.51784 L478.64724,133.82264 Z" id="Fill-36" fill="#4B4A4A"></path>
                    <path d="M507.28272,91.12816 L507.28272,125.08736 C507.28272,129.93576 508.07152,133.48536 509.65592,135.72256 C512.01552,138.95256 515.34072,140.57096 519.62472,140.57096 C523.93592,140.57096 527.27472,138.95256 529.63432,135.72256 C531.21872,133.54656 532.00752,130.01056 532.00752,125.08736 L532.00752,91.12816 L540.52112,91.12816 L540.52112,127.42656 C540.52112,133.36976 538.67152,138.26576 534.96552,142.11456 C530.80392,146.39856 525.69032,148.54056 519.62472,148.54056 C513.56592,148.54056 508.46592,146.39856 504.32472,142.11456 C500.62552,138.26576 498.77592,133.36976 498.77592,127.42656 L498.77592,91.12816 L507.28272,91.12816 Z" id="Fill-37" fill="#4B4A4A"></path>
                </g>
            </g>
        </g>
    </g>
</svg>