<?xml version="1.0" encoding="UTF-8"?>
<svg width="700px" height="245px" viewBox="0 0 700 245" version="1.1" xmlns="http://www.w3.org/2000/svg" xmlns:xlink="http://www.w3.org/1999/xlink">
    <!-- Generator: Sketch 43.2 (39069) - http://www.bohemiancoding.com/sketch -->
    <title>wortpaare/effektiv-pulsierend-neg</title>
    <desc>Created with Sketch.</desc>
    <defs>
        <polygon id="path-1" points="0.62452381 112.862637 90.4911905 112.862637 90.4911905 0.343021801 0.62452381 0.343021801"></polygon>
        <polygon id="path-3" points="42.5329762 0.689461342 0 0.689461342 0 90.792549 85.0659524 90.792549 85.0659524 0.689461342 42.5329762 0.689461342"></polygon>
        <polygon id="path-5" points="0 245.310539 699.802381 245.310539 699.802381 1.12235086 0 1.12235086"></polygon>
    </defs>
    <g id="Page-1" stroke="none" stroke-width="1" fill="none" fill-rule="evenodd">
        <g id="Desktop-Intro-Leistungen" transform="translate(-370.000000, -355.000000)">
            <g id="wortpaare/effektiv-pulsierend/neg" transform="translate(370.000000, 354.000000)">
                <g id="Page-1">
                    <g id="Group-3" transform="translate(4.761905, 132.447901)">
                        <mask id="mask-2" fill="white">
                            <use xlink:href="#path-1"></use>
                        </mask>
                        <g id="Clip-2"></g>
                        <path d="M66.2340476,44.806146 L66.2340476,44.4899448 C66.2340476,30.3060608 56.6530952,20.8984796 45.3245238,20.8984796 C33.9864286,20.8984796 24.5721429,30.3060608 24.5721429,44.4899448 L24.5721429,44.806146 C24.5721429,58.9947849 33.9864286,68.3952337 45.3245238,68.3952337 C56.6530952,68.3952337 66.2340476,59.1516968 66.2340476,44.806146 L66.2340476,44.806146 Z M0.62452381,1.93353779 L24.8935714,1.93353779 L24.8935714,14.2035722 C30.7911905,6.239105 38.9388095,0.343021801 51.5459524,0.343021801 C71.4959524,0.343021801 90.4911905,15.9605099 90.4911905,44.4899448 L90.4911905,44.806146 C90.4911905,73.3355809 71.8197619,88.9554464 51.5459524,88.9554464 C38.615,88.9554464 30.6364286,83.0569858 24.8935714,76.207544 L24.8935714,112.863113 L0.62452381,112.863113 L0.62452381,1.93353779 Z" id="Fill-1" fill="#FFFFFF" mask="url(#mask-2)"></path>
                    </g>
                    <g id="Group-6" transform="translate(0.000000, 0.432890)">
                        <mask id="mask-4" fill="white">
                            <use xlink:href="#path-3"></use>
                        </mask>
                        <g id="Clip-5"></g>
                        <path d="M61.1302381,38.7976539 C59.6754762,27.8138215 53.2159524,20.3914136 42.8659524,20.3914136 C32.6730952,20.3914136 26.0445238,27.6521547 24.1040476,38.7976539 L61.1302381,38.7976539 Z M-0.000714285714,46.06315 L-0.000714285714,45.737439 C-0.000714285714,21.0309484 17.632619,0.689461342 42.8659524,0.689461342 C71.8064286,0.689461342 85.0659524,23.1326168 85.0659524,47.679818 C85.0659524,49.6150647 84.9088095,51.8783998 84.7492857,54.1369801 L24.4207143,54.1369801 C26.8540476,65.2824793 34.6135714,71.0905967 45.6040476,71.0905967 C53.8588095,71.0905967 59.8445238,68.5063054 66.632619,62.2131876 L80.7016667,74.6425114 C72.6183333,84.656343 60.9730952,90.792549 45.2897619,90.792549 C19.2445238,90.792549 -0.000714285714,72.5479754 -0.000714285714,46.06315 L-0.000714285714,46.06315 Z" id="Fill-4" fill="#FFFFFF" mask="url(#mask-4)"></path>
                    </g>
                    <polygon id="Fill-7" fill="#FFFFFF" points="140.13881 16.0551326 110.379286 16.0551326 110.379286 36.5463991 139.08881 36.5463991 139.08881 48.6428795 110.379286 48.6428795 110.379286 89.2402653 97.4911905 89.2402653 97.4911905 3.95865218 140.13881 3.95865218"></polygon>
                    <polygon id="Fill-9" fill="#FFFFFF" points="197.722381 16.0551326 167.962857 16.0551326 167.962857 36.5463991 196.672381 36.5463991 196.672381 48.6428795 167.962857 48.6428795 167.962857 89.2402653 155.074762 89.2402653 155.074762 3.95865218 197.722381 3.95865218"></polygon>
                    <polygon id="Fill-11" fill="#FFFFFF" points="259.785238 16.0551326 225.544762 16.0551326 225.544762 36.5463991 258.79 36.5463991 258.79 48.6428795 225.544762 48.6428795 225.544762 77.1437849 259.785238 77.1437849 259.785238 89.2402653 212.656667 89.2402653 212.656667 3.95865218 259.785238 3.95865218"></polygon>
                    <polygon id="Fill-13" fill="#FFFFFF" points="289.599286 37.9826184 322.842143 3.95888992 340.046905 3.95888992 301.437381 42.5663476 340.268333 89.2405031 323.00881 89.2405031 292.254048 51.2939772 289.599286 53.9448372 289.599286 89.2405031 276.71119 89.2405031 276.71119 3.95888992 289.599286 3.95888992"></polygon>
                    <polygon id="Fill-15" fill="#FFFFFF" points="379.984762 16.0551326 379.984762 89.2402653 367.096667 89.2402653 367.096667 16.0551326 347.458571 16.0551326 347.458571 3.95865218 399.565714 3.95865218 399.565714 16.0551326"></polygon>
                    <mask id="mask-6" fill="white">
                        <use xlink:href="#path-5"></use>
                    </mask>
                    <g id="Clip-18"></g>
                    <polygon id="Fill-17" fill="#FFFFFF" mask="url(#mask-6)" points="411.069048 89.2402653 423.957143 89.2402653 423.957143 3.95865218 411.069048 3.95865218"></polygon>
                    <polygon id="Fill-19" fill="#FFFFFF" mask="url(#mask-6)" points="448.795238 3.95888992 472.414286 63.0576142 496.364286 3.95888992 510.471429 3.95888992 472.138095 95.6453612 434.690476 3.95888992"></polygon>
                    <path d="M120.99,135.355006 L120.99,186.719876 C120.99,194.047186 122.187619,199.403587 124.585238,202.793835 C128.161429,207.689011 133.194762,210.140165 139.687619,210.140165 C146.21381,210.140165 151.26619,207.689011 154.842381,202.793835 C157.242381,199.515328 158.44,194.156549 158.44,186.719876 L158.44,135.355006 L171.328095,135.355006 L171.328095,190.257526 C171.328095,199.239543 168.525714,206.640554 162.918571,212.460559 C156.611429,218.943873 148.868571,222.181964 139.687619,222.181964 C130.504286,222.181964 122.780476,218.943873 116.509048,212.460559 C110.901905,206.640554 108.101905,199.239543 108.101905,190.257526 L108.101905,135.355006 L120.99,135.355006 Z" id="Fill-20" fill="#FFFFFF" mask="url(#mask-6)"></path>
                    <polygon id="Fill-21" fill="#FFFFFF" mask="url(#mask-6)" points="204.681429 135.355006 204.681429 208.537761 229.793333 208.537761 229.793333 220.634242 191.793333 220.634242 191.793333 135.355006"></polygon>
                    <path d="M290.640952,148.058212 L280.18619,154.244345 C278.229048,150.854097 276.369524,148.645443 274.600476,147.616006 C272.752857,146.43679 270.374286,145.849559 267.464762,145.849559 C263.888571,145.849559 260.917143,146.862354 258.557619,148.887943 C256.200476,150.875494 255.017143,153.381329 255.017143,156.398317 C255.017143,160.561237 258.114762,163.908691 264.31,166.450188 L272.829048,169.930779 C279.764762,172.726664 284.83381,176.145441 288.040952,180.172846 C291.248095,184.212139 292.852857,189.152486 292.852857,195.005775 C292.852857,202.848992 290.23381,209.332306 284.998095,214.448585 C279.724286,219.60528 273.181429,222.182439 265.362381,222.182439 C257.950476,222.182439 251.829048,219.992805 246.995714,215.608782 C242.238571,211.224759 239.271905,205.060023 238.090952,197.105066 L251.145714,194.233103 C251.73381,199.240019 252.769524,202.703967 254.243333,204.617817 C256.898095,208.298114 260.771905,210.14064 265.86,210.14064 C269.876667,210.14064 273.217143,208.795002 275.871905,206.10848 C278.526667,203.421958 279.855238,200.012691 279.855238,195.890187 C279.855238,194.233103 279.624286,192.716288 279.164762,191.330233 C278.702857,189.956065 277.98381,188.679373 277.002857,187.526308 C276.026667,186.358979 274.764762,185.27486 273.217143,184.262065 C271.667143,183.251648 269.821905,182.284024 267.68381,181.36395 L259.443333,177.938041 C247.750476,173.002448 241.907619,165.789256 241.907619,156.286577 C241.907619,149.881719 244.362381,144.52294 249.264762,140.214995 C254.167143,135.871389 260.271905,133.696019 267.574286,133.696019 C277.419524,133.696019 285.11,138.481832 290.640952,148.058212" id="Fill-22" fill="#FFFFFF" mask="url(#mask-6)"></path>
                    <polygon id="Fill-23" fill="#FFFFFF" mask="url(#mask-6)" points="308.397619 220.634955 321.285714 220.634955 321.285714 135.355719 308.397619 135.355719"></polygon>
                    <polygon id="Fill-24" fill="#FFFFFF" mask="url(#mask-6)" points="388.934286 147.45006 354.69381 147.45006 354.69381 167.941327 387.939048 167.941327 387.939048 180.037807 354.69381 180.037807 354.69381 208.538712 388.934286 208.538712 388.934286 220.635193 341.808095 220.635193 341.808095 135.355957 388.934286 135.355957"></polygon>
                    <path d="M418.749762,174.514508 L422.842619,174.514508 C435.047381,174.514508 441.152143,169.854701 441.152143,160.542218 C441.152143,151.814588 435.214048,147.449584 423.340238,147.449584 L418.749762,147.449584 L418.749762,174.514508 Z M434.790238,184.290595 L461.230714,220.634717 L445.466429,220.634717 L421.073571,185.726576 L418.749762,185.726576 L418.749762,220.634717 L405.861667,220.634717 L405.861667,135.355482 L420.961667,135.355482 C432.247381,135.355482 440.397381,137.473792 445.411667,141.705658 C450.942619,146.422525 453.709286,152.641942 453.709286,160.375796 C453.709286,166.416904 451.973571,171.606883 448.509286,175.95049 C445.045,180.294096 440.46881,183.075716 434.790238,184.290595 L434.790238,184.290595 Z" id="Fill-25" fill="#FFFFFF" mask="url(#mask-6)"></path>
                    <polygon id="Fill-26" fill="#FFFFFF" mask="url(#mask-6)" points="521.19119 147.45006 486.953095 147.45006 486.953095 167.941327 520.195952 167.941327 520.195952 180.037807 486.953095 180.037807 486.953095 208.538712 521.19119 208.538712 521.19119 220.635193 474.065 220.635193 474.065 135.355957 521.19119 135.355957"></polygon>
                    <polygon id="Fill-27" fill="#FFFFFF" mask="url(#mask-6)" points="538.118333 220.634479 538.118333 129.554259 600.401667 194.62039 600.401667 135.355244 613.289762 135.355244 613.289762 225.826837 551.006429 160.927127 551.006429 220.634479"></polygon>
                    <path d="M646.646905,208.538237 L652.454048,208.538237 C658.242143,208.538237 663.056429,207.931986 666.892143,206.71473 C670.727857,205.426151 674.192143,203.381541 677.289762,200.585657 C683.630238,194.806069 686.804048,187.274298 686.804048,177.995099 C686.804048,168.639822 683.673095,161.058125 677.401667,155.23812 C671.75881,150.045763 663.442143,147.449584 652.454048,147.449584 L646.646905,147.449584 L646.646905,208.538237 Z M633.75881,220.634717 L633.75881,135.355482 L651.680238,135.355482 C660.275476,135.355482 667.056429,136.204232 672.035,137.894601 C677.380238,139.551686 682.232619,142.368968 686.582619,146.346446 C695.399286,154.375105 699.804048,164.923863 699.804048,177.995099 C699.804048,191.104375 695.21119,201.710192 686.030238,209.810174 C681.418333,213.861354 676.592143,216.678636 671.537381,218.259642 C666.815952,219.840648 660.123095,220.634717 651.45881,220.634717 L633.75881,220.634717 Z" id="Fill-28" fill="#FFFFFF" mask="url(#mask-6)"></path>
                </g>
            </g>
        </g>
    </g>
</svg>