<?xml version="1.0" encoding="UTF-8"?>
<svg width="463px" height="163px" viewBox="0 0 463 163" version="1.1" xmlns="http://www.w3.org/2000/svg" xmlns:xlink="http://www.w3.org/1999/xlink">
    <!-- Generator: Sketch 43.2 (39069) - http://www.bohemiancoding.com/sketch -->
    <title>wortpaare/effektiv-pulsierend-pos</title>
    <desc>Created with Sketch.</desc>
    <defs>
        <polygon id="path-1" points="0 1.72788 0 61.30948 56.16732 61.30948 56.16732 1.72788 1.38235777e-19 1.72788"></polygon>
        <polygon id="path-3" points="0 168.27076 462.0668 168.27076 462.0668 6.79796 0 6.79796"></polygon>
    </defs>
    <g id="Page-1" stroke="none" stroke-width="1" fill="none" fill-rule="evenodd">
        <g id="Desktop-2-Leistungen" transform="translate(-231.000000, -203.000000)">
            <g id="wortpaare/effektiv-pulsierend/pos" transform="translate(231.000000, 197.000000)">
                <g id="Page-1">
                    <path d="M46.87852,123.26836 L46.87852,123.05756 C46.87852,113.68036 40.54772,107.45836 33.07452,107.45836 C25.58772,107.45836 19.37252,113.68036 19.37252,123.05756 L19.37252,123.26836 C19.37252,132.65236 25.58772,138.86756 33.07452,138.86756 C40.54772,138.86756 46.87852,132.75436 46.87852,123.26836 Z M3.55572,94.91916 L19.58332,94.91916 L19.58332,103.03156 C23.47972,97.76836 28.85172,93.86516 37.18172,93.86516 C50.35332,93.86516 62.89252,104.19436 62.89252,123.05756 L62.89252,123.26836 C62.89252,142.13156 50.56412,152.46076 37.18172,152.46076 C28.64092,152.46076 23.37092,148.56436 19.58332,144.02876 L19.58332,168.27076 L3.55572,168.27076 L3.55572,94.91916 Z" id="Fill-1" fill="#DB071A"></path>
                    <g id="Group-5" transform="translate(0.000000, 5.070760)">
                        <mask id="mask-2" fill="white">
                            <use xlink:href="#path-1"></use>
                        </mask>
                        <g id="Clip-4"></g>
                        <path d="M40.36412,26.92868 C39.40532,19.66628 35.13492,14.75668 28.30772,14.75668 C21.57572,14.75668 17.19652,19.55748 15.91812,26.92868 L40.36412,26.92868 Z M-0.00068,31.73628 L-0.00068,31.51868 C-0.00068,15.17828 11.64092,1.72788 28.30772,1.72788 C47.41572,1.72788 56.16732,16.57228 56.16732,32.80388 C56.16732,34.08228 56.06532,35.57828 55.95652,37.07428 L16.12892,37.07428 C17.73372,44.43868 22.85412,48.28068 30.11652,48.28068 C35.56332,48.28068 39.51412,46.57388 43.99532,42.41228 L53.28412,50.62668 C47.94612,57.24988 40.25532,61.30948 29.90572,61.30948 C12.70852,61.30948 -0.00068,49.24628 -0.00068,31.73628 L-0.00068,31.73628 Z" id="Fill-3" fill="#DB071A" mask="url(#mask-2)"></path>
                    </g>
                    <polygon id="Fill-6" fill="#4B4A4A" points="92.53236 16.66952 72.88036 16.66952 72.88036 30.22192 91.83876 30.22192 91.83876 38.22552 72.88036 38.22552 72.88036 65.06512 64.37356 65.06512 64.37356 8.67272 92.53236 8.67272"></polygon>
                    <polygon id="Fill-8" fill="#4B4A4A" points="130.5566 16.66952 110.9046 16.66952 110.9046 30.22192 129.8562 30.22192 129.8562 38.22552 110.9046 38.22552 110.9046 65.06512 102.391 65.06512 102.391 8.67272 130.5566 8.67272"></polygon>
                    <polygon id="Fill-10" fill="#4B4A4A" points="171.53612 16.66952 148.92612 16.66952 148.92612 30.22192 170.87652 30.22192 170.87652 38.22552 148.92612 38.22552 148.92612 57.06832 171.53612 57.06832 171.53612 65.06512 140.41932 65.06512 140.41932 8.67272 171.53612 8.67272"></polygon>
                    <polygon id="Fill-12" fill="#4B4A4A" points="191.21872 31.17324 213.17592 8.67204 224.52512 8.67204 199.03192 34.19924 224.67472 65.06444 213.27792 65.06444 192.97312 39.97924 191.21872 41.73364 191.21872 65.06444 182.71192 65.06444 182.71192 8.67204 191.21872 8.67204"></polygon>
                    <polygon id="Fill-14" fill="#4B4A4A" points="250.89824 16.66952 250.89824 65.06512 242.39144 65.06512 242.39144 16.66952 229.42384 16.66952 229.42384 8.67272 263.82504 8.67272 263.82504 16.66952"></polygon>
                    <mask id="mask-4" fill="white">
                        <use xlink:href="#path-3"></use>
                    </mask>
                    <g id="Clip-17"></g>
                    <polygon id="Fill-16" fill="#4B4A4A" mask="url(#mask-4)" points="271.422 65.06716 279.9356 65.06716 279.9356 8.67476 271.422 8.67476"></polygon>
                    <polygon id="Fill-18" fill="#4B4A4A" mask="url(#mask-4)" points="296.33312 8.67476 311.93232 47.75436 327.74232 8.67476 337.05832 8.67476 311.74872 69.30356 287.02392 8.67476"></polygon>
                    <path d="M79.88912,95.5604 L79.88912,129.5264 C79.88912,134.368 80.67792,137.9176 82.26232,140.1616 C84.62192,143.3916 87.94712,145.01 92.23112,145.01 C96.54232,145.01 99.87432,143.3916 102.24072,140.1616 C103.82512,137.9856 104.61392,134.4496 104.61392,129.5264 L104.61392,95.5604 L113.12752,95.5604 L113.12752,131.8656 C113.12752,137.8088 111.27112,142.698 107.57192,146.5468 C103.41032,150.8376 98.29672,152.9728 92.23112,152.9728 C86.17232,152.9728 81.07232,150.8376 76.92432,146.5468 C73.23192,142.698 71.37552,137.8088 71.37552,131.8656 L71.37552,95.5604 L79.88912,95.5604 Z" id="Fill-19" fill="#4B4A4A" mask="url(#mask-4)"></path>
                    <polygon id="Fill-20" fill="#4B4A4A" mask="url(#mask-4)" points="135.14524 95.5604 135.14524 143.956 151.72364 143.956 151.72364 151.9528 126.63844 151.9528 126.63844 95.5604"></polygon>
                    <path d="M191.9028,103.96112 L185.0008,108.05472 C183.7088,105.81072 182.478,104.35552 181.3084,103.66872 C180.098,102.89352 178.5204,102.49912 176.6028,102.49912 C174.2364,102.49912 172.278,103.17232 170.7208,104.51192 C169.1636,105.82432 168.3816,107.48352 168.3816,109.48272 C168.3816,112.22992 170.4284,114.44672 174.5152,116.11952 L180.1456,118.42472 C184.722,120.27432 188.0744,122.53192 190.1892,125.19752 C192.3108,127.86992 193.3648,131.13392 193.3648,135.00312 C193.3648,140.19152 191.6376,144.47552 188.1764,147.86192 C184.6948,151.27552 180.3768,152.97552 175.2156,152.97552 C170.3196,152.97552 166.2736,151.52712 163.0912,148.63032 C159.9496,145.73352 157.9912,141.65352 157.2024,136.39712 L165.8248,134.49312 C166.2192,137.81152 166.8992,140.08952 167.8716,141.36112 C169.626,143.79552 172.1828,145.01272 175.542,145.01272 C178.194,145.01272 180.404,144.12192 182.1516,142.35392 C183.906,140.57232 184.7832,138.31472 184.7832,135.58792 C184.7832,134.49312 184.6336,133.49352 184.3276,132.57552 C184.0216,131.66432 183.5456,130.82112 182.8996,130.05952 C182.2536,129.29112 181.424,128.57032 180.404,127.90392 C179.3772,127.23752 178.16,126.59152 176.7456,125.98632 L171.3056,123.71512 C163.5876,120.45792 159.732,115.68432 159.732,109.40112 C159.732,105.16472 161.3504,101.62192 164.5804,98.77272 C167.824,95.90312 171.8564,94.46832 176.6776,94.46832 C183.1784,94.46832 188.2512,97.63032 191.9028,103.96112" id="Fill-21" fill="#4B4A4A" mask="url(#mask-4)"></path>
                    <polygon id="Fill-22" fill="#4B4A4A" mask="url(#mask-4)" points="203.6328 151.95076 212.1396 151.95076 212.1396 95.55836 203.6328 95.55836"></polygon>
                    <polygon id="Fill-23" fill="#4B4A4A" mask="url(#mask-4)" points="256.80812 103.55584 234.19812 103.55584 234.19812 117.10824 256.14852 117.10824 256.14852 125.11184 234.19812 125.11184 234.19812 143.95464 256.80812 143.95464 256.80812 151.95144 225.69132 151.95144 225.69132 95.55904 256.80812 95.55904"></polygon>
                    <path d="M276.4914,121.45888 L279.191,121.45888 C287.2558,121.45888 291.2882,118.37848 291.2882,112.21768 C291.2882,106.44448 287.3646,103.55448 279.5242,103.55448 L276.4914,103.55448 L276.4914,121.45888 Z M287.0858,127.91888 L304.5414,151.95008 L294.1374,151.95008 L278.0282,128.87088 L276.4914,128.87088 L276.4914,151.95008 L267.9846,151.95008 L267.9846,95.55768 L277.9534,95.55768 C285.4062,95.55768 290.7918,96.95848 294.0966,99.76008 C297.7482,102.88128 299.5774,106.99528 299.5774,112.10888 C299.5774,116.10048 298.435,119.53448 296.1434,122.40408 C293.8586,125.28048 290.8326,127.11648 287.0858,127.91888 L287.0858,127.91888 Z" id="Fill-24" fill="#4B4A4A" mask="url(#mask-4)"></path>
                    <polygon id="Fill-25" fill="#4B4A4A" mask="url(#mask-4)" points="344.13236 103.55584 321.52916 103.55584 321.52916 117.10824 343.47276 117.10824 343.47276 125.11184 321.52916 125.11184 321.52916 143.95464 344.13236 143.95464 344.13236 151.95144 313.01556 151.95144 313.01556 95.55904 344.13236 95.55904"></polygon>
                    <polygon id="Fill-26" fill="#4B4A4A" mask="url(#mask-4)" points="355.30884 151.9528 355.30884 91.7252 396.43524 134.7556 396.43524 95.5604 404.94884 95.5604 404.94884 155.3868 363.82244 112.4652 363.82244 151.9528"></polygon>
                    <path d="M426.96792,143.95736 L430.80312,143.95736 C434.62472,143.95736 437.80712,143.54936 440.33672,142.74696 C442.87312,141.89696 445.15792,140.54376 447.20472,138.70096 C451.39352,134.87256 453.48112,129.89496 453.48112,123.75456 C453.48112,117.56656 451.42072,112.56176 447.27272,108.70616 C443.54632,105.27896 438.05872,103.55856 430.80312,103.55856 L426.96792,103.55856 L426.96792,143.95736 Z M418.46112,151.95416 L418.46112,95.56176 L430.29312,95.56176 C435.96432,95.56176 440.44552,96.11936 443.73672,97.24136 C447.25912,98.33616 450.46872,100.19256 453.33832,102.82416 C459.15912,108.13496 462.06952,115.11176 462.06952,123.75456 C462.06952,132.43136 459.03672,139.44216 452.97112,144.79376 C449.93152,147.47976 446.74232,149.33616 443.40352,150.38336 C440.28912,151.43056 435.86912,151.95416 430.15032,151.95416 L418.46112,151.95416 Z" id="Fill-27" fill="#4B4A4A" mask="url(#mask-4)"></path>
                </g>
            </g>
        </g>
    </g>
</svg>