<?xml version="1.0" encoding="UTF-8"?>
<svg width="537px" height="164px" viewBox="0 0 537 164" version="1.1" xmlns="http://www.w3.org/2000/svg" xmlns:xlink="http://www.w3.org/1999/xlink">
    <!-- Generator: Sketch 49.3 (51167) - http://www.bohemiancoding.com/sketch -->
    <title>wortpaare/eigenartig-publizistisch-pos</title>
    <desc>Created with Sketch.</desc>
    <defs>
        <polygon id="path-1" points="0 1.72788 56.16596 1.72788 56.16596 61.30948 0 61.30948"></polygon>
        <polygon id="path-3" points="0 163.4312 536.6492 163.4312 536.6492 0 0 0"></polygon>
    </defs>
    <g id="Page-1" stroke="none" stroke-width="1" fill="none" fill-rule="evenodd">
        <g id="Wortpaare-Copy" transform="translate(-4194.000000, -1954.000000)">
            <g id="wortpaare/eigenartig-publizistisch-pos" transform="translate(4194.000000, 1954.000000)">
                <path d="M46.87716,118.4288 L46.87716,118.218 C46.87716,108.8408 40.54636,102.6188 33.07316,102.6188 C25.58636,102.6188 19.36436,108.8408 19.36436,118.218 L19.36436,118.4288 C19.36436,127.8128 25.58636,134.028 33.07316,134.028 C40.54636,134.028 46.87716,127.9148 46.87716,118.4288 Z M3.55436,90.0796 L19.58196,90.0796 L19.58196,98.192 C23.47836,92.922 28.85716,89.0256 37.17356,89.0256 C50.35196,89.0256 62.89116,99.3548 62.89116,118.218 L62.89116,118.4288 C62.89116,137.292 50.56276,147.6212 37.17356,147.6212 C28.63956,147.6212 23.36956,143.7248 19.58196,139.196 L19.58196,163.4312 L3.55436,163.4312 L3.55436,90.0796 Z" id="Fill-1" fill="#DB081A"></path>
                <g id="Group-5" transform="translate(0.000000, 0.231200)">
                    <mask id="mask-2" fill="white">
                        <use xlink:href="#path-1"></use>
                    </mask>
                    <g id="Clip-4"></g>
                    <path d="M40.36276,26.92868 C39.39716,19.66628 35.13356,14.75668 28.30636,14.75668 C21.57436,14.75668 17.19516,19.55748 15.91676,26.92868 L40.36276,26.92868 Z M-0.00204,31.72948 L-0.00204,31.51868 C-0.00204,15.17828 11.63956,1.72788 28.30636,1.72788 C47.41436,1.72788 56.16596,16.57228 56.16596,32.79708 C56.16596,34.08228 56.06396,35.57828 55.96196,37.06748 L16.12756,37.06748 C17.73236,44.43868 22.85276,48.28748 30.10836,48.28748 C35.56196,48.28748 39.51276,46.57388 43.99396,42.41228 L53.28276,50.62668 C47.94476,57.24988 40.25396,61.30948 29.90436,61.30948 C12.70716,61.30948 -0.00204,49.24628 -0.00204,31.72948 Z" id="Fill-3" fill="#DB081A" mask="url(#mask-2)"></path>
                </g>
                <mask id="mask-4" fill="white">
                    <use xlink:href="#path-3"></use>
                </mask>
                <g id="Clip-7"></g>
                <polygon id="Fill-6" fill="#4B4A4A" mask="url(#mask-4)" points="64.3756 60.2276 72.8824 60.2276 72.8824 3.8352 64.3756 3.8352"></polygon>
                <path d="M115.43544,30.86588 L138.73904,30.86588 L138.73904,32.72228 C138.73904,36.95868 138.24264,40.71228 137.23624,43.97628 C136.26384,46.99548 134.61824,49.81748 132.30624,52.44908 C127.07024,58.34468 120.41304,61.28908 112.32784,61.28908 C104.43984,61.28908 97.68744,58.43988 92.05704,52.74148 C86.43344,47.02268 83.61824,40.15468 83.61824,32.13748 C83.61824,23.95708 86.48104,17.02108 92.20664,11.32268 C97.92544,5.60388 104.88864,2.74108 113.09624,2.74108 C117.50264,2.74108 121.61664,3.63868 125.44504,5.44748 C129.09664,7.24268 132.68704,10.16668 136.21624,14.21268 L130.15064,20.01308 C125.52664,13.85908 119.88944,10.77868 113.24584,10.77868 C107.27544,10.77868 102.27064,12.83908 98.23144,16.94628 C94.19224,20.99228 92.16584,26.05828 92.16584,32.13748 C92.16584,38.42068 94.41664,43.59548 98.92504,47.66868 C103.13424,51.43588 107.70384,53.32628 112.62024,53.32628 C116.80904,53.32628 120.56944,51.91868 123.90824,49.08988 C127.24024,46.24068 129.11024,42.83388 129.49104,38.86268 L115.43544,38.86268 L115.43544,30.86588 Z" id="Fill-8" fill="#4B4A4A" mask="url(#mask-4)"></path>
                <polygon id="Fill-9" fill="#4B4A4A" mask="url(#mask-4)" points="180.55292 11.83336 157.94972 11.83336 157.94972 25.38576 179.89332 25.38576 179.89332 33.38256 157.94972 33.38256 157.94972 52.22536 180.55292 52.22536 180.55292 60.22896 149.43612 60.22896 149.43612 3.83656 180.55292 3.83656"></polygon>
                <polygon id="Fill-10" fill="#4B4A4A" mask="url(#mask-4)" points="191.7294 60.23032 191.7294 0.00272 232.8558 43.02632 232.8558 3.83792 241.3694 3.83792 241.3694 63.66432 200.243 20.74272 200.243 60.23032"></polygon>
                <path d="M284.97712,38.5356 L276.61312,19.3596 L267.84112,38.5356 L284.97712,38.5356 Z M288.44512,46.5324 L264.30512,46.5324 L258.02192,60.2276 L248.85552,60.2276 L276.75592,0.2924 L303.67712,60.2276 L294.36112,60.2276 L288.44512,46.5324 Z" id="Fill-11" fill="#4B4A4A" mask="url(#mask-4)"></path>
                <path d="M319.2362,29.73028 L321.9358,29.73028 C329.9938,29.73028 334.0262,26.64988 334.0262,20.49588 C334.0262,14.72268 330.1094,11.83268 322.2622,11.83268 L319.2362,11.83268 L319.2362,29.73028 Z M329.8306,36.19708 L347.2862,60.22828 L336.8754,60.22828 L320.773,37.14908 L319.2362,37.14908 L319.2362,60.22828 L310.7226,60.22828 L310.7226,3.83588 L320.6982,3.83588 C328.151,3.83588 333.5298,5.23668 336.8414,8.03828 C340.493,11.15948 342.3222,15.26668 342.3222,20.38028 C342.3222,24.37868 341.173,27.81268 338.8882,30.68228 C336.5966,33.55188 333.5706,35.39468 329.8306,36.19708 Z" id="Fill-12" fill="#4B4A4A" mask="url(#mask-4)"></path>
                <polygon id="Fill-13" fill="#4B4A4A" mask="url(#mask-4)" points="370.6612 11.83336 370.6612 60.22896 362.1476 60.22896 362.1476 11.83336 349.1868 11.83336 349.1868 3.83656 383.588 3.83656 383.588 11.83336"></polygon>
                <polygon id="Fill-14" fill="#4B4A4A" mask="url(#mask-4)" points="391.1904 60.2276 399.6972 60.2276 399.6972 3.8352 391.1904 3.8352"></polygon>
                <path d="M442.24684,30.86588 L465.55044,30.86588 L465.55044,32.72228 C465.55044,36.95868 465.05404,40.71228 464.04764,43.97628 C463.07524,46.99548 461.42964,49.81748 459.11764,52.44908 C453.88164,58.34468 447.22444,61.28908 439.13924,61.28908 C431.25124,61.28908 424.49884,58.43988 418.86844,52.74148 C413.24484,47.02268 410.42964,40.15468 410.42964,32.13748 C410.42964,23.95708 413.29244,17.02108 419.01804,11.32268 C424.73684,5.60388 431.70004,2.74108 439.90764,2.74108 C444.31404,2.74108 448.42804,3.63868 452.25644,5.44748 C455.90804,7.24268 459.49844,10.16668 463.02764,14.21268 L456.96204,20.01308 C452.33804,13.85908 446.70084,10.77868 440.05724,10.77868 C434.08684,10.77868 429.08204,12.83908 425.04284,16.94628 C421.00364,20.99228 418.97724,26.05828 418.97724,32.13748 C418.97724,38.42068 421.22804,43.59548 425.73644,47.66868 C429.94564,51.43588 434.51524,53.32628 439.43164,53.32628 C443.62044,53.32628 447.38084,51.91868 450.71964,49.08988 C454.05164,46.24068 455.92164,42.83388 456.30244,38.86268 L442.24684,38.86268 L442.24684,30.86588 Z" id="Fill-15" fill="#4B4A4A" mask="url(#mask-4)"></path>
                <path d="M79.88776,90.72424 L79.88776,124.69024 C79.88776,129.53184 80.67656,133.08144 82.26096,135.31864 C84.62056,138.55544 87.94576,140.17384 92.22976,140.17384 C96.54096,140.17384 99.87296,138.55544 102.23936,135.31864 C103.82376,133.14944 104.61256,129.60664 104.61256,124.69024 L104.61256,90.72424 L113.12616,90.72424 L113.12616,127.02944 C113.12616,132.96584 111.26976,137.86184 107.57056,141.71064 C103.40896,145.99464 98.29536,148.13664 92.22976,148.13664 C86.17096,148.13664 81.07096,145.99464 76.92296,141.71064 C73.23056,137.86184 71.37416,132.96584 71.37416,127.02944 L71.37416,90.72424 L79.88776,90.72424 Z" id="Fill-16" fill="#4B4A4A" mask="url(#mask-4)"></path>
                <path d="M135.14456,139.1144 L140.40096,139.1144 C144.25656,139.1144 147.07856,138.3664 148.88056,136.85 C150.77776,135.2248 151.72296,133.1508 151.72296,130.6416 C151.72296,128.2072 150.81856,126.1672 148.98936,124.508 C147.20776,122.876 144.03896,122.06 139.45576,122.06 L135.14456,122.06 L135.14456,139.1144 Z M135.14456,114.9336 L137.81696,114.9336 C140.97216,114.9336 143.29776,114.24 144.76656,112.8392 C146.24216,111.4384 146.97656,109.3712 146.97656,106.6512 C146.97656,103.9924 146.22856,101.9796 144.71216,100.606 C143.20936,99.2256 141.01296,98.5388 138.13656,98.5388 L135.14456,98.5388 L135.14456,114.9336 Z M126.63776,147.118 L126.63776,90.7256 L135.11056,90.7256 C138.88456,90.7256 141.89016,91.018 144.12736,91.6028 C146.39176,92.1876 148.30936,93.1668 149.86656,94.554 C151.44416,95.9956 152.70216,97.784 153.62696,99.926 C154.57216,102.0952 155.05496,104.2848 155.05496,106.5016 C155.05496,110.5408 153.50456,113.968 150.41056,116.7628 C153.40936,117.7828 155.76896,119.578 157.49616,122.1348 C159.25056,124.6644 160.12776,127.6156 160.12776,130.9748 C160.12776,135.3744 158.57056,139.1008 155.44936,142.1472 C153.57936,144.024 151.47136,145.3228 149.13896,146.0572 C146.58216,146.7644 143.37936,147.118 139.53056,147.118 L126.63776,147.118 Z" id="Fill-17" fill="#4B4A4A" mask="url(#mask-4)"></path>
                <polygon id="Fill-18" fill="#4B4A4A" mask="url(#mask-4)" points="179.37788 90.72424 179.37788 139.11304 195.95628 139.11304 195.95628 147.11664 170.86428 147.11664 170.86428 90.72424"></polygon>
                <polygon id="Fill-19" fill="#4B4A4A" mask="url(#mask-4)" points="204.0272 147.118 212.5408 147.118 212.5408 90.7256 204.0272 90.7256"></polygon>
                <polygon id="Fill-20" fill="#4B4A4A" mask="url(#mask-4)" points="235.84304 139.1144 262.90024 139.1144 262.90024 147.118 221.84864 147.118 249.53824 98.7224 226.37744 98.7224 226.37744 90.7256 263.52584 90.7256"></polygon>
                <polygon id="Fill-21" fill="#4B4A4A" mask="url(#mask-4)" points="272.8364 147.118 281.35 147.118 281.35 90.7256 272.8364 90.7256"></polygon>
                <path d="M326.78624,99.12496 L319.87744,103.21856 C318.59224,100.96776 317.36144,99.51256 316.19184,98.83256 C314.97464,98.05056 313.40384,97.66296 311.47944,97.66296 C309.11984,97.66296 307.15464,98.33616 305.60424,99.66896 C304.04024,100.98136 303.26504,102.64736 303.26504,104.63976 C303.26504,107.39376 305.31184,109.60376 309.39864,111.28336 L315.02904,113.58856 C319.59864,115.43136 322.95104,117.69576 325.06584,120.36136 C327.18744,123.03376 328.24824,126.29776 328.24824,130.16696 C328.24824,135.35536 326.51424,139.63936 323.05984,143.02576 C319.57144,146.43256 315.26024,148.13936 310.09224,148.13936 C305.19624,148.13936 301.15704,146.69096 297.96784,143.78736 C294.82624,140.89736 292.86784,136.81736 292.08584,131.56096 L300.70824,129.65696 C301.09584,132.96856 301.77584,135.25336 302.75504,136.52496 C304.50944,138.95256 307.06624,140.17656 310.42544,140.17656 C313.07064,140.17656 315.28064,139.28576 317.02824,137.51096 C318.78264,135.73616 319.65984,133.47856 319.65984,130.75176 C319.65984,129.65696 319.51024,128.65736 319.21104,127.73936 C318.90504,126.82816 318.42904,125.98496 317.78304,125.22336 C317.13704,124.45496 316.30064,123.73416 315.28064,123.06776 C314.25384,122.39456 313.04344,121.75536 311.62904,121.14336 L306.18904,118.87896 C298.46424,115.62176 294.60864,110.84816 294.60864,104.56496 C294.60864,100.32856 296.22704,96.78576 299.46384,93.93656 C302.70064,91.06016 306.73304,89.63216 311.55424,89.63216 C318.05504,89.63216 323.13464,92.78736 326.78624,99.12496" id="Fill-22" fill="#4B4A4A" mask="url(#mask-4)"></path>
                <polygon id="Fill-23" fill="#4B4A4A" mask="url(#mask-4)" points="355.12864 98.71968 355.12864 147.11528 346.61504 147.11528 346.61504 98.71968 333.65424 98.71968 333.65424 90.72288 368.05544 90.72288 368.05544 98.71968"></polygon>
                <polygon id="Fill-24" fill="#4B4A4A" mask="url(#mask-4)" points="375.6524 147.118 384.1592 147.118 384.1592 90.7256 375.6524 90.7256"></polygon>
                <path d="M429.5968,99.12496 L422.6948,103.21856 C421.4028,100.96776 420.172,99.51256 419.0024,98.83256 C417.792,98.05056 416.2144,97.66296 414.2968,97.66296 C411.9304,97.66296 409.972,98.33616 408.4148,99.66896 C406.8576,100.98136 406.0756,102.64736 406.0756,104.63976 C406.0756,107.39376 408.1224,109.60376 412.2092,111.28336 L417.8396,113.58856 C422.416,115.43136 425.7684,117.69576 427.8832,120.36136 C430.0048,123.03376 431.0588,126.29776 431.0588,130.16696 C431.0588,135.35536 429.3316,139.63936 425.8704,143.02576 C422.3888,146.43256 418.0708,148.13936 412.9096,148.13936 C408.0136,148.13936 403.9676,146.69096 400.7852,143.78736 C397.6436,140.89736 395.6852,136.81736 394.8964,131.56096 L403.5188,129.65696 C403.9132,132.96856 404.5932,135.25336 405.5656,136.52496 C407.32,138.95256 409.8768,140.17656 413.236,140.17656 C415.888,140.17656 418.098,139.28576 419.8456,137.51096 C421.6,135.73616 422.4772,133.47856 422.4772,130.75176 C422.4772,129.65696 422.3276,128.65736 422.0216,127.73936 C421.7156,126.82816 421.2396,125.98496 420.5936,125.22336 C419.9476,124.45496 419.118,123.73416 418.098,123.06776 C417.0712,122.39456 415.854,121.75536 414.4396,121.14336 L408.9996,118.87896 C401.2816,115.62176 397.426,110.84816 397.426,104.56496 C397.426,100.32856 399.0444,96.78576 402.2744,93.93656 C405.518,91.06016 409.5504,89.63216 414.3716,89.63216 C420.8724,89.63216 425.9452,92.78736 429.5968,99.12496" id="Fill-25" fill="#4B4A4A" mask="url(#mask-4)"></path>
                <path d="M482.9938,93.75228 L482.9938,103.82988 C478.0774,99.72268 472.9842,97.66228 467.7278,97.66228 C461.9342,97.66228 457.0518,99.74308 453.0874,103.90468 C449.089,108.05268 447.0966,113.11188 447.0966,119.10268 C447.0966,125.01868 449.089,130.00988 453.0874,134.07628 C457.0722,138.14268 461.9682,140.17588 467.7686,140.17588 C470.7606,140.17588 473.3038,139.68628 475.3982,138.71388 C476.5678,138.22428 477.7782,137.56468 479.0294,136.74188 C480.2874,135.91228 481.6066,134.91948 482.9938,133.74988 L482.9938,144.01108 C478.125,146.76508 473.0114,148.13868 467.653,148.13868 C459.6018,148.13868 452.7202,145.32348 447.0218,139.69988 C441.3438,134.02868 438.5082,127.18788 438.5082,119.17068 C438.5082,111.99668 440.8882,105.58428 445.6346,99.96068 C451.4758,93.07228 459.0374,89.63148 468.3126,89.63148 C473.3786,89.63148 478.2746,91.00508 482.9938,93.75228" id="Fill-26" fill="#4B4A4A" mask="url(#mask-4)"></path>
                <polygon id="Fill-27" fill="#4B4A4A" mask="url(#mask-4)" points="503.812 112.78412 528.1356 112.78412 528.1356 90.72492 536.6492 90.72492 536.6492 147.11732 528.1356 147.11732 528.1356 120.78092 503.812 120.78092 503.812 147.11732 495.3052 147.11732 495.3052 90.72492 503.812 90.72492"></polygon>
            </g>
        </g>
    </g>
</svg>