<?xml version="1.0" encoding="UTF-8"?>
<svg width="285px" height="87px" viewBox="0 0 285 87" version="1.1" xmlns="http://www.w3.org/2000/svg" xmlns:xlink="http://www.w3.org/1999/xlink">
    <!-- Generator: Sketch 49.3 (51167) - http://www.bohemiancoding.com/sketch -->
    <title>wortpaare/eigenartig-publizistisch-neg</title>
    <desc>Created with Sketch.</desc>
    <defs>
        <polygon id="path-1" points="1.88172 0.20916 33.29532 0.20916 33.29532 39.6 1.88172 39.6"></polygon>
        <polygon id="path-3" points="0 0.91512 29.73492 0.91512 29.73492 32.45832 0 32.45832"></polygon>
        <polygon id="path-5" points="0 86.5224 284.1084 86.5224 284.1084 0 0 0"></polygon>
    </defs>
    <g id="Page-1" stroke="none" stroke-width="1" fill="none" fill-rule="evenodd">
        <g id="negativ" transform="translate(-882.000000, -1045.000000)">
            <g id="wortpaare/eigenartig-publizistisch-neg" transform="translate(882.000000, 1045.000000)">
                <g id="Group-3" transform="translate(0.000000, 46.922400)">
                    <mask id="mask-2" fill="white">
                        <use xlink:href="#path-1"></use>
                    </mask>
                    <g id="Clip-2"></g>
                    <path d="M24.81732,15.77556 L24.81732,15.66396 C24.81732,10.69956 21.46572,7.40556 17.50932,7.40556 C13.54572,7.40556 10.25172,10.69956 10.25172,15.66396 L10.25172,15.77556 C10.25172,20.74356 13.54572,24.03396 17.50932,24.03396 C21.46572,24.03396 24.81732,20.79756 24.81732,15.77556 Z M1.88172,0.76716 L10.36692,0.76716 L10.36692,5.06196 C12.42972,2.27196 15.27732,0.20916 19.68012,0.20916 C26.65692,0.20916 33.29532,5.67756 33.29532,15.66396 L33.29532,15.77556 C33.29532,25.76196 26.76852,31.23036 19.68012,31.23036 C15.16212,31.23036 12.37212,29.16756 10.36692,26.76996 L10.36692,39.60036 L1.88172,39.60036 L1.88172,0.76716 Z" id="Fill-1" fill="#FFFFFF" mask="url(#mask-2)"></path>
                </g>
                <g id="Group-6" transform="translate(0.000000, 0.122400)">
                    <mask id="mask-4" fill="white">
                        <use xlink:href="#path-3"></use>
                    </mask>
                    <g id="Clip-5"></g>
                    <path d="M21.36852,14.25672 C20.85732,10.41192 18.60012,7.81272 14.98572,7.81272 C11.42172,7.81272 9.10332,10.35432 8.42652,14.25672 L21.36852,14.25672 Z M-0.00108,16.79832 L-0.00108,16.68672 C-0.00108,8.03592 6.16212,0.91512 14.98572,0.91512 C25.10172,0.91512 29.73492,8.77392 29.73492,17.36352 C29.73492,18.04392 29.68092,18.83232 29.62692,19.62432 L8.53812,19.62432 C9.38772,23.52672 12.09852,25.56072 15.93972,25.56072 C18.82692,25.56072 20.91852,24.65712 23.29092,22.45392 L28.20852,26.80272 C25.38252,30.30912 21.31092,32.45832 15.83172,32.45832 C6.72732,32.45832 -0.00108,26.07192 -0.00108,16.79832 Z" id="Fill-4" fill="#FFFFFF" mask="url(#mask-4)"></path>
                </g>
                <mask id="mask-6" fill="white">
                    <use xlink:href="#path-5"></use>
                </mask>
                <g id="Clip-8"></g>
                <polygon id="Fill-7" fill="#FFFFFF" mask="url(#mask-6)" points="34.0812 31.8852 38.5848 31.8852 38.5848 2.0304 34.0812 2.0304"></polygon>
                <path d="M61.11288,16.34076 L73.45008,16.34076 L73.45008,17.32356 C73.45008,19.56636 73.18728,21.55356 72.65448,23.28156 C72.13968,24.87996 71.26848,26.37396 70.04448,27.76716 C67.27248,30.88836 63.74808,32.44716 59.46768,32.44716 C55.29168,32.44716 51.71688,30.93876 48.73608,27.92196 C45.75888,24.89436 44.26848,21.25836 44.26848,17.01396 C44.26848,12.68316 45.78408,9.01116 48.81528,5.99436 C51.84288,2.96676 55.52928,1.45116 59.87448,1.45116 C62.20728,1.45116 64.38528,1.92636 66.41208,2.88396 C68.34528,3.83436 70.24608,5.38236 72.11448,7.52436 L68.90328,10.59516 C66.45528,7.33716 63.47088,5.70636 59.95368,5.70636 C56.79288,5.70636 54.14328,6.79716 52.00488,8.97156 C49.86648,11.11356 48.79368,13.79556 48.79368,17.01396 C48.79368,20.34036 49.98528,23.07996 52.37208,25.23636 C54.60048,27.23076 57.01968,28.23156 59.62248,28.23156 C61.84008,28.23156 63.83088,27.48636 65.59848,25.98876 C67.36248,24.48036 68.35248,22.67676 68.55408,20.57436 L61.11288,20.57436 L61.11288,16.34076 Z" id="Fill-9" fill="#FFFFFF" mask="url(#mask-6)"></path>
                <polygon id="Fill-10" fill="#FFFFFF" mask="url(#mask-6)" points="95.58684 6.26508 83.62044 6.26508 83.62044 13.43988 95.23764 13.43988 95.23764 17.67348 83.62044 17.67348 83.62044 27.64908 95.58684 27.64908 95.58684 31.88628 79.11324 31.88628 79.11324 2.03148 95.58684 2.03148"></polygon>
                <polygon id="Fill-11" fill="#FFFFFF" mask="url(#mask-6)" points="101.5038 31.887 101.5038 0.0018 123.2766 22.779 123.2766 2.0322 127.7838 2.0322 127.7838 33.705 106.011 10.9818 106.011 31.887"></polygon>
                <path d="M150.87024,20.4012 L146.44224,10.2492 L141.79824,20.4012 L150.87024,20.4012 Z M152.70624,24.6348 L139.92624,24.6348 L136.59984,31.8852 L131.74704,31.8852 L146.51784,0.1548 L160.77024,31.8852 L155.83824,31.8852 L152.70624,24.6348 Z" id="Fill-12" fill="#FFFFFF" mask="url(#mask-6)"></path>
                <path d="M169.0074,15.73956 L170.4366,15.73956 C174.7026,15.73956 176.8374,14.10876 176.8374,10.85076 C176.8374,7.79436 174.7638,6.26436 170.6094,6.26436 L169.0074,6.26436 L169.0074,15.73956 Z M174.6162,19.16316 L183.8574,31.88556 L178.3458,31.88556 L169.821,19.66716 L169.0074,19.66716 L169.0074,31.88556 L164.5002,31.88556 L164.5002,2.03076 L169.7814,2.03076 C173.727,2.03076 176.5746,2.77236 178.3278,4.25556 C180.261,5.90796 181.2294,8.08236 181.2294,10.78956 C181.2294,12.90636 180.621,14.72436 179.4114,16.24356 C178.1982,17.76276 176.5962,18.73836 174.6162,19.16316 Z" id="Fill-13" fill="#FFFFFF" mask="url(#mask-6)"></path>
                <polygon id="Fill-14" fill="#FFFFFF" mask="url(#mask-6)" points="196.2324 6.26508 196.2324 31.88628 191.7252 31.88628 191.7252 6.26508 184.8636 6.26508 184.8636 2.03148 203.076 2.03148 203.076 6.26508"></polygon>
                <polygon id="Fill-15" fill="#FFFFFF" mask="url(#mask-6)" points="207.1008 31.8852 211.6044 31.8852 211.6044 2.0304 207.1008 2.0304"></polygon>
                <path d="M234.13068,16.34076 L246.46788,16.34076 L246.46788,17.32356 C246.46788,19.56636 246.20508,21.55356 245.67228,23.28156 C245.15748,24.87996 244.28628,26.37396 243.06228,27.76716 C240.29028,30.88836 236.76588,32.44716 232.48548,32.44716 C228.30948,32.44716 224.73468,30.93876 221.75388,27.92196 C218.77668,24.89436 217.28628,21.25836 217.28628,17.01396 C217.28628,12.68316 218.80188,9.01116 221.83308,5.99436 C224.86068,2.96676 228.54708,1.45116 232.89228,1.45116 C235.22508,1.45116 237.40308,1.92636 239.42988,2.88396 C241.36308,3.83436 243.26388,5.38236 245.13228,7.52436 L241.92108,10.59516 C239.47308,7.33716 236.48868,5.70636 232.97148,5.70636 C229.81068,5.70636 227.16108,6.79716 225.02268,8.97156 C222.88428,11.11356 221.81148,13.79556 221.81148,17.01396 C221.81148,20.34036 223.00308,23.07996 225.38988,25.23636 C227.61828,27.23076 230.03748,28.23156 232.64028,28.23156 C234.85788,28.23156 236.84868,27.48636 238.61628,25.98876 C240.38028,24.48036 241.37028,22.67676 241.57188,20.57436 L234.13068,20.57436 L234.13068,16.34076 Z" id="Fill-16" fill="#FFFFFF" mask="url(#mask-6)"></path>
                <path d="M42.29352,48.03048 L42.29352,66.01248 C42.29352,68.57568 42.71112,70.45488 43.54992,71.63928 C44.79912,73.35288 46.55952,74.20968 48.82752,74.20968 C51.10992,74.20968 52.87392,73.35288 54.12672,71.63928 C54.96552,70.49088 55.38312,68.61528 55.38312,66.01248 L55.38312,48.03048 L59.89032,48.03048 L59.89032,67.25088 C59.89032,70.39368 58.90752,72.98568 56.94912,75.02328 C54.74592,77.29128 52.03872,78.42528 48.82752,78.42528 C45.61992,78.42528 42.91992,77.29128 40.72392,75.02328 C38.76912,72.98568 37.78632,70.39368 37.78632,67.25088 L37.78632,48.03048 L42.29352,48.03048 Z" id="Fill-17" fill="#FFFFFF" mask="url(#mask-6)"></path>
                <path d="M71.54712,73.64916 L74.32992,73.64916 C76.37112,73.64916 77.86512,73.25316 78.81912,72.45036 C79.82352,71.58996 80.32392,70.49196 80.32392,69.16356 C80.32392,67.87476 79.84512,66.79476 78.87672,65.91636 C77.93352,65.05236 76.25592,64.62036 73.82952,64.62036 L71.54712,64.62036 L71.54712,73.64916 Z M71.54712,60.84756 L72.96192,60.84756 C74.63232,60.84756 75.86352,60.48036 76.64112,59.73876 C77.42232,58.99716 77.81112,57.90276 77.81112,56.46276 C77.81112,55.05516 77.41512,53.98956 76.61232,53.26236 C75.81672,52.53156 74.65392,52.16796 73.13112,52.16796 L71.54712,52.16796 L71.54712,60.84756 Z M67.04352,77.88636 L67.04352,48.03156 L71.52912,48.03156 C73.52712,48.03156 75.11832,48.18636 76.30272,48.49596 C77.50152,48.80556 78.51672,49.32396 79.34112,50.05836 C80.17632,50.82156 80.84232,51.76836 81.33192,52.90236 C81.83232,54.05076 82.08792,55.20996 82.08792,56.38356 C82.08792,58.52196 81.26712,60.33636 79.62912,61.81596 C81.21672,62.35596 82.46592,63.30636 83.38032,64.65996 C84.30912,65.99916 84.77352,67.56156 84.77352,69.33996 C84.77352,71.66916 83.94912,73.64196 82.29672,75.25476 C81.30672,76.24836 80.19072,76.93596 78.95592,77.32476 C77.60232,77.69916 75.90672,77.88636 73.86912,77.88636 L67.04352,77.88636 Z" id="Fill-18" fill="#FFFFFF" mask="url(#mask-6)"></path>
                <polygon id="Fill-19" fill="#FFFFFF" mask="url(#mask-6)" points="94.96476 48.03048 94.96476 73.64808 103.74156 73.64808 103.74156 77.88528 90.45756 77.88528 90.45756 48.03048"></polygon>
                <polygon id="Fill-20" fill="#FFFFFF" mask="url(#mask-6)" points="108.0144 77.886 112.5216 77.886 112.5216 48.0312 108.0144 48.0312"></polygon>
                <polygon id="Fill-21" fill="#FFFFFF" mask="url(#mask-6)" points="124.85808 73.64916 139.18248 73.64916 139.18248 77.88636 117.44928 77.88636 132.10848 52.26516 119.84688 52.26516 119.84688 48.03156 139.51368 48.03156"></polygon>
                <polygon id="Fill-22" fill="#FFFFFF" mask="url(#mask-6)" points="144.4428 77.886 148.95 77.886 148.95 48.0312 144.4428 48.0312"></polygon>
                <path d="M173.00448,52.47792 L169.34688,54.64512 C168.66648,53.45352 168.01488,52.68312 167.39568,52.32312 C166.75128,51.90912 165.91968,51.70392 164.90088,51.70392 C163.65168,51.70392 162.61128,52.06032 161.79048,52.76592 C160.96248,53.46072 160.55208,54.34272 160.55208,55.39752 C160.55208,56.85552 161.63568,58.02552 163.79928,58.91472 L166.78008,60.13512 C169.19928,61.11072 170.97408,62.30952 172.09368,63.72072 C173.21688,65.13552 173.77848,66.86352 173.77848,68.91192 C173.77848,71.65872 172.86048,73.92672 171.03168,75.71952 C169.18488,77.52312 166.90248,78.42672 164.16648,78.42672 C161.57448,78.42672 159.43608,77.65992 157.74768,76.12272 C156.08448,74.59272 155.04768,72.43272 154.63368,69.64992 L159.19848,68.64192 C159.40368,70.39512 159.76368,71.60472 160.28208,72.27792 C161.21088,73.56312 162.56448,74.21112 164.34288,74.21112 C165.74328,74.21112 166.91328,73.73952 167.83848,72.79992 C168.76728,71.86032 169.23168,70.66512 169.23168,69.22152 C169.23168,68.64192 169.15248,68.11272 168.99408,67.62672 C168.83208,67.14432 168.58008,66.69792 168.23808,66.29472 C167.89608,65.88792 167.45328,65.50632 166.91328,65.15352 C166.36968,64.79712 165.72888,64.45872 164.98008,64.13472 L162.10008,62.93592 C158.01048,61.21152 155.96928,58.68432 155.96928,55.35792 C155.96928,53.11512 156.82608,51.23952 158.53968,49.73112 C160.25328,48.20832 162.38808,47.45232 164.94048,47.45232 C168.38208,47.45232 171.07128,49.12272 173.00448,52.47792" id="Fill-23" fill="#FFFFFF" mask="url(#mask-6)"></path>
                <polygon id="Fill-24" fill="#FFFFFF" mask="url(#mask-6)" points="188.00928 52.26336 188.00928 77.88456 183.50208 77.88456 183.50208 52.26336 176.64048 52.26336 176.64048 48.02976 194.85288 48.02976 194.85288 52.26336"></polygon>
                <polygon id="Fill-25" fill="#FFFFFF" mask="url(#mask-6)" points="198.8748 77.886 203.3784 77.886 203.3784 48.0312 198.8748 48.0312"></polygon>
                <path d="M227.4336,52.47792 L223.7796,54.64512 C223.0956,53.45352 222.444,52.68312 221.8248,52.32312 C221.184,51.90912 220.3488,51.70392 219.3336,51.70392 C218.0808,51.70392 217.044,52.06032 216.2196,52.76592 C215.3952,53.46072 214.9812,54.34272 214.9812,55.39752 C214.9812,56.85552 216.0648,58.02552 218.2284,58.91472 L221.2092,60.13512 C223.632,61.11072 225.4068,62.30952 226.5264,63.72072 C227.6496,65.13552 228.2076,66.86352 228.2076,68.91192 C228.2076,71.65872 227.2932,73.92672 225.4608,75.71952 C223.6176,77.52312 221.3316,78.42672 218.5992,78.42672 C216.0072,78.42672 213.8652,77.65992 212.1804,76.12272 C210.5172,74.59272 209.4804,72.43272 209.0628,69.64992 L213.6276,68.64192 C213.8364,70.39512 214.1964,71.60472 214.7112,72.27792 C215.64,73.56312 216.9936,74.21112 218.772,74.21112 C220.176,74.21112 221.346,73.73952 222.2712,72.79992 C223.2,71.86032 223.6644,70.66512 223.6644,69.22152 C223.6644,68.64192 223.5852,68.11272 223.4232,67.62672 C223.2612,67.14432 223.0092,66.69792 222.6672,66.29472 C222.3252,65.88792 221.886,65.50632 221.346,65.15352 C220.8024,64.79712 220.158,64.45872 219.4092,64.13472 L216.5292,62.93592 C212.4432,61.21152 210.402,58.68432 210.402,55.35792 C210.402,53.11512 211.2588,51.23952 212.9688,49.73112 C214.686,48.20832 216.8208,47.45232 219.3732,47.45232 C222.8148,47.45232 225.5004,49.12272 227.4336,52.47792" id="Fill-26" fill="#FFFFFF" mask="url(#mask-6)"></path>
                <path d="M255.7026,49.63392 L255.7026,54.96912 C253.0998,52.79472 250.4034,51.70392 247.6206,51.70392 C244.5534,51.70392 241.9686,52.80552 239.8698,55.00872 C237.753,57.20472 236.6982,59.88312 236.6982,63.05472 C236.6982,66.18672 237.753,68.82912 239.8698,70.98192 C241.9794,73.13472 244.5714,74.21112 247.6422,74.21112 C249.2262,74.21112 250.5726,73.95192 251.6814,73.43712 C252.3006,73.17792 252.9414,72.82872 253.6038,72.39312 C254.2698,71.95392 254.9682,71.42832 255.7026,70.80912 L255.7026,76.24152 C253.125,77.69952 250.4178,78.42672 247.581,78.42672 C243.3186,78.42672 239.6754,76.93632 236.6586,73.95912 C233.6526,70.95672 232.1514,67.33512 232.1514,63.09072 C232.1514,59.29272 233.4114,55.89792 235.9242,52.92072 C239.0166,49.27392 243.0198,47.45232 247.9302,47.45232 C250.6122,47.45232 253.2042,48.17952 255.7026,49.63392" id="Fill-27" fill="#FFFFFF" mask="url(#mask-6)"></path>
                <polygon id="Fill-28" fill="#FFFFFF" mask="url(#mask-6)" points="266.724 59.7096 279.6012 59.7096 279.6012 48.0312 284.1084 48.0312 284.1084 77.886 279.6012 77.886 279.6012 63.9432 266.724 63.9432 266.724 77.886 262.2204 77.886 262.2204 48.0312 266.724 48.0312"></polygon>
            </g>
        </g>
    </g>
</svg>