<?xml version="1.0" encoding="UTF-8"?>
<svg width="926px" height="244px" viewBox="0 0 926 244" version="1.1" xmlns="http://www.w3.org/2000/svg" xmlns:xlink="http://www.w3.org/1999/xlink">
    <!-- Generator: Sketch 43.2 (39069) - http://www.bohemiancoding.com/sketch -->
    <title>wortpaare/eindrucksvoll-punkt-neg</title>
    <desc>Created with Sketch.</desc>
    <defs>
        <polygon id="path-1" points="0 0.829115 0 89.763415 83.6091694 89.763415 83.6091694 0.829115 2.05774078e-19 0.829115"></polygon>
        <polygon id="path-3" points="0 243.948145 925.097061 243.948145 925.097061 0.003045 0 0.003045"></polygon>
    </defs>
    <g id="Page-1" stroke="none" stroke-width="1" fill="none" fill-rule="evenodd">
        <g id="Desktop-Intro-Agentur-Copy" transform="translate(-257.000000, -353.000000)">
            <g id="wortpaare/eindrucksvoll-punkt/neg" transform="translate(257.000000, 353.000000)">
                <g id="Page-1">
                    <path d="M69.7821103,176.775445 L69.7821103,176.460795 C69.7821103,162.463945 60.3582509,153.176695 49.2338453,153.176695 C38.0891952,153.176695 28.8374148,162.463945 28.8374148,176.460795 L28.8374148,176.775445 C28.8374148,190.782445 38.0891952,200.059545 49.2338453,200.059545 C60.3582509,200.059545 69.7821103,190.934695 69.7821103,176.775445 Z M5.29294963,134.460095 L29.1512061,134.460095 L29.1512061,146.569045 C34.9512828,138.712945 42.9478983,132.886845 55.3477133,132.886845 C74.9546046,132.886845 93.6201222,148.304695 93.6201222,176.460795 L93.6201222,176.775445 C93.6201222,204.931545 75.2683958,220.349395 55.3477133,220.349395 C42.634107,220.349395 34.7893261,214.533445 29.1512061,207.763395 L29.1512061,243.948145 L5.29294963,243.948145 L5.29294963,134.460095 Z" id="Fill-1" fill="#FFFFFF"></path>
                    <g id="Group-5" transform="translate(0.000000, 2.098145)">
                        <mask id="mask-2" fill="white">
                            <use xlink:href="#path-1"></use>
                        </mask>
                        <g id="Clip-4"></g>
                        <path d="M60.0849488,38.445015 C58.6475825,27.604815 52.3009016,20.276515 42.1381144,20.276515 C32.1170394,20.276515 25.5982795,27.442415 23.6952874,38.445015 L60.0849488,38.445015 Z M-0.0010122298,45.621065 L-0.0010122298,45.296265 C-0.0010122298,20.905815 17.328362,0.829115 42.1381144,0.829115 C70.5817719,0.829115 83.6091694,22.986565 83.6091694,47.214615 C83.6091694,49.122815 83.4573349,51.355815 83.2953782,53.588815 L24.0090787,53.588815 C26.397941,64.581265 34.0200314,70.316015 44.8205234,70.316015 C52.9386064,70.316015 58.8196616,67.768365 65.490256,61.556565 L79.317315,73.817765 C71.3713111,83.703865 59.922992,89.763415 44.5168545,89.763415 C18.9175628,89.763415 -0.0010122298,71.757315 -0.0010122298,45.621065 L-0.0010122298,45.621065 Z" id="Fill-3" fill="#FFFFFF" mask="url(#mask-2)"></path>
                    </g>
                    <mask id="mask-4" fill="white">
                        <use xlink:href="#path-3"></use>
                    </mask>
                    <g id="Clip-7"></g>
                    <polygon id="Fill-6" fill="#FFFFFF" mask="url(#mask-4)" points="95.8277953 89.901595 108.49079 89.901595 108.49079 5.727645 95.8277953 5.727645"></polygon>
                    <polygon id="Fill-8" fill="#FFFFFF" mask="url(#mask-4)" points="128.667567 89.90058 128.667567 0.00203 189.887225 64.23123 189.887225 5.72663 202.55022 5.72663 202.55022 95.02633 141.330562 30.95953 141.330562 89.90058"></polygon>
                    <path d="M235.337356,77.967225 L241.036209,77.967225 C246.735063,77.967225 251.462176,77.358225 255.237793,76.160525 C259.003288,74.891775 262.414503,72.871925 265.461314,70.121275 C271.686528,64.406825 274.804196,56.977025 274.804196,47.811575 C274.804196,38.575075 271.727017,31.104675 265.562537,25.349625 C260.015518,20.234025 251.846824,17.666075 241.036209,17.666075 L235.337356,17.666075 L235.337356,77.967225 Z M222.664238,89.903625 L222.664238,5.729675 L240.277037,5.729675 C248.729156,5.729675 255.389628,6.561975 260.28882,8.236725 C265.542293,9.870875 270.309895,12.641825 274.591627,16.569875 C283.246192,24.497025 287.578536,34.910925 287.578536,47.811575 C287.578536,60.762975 283.074113,71.227625 274.045023,79.215675 C269.510234,83.224925 264.762876,85.995875 259.80295,87.558975 C255.156815,89.122075 248.587444,89.903625 240.064469,89.903625 L222.664238,89.903625 Z" id="Fill-9" fill="#FFFFFF" mask="url(#mask-4)"></path>
                    <path d="M316.177064,44.384935 L320.195617,44.384935 C332.200662,44.384935 338.203185,39.786985 338.203185,30.591085 C338.203185,21.973735 332.362619,17.659985 320.691609,17.659985 L316.177064,17.659985 L316.177064,44.384935 Z M331.947605,54.027435 L357.931544,89.897535 L342.444428,89.897535 L318.464704,55.448435 L316.177064,55.448435 L316.177064,89.897535 L303.514069,89.897535 L303.514069,5.723585 L318.353358,5.723585 C329.447397,5.723585 337.464257,7.814485 342.383694,11.996285 C347.819368,16.655135 350.542266,22.795885 350.542266,30.428685 C350.542266,36.386735 348.84172,41.512485 345.430506,45.795785 C342.029413,50.089235 337.524991,52.829735 331.947605,54.027435 L331.947605,54.027435 Z" id="Fill-10" fill="#FFFFFF" mask="url(#mask-4)"></path>
                    <path d="M381.962891,5.727645 L381.962891,56.426895 C381.962891,63.653695 383.137078,68.951995 385.505696,72.301495 C389.008011,77.122745 393.967937,79.538445 400.334862,79.538445 C406.752399,79.538445 411.722447,77.122745 415.234885,72.301495 C417.603503,69.053495 418.777689,63.775495 418.777689,56.426895 L418.777689,5.727645 L431.440684,5.727645 L431.440684,59.918495 C431.440684,68.789595 428.687419,76.087445 423.170767,81.832345 C416.97592,88.236995 409.363952,91.424095 400.334862,91.424095 C391.315895,91.424095 383.724171,88.236995 377.559692,81.832345 C372.053162,76.087445 369.299896,68.789595 369.299896,59.918495 L369.299896,5.727645 L381.962891,5.727645 Z" id="Fill-11" fill="#FFFFFF" mask="url(#mask-4)"></path>
                    <path d="M513.592243,10.24744 L513.592243,25.28974 C506.263699,19.15914 498.69222,16.08369 490.867683,16.08369 C482.233363,16.08369 474.975676,19.18959 469.064254,25.41154 C463.122465,31.59289 460.146509,39.15464 460.146509,48.09679 C460.146509,56.91714 463.122465,64.36724 469.064254,70.43694 C475.006042,76.50664 482.294097,79.54149 490.918295,79.54149 C495.372106,79.54149 499.157846,78.82084 502.285636,77.35924 C504.026671,76.63859 505.818318,75.64389 507.690943,74.41574 C509.563568,73.18759 511.527294,71.69554 513.592243,69.94974 L513.592243,85.26609 C506.334555,89.37684 498.722587,91.42714 490.756338,91.42714 C478.761415,91.42714 468.517649,87.22504 460.035164,78.84114 C451.593167,70.36589 447.372169,60.15499 447.372169,48.18814 C447.372169,37.47989 450.904851,27.90844 457.970215,19.52454 C466.665269,9.23244 477.931387,4.09654 491.738201,4.09654 C499.269191,4.09654 506.557245,6.14684 513.592243,10.24744" id="Fill-12" fill="#FFFFFF" mask="url(#mask-4)"></path>
                    <polygon id="Fill-13" fill="#FFFFFF" mask="url(#mask-4)" points="544.581658 39.309935 577.256436 5.723585 594.160674 5.723585 556.212178 43.826685 594.383364 89.897535 577.418393 89.897535 547.193211 52.454185 544.581658 55.072885 544.581658 89.897535 531.908541 89.897535 531.908541 5.723585 544.581658 5.723585"></polygon>
                    <path d="M650.054991,18.26594 L639.770736,24.37624 C637.857622,21.02674 636.025486,18.85464 634.284451,17.82949 C632.472559,16.67239 630.134309,16.08369 627.269698,16.08369 C623.757261,16.08369 620.831917,17.08854 618.524033,19.08809 C616.195904,21.04704 615.041962,23.52364 615.041962,26.50774 C615.041962,30.60834 618.088774,33.91724 624.172275,36.41414 L632.553538,39.85499 C639.355722,42.61579 644.346015,45.98559 647.49405,49.96439 C650.652207,53.95334 652.231285,58.82534 652.231285,64.60069 C652.231285,72.34514 649.650099,78.73964 644.507972,83.79434 C639.315233,88.88964 632.897696,91.42714 625.204749,91.42714 C617.916695,91.42714 611.90405,89.26519 607.156692,84.94129 C602.48019,80.61739 599.564969,74.52739 598.400904,66.68144 L611.235978,63.83944 C611.812949,68.79264 612.825179,72.19289 614.28279,74.09094 C616.894343,77.72464 620.700327,79.54149 625.700742,79.54149 C629.638316,79.54149 632.928063,78.21184 635.529493,75.57284 C638.141046,72.91354 639.446823,69.54374 639.446823,65.47359 C639.446823,63.83944 639.224132,62.34739 638.778751,60.97714 C638.323248,59.61704 637.614687,58.35844 636.653068,57.22164 C635.69145,56.07469 634.446407,54.99879 632.928063,54.00409 C631.399596,53.00939 629.597827,52.04514 627.492389,51.14179 L619.39455,47.75169 C607.89562,42.88984 602.156277,35.76454 602.156277,26.38594 C602.156277,20.06249 604.565384,14.77434 609.383598,10.52149 C614.201811,6.23819 620.204334,4.09654 627.381043,4.09654 C637.05796,4.09654 644.619317,8.81629 650.054991,18.26594" id="Fill-14" fill="#FFFFFF" mask="url(#mask-4)"></path>
                    <polygon id="Fill-15" fill="#FFFFFF" mask="url(#mask-4)" points="671.525397 5.727645 694.745949 64.059695 718.280292 5.727645 732.14784 5.727645 694.472647 96.225045 657.667971 5.727645"></polygon>
                    <path d="M747.482109,47.596395 C747.482109,56.893795 750.599777,64.546895 756.835113,70.555695 C763.029959,76.544195 770.186424,79.538445 778.304507,79.538445 C787.110906,79.538445 794.540673,76.493445 800.593807,70.383145 C806.657064,64.211945 809.683631,56.680645 809.683631,47.809545 C809.683631,38.836945 806.687431,31.315795 800.705152,25.246095 C794.763364,19.135795 787.404453,16.090795 778.62842,16.090795 C769.903,16.090795 762.513722,19.135795 756.511199,25.246095 C750.488432,31.285345 747.482109,38.735445 747.482109,47.596395 M734.697647,47.433995 C734.697647,35.578795 739.029991,25.408495 747.694678,16.912945 C756.318876,8.407245 766.684109,4.144245 778.8005,4.144245 C790.754933,4.144245 801.008821,8.437695 809.572286,17.004295 C818.155994,25.591195 822.447849,35.903595 822.447849,47.921195 C822.447849,60.030145 818.13575,70.291795 809.511552,78.716295 C800.846865,87.191545 790.390531,91.424095 778.14255,91.424095 C767.301569,91.424095 757.574041,87.658445 748.949843,80.147445 C739.455127,71.824445 734.697647,60.913195 734.697647,47.433995" id="Fill-16" fill="#FFFFFF" mask="url(#mask-4)"></path>
                    <polygon id="Fill-17" fill="#FFFFFF" mask="url(#mask-4)" points="851.048402 5.727645 851.048402 77.965195 875.726564 77.965195 875.726564 89.901595 838.385407 89.901595 838.385407 5.727645"></polygon>
                    <polygon id="Fill-18" fill="#FFFFFF" mask="url(#mask-4)" points="900.413837 5.727645 900.413837 77.965195 925.091999 77.965195 925.091999 89.901595 887.750842 89.901595 887.750842 5.727645"></polygon>
                    <path d="M118.920806,135.41724 L118.920806,186.11649 C118.920806,193.34329 120.094993,198.64159 122.453488,201.99109 C125.965925,206.81234 130.915729,209.22804 137.292777,209.22804 C143.710314,209.22804 148.67024,206.81234 152.1928,201.99109 C154.551295,198.74309 155.725482,193.46509 155.725482,186.11649 L155.725482,135.41724 L168.398599,135.41724 L168.398599,189.60809 C168.398599,198.47919 165.635211,205.77704 160.128681,211.52194 C153.933835,217.92659 146.321867,221.11369 137.292777,221.11369 C128.273809,221.11369 120.682086,217.92659 114.507484,211.52194 C109.011076,205.77704 106.247689,198.47919 106.247689,189.60809 L106.247689,135.41724 L118.920806,135.41724 Z" id="Fill-19" fill="#FFFFFF" mask="url(#mask-4)"></path>
                    <polygon id="Fill-20" fill="#FFFFFF" mask="url(#mask-4)" points="188.511605 219.59119 188.511605 129.69264 249.731263 193.92184 249.731263 135.41724 262.394258 135.41724 262.394258 224.71694 201.1746 160.65014 201.1746 219.59119"></polygon>
                    <polygon id="Fill-21" fill="#FFFFFF" mask="url(#mask-4)" points="295.181394 168.99953 327.856172 135.41318 344.760409 135.41318 306.811914 173.51628 344.9831 219.58713 328.018128 219.58713 297.792947 182.14378 295.181394 184.76248 295.181394 219.58713 282.508277 219.58713 282.508277 135.41318 295.181394 135.41318"></polygon>
                    <polygon id="Fill-22" fill="#FFFFFF" mask="url(#mask-4)" points="384.01873 147.35161 384.01873 219.58916 371.345613 219.58916 371.345613 147.35161 352.052513 147.35161 352.052513 135.41521 403.261219 135.41521 403.261219 147.35161"></polygon>
                </g>
            </g>
        </g>
    </g>
</svg>