<?xml version="1.0" encoding="UTF-8"?>
<svg width="622px" height="164px" viewBox="0 0 622 164" version="1.1" xmlns="http://www.w3.org/2000/svg" xmlns:xlink="http://www.w3.org/1999/xlink">
    <!-- Generator: Sketch 44 (41411) - http://www.bohemiancoding.com/sketch -->
    <title>wortpaare/eindrucksvoll-punkt-pos</title>
    <desc>Created with Sketch.</desc>
    <defs>
        <polygon id="path-1" points="0 1.72788 0 61.30948 56.16732 61.30948 56.16732 1.72788 1.38235777e-19 1.72788"></polygon>
        <polygon id="path-3" points="0 163.43324 621.4656 163.43324 621.4656 0.00204 0 0.00204"></polygon>
    </defs>
    <g id="Page-1" stroke="none" stroke-width="1" fill="none" fill-rule="evenodd">
        <g id="Desktop-Agentur" transform="translate(-231.000000, -197.000000)">
            <g id="wortpaare/eindrucksvoll-punkt/pos" transform="translate(231.000000, 197.000000)">
                <g id="Page-1">
                    <path d="M46.87852,118.43084 L46.87852,118.22004 C46.87852,108.84284 40.54772,102.62084 33.07452,102.62084 C25.58772,102.62084 19.37252,108.84284 19.37252,118.22004 L19.37252,118.43084 C19.37252,127.81484 25.58772,134.03004 33.07452,134.03004 C40.54772,134.03004 46.87852,127.91684 46.87852,118.43084 Z M3.55572,90.08164 L19.58332,90.08164 L19.58332,98.19404 C23.47972,92.93084 28.85172,89.02764 37.18172,89.02764 C50.35332,89.02764 62.89252,99.35684 62.89252,118.22004 L62.89252,118.43084 C62.89252,137.29404 50.56412,147.62324 37.18172,147.62324 C28.64092,147.62324 23.37092,143.72684 19.58332,139.19124 L19.58332,163.43324 L3.55572,163.43324 L3.55572,90.08164 Z" id="Fill-1" fill="#DB071A"></path>
                    <g id="Group-5" transform="translate(0.000000, 0.233240)">
                        <mask id="mask-2" fill="white">
                            <use xlink:href="#path-1"></use>
                        </mask>
                        <g id="Clip-4"></g>
                        <path d="M40.36412,26.92868 C39.40532,19.66628 35.13492,14.75668 28.30772,14.75668 C21.57572,14.75668 17.19652,19.55748 15.91812,26.92868 L40.36412,26.92868 Z M-0.00068,31.73628 L-0.00068,31.51868 C-0.00068,15.17828 11.64092,1.72788 28.30772,1.72788 C47.41572,1.72788 56.16732,16.57228 56.16732,32.80388 C56.16732,34.08228 56.06532,35.57828 55.95652,37.07428 L16.12892,37.07428 C17.73372,44.43868 22.85412,48.28068 30.10972,48.28068 C35.56332,48.28068 39.51412,46.57388 43.99532,42.41228 L53.28412,50.62668 C47.94612,57.24988 40.25532,61.30948 29.90572,61.30948 C12.70852,61.30948 -0.00068,49.24628 -0.00068,31.73628 L-0.00068,31.73628 Z" id="Fill-3" fill="#DB071A" mask="url(#mask-2)"></path>
                    </g>
                    <mask id="mask-4" fill="white">
                        <use xlink:href="#path-3"></use>
                    </mask>
                    <g id="Clip-7"></g>
                    <polygon id="Fill-6" fill="#4B4A4A" mask="url(#mask-4)" points="64.3756 60.22964 72.8824 60.22964 72.8824 3.83724 64.3756 3.83724"></polygon>
                    <polygon id="Fill-8" fill="#4B4A4A" mask="url(#mask-4)" points="86.43684 60.22896 86.43684 0.00136 127.56324 43.03176 127.56324 3.83656 136.07004 3.83656 136.07004 63.66296 94.94364 20.74136 94.94364 60.22896"></polygon>
                    <path d="M158.09592,52.2342 L161.92432,52.2342 C165.75272,52.2342 168.92832,51.8262 171.46472,51.0238 C173.99432,50.1738 176.28592,48.8206 178.33272,46.9778 C182.51472,43.1494 184.60912,38.1718 184.60912,32.0314 C184.60912,25.8434 182.54192,20.8386 178.40072,16.983 C174.67432,13.5558 169.18672,11.8354 161.92432,11.8354 L158.09592,11.8354 L158.09592,52.2342 Z M149.58232,60.231 L149.58232,3.8386 L161.41432,3.8386 C167.09232,3.8386 171.56672,4.3962 174.85792,5.5182 C178.38712,6.613 181.58992,8.4694 184.46632,11.101 C190.28032,16.4118 193.19072,23.3886 193.19072,32.0314 C193.19072,40.7082 190.16472,47.719 184.09912,53.0706 C181.05272,55.7566 177.86352,57.613 174.53152,58.6602 C171.41032,59.7074 166.99712,60.231 161.27152,60.231 L149.58232,60.231 Z" id="Fill-9" fill="#4B4A4A" mask="url(#mask-4)"></path>
                    <path d="M212.40276,29.73572 L215.10236,29.73572 C223.16716,29.73572 227.19956,26.65532 227.19956,20.49452 C227.19956,14.72132 223.27596,11.83132 215.43556,11.83132 L212.40276,11.83132 L212.40276,29.73572 Z M222.99716,36.19572 L240.45276,60.22692 L230.04876,60.22692 L213.93956,37.14772 L212.40276,37.14772 L212.40276,60.22692 L203.89596,60.22692 L203.89596,3.83452 L213.86476,3.83452 C221.31756,3.83452 226.70316,5.23532 230.00796,8.03692 C233.65956,11.15812 235.48876,15.27212 235.48876,20.38572 C235.48876,24.37732 234.34636,27.81132 232.05476,30.68092 C229.76996,33.55732 226.74396,35.39332 222.99716,36.19572 L222.99716,36.19572 Z" id="Fill-10" fill="#4B4A4A" mask="url(#mask-4)"></path>
                    <path d="M256.59596,3.83724 L256.59596,37.80324 C256.59596,42.64484 257.38476,46.19444 258.97596,48.43844 C261.32876,51.66844 264.66076,53.28684 268.93796,53.28684 C273.24916,53.28684 276.58796,51.66844 278.94756,48.43844 C280.53876,46.26244 281.32756,42.72644 281.32756,37.80324 L281.32756,3.83724 L289.83436,3.83724 L289.83436,40.14244 C289.83436,46.08564 287.98476,50.97484 284.27876,54.82364 C280.11716,59.11444 275.00356,61.24964 268.93796,61.24964 C262.87916,61.24964 257.77916,59.11444 253.63796,54.82364 C249.93876,50.97484 248.08916,46.08564 248.08916,40.14244 L248.08916,3.83724 L256.59596,3.83724 Z" id="Fill-11" fill="#4B4A4A" mask="url(#mask-4)"></path>
                    <path d="M345.02248,6.86528 L345.02248,16.94288 C340.09928,12.83568 335.01288,10.77528 329.75648,10.77528 C323.95608,10.77528 319.08048,12.85608 315.10928,17.02448 C311.11768,21.16568 309.11848,26.23168 309.11848,32.22248 C309.11848,38.13168 311.11768,43.12288 315.10928,47.18928 C319.10088,51.25568 323.99688,53.28888 329.79048,53.28888 C332.78248,53.28888 335.32568,52.80608 337.42688,51.82688 C338.59648,51.34408 339.80008,50.67768 341.05808,49.85488 C342.31608,49.03208 343.63528,48.03248 345.02248,46.86288 L345.02248,57.12408 C340.14688,59.87808 335.03328,61.25168 329.68168,61.25168 C321.62368,61.25168 314.74208,58.43648 309.04368,52.81968 C303.37248,47.14168 300.53688,40.30088 300.53688,32.28368 C300.53688,25.10968 302.91008,18.69728 307.65648,13.08048 C313.49768,6.18528 321.06608,2.74448 330.34128,2.74448 C335.40048,2.74448 340.29648,4.11808 345.02248,6.86528" id="Fill-12" fill="#4B4A4A" mask="url(#mask-4)"></path>
                    <polygon id="Fill-13" fill="#4B4A4A" mask="url(#mask-4)" points="365.84068 26.33572 387.79108 3.83452 399.14708 3.83452 373.65388 29.36172 399.29668 60.22692 387.89988 60.22692 367.59508 35.14172 365.84068 36.89612 365.84068 60.22692 357.32708 60.22692 357.32708 3.83452 365.84068 3.83452"></polygon>
                    <path d="M436.69668,12.23728 L429.78788,16.33088 C428.50268,14.08688 427.27188,12.63168 426.10228,11.94488 C424.88508,11.16968 423.31428,10.77528 421.38988,10.77528 C419.03028,10.77528 417.06508,11.44848 415.51468,12.78808 C413.95068,14.10048 413.17548,15.75968 413.17548,17.75888 C413.17548,20.50608 415.22228,22.72288 419.30908,24.39568 L424.93268,26.70088 C429.50908,28.55048 432.86148,30.80808 434.97628,33.47368 C437.09788,36.14608 438.15868,39.41008 438.15868,43.27928 C438.15868,48.46768 436.42468,52.75168 432.97028,56.13808 C429.48188,59.55168 425.17068,61.25168 420.00268,61.25168 C415.10668,61.25168 411.06748,59.80328 407.87828,56.90648 C404.73668,54.00968 402.77828,49.92968 401.99628,44.67328 L410.61868,42.76928 C411.00628,46.08768 411.68628,48.36568 412.66548,49.63728 C414.41988,52.07168 416.97668,53.28888 420.33588,53.28888 C422.98108,53.28888 425.19108,52.39808 426.93868,50.63008 C428.69308,48.84848 429.57028,46.59088 429.57028,43.86408 C429.57028,42.76928 429.42068,41.76968 429.12148,40.85168 C428.81548,39.94048 428.33268,39.09728 427.69348,38.33568 C427.04748,37.56728 426.21108,36.84648 425.19108,36.18008 C424.16428,35.51368 422.95388,34.86768 421.53268,34.26248 L416.09948,31.99128 C408.37468,28.73408 404.51908,23.96048 404.51908,17.67728 C404.51908,13.44088 406.13748,9.89808 409.37428,7.04888 C412.61108,4.17928 416.64348,2.74448 421.46468,2.74448 C427.96548,2.74448 433.04508,5.90648 436.69668,12.23728" id="Fill-14" fill="#4B4A4A" mask="url(#mask-4)"></path>
                    <polygon id="Fill-15" fill="#4B4A4A" mask="url(#mask-4)" points="451.12016 3.83724 466.71936 42.91684 482.52936 3.83724 491.84536 3.83724 466.53576 64.46604 441.81096 3.83724"></polygon>
                    <path d="M502.14668,31.88724 C502.14668,38.11604 504.24108,43.24324 508.42988,47.26884 C512.59148,51.28084 517.39908,53.28684 522.85268,53.28684 C528.76868,53.28684 533.75988,51.24684 537.82628,47.15324 C541.89948,43.01884 543.93268,37.97324 543.93268,32.03004 C543.93268,26.01884 541.91988,20.98004 537.90108,16.91364 C533.90948,12.82004 528.96588,10.78004 523.07028,10.78004 C517.20868,10.78004 512.24468,12.82004 508.21228,16.91364 C504.16628,20.95964 502.14668,25.95084 502.14668,31.88724 M493.55828,31.77844 C493.55828,23.83604 496.46868,17.02244 502.28948,11.33084 C508.08308,5.63244 515.04628,2.77644 523.18588,2.77644 C531.21668,2.77644 538.10508,5.65284 543.85788,11.39204 C549.62428,17.14484 552.50748,24.05364 552.50748,32.10484 C552.50748,40.21724 549.61068,47.09204 543.81708,52.73604 C537.99628,58.41404 530.97188,61.24964 522.74388,61.24964 C515.46108,61.24964 508.92628,58.72684 503.13268,53.69484 C496.75428,48.11884 493.55828,40.80884 493.55828,31.77844" id="Fill-16" fill="#4B4A4A" mask="url(#mask-4)"></path>
                    <polygon id="Fill-17" fill="#4B4A4A" mask="url(#mask-4)" points="571.7202 3.83724 571.7202 52.23284 588.2986 52.23284 588.2986 60.22964 563.2134 60.22964 563.2134 3.83724"></polygon>
                    <polygon id="Fill-18" fill="#4B4A4A" mask="url(#mask-4)" points="604.8838 3.83724 604.8838 52.23284 621.4622 52.23284 621.4622 60.22964 596.377 60.22964 596.377 3.83724"></polygon>
                    <path d="M79.88912,90.72288 L79.88912,124.68888 C79.88912,129.53048 80.67792,133.08008 82.26232,135.32408 C84.62192,138.55408 87.94712,140.17248 92.23112,140.17248 C96.54232,140.17248 99.87432,138.55408 102.24072,135.32408 C103.82512,133.14808 104.61392,129.61208 104.61392,124.68888 L104.61392,90.72288 L113.12752,90.72288 L113.12752,127.02808 C113.12752,132.97128 111.27112,137.86048 107.57192,141.70928 C103.41032,146.00008 98.29672,148.13528 92.23112,148.13528 C86.17232,148.13528 81.07232,146.00008 76.92432,141.70928 C73.23192,137.86048 71.37552,132.97128 71.37552,127.02808 L71.37552,90.72288 L79.88912,90.72288 Z" id="Fill-19" fill="#4B4A4A" mask="url(#mask-4)"></path>
                    <polygon id="Fill-20" fill="#4B4A4A" mask="url(#mask-4)" points="126.63912 147.11528 126.63912 86.88768 167.76552 129.91808 167.76552 90.72288 176.27232 90.72288 176.27232 150.54928 135.14592 107.62768 135.14592 147.11528"></polygon>
                    <polygon id="Fill-21" fill="#4B4A4A" mask="url(#mask-4)" points="198.2982 113.22136 220.2486 90.72016 231.6046 90.72016 206.1114 116.24736 231.7542 147.11256 220.3574 147.11256 200.0526 122.02736 198.2982 123.78176 198.2982 147.11256 189.7846 147.11256 189.7846 90.72016 198.2982 90.72016"></polygon>
                    <polygon id="Fill-22" fill="#4B4A4A" mask="url(#mask-4)" points="257.97704 98.71832 257.97704 147.11392 249.46344 147.11392 249.46344 98.71832 236.50264 98.71832 236.50264 90.72152 270.90384 90.72152 270.90384 98.71832"></polygon>
                </g>
            </g>
        </g>
    </g>
</svg>