<?xml version="1.0" encoding="UTF-8"?>
<svg width="721px" height="245px" viewBox="0 0 721 245" version="1.1" xmlns="http://www.w3.org/2000/svg" xmlns:xlink="http://www.w3.org/1999/xlink">
    <!-- Generator: Sketch 43.2 (39069) - http://www.bohemiancoding.com/sketch -->
    <title>wortpaare/einfach-persönlich-neg</title>
    <desc>Created with Sketch.</desc>
    <defs>
        <polygon id="path-1" points="0 0.251710667 0 89.3904573 83.7827188 89.3904573 83.7827188 0.251710667 2.06201208e-19 0.251710667"></polygon>
        <polygon id="path-3" points="0 244.508945 720.245949 244.508945 720.245949 0.003052 0 0.003052"></polygon>
    </defs>
    <g id="Page-1" stroke="none" stroke-width="1" fill="none" fill-rule="evenodd">
        <g id="Desktop-Intro-Kontakt-Copy" transform="translate(-351.000000, -354.000000)">
            <g id="wortpaare/einfach-persönlich/neg" transform="translate(351.000000, 354.000000)">
                <g id="Page-1-Copy">
                    <path d="M69.9269586,177.181825 L69.9269586,176.866452 C69.9269586,162.837425 60.4835378,153.528825 49.3360411,153.528825 C38.1682578,153.528825 28.8972733,162.837425 28.8972733,176.866452 L28.8972733,177.181825 C28.8972733,191.221025 38.1682578,200.519452 49.3360411,200.519452 C60.4835378,200.519452 69.9269586,191.373625 69.9269586,177.181825 Z M5.30393633,134.769199 L29.2117159,134.769199 L29.2117159,146.905985 C35.023832,139.031825 43.0370462,133.192332 55.4625998,133.192332 C75.1101896,133.192332 93.8144515,148.645625 93.8144515,176.866452 L93.8144515,177.181825 C93.8144515,205.402652 75.4246321,220.855945 55.4625998,220.855945 C42.7226036,220.855945 34.861539,215.026625 29.2117159,208.241012 L29.2117159,244.508945 L5.30393633,244.508945 L5.30393633,134.769199 Z" id="Fill-1" fill="#FFFFFF"></path>
                    <g id="Group-5" transform="translate(0.000000, 2.682279)">
                        <mask id="mask-2" fill="white">
                            <use xlink:href="#path-1"></use>
                        </mask>
                        <g id="Clip-4"></g>
                        <path d="M60.2096685,37.954084 C58.7794619,27.088964 52.4094638,19.7438173 42.2255815,19.7438173 C32.1837054,19.7438173 25.6514144,26.9261907 23.7444723,37.954084 L60.2096685,37.954084 Z M-0.00101433091,45.1466307 L-0.00101433091,44.821084 C-0.00101433091,20.374564 17.3643308,0.251710667 42.2255815,0.251710667 C70.72828,0.251710667 83.7827188,22.4600973 83.7827188,46.743844 C83.7827188,48.6564307 83.6305692,50.894564 83.4682763,53.1326973 L24.0589149,53.1326973 C26.4527358,64.1504173 34.0906476,69.8983507 44.9135584,69.8983507 C53.0484923,69.8983507 58.9417549,67.344844 65.6261956,61.118764 L79.4819558,73.4081507 C71.5194581,83.3169773 60.0473755,89.3904573 44.6092591,89.3904573 C18.9568304,89.3904573 -0.00101433091,71.342964 -0.00101433091,45.1466307 L-0.00101433091,45.1466307 Z" id="Fill-3" fill="#FFFFFF" mask="url(#mask-2)"></path>
                    </g>
                    <mask id="mask-4" fill="white">
                        <use xlink:href="#path-3"></use>
                    </mask>
                    <g id="Clip-7"></g>
                    <polygon id="Fill-6" fill="#FFFFFF" mask="url(#mask-4)" points="96.0267073 90.1082653 108.715987 90.1082653 108.715987 5.740812 96.0267073 5.740812"></polygon>
                    <polygon id="Fill-8" fill="#FFFFFF" mask="url(#mask-4)" points="128.934645 90.107248 128.934645 0.00203466667 190.281378 64.378888 190.281378 5.73979467 202.970658 5.73979467 202.970658 95.2447813 141.623925 31.0307013 141.623925 90.107248"></polygon>
                    <polygon id="Fill-9" fill="#FFFFFF" mask="url(#mask-4)" points="265.135957 17.7016 235.821793 17.7016 235.821793 37.9770533 264.091196 37.9770533 264.091196 49.9510667 235.821793 49.9510667 235.821793 90.1052133 223.12237 90.1052133 223.12237 5.73776 265.135957 5.73776"></polygon>
                    <path d="M318.527293,57.6502453 L306.051023,28.9716187 L292.966154,57.6502453 L318.527293,57.6502453 Z M323.70038,69.6242587 L287.691633,69.6242587 L278.319215,90.1031787 L264.646035,90.1031787 L306.264032,0.435418667 L346.421393,90.1031787 L332.525059,90.1031787 L323.70038,69.6242587 Z" id="Fill-10" fill="#FFFFFF" mask="url(#mask-4)"></path>
                    <path d="M415.175785,10.2709973 L415.175785,25.3478773 C407.832029,19.203184 400.244834,16.120664 392.404056,16.120664 C383.751813,16.120664 376.479061,19.233704 370.555368,25.4699573 C364.601246,31.6655173 361.619113,39.2446507 361.619113,48.2073573 C361.619113,57.047984 364.601246,64.5152107 370.555368,70.598864 C376.509491,76.6825173 383.812673,79.724344 392.454772,79.724344 C396.917828,79.724344 400.711426,79.0020373 403.845709,77.5370773 C405.590358,76.8147707 407.385723,75.817784 409.262236,74.5868107 C411.138748,73.3558373 413.10655,71.8603573 415.175785,70.110544 L415.175785,85.462104 C407.903032,89.582304 400.275264,91.6373173 392.292479,91.6373173 C380.272658,91.6373173 370.007629,87.4255573 361.507536,79.022384 C353.048017,70.5276507 348.818257,60.2932773 348.818257,48.2989173 C348.818257,37.5660507 352.358272,27.9725973 359.438301,19.569424 C368.151404,9.253664 379.440907,4.10595733 393.27638,4.10595733 C400.823002,4.10595733 408.126185,6.16097067 415.175785,10.2709973" id="Fill-11" fill="#FFFFFF" mask="url(#mask-4)"></path>
                    <polygon id="Fill-12" fill="#FFFFFF" mask="url(#mask-4)" points="446.229526 38.7441227 482.512142 38.7441227 482.512142 5.74182933 495.201422 5.74182933 495.201422 90.1092827 482.512142 90.1092827 482.512142 50.7079627 446.229526 50.7079627 446.229526 90.1092827 433.530103 90.1092827 433.530103 5.74182933 446.229526 5.74182933"></polygon>
                    <polygon id="Fill-13" fill="#FFFFFF" mask="url(#mask-4)" points="152.886041 147.690349 119.169681 147.690349 119.169681 167.965803 151.90214 167.965803 151.90214 179.939816 119.169681 179.939816 119.169681 208.130123 152.886041 208.130123 152.886041 220.093963 106.470258 220.093963 106.470258 135.726509 152.886041 135.726509"></polygon>
                    <path d="M182.255992,174.474701 L186.282886,174.474701 C198.302707,174.474701 204.31769,169.866181 204.31769,160.649141 C204.31769,152.011981 198.475144,147.688315 186.769765,147.688315 L182.255992,147.688315 L182.255992,174.474701 Z M198.059268,184.139368 L224.097142,220.091928 L208.567736,220.091928 L184.54838,185.563635 L182.255992,185.563635 L182.255992,220.091928 L169.556569,220.091928 L169.556569,135.724475 L184.436804,135.724475 C195.55387,135.724475 203.577228,137.820181 208.51702,142.011595 C213.963977,146.681155 216.692527,152.836021 216.692527,160.486368 C216.692527,166.458115 214.978307,171.595648 211.570156,175.888795 C208.15186,180.192115 203.638088,182.938915 198.059268,184.139368 L198.059268,184.139368 Z" id="Fill-14" fill="#FFFFFF" mask="url(#mask-4)"></path>
                    <path d="M284.293624,148.29668 L273.998166,154.421027 C272.070937,151.063827 270.234998,148.886733 268.490349,147.859227 C266.68484,146.699467 264.331592,146.109413 261.471179,146.109413 C257.941307,146.109413 255.020034,147.116573 252.697217,149.12072 C250.374399,151.084173 249.207918,153.566467 249.207918,156.557427 C249.207918,160.667453 252.261054,163.98396 258.357183,166.4866 L266.755843,169.93536 C273.58229,172.702507 278.582941,176.080053 281.737511,180.068 C284.902223,184.06612 286.474436,188.94932 286.474436,194.737947 C286.474436,202.5002 283.898035,208.9094 278.735091,213.97572 C273.541717,219.082733 267.100716,221.626067 259.401944,221.626067 C252.098761,221.626067 246.063492,219.459147 241.316424,215.125307 C236.630215,210.791467 233.708942,204.687467 232.532318,196.82348 L245.394034,193.974947 C245.982346,198.939533 246.996677,202.3476 248.44717,204.250013 C251.064144,207.892067 254.878028,209.713093 259.888823,209.713093 C263.844713,209.713093 267.141289,208.380387 269.748119,205.73532 C272.365093,203.069907 273.67358,199.69236 273.67358,195.612853 C273.67358,193.974947 273.450427,192.479467 272.993978,191.106067 C272.537529,189.74284 271.827498,188.481347 270.863883,187.341933 C269.900269,186.192347 268.662785,185.113973 267.141289,184.116987 C265.609649,183.12 263.793997,182.153533 261.684188,181.248107 L253.569541,177.850213 C242.056885,172.977187 236.305629,165.835507 236.305629,156.435347 C236.305629,150.09736 238.719737,144.797053 243.537809,140.534427 C248.376167,136.24128 254.391149,134.094707 261.582755,134.094707 C271.279759,134.094707 278.846667,138.825307 284.293624,148.29668" id="Fill-15" fill="#FFFFFF" mask="url(#mask-4)"></path>
                    <path d="M346.134337,119.336252 C346.134337,117.230372 346.895085,115.399172 348.426725,113.873172 C349.948221,112.347172 351.78416,111.573999 353.924398,111.573999 C356.064637,111.573999 357.900576,112.347172 359.432215,113.873172 C360.953712,115.399172 361.71446,117.260892 361.71446,119.448159 C361.71446,121.604905 360.953712,123.425932 359.432215,124.962105 C357.900576,126.488105 356.064637,127.261279 353.924398,127.261279 C351.743587,127.261279 349.887361,126.488105 348.365865,124.962105 C346.874799,123.364892 346.134337,121.482825 346.134337,119.336252 M321.668676,119.336252 C321.668676,117.230372 322.429424,115.399172 323.95092,113.873172 C325.48256,112.347172 327.308355,111.573999 329.40802,111.573999 C331.578689,111.573999 333.414627,112.347172 334.915837,113.873172 C336.437334,115.399172 337.198082,117.260892 337.198082,119.448159 C337.198082,121.604905 336.437334,123.425932 334.915837,124.962105 C333.414627,126.488105 331.598975,127.261279 329.458737,127.261279 C327.288069,127.261279 325.431843,126.488105 323.910347,124.962105 C322.409137,123.364892 321.668676,121.482825 321.668676,119.336252 M310.399459,177.690492 C310.399459,187.009265 313.513455,194.679959 319.761733,200.702572 C325.979582,206.704839 333.150901,209.716145 341.275692,209.716145 C350.110514,209.716145 357.555703,206.653972 363.621402,200.529625 C369.687101,194.344239 372.71995,186.795625 372.71995,177.914305 C372.71995,168.910905 369.717531,161.382639 363.722835,155.288812 C357.768713,149.174639 350.40467,146.112465 341.610421,146.112465 C332.856745,146.112465 325.462273,149.174639 319.437148,155.288812 C313.401879,161.341945 310.399459,168.809172 310.399459,177.690492 M297.58846,177.537892 C297.58846,165.655439 301.929796,155.461759 310.612469,146.936505 C319.254568,138.411252 329.641316,134.138452 341.772714,134.138452 C353.762106,134.138452 364.037278,138.441772 372.608374,147.038239 C381.220043,155.634705 385.520806,165.970812 385.520806,178.026212 C385.520806,190.152825 381.199757,200.448239 372.547514,208.892105 C363.874985,217.386839 353.396946,221.629119 341.123542,221.629119 C330.260058,221.629119 320.512338,217.854812 311.860096,210.316372 C302.355815,201.974239 297.58846,191.048079 297.58846,177.537892" id="Fill-16" fill="#FFFFFF" mask="url(#mask-4)"></path>
                    <polygon id="Fill-17" fill="#FFFFFF" mask="url(#mask-4)" points="401.486375 220.095997 401.486375 129.990784 462.833108 194.367637 462.833108 135.728544 475.522388 135.728544 475.522388 225.233531 414.175655 161.019451 414.175655 220.095997"></polygon>
                    <polygon id="Fill-18" fill="#FFFFFF" mask="url(#mask-4)" points="508.37758 135.728544 508.37758 208.132157 533.106968 208.132157 533.106968 220.095997 495.678157 220.095997 495.678157 135.728544"></polygon>
                    <polygon id="Fill-19" fill="#FFFFFF" mask="url(#mask-4)" points="545.142004 220.092945 557.841427 220.092945 557.841427 135.725492 545.142004 135.725492"></polygon>
                    <path d="M640.220312,140.258729 L640.220312,155.335609 C632.876556,149.190916 625.289361,146.108396 617.448583,146.108396 C608.796341,146.108396 601.523588,149.221436 595.599895,155.457689 C589.645773,161.653249 586.66364,169.232383 586.66364,178.195089 C586.66364,187.035716 589.645773,194.502943 595.599895,200.586596 C601.554018,206.670249 608.8572,209.712076 617.4993,209.712076 C621.962356,209.712076 625.755953,208.989769 628.890236,207.524809 C630.634885,206.802503 632.430251,205.805516 634.306763,204.574543 C636.183275,203.343569 638.151077,201.848089 640.220312,200.098276 L640.220312,215.449836 C632.94756,219.570036 625.319791,221.625049 617.337007,221.625049 C605.317186,221.625049 595.052157,217.413289 586.552064,209.010116 C578.092544,200.515383 573.862784,190.281009 573.862784,178.286649 C573.862784,167.553783 577.402799,157.960329 584.482829,149.557156 C593.195931,139.241396 604.485434,134.093689 618.320908,134.093689 C625.86753,134.093689 633.170712,136.148703 640.220312,140.258729" id="Fill-20" fill="#FFFFFF" mask="url(#mask-4)"></path>
                    <polygon id="Fill-21" fill="#FFFFFF" mask="url(#mask-4)" points="671.275067 168.732872 707.557684 168.732872 707.557684 135.730579 720.246964 135.730579 720.246964 220.098032 707.557684 220.098032 707.557684 180.696712 671.275067 180.696712 671.275067 220.098032 658.575644 220.098032 658.575644 135.730579 671.275067 135.730579"></polygon>
                </g>
            </g>
        </g>
    </g>
</svg>