<?xml version="1.0" encoding="UTF-8"?>
<svg width="503px" height="170px" viewBox="0 0 503 170" version="1.1" xmlns="http://www.w3.org/2000/svg" xmlns:xlink="http://www.w3.org/1999/xlink">
    <!-- Generator: Sketch 44 (41411) - http://www.bohemiancoding.com/sketch -->
    <title>wortpaare/einfach-persoenlich-pos</title>
    <desc>Created with Sketch.</desc>
    <defs>
        <polygon id="path-1" points="0 0.34134547 0 62.2145455 58.4207442 62.2145455 58.4207442 0.34134547 3.83441278e-19 0.34134547"></polygon>
        <polygon id="path-3" points="0 169.719134 502.249774 169.719134 502.249774 0.00211846154 0 0.00211846154"></polygon>
    </defs>
    <g id="Page-1" stroke="none" stroke-width="1" fill="none" fill-rule="evenodd">
        <g id="Desktop-2-Kontakt" transform="translate(-217.000000, -190.000000)">
            <g id="wortpaare/einfach-persoenlich/pos" transform="translate(217.000000, 190.000000)">
                <g id="Page-1">
                    <path d="M48.7586941,122.985872 L48.7586941,122.766965 C48.7586941,113.029103 42.180578,106.567795 34.4000106,106.567795 C26.6123699,106.567795 20.1474257,113.029103 20.1474257,122.766965 L20.1474257,122.985872 C20.1474257,132.730795 26.6123699,139.185042 34.4000106,139.185042 C42.180578,139.185042 48.7586941,132.836718 48.7586941,122.985872 Z M3.70213545,93.5463185 L20.3666962,93.5463185 L20.3666962,101.970734 C24.4196645,96.5051031 30.0145998,92.45178 38.6722494,92.45178 C52.3801946,92.45178 65.4161816,103.178257 65.4161816,122.766965 L65.4161816,122.985872 C65.4161816,142.57458 52.5994651,153.301057 38.6722494,153.301057 C29.7882561,153.301057 24.3135659,149.254795 20.3666962,144.544749 L20.3666962,169.719134 L3.70213545,169.719134 L3.70213545,93.5463185 Z" id="Fill-1" fill="#DB071A"></path>
                    <g id="Group-5" transform="translate(0.000000, 1.695202)">
                        <mask id="mask-2" fill="white">
                            <use xlink:href="#path-1"></use>
                        </mask>
                        <g id="Clip-4"></g>
                        <path d="M41.9825272,26.511407 C40.9851999,18.9696839 36.5432032,13.8712532 29.4416671,13.8712532 C22.4391565,13.8712532 17.8910611,18.8566993 16.5542182,26.511407 L41.9825272,26.511407 Z M-0.00424394587,31.5039147 L-0.00424394587,31.2779455 C-0.00424394587,14.3090685 12.1051483,0.34134547 29.4416671,0.34134547 C49.3174803,0.34134547 58.4207442,15.7566839 58.4207442,32.6125762 C58.4207442,33.9401455 58.3217188,35.4936839 58.2085469,37.0472224 L16.7734887,37.0472224 C18.4427741,44.6948685 23.7759994,48.6846378 31.3231498,48.6846378 C36.9888175,48.6846378 41.105445,46.9121916 45.759639,42.5905301 L55.4287623,51.1208685 C49.8762665,57.998807 41.8764285,62.2145455 31.1038793,62.2145455 C13.2227207,62.2145455 -0.00424394587,49.6873762 -0.00424394587,31.5039147 L-0.00424394587,31.5039147 Z" id="Fill-3" fill="#DB071A" mask="url(#mask-2)"></path>
                    </g>
                    <mask id="mask-4" fill="white">
                        <use xlink:href="#path-3"></use>
                    </mask>
                    <g id="Clip-7"></g>
                    <polygon id="Fill-6" fill="#4B4A4A" mask="url(#mask-4)" points="66.9623926 62.5461646 75.8110197 62.5461646 75.8110197 3.98482615 66.9623926 3.98482615"></polygon>
                    <polygon id="Fill-8" fill="#4B4A4A" mask="url(#mask-4)" points="89.9065786 62.5454585 89.9065786 0.00141230769 132.685553 44.6868277 132.685553 3.98412 141.53418 3.98412 141.53418 66.1115354 98.7552057 21.5391046 98.7552057 62.5454585"></polygon>
                    <polygon id="Fill-9" fill="#4B4A4A" mask="url(#mask-4)" points="184.883965 12.2870769 164.442293 12.2870769 164.442293 26.3607231 184.155421 26.3607231 184.155421 34.6721538 164.442293 34.6721538 164.442293 62.5440462 155.586592 62.5440462 155.586592 3.98270769 184.883965 3.98270769"></polygon>
                    <path d="M222.115395,40.0163262 L213.415306,20.1098492 L204.290822,40.0163262 L222.115395,40.0163262 Z M225.722749,48.3277569 L200.612736,48.3277569 L194.077059,62.5426338 L184.542328,62.5426338 L213.563844,0.302233846 L241.566814,62.5426338 L231.87647,62.5426338 L225.722749,48.3277569 Z" id="Fill-10" fill="#4B4A4A" mask="url(#mask-4)"></path>
                    <path d="M289.511377,7.12932923 L289.511377,17.5945292 C284.390349,13.32936 279.099563,11.1897138 273.631947,11.1897138 C267.59847,11.1897138 262.526955,13.3505446 258.396181,17.6792677 C254.244187,21.9797446 252.164654,27.2405908 252.164654,33.4618062 C252.164654,39.5982831 254.244187,44.7814523 258.396181,49.0042523 C262.548175,53.2270523 267.64091,55.3384523 273.667313,55.3384523 C276.77954,55.3384523 279.424933,54.8370831 281.610565,53.8202215 C282.827163,53.3188523 284.079127,52.6268215 285.387677,51.7723754 C286.696227,50.9179292 288.068436,49.8798831 289.511377,48.6652985 L289.511377,59.32116 C284.439862,62.1810831 279.120783,63.6075138 273.554141,63.6075138 C265.172348,63.6075138 258.014226,60.6840369 252.086848,54.8512062 C246.187763,48.9548215 243.238221,41.8509138 243.238221,33.52536 C243.238221,26.0754369 245.706783,19.4164062 250.643906,13.5835754 C256.719822,6.42317538 264.592342,2.85003692 274.240245,2.85003692 C279.502738,2.85003692 284.595473,4.27646769 289.511377,7.12932923" id="Fill-11" fill="#4B4A4A" mask="url(#mask-4)"></path>
                    <polygon id="Fill-12" fill="#4B4A4A" mask="url(#mask-4)" points="311.166111 26.8931631 336.467102 26.8931631 336.467102 3.98553231 345.315729 3.98553231 345.315729 62.5468708 336.467102 62.5468708 336.467102 35.1975323 311.166111 35.1975323 311.166111 62.5468708 302.310411 62.5468708 302.310411 3.98553231 311.166111 3.98553231"></polygon>
                    <polygon id="Fill-13" fill="#4B4A4A" mask="url(#mask-4)" points="106.608628 102.515178 83.0971674 102.515178 83.0971674 116.588825 105.922523 116.588825 105.922523 124.900255 83.0971674 124.900255 83.0971674 144.467778 106.608628 144.467778 106.608628 152.772148 74.2414671 152.772148 74.2414671 94.2108092 106.608628 94.2108092"></polygon>
                    <path d="M127.089203,121.106797 L129.897281,121.106797 C138.279074,121.106797 142.473507,117.90792 142.473507,111.510166 C142.473507,105.51492 138.399319,102.513766 130.236796,102.513766 L127.089203,102.513766 L127.089203,121.106797 Z M138.109316,127.815258 L156.266331,152.770735 L145.437196,152.770735 L128.687756,128.803874 L127.089203,128.803874 L127.089203,152.770735 L118.233503,152.770735 L118.233503,94.2093969 L128.60995,94.2093969 C136.362225,94.2093969 141.95716,95.6640738 145.401829,98.5734277 C149.200161,101.814674 151.102863,106.086905 151.102863,111.397182 C151.102863,115.542305 149.907485,119.108382 147.530876,122.088351 C145.147193,125.075382 141.999599,126.981997 138.109316,127.815258 L138.109316,127.815258 Z" id="Fill-14" fill="#4B4A4A" mask="url(#mask-4)"></path>
                    <path d="M198.243199,102.936046 L191.063858,107.187092 C189.719941,104.856785 188.439684,103.345615 187.223087,102.6324 C185.964049,101.827385 184.323057,101.417815 182.328402,101.417815 C179.866914,101.417815 177.82982,102.116908 176.210047,103.508031 C174.590274,104.870908 173.776851,106.593923 173.776851,108.670015 C173.776851,111.522877 175.905898,113.824938 180.156917,115.562077 L186.013562,117.955938 C190.773855,119.876677 194.260964,122.221108 196.460742,124.989231 C198.667594,127.764415 199.763947,131.153954 199.763947,135.171969 C199.763947,140.559923 197.967343,145.008692 194.367062,148.525338 C190.745562,152.070231 186.254052,153.835615 180.885461,153.835615 C175.792726,153.835615 171.584146,152.331508 168.273868,149.323292 C165.00603,146.315077 162.968936,142.078154 162.14844,136.619585 L171.117312,134.642354 C171.52756,138.088385 172.234884,140.454 173.246358,141.774508 C175.071255,144.302538 177.730794,145.566554 181.224976,145.566554 C183.983541,145.566554 186.282345,144.641492 188.100169,142.805492 C189.925066,140.955369 190.837514,138.610938 190.837514,135.779262 C190.837514,134.642354 190.681903,133.604308 190.363607,132.651 C190.045311,131.704754 189.550184,130.829123 188.878226,130.038231 C188.206267,129.240277 187.343332,128.491754 186.282345,127.799723 C185.214286,127.107692 183.948175,126.436846 182.476941,125.808369 L176.818346,123.449815 C168.790215,120.067338 164.779686,115.110138 164.779686,108.585277 C164.779686,104.185938 166.463118,100.506877 169.822909,97.5480923 C173.196846,94.5681231 177.391279,93.0781385 182.406208,93.0781385 C189.168229,93.0781385 194.444868,96.3617538 198.243199,102.936046" id="Fill-15" fill="#4B4A4A" mask="url(#mask-4)"></path>
                    <path d="M241.366641,82.8339646 C241.366641,81.3722262 241.897134,80.1011492 242.965194,79.0419185 C244.02618,77.9826877 245.306437,77.4460108 246.798891,77.4460108 C248.291346,77.4460108 249.571603,77.9826877 250.639662,79.0419185 C251.700649,80.1011492 252.231142,81.3934108 252.231142,82.9116415 C252.231142,84.4086877 251.700649,85.6727031 250.639662,86.7389954 C249.571603,87.7982262 248.291346,88.3349031 246.798891,88.3349031 C245.278144,88.3349031 243.983741,87.7982262 242.922754,86.7389954 C241.882987,85.6303338 241.366641,84.3239492 241.366641,82.8339646 M224.305978,82.8339646 C224.305978,81.3722262 224.836472,80.1011492 225.897458,79.0419185 C226.965518,77.9826877 228.238702,77.4460108 229.702863,77.4460108 C231.216537,77.4460108 232.496794,77.9826877 233.543634,79.0419185 C234.60462,80.1011492 235.135114,81.3934108 235.135114,82.9116415 C235.135114,84.4086877 234.60462,85.6727031 233.543634,86.7389954 C232.496794,87.7982262 231.230683,88.3349031 229.738229,88.3349031 C228.224555,88.3349031 226.930152,87.7982262 225.869165,86.7389954 C224.822325,85.6303338 224.305978,84.3239492 224.305978,82.8339646 M216.447605,123.338949 C216.447605,129.807318 218.619091,135.131718 222.976209,139.312149 C227.312107,143.478457 232.31289,145.568672 237.978557,145.568672 C244.139352,145.568672 249.331112,143.443149 253.560912,139.192103 C257.790711,134.898688 259.905611,129.659026 259.905611,123.494303 C259.905611,117.244842 257.811931,112.019303 253.631644,107.789442 C249.479651,103.545457 244.344476,101.419934 238.211974,101.419934 C232.107765,101.419934 226.951371,103.545457 222.749865,107.789442 C218.541285,111.991057 216.447605,117.174226 216.447605,123.338949 M207.514099,123.233026 C207.514099,114.985149 210.541447,107.909488 216.596143,101.991918 C222.622546,96.0743492 229.865547,93.1085031 238.325146,93.1085031 C246.68572,93.1085031 253.850915,96.0955338 259.827805,102.062534 C265.832989,108.029534 268.832044,115.204057 268.832044,123.57198 C268.832044,131.989334 265.818842,139.135611 259.785366,144.996688 C253.737743,150.893072 246.431083,153.837734 237.872459,153.837734 C230.297015,153.837734 223.499629,151.217903 217.466152,145.985303 C210.838523,140.194842 207.514099,132.610749 207.514099,123.233026" id="Fill-16" fill="#4B4A4A" mask="url(#mask-4)"></path>
                    <polygon id="Fill-17" fill="#4B4A4A" mask="url(#mask-4)" points="279.965328 152.77356 279.965328 90.2295138 322.744303 134.914929 322.744303 94.2122215 331.59293 94.2122215 331.59293 156.339637 288.813956 111.767206 288.813956 152.77356"></polygon>
                    <polygon id="Fill-18" fill="#4B4A4A" mask="url(#mask-4)" points="354.503872 94.2122215 354.503872 144.469191 371.748438 144.469191 371.748438 152.77356 345.648171 152.77356 345.648171 94.2122215"></polygon>
                    <polygon id="Fill-19" fill="#4B4A4A" mask="url(#mask-4)" points="380.144378 152.771442 389.000078 152.771442 389.000078 94.2101031 380.144378 94.2101031"></polygon>
                    <path d="M446.441886,97.3567246 L446.441886,107.821925 C441.320858,103.556755 436.030072,101.417109 430.562455,101.417109 C424.528979,101.417109 419.457463,103.57794 415.326689,107.906663 C411.174696,112.20714 409.095162,117.467986 409.095162,123.689202 C409.095162,129.825678 411.174696,135.008848 415.326689,139.231648 C419.478683,143.454448 424.571418,145.565848 430.597821,145.565848 C433.710048,145.565848 436.355441,145.064478 438.541073,144.047617 C439.757671,143.546248 441.009635,142.854217 442.318185,141.999771 C443.626735,141.145325 444.998944,140.107278 446.441886,138.892694 L446.441886,149.548555 C441.37037,152.408478 436.051292,153.834909 430.484649,153.834909 C422.102856,153.834909 414.944734,150.911432 409.017356,145.078602 C403.118272,139.182217 400.168729,132.078309 400.168729,123.752755 C400.168729,116.302832 402.637291,109.643802 407.574415,103.810971 C413.650331,96.6505708 421.52285,93.0774323 431.170754,93.0774323 C436.433247,93.0774323 441.525982,94.5038631 446.441886,97.3567246" id="Fill-20" fill="#4B4A4A" mask="url(#mask-4)"></path>
                    <polygon id="Fill-21" fill="#4B4A4A" mask="url(#mask-4)" points="468.096619 117.121265 493.39761 117.121265 493.39761 94.2136338 502.246237 94.2136338 502.246237 152.774972 493.39761 152.774972 493.39761 125.425634 468.096619 125.425634 468.096619 152.774972 459.240919 152.774972 459.240919 94.2136338 468.096619 94.2136338"></polygon>
                </g>
            </g>
        </g>
    </g>
</svg>