<?xml version="1.0" encoding="UTF-8"?>
<svg width="267px" height="46px" viewBox="0 0 267 46" version="1.1" xmlns="http://www.w3.org/2000/svg" xmlns:xlink="http://www.w3.org/1999/xlink">
    <!-- Generator: Sketch 43.2 (39069) - http://www.bohemiancoding.com/sketch -->
    <title>wortpaare/einfach-ep-pos</title>
    <desc>Created with Sketch.</desc>
    <defs></defs>
    <g id="Page-1" stroke="none" stroke-width="1" fill="none" fill-rule="evenodd">
        <g id="Desktop-2-Leistungen" transform="translate(-589.000000, -5803.000000)">
            <g id="wortpaare/einfach-ep-pos" transform="translate(589.000000, 5803.000000)">
                <path d="M19.2792969,7.08320313 L5.98046875,7.08320313 L5.98046875,15.0539063 L18.8925781,15.0539063 L18.8925781,19.7589844 L5.98046875,19.7589844 L5.98046875,30.8449219 L19.2792969,30.8449219 L19.2792969,35.55 L0.974609375,35.55 L0.974609375,2.378125 L19.2792969,2.378125 L19.2792969,7.08320313 Z M30.859375,2.378125 L30.859375,35.55 L25.8535156,35.55 L25.8535156,2.378125 L30.859375,2.378125 Z M38.8300781,35.55 L38.8300781,0.122265625 L63.0214844,25.4308594 L63.0214844,2.378125 L68.0273438,2.378125 L68.0273438,37.5695313 L43.8359375,12.3253906 L43.8359375,35.55 L38.8300781,35.55 Z M92.5410156,7.08320313 L80.9824219,7.08320313 L80.9824219,15.0539063 L92.1328125,15.0539063 L92.1328125,19.7589844 L80.9824219,19.7589844 L80.9824219,35.55 L75.9765625,35.55 L75.9765625,2.378125 L92.5410156,2.378125 L92.5410156,7.08320313 Z M117.828125,27.4933594 L103.626953,27.4933594 L99.9316406,35.55 L94.5390625,35.55 L110.953125,0.294140625 L126.787109,35.55 L121.308594,35.55 L117.828125,27.4933594 Z M115.787109,22.7882813 L110.867188,11.5089844 L105.710938,22.7882813 L115.787109,22.7882813 Z M155.447266,4.16132813 L155.447266,10.0910156 C152.554022,7.67043061 149.560562,6.46015625 146.466797,6.46015625 C143.057926,6.46015625 140.18621,7.68475338 137.851562,10.1339844 C135.502592,12.5688924 134.328125,15.5480293 134.328125,19.0714844 C134.328125,22.5519705 135.502592,25.4881391 137.851562,27.8800781 C140.200533,30.2720172 143.07941,31.4679688 146.488281,31.4679688 C148.250009,31.4679688 149.746739,31.1815133 150.978516,30.6085938 C151.666019,30.322134 152.378577,29.9354191 153.116211,29.4484375 C153.853845,28.9614559 154.630855,28.3742222 155.447266,27.6867188 L155.447266,33.7238281 C152.582668,35.3423258 149.574886,36.1515625 146.423828,36.1515625 C141.682919,36.1515625 137.636736,34.4972822 134.285156,31.1886719 C130.9479,27.8514156 129.279297,23.8267163 129.279297,19.1144531 C129.279297,14.8891716 130.675767,11.1222822 133.46875,7.81367188 C136.906267,3.76026619 141.353488,1.73359375 146.810547,1.73359375 C149.789728,1.73359375 152.668606,2.54283045 155.447266,4.16132813 Z M166.769531,15.3546875 L181.078125,15.3546875 L181.078125,2.378125 L186.083984,2.378125 L186.083984,35.55 L181.078125,35.55 L181.078125,20.0597656 L166.769531,20.0597656 L166.769531,35.55 L161.763672,35.55 L161.763672,2.378125 L166.769531,2.378125 L166.769531,15.3546875 Z" id="EINFACH" fill="#4A4A4A"></path>
                <g id="Logo-ep-solo" transform="translate(196.000000, 0.000000)" fill="#DB081A">
                    <path d="M22.5731629,17.0100736 C22.0362021,12.8651446 19.6509213,10.0636143 15.8284312,10.0636143 C12.0655103,10.0636143 9.61730441,12.8034972 8.90079728,17.0100736 L22.5731629,17.0100736 Z M-0.000167800265,19.7525252 L-0.000167800265,19.6292304 C-0.000167800265,10.3050665 6.5113215,2.62825712 15.8284312,2.62825712 C26.5156301,2.62825712 31.4120419,11.0979201 31.4120419,20.3621491 C31.4120419,21.0933554 31.3533118,21.9470001 31.2954207,22.7989325 L9.01741846,22.7989325 C9.91682789,27.0055089 12.7811784,29.196559 16.8402668,29.196559 C19.8875197,29.196559 22.0982882,28.2221882 24.6043851,25.8470522 L29.8003203,30.5382454 C26.8151536,34.3167152 22.5152718,36.6327724 16.7236457,36.6327724 C7.10617344,36.6327724 -0.000167800265,29.7471042 -0.000167800265,19.7525252 L-0.000167800265,19.7525252 Z" id="Fill-1"></path>
                    <path d="M61.0197275,19.6293161 L61.0197275,19.5077338 C61.0197275,14.0844781 57.4355139,10.4883818 53.1968791,10.4883818 C48.9548884,10.4883818 45.4319219,14.0844781 45.4319219,19.5077338 L45.4319219,19.6293161 C45.4319219,25.0542842 48.9548884,28.6495243 53.1968791,28.6495243 C57.4355139,28.6495243 61.0197275,25.1142191 61.0197275,19.6293161 L61.0197275,19.6293161 Z M36.4730657,3.23625426 L45.5527381,3.23625426 L45.5527381,7.92830371 C47.7593115,4.88189642 50.8074034,2.62834275 55.5242688,2.62834275 C62.9888636,2.62834275 70.0952049,8.59957502 70.0952049,19.5077338 L70.0952049,19.6293161 C70.0952049,30.538331 63.1096798,36.5112757 55.5242688,36.5112757 C50.6865872,36.5112757 47.7014205,34.2560096 45.5527381,31.6359966 L45.5527381,45.65221 L36.4730657,45.65221 L36.4730657,3.23625426 Z" id="Fill-4"></path>
                </g>
            </g>
        </g>
    </g>
</svg>