<?xml version="1.0" encoding="UTF-8"?>
<svg width="267px" height="87px" viewBox="0 0 267 87" version="1.1" xmlns="http://www.w3.org/2000/svg" xmlns:xlink="http://www.w3.org/1999/xlink">
    <!-- Generator: Sketch 44.1 (41455) - http://www.bohemiancoding.com/sketch -->
    <title>wortpaare/eingespielt-passioniert-neg</title>
    <desc>Created with Sketch.</desc>
    <defs>
        <polygon id="path-1" points="0 0.91476 0 32.45796 29.73456 32.45796 29.73456 0.91476 0 0.91476"></polygon>
        <polygon id="path-3" points="0 86.5224 266.4324 86.5224 266.4324 0 0 0"></polygon>
    </defs>
    <g id="Page-1" stroke="none" stroke-width="1" fill="none" fill-rule="evenodd">
        <g id="negativ" transform="translate(-108.000000, -142.000000)">
            <g id="wortpaare/eingespielt-passioniert/neg" transform="translate(108.000000, 142.000000)">
                <g id="Page-1">
                    <path d="M24.81696,62.6976 L24.81696,62.586 C24.81696,57.6216 21.46896,54.3276 17.50896,54.3276 C13.54536,54.3276 10.25496,57.6216 10.25496,62.586 L10.25496,62.6976 C10.25496,67.6656 13.54536,70.956 17.50896,70.956 C21.46896,70.956 24.81696,67.7196 24.81696,62.6976 Z M1.88136,47.6892 L10.36656,47.6892 L10.36656,51.984 C12.42936,49.1976 15.27696,47.1312 19.68336,47.1312 C26.65656,47.1312 33.29496,52.5996 33.29496,62.586 L33.29496,62.6976 C33.29496,72.684 26.76816,78.1524 19.68336,78.1524 C15.16176,78.1524 12.37176,76.0896 10.36656,73.6884 L10.36656,86.5224 L1.88136,86.5224 L1.88136,47.6892 Z" id="Fill-1" fill="#FFFFFF"></path>
                    <g id="Group-5" transform="translate(0.000000, 0.122400)">
                        <mask id="mask-2" fill="white">
                            <use xlink:href="#path-1"></use>
                        </mask>
                        <g id="Clip-4"></g>
                        <path d="M21.36816,14.25636 C20.86056,10.41156 18.59976,7.81236 14.98536,7.81236 C11.42136,7.81236 9.10296,10.35396 8.42616,14.25636 L21.36816,14.25636 Z M-0.00144,16.80156 L-0.00144,16.68636 C-0.00144,8.03556 6.16176,0.91476 14.98536,0.91476 C25.10136,0.91476 29.73456,8.77356 29.73456,17.36676 C29.73456,18.04356 29.68056,18.83556 29.62296,19.62756 L8.53776,19.62756 C9.38736,23.52636 12.09816,25.56036 15.94296,25.56036 C18.82656,25.56036 20.91816,24.65676 23.29056,22.45356 L28.20816,26.80236 C25.38576,30.30876 21.31416,32.45796 15.83136,32.45796 C6.72696,32.45796 -0.00144,26.07156 -0.00144,16.80156 L-0.00144,16.80156 Z" id="Fill-3" fill="#FFFFFF" mask="url(#mask-2)"></path>
                    </g>
                    <mask id="mask-4" fill="white">
                        <use xlink:href="#path-3"></use>
                    </mask>
                    <g id="Clip-7"></g>
                    <polygon id="Fill-6" fill="#FFFFFF" mask="url(#mask-4)" points="34.0776 31.8852 38.5848 31.8852 38.5848 2.0304 34.0776 2.0304"></polygon>
                    <polygon id="Fill-8" fill="#FFFFFF" mask="url(#mask-4)" points="45.75816 31.88484 45.75816 -0.00036 67.53096 22.77684 67.53096 2.03004 72.03816 2.03004 72.03816 33.70284 50.26536 10.98324 50.26536 31.88484"></polygon>
                    <path d="M94.85388,16.33896 L107.19108,16.33896 L107.19108,17.32536 C107.19108,19.56816 106.92828,21.55176 106.39548,23.27976 C105.88068,24.87816 105.00948,26.37576 103.78548,27.76536 C101.01348,30.88656 97.48908,32.44536 93.20868,32.44536 C89.03268,32.44536 85.45788,30.93696 82.47708,27.92016 C79.49988,24.89256 78.00948,21.25656 78.00948,17.01576 C78.00948,12.68496 79.52508,9.00936 82.55628,5.99256 C85.58388,2.96496 89.27028,1.44936 93.61548,1.44936 C95.94828,1.44936 98.12628,1.92816 100.15308,2.88216 C102.08628,3.83616 103.98708,5.38416 105.85548,7.52256 L102.64428,10.59696 C100.19628,7.33536 97.21188,5.70456 93.69468,5.70456 C90.53388,5.70456 87.88428,6.79536 85.74588,8.97336 C83.60748,11.11176 82.53468,13.79376 82.53468,17.01576 C82.53468,20.34216 83.72628,23.08176 86.11308,25.23456 C88.34148,27.23256 90.76068,28.22976 93.36348,28.22976 C95.58108,28.22976 97.57188,27.48456 99.33948,25.98696 C101.10348,24.47856 102.09348,22.67496 102.29508,20.57256 L94.85388,20.57256 L94.85388,16.33896 Z" id="Fill-9" fill="#FFFFFF" mask="url(#mask-4)"></path>
                    <polygon id="Fill-10" fill="#FFFFFF" mask="url(#mask-4)" points="129.32784 6.26472 117.36144 6.26472 117.36144 13.43952 128.97864 13.43952 128.97864 17.67312 117.36144 17.67312 117.36144 27.64872 129.32784 27.64872 129.32784 31.88592 112.85424 31.88592 112.85424 2.03112 129.32784 2.03112"></polygon>
                    <path d="M152.12664,6.47748 L148.46904,8.64468 C147.78864,7.45668 147.13704,6.68268 146.51784,6.32268 C145.87344,5.90868 145.04184,5.70348 144.02304,5.70348 C142.77384,5.70348 141.73344,6.05988 140.91264,6.76908 C140.08464,7.46388 139.67424,8.34228 139.67424,9.39708 C139.67424,10.85508 140.75784,12.02868 142.92144,12.91788 L145.90224,14.13468 C148.32144,15.11388 150.09624,16.30908 151.21584,17.72028 C152.33904,19.13508 152.90064,20.86308 152.90064,22.91148 C152.90064,25.65828 151.98264,27.92628 150.15384,29.71908 C148.30704,31.52628 146.02464,32.42628 143.28864,32.42628 C140.69664,32.42628 138.55824,31.65948 136.86984,30.12588 C135.20664,28.59228 134.16984,26.43228 133.75584,23.64948 L138.32064,22.64148 C138.52584,24.39468 138.88584,25.60788 139.40424,26.27748 C140.33304,27.56628 141.68664,28.21068 143.46504,28.21068 C144.86544,28.21068 146.03544,27.73908 146.96064,26.79948 C147.88944,25.85988 148.35384,24.66468 148.35384,23.22108 C148.35384,22.64148 148.27464,22.11228 148.11624,21.62628 C147.95424,21.14388 147.70224,20.69748 147.36024,20.29428 C147.01824,19.88748 146.57544,19.50588 146.03544,19.15308 C145.49184,18.79668 144.85104,18.45828 144.10224,18.13788 L141.22224,16.93908 C137.13264,15.21108 135.09144,12.68388 135.09144,9.35748 C135.09144,7.11468 135.94824,5.23908 137.66184,3.73068 C139.37544,2.21148 141.51024,1.45188 144.06264,1.45188 C147.50424,1.45188 150.19344,3.12588 152.12664,6.47748" id="Fill-11" fill="#FFFFFF" mask="url(#mask-4)"></path>
                    <path d="M162.8388,15.58476 L164.52,15.58476 C168.6564,15.58476 170.7264,13.99356 170.7264,10.80756 C170.7264,7.72596 168.5952,6.18876 164.3256,6.18876 L162.8388,6.18876 L162.8388,15.58476 Z M162.8388,19.76076 L162.8388,31.88556 L158.3316,31.88556 L158.3316,2.03076 L163.4364,2.03076 C165.9384,2.03076 167.8284,2.20356 169.1028,2.55276 C170.3916,2.90196 171.5256,3.55716 172.5084,4.52556 C174.2184,6.19956 175.0752,8.31276 175.0752,10.86516 C175.0752,13.60116 174.1644,15.76476 172.332,17.36316 C170.5032,18.96156 168.03,19.76076 164.9268,19.76076 L162.8388,19.76076 Z" id="Fill-12" fill="#FFFFFF" mask="url(#mask-4)"></path>
                    <polygon id="Fill-13" fill="#FFFFFF" mask="url(#mask-4)" points="179.7156 31.8852 184.2228 31.8852 184.2228 2.0304 179.7156 2.0304"></polygon>
                    <polygon id="Fill-14" fill="#FFFFFF" mask="url(#mask-4)" points="207.87048 6.26472 195.90408 6.26472 195.90408 13.43952 207.52128 13.43952 207.52128 17.67312 195.90408 17.67312 195.90408 27.64872 207.87048 27.64872 207.87048 31.88592 191.39688 31.88592 191.39688 2.03112 207.87048 2.03112"></polygon>
                    <polygon id="Fill-15" fill="#FFFFFF" mask="url(#mask-4)" points="218.29428 2.0304 218.29428 27.6516 227.07108 27.6516 227.07108 31.8852 213.78708 31.8852 213.78708 2.0304"></polygon>
                    <polygon id="Fill-16" fill="#FFFFFF" mask="url(#mask-4)" points="237.64788 6.26472 237.64788 31.88592 233.14428 31.88592 233.14428 6.26472 226.27908 6.26472 226.27908 2.03112 244.49148 2.03112 244.49148 6.26472"></polygon>
                    <path d="M53.4888,66.39804 L49.0608,56.24604 L44.4168,66.39804 L53.4888,66.39804 Z M55.3248,70.63164 L42.5448,70.63164 L39.2184,77.88204 L34.3656,77.88204 L49.1364,46.15164 L63.3888,77.88204 L58.4568,77.88204 L55.3248,70.63164 Z" id="Fill-17" fill="#FFFFFF" mask="url(#mask-4)"></path>
                    <path d="M84.00096,52.47612 L80.34336,54.64332 C79.66296,53.45532 79.01136,52.68132 78.39216,52.32132 C77.74776,51.90732 76.91616,51.70212 75.89736,51.70212 C74.64816,51.70212 73.60776,52.05852 72.78696,52.76772 C71.95896,53.46252 71.54856,54.34092 71.54856,55.39572 C71.54856,56.85372 72.63216,58.02732 74.79576,58.91652 L77.77656,60.13332 C80.19576,61.11252 81.97056,62.30772 83.09016,63.71892 C84.21336,65.13372 84.77496,66.86172 84.77496,68.91012 C84.77496,71.65692 83.85696,73.92492 82.02816,75.71772 C80.18136,77.52492 77.89896,78.42492 75.16296,78.42492 C72.57096,78.42492 70.43256,77.65812 68.74416,76.12452 C67.08096,74.59092 66.04416,72.43092 65.63016,69.64812 L70.19496,68.64012 C70.40016,70.39332 70.76016,71.60652 71.27856,72.27612 C72.20736,73.56492 73.56096,74.20932 75.33936,74.20932 C76.73976,74.20932 77.90976,73.73772 78.83496,72.79812 C79.76376,71.85852 80.22816,70.66332 80.22816,69.21972 C80.22816,68.64012 80.14896,68.11092 79.99056,67.62492 C79.82856,67.14252 79.57656,66.69612 79.23456,66.29292 C78.89256,65.88612 78.44976,65.50452 77.90976,65.15172 C77.36616,64.79532 76.72536,64.45692 75.97656,64.13652 L73.09656,62.93772 C69.00696,61.20972 66.96576,58.68252 66.96576,55.35612 C66.96576,53.11332 67.82256,51.23772 69.53616,49.72932 C71.24976,48.21012 73.38456,47.45052 75.93696,47.45052 C79.37856,47.45052 82.06776,49.12452 84.00096,52.47612" id="Fill-18" fill="#FFFFFF" mask="url(#mask-4)"></path>
                    <path d="M107.08812,52.47612 L103.43052,54.64332 C102.75012,53.45532 102.09852,52.68132 101.47932,52.32132 C100.83492,51.90732 100.00332,51.70212 98.98452,51.70212 C97.73532,51.70212 96.69492,52.05852 95.87412,52.76772 C95.04612,53.46252 94.63572,54.34092 94.63572,55.39572 C94.63572,56.85372 95.71932,58.02732 97.88292,58.91652 L100.86372,60.13332 C103.28292,61.11252 105.05772,62.30772 106.17732,63.71892 C107.30052,65.13372 107.86212,66.86172 107.86212,68.91012 C107.86212,71.65692 106.94412,73.92492 105.11532,75.71772 C103.26852,77.52492 100.98612,78.42492 98.25012,78.42492 C95.65812,78.42492 93.51972,77.65812 91.83132,76.12452 C90.16812,74.59092 89.13132,72.43092 88.71732,69.64812 L93.28212,68.64012 C93.48732,70.39332 93.84732,71.60652 94.36572,72.27612 C95.29452,73.56492 96.64812,74.20932 98.42652,74.20932 C99.82692,74.20932 100.99692,73.73772 101.92212,72.79812 C102.85092,71.85852 103.31532,70.66332 103.31532,69.21972 C103.31532,68.64012 103.23612,68.11092 103.07772,67.62492 C102.91572,67.14252 102.66372,66.69612 102.32172,66.29292 C101.97972,65.88612 101.53692,65.50452 100.99692,65.15172 C100.45332,64.79532 99.81252,64.45692 99.06372,64.13652 L96.18372,62.93772 C92.09412,61.20972 90.05292,58.68252 90.05292,55.35612 C90.05292,53.11332 90.90972,51.23772 92.62332,49.72932 C94.33692,48.21012 96.47172,47.45052 99.02412,47.45052 C102.46572,47.45052 105.15492,49.12452 107.08812,52.47612" id="Fill-19" fill="#FFFFFF" mask="url(#mask-4)"></path>
                    <polygon id="Fill-20" fill="#FFFFFF" mask="url(#mask-4)" points="113.292 77.8824 117.7992 77.8824 117.7992 48.0276 113.292 48.0276"></polygon>
                    <path d="M128.02716,62.87868 C128.02716,66.17988 129.13956,68.89068 131.35356,71.01828 C133.55676,73.14588 136.10196,74.20788 138.99276,74.20788 C142.12476,74.20788 144.76356,73.12788 146.91996,70.96068 C149.07276,68.76828 150.14916,66.10068 150.14916,62.95428 C150.14916,59.77188 149.08716,57.10428 146.95956,54.95148 C144.84276,52.78428 142.22556,51.70428 139.10796,51.70428 C136.00116,51.70428 133.37676,52.78428 131.23836,54.95148 C129.09996,57.08988 128.02716,59.73228 128.02716,62.87868 M123.48396,62.82108 C123.48396,58.61628 125.02476,55.00908 128.10276,51.99228 C131.17356,48.97548 134.85996,47.46708 139.16556,47.46708 C143.41716,47.46708 147.06756,48.98988 150.10956,52.03188 C153.16236,55.07388 154.69236,58.72788 154.69236,62.99388 C154.69236,67.28868 153.15516,70.92828 150.09156,73.91988 C147.00636,76.92228 143.29116,78.42348 138.93156,78.42348 C135.07956,78.42348 131.61636,77.09148 128.55276,74.42388 C125.17236,71.47188 123.48396,67.60188 123.48396,62.82108" id="Fill-21" fill="#FFFFFF" mask="url(#mask-4)"></path>
                    <polygon id="Fill-22" fill="#FFFFFF" mask="url(#mask-4)" points="160.35696 77.88348 160.35696 45.99828 182.12976 68.77548 182.12976 48.02868 186.63696 48.02868 186.63696 79.70148 164.86416 56.98188 164.86416 77.88348"></polygon>
                    <polygon id="Fill-23" fill="#FFFFFF" mask="url(#mask-4)" points="193.7916 77.8824 198.2952 77.8824 198.2952 48.0276 193.7916 48.0276"></polygon>
                    <polygon id="Fill-24" fill="#FFFFFF" mask="url(#mask-4)" points="221.9436 52.26336 209.9736 52.26336 209.9736 59.43816 221.5944 59.43816 221.5944 63.67176 209.9736 63.67176 209.9736 73.64736 221.9436 73.64736 221.9436 77.88456 205.47 77.88456 205.47 48.02976 221.9436 48.02976"></polygon>
                    <path d="M232.3638,61.73784 L233.793,61.73784 C238.0626,61.73784 240.1974,60.10704 240.1974,56.84544 C240.1974,53.78904 238.1202,52.26264 233.9694,52.26264 L232.3638,52.26264 L232.3638,61.73784 Z M237.9726,65.16144 L247.2138,77.88384 L241.7058,77.88384 L233.1774,65.66184 L232.3638,65.66184 L232.3638,77.88384 L227.8602,77.88384 L227.8602,48.02904 L233.1378,48.02904 C237.0834,48.02904 239.9346,48.77064 241.6842,50.25384 C243.6174,51.90264 244.5858,54.08064 244.5858,56.78784 C244.5858,58.90104 243.981,60.71904 242.7678,62.24184 C241.5582,63.76104 239.9562,64.73664 237.9726,65.16144 L237.9726,65.16144 Z" id="Fill-25" fill="#FFFFFF" mask="url(#mask-4)"></path>
                    <polygon id="Fill-26" fill="#FFFFFF" mask="url(#mask-4)" points="259.5888 52.26336 259.5888 77.88456 255.0852 77.88456 255.0852 52.26336 248.22 52.26336 248.22 48.02976 266.4324 48.02976 266.4324 52.26336"></polygon>
                </g>
            </g>
        </g>
    </g>
</svg>