<?xml version="1.0" encoding="UTF-8"?>
<svg width="342px" height="164px" viewBox="0 0 342 164" version="1.1" xmlns="http://www.w3.org/2000/svg" xmlns:xlink="http://www.w3.org/1999/xlink">
    <!-- Generator: Sketch 44 (41411) - http://www.bohemiancoding.com/sketch -->
    <title>wortpaare/eingabe-panne-pos</title>
    <desc>Created with Sketch.</desc>
    <defs></defs>
    <g id="Page-1" stroke="none" stroke-width="1" fill="none" fill-rule="evenodd">
        <g id="Wortpaare" transform="translate(-1162.000000, -1064.000000)">
            <g id="wortpaare/eingabe-panne/pos" transform="translate(1156.000000, 1058.000000)">
                <g id="Group">
                    <path d="M53.14404,124.80312 L53.14404,124.59912 C53.14404,115.21512 46.82004,108.99992 39.34004,108.99992 C31.85324,108.99992 25.63804,115.21512 25.63804,124.59912 L25.63804,124.80312 C25.63804,134.18712 31.85324,140.40232 39.34004,140.40232 C46.82004,140.40232 53.14404,134.29592 53.14404,124.80312 L53.14404,124.80312 Z M9.82804,96.45392 L25.84884,96.45392 L25.84884,104.56632 C29.74524,99.30312 35.12404,95.40672 43.44724,95.40672 C56.62564,95.40672 69.15804,105.72912 69.15804,124.59912 L69.15804,124.80312 C69.15804,143.66632 56.83644,154.00232 43.44724,154.00232 C34.90644,154.00232 29.64324,150.09912 25.84884,145.57032 L25.84884,169.80552 L9.82804,169.80552 L9.82804,96.45392 Z" id="Fill-157" fill="#DB071A"></path>
                    <path d="M46.62964,33.5342 C45.67084,26.2786 41.40044,21.3622 34.57324,21.3622 C27.84124,21.3622 23.46884,26.1698 22.18364,33.5342 L46.62964,33.5342 Z M6.26484,38.3418 L6.26484,38.1242 C6.26484,21.7838 17.90644,8.3402 34.57324,8.3402 C53.68124,8.3402 62.43284,23.1778 62.43284,39.4094 C62.43284,40.6946 62.33764,42.1838 62.22884,43.6798 L22.39444,43.6798 C23.99924,51.051 29.12644,54.893 36.38204,54.893 C41.82884,54.893 45.78644,53.1862 50.26084,49.0178 L59.55644,57.239 C54.21844,63.8622 46.52764,67.9218 36.17124,67.9218 C18.98084,67.9218 6.26484,55.8518 6.26484,38.3418 L6.26484,38.3418 Z" id="Fill-158" fill="#DB071A"></path>
                    <polygon id="Fill-159" fill="#4B4A4A" points="70.6384 66.606 79.1452 66.606 79.1452 10.2136 70.6384 10.2136"></polygon>
                    <polygon id="Fill-160" fill="#4B4A4A" points="92.70236 66.60464 92.70236 6.38384 133.82876 49.40744 133.82876 10.21224 142.33556 10.21224 142.33556 70.03864 101.20916 27.12384 101.20916 66.60464"></polygon>
                    <path d="M185.43192,37.23952 L208.73552,37.23952 L208.73552,39.10272 C208.73552,43.33912 208.23912,47.08592 207.23952,50.35672 C206.26032,53.36912 204.62152,56.19792 202.30272,58.82952 C197.07352,64.71832 190.40952,67.66952 182.33112,67.66952 C174.44312,67.66952 167.68392,64.82032 162.05352,59.12192 C156.42992,53.39632 153.62152,46.52832 153.62152,38.51792 C153.62152,30.33752 156.48432,23.40152 162.20312,17.70312 C167.92872,11.97752 174.89192,9.11472 183.09272,9.11472 C187.50592,9.11472 191.61992,10.01912 195.44152,11.82112 C199.09312,13.62312 202.68352,16.54712 206.21952,20.58632 L200.15392,26.39352 C195.52312,20.23272 189.88592,17.15232 183.24232,17.15232 C177.27872,17.15232 172.26712,19.21272 168.23472,23.32672 C164.18872,27.36592 162.16912,32.43192 162.16912,38.51792 C162.16912,44.80112 164.41992,49.97592 168.92152,54.04232 C173.13752,57.81632 177.70032,59.70672 182.62352,59.70672 C186.80552,59.70672 190.57272,58.29232 193.90472,55.47032 C197.24352,52.62112 199.10672,49.20752 199.49432,45.24312 L185.43192,45.24312 L185.43192,37.23952 Z" id="Fill-161" fill="#4B4A4A"></path>
                    <path d="M246.53876,44.90924 L238.17476,25.74004 L229.40276,44.90924 L246.53876,44.90924 Z M250.00676,52.91284 L225.86676,52.91284 L219.58356,66.60124 L210.41716,66.60124 L238.31756,6.67284 L265.23876,66.60124 L255.92276,66.60124 L250.00676,52.91284 Z" id="Fill-162" fill="#4B4A4A"></path>
                    <path d="M280.79784,58.6092 L286.05424,58.6092 C289.90304,58.6092 292.72504,57.8544 294.53384,56.3448 C296.43104,54.7128 297.37624,52.6388 297.37624,50.1364 C297.37624,47.702 296.46504,45.6552 294.63584,44.0028 C292.86104,42.364 289.68544,41.548 285.10904,41.548 L280.79784,41.548 L280.79784,58.6092 Z M280.79784,34.4284 L283.46344,34.4284 C286.62544,34.4284 288.94424,33.728 290.41984,32.3272 C291.89544,30.9332 292.62984,28.866 292.62984,26.1392 C292.62984,23.4872 291.87504,21.4676 290.36544,20.094 C288.85584,18.7204 286.65944,18.0268 283.78984,18.0268 L280.79784,18.0268 L280.79784,34.4284 Z M272.28424,66.606 L272.28424,10.2136 L280.75704,10.2136 C284.53784,10.2136 287.53664,10.506 289.78064,11.0908 C292.04504,11.6756 293.96264,12.6616 295.51304,14.0488 C297.09744,15.4836 298.34864,17.2788 299.28024,19.414 C300.22544,21.59 300.70144,23.7796 300.70144,25.9896 C300.70144,30.0356 299.15104,33.456 296.06384,36.2576 C299.06264,37.2776 301.41544,39.066 303.14944,41.6228 C304.90384,44.1592 305.78104,47.1036 305.78104,50.4628 C305.78104,54.8692 304.21704,58.5956 301.10264,61.6352 C299.22584,63.5188 297.11784,64.8176 294.78544,65.552 C292.22864,66.2524 289.02584,66.606 285.18384,66.606 L272.28424,66.606 Z" id="Fill-163" fill="#4B4A4A"></path>
                    <polygon id="Fill-164" fill="#4B4A4A" points="347.63572 18.21448 325.02572 18.21448 325.02572 31.76008 346.97612 31.76008 346.97612 39.76368 325.02572 39.76368 325.02572 58.60648 347.63572 58.60648 347.63572 66.60328 316.51892 66.60328 316.51892 10.21088 347.63572 10.21088"></polygon>
                    <path d="M107.30468,131.79556 L98.94068,112.62636 L90.16868,131.79556 L107.30468,131.79556 Z M110.77268,139.79916 L86.63268,139.79916 L80.34948,153.48756 L71.18308,153.48756 L99.08348,93.55916 L126.00468,153.48756 L116.68868,153.48756 L110.77268,139.79916 Z" id="Fill-165" fill="#4B4A4A"></path>
                    <polygon id="Fill-166" fill="#4B4A4A" points="133.05084 153.49028 133.05084 93.26948 174.17724 136.29308 174.17724 97.09788 182.69084 97.09788 182.69084 156.92428 141.56444 114.00948 141.56444 153.49028"></polygon>
                    <polygon id="Fill-167" fill="#4B4A4A" points="196.20312 153.49028 196.20312 93.26948 237.32952 136.29308 237.32952 97.09788 245.83632 97.09788 245.83632 156.92428 204.70992 114.00948 204.70992 153.49028"></polygon>
                    <polygon id="Fill-168" fill="#4B4A4A" points="290.46676 105.10012 267.86356 105.10012 267.86356 118.64572 289.80716 118.64572 289.80716 126.64932 267.86356 126.64932 267.86356 145.49212 290.46676 145.49212 290.46676 153.48892 259.34996 153.48892 259.34996 97.09652 290.46676 97.09652"></polygon>
                </g>
            </g>
        </g>
    </g>
</svg>