<?xml version="1.0" encoding="UTF-8"?>
<svg width="504px" height="164px" viewBox="0 0 504 164" version="1.1" xmlns="http://www.w3.org/2000/svg" xmlns:xlink="http://www.w3.org/1999/xlink">
    <!-- Generator: Sketch 44 (41411) - http://www.bohemiancoding.com/sketch -->
    <title>wortpaare/eingespielt-passioniert-pos</title>
    <desc>Created with Sketch.</desc>
    <defs>
        <polygon id="path-1" points="0 1.72788 0 61.30948 56.16868 61.30948 56.16868 1.72788 3.68628739e-19 1.72788"></polygon>
        <polygon id="path-3" points="0 163.4312 503.2612 163.4312 503.2612 0 0 0"></polygon>
    </defs>
    <g id="Page-1" stroke="none" stroke-width="1" fill="none" fill-rule="evenodd">
        <g id="Wortpaare" transform="translate(-1152.000000, -2349.000000)">
            <g id="wortpaare/eingespielt-passioniert/pos" transform="translate(1152.000000, 2349.000000)">
                <g id="Page-1">
                    <path d="M46.87988,118.4288 L46.87988,118.218 C46.87988,108.8408 40.54908,102.6188 33.07588,102.6188 C25.58228,102.6188 19.36708,108.8408 19.36708,118.218 L19.36708,118.4288 C19.36708,127.8128 25.58228,134.028 33.07588,134.028 C40.54908,134.028 46.87988,127.9148 46.87988,118.4288 Z M3.55708,90.0796 L19.57788,90.0796 L19.57788,98.192 C23.48108,92.9288 28.85308,89.0256 37.17628,89.0256 C50.35468,89.0256 62.89388,99.3548 62.89388,118.218 L62.89388,118.4288 C62.89388,137.292 50.56548,147.6212 37.17628,147.6212 C28.63548,147.6212 23.37228,143.7248 19.57788,139.1892 L19.57788,163.4312 L3.55708,163.4312 L3.55708,90.0796 Z" id="Fill-1" fill="#DB071A"></path>
                    <g id="Group-5" transform="translate(0.000000, 0.231200)">
                        <mask id="mask-2" fill="white">
                            <use xlink:href="#path-1"></use>
                        </mask>
                        <g id="Clip-4"></g>
                        <path d="M40.36548,26.92868 C39.39988,19.66628 35.13628,14.75668 28.30908,14.75668 C21.57028,14.75668 17.19788,19.55748 15.91268,26.92868 L40.36548,26.92868 Z M-0.00612,31.73628 L-0.00612,31.51868 C-0.00612,15.17828 11.64228,1.72788 28.30908,1.72788 C47.41028,1.72788 56.16868,16.57228 56.16868,32.80388 C56.16868,34.08228 56.06668,35.57828 55.95788,37.07428 L16.13028,37.07428 C17.73508,44.43868 22.85548,48.28068 30.11108,48.28068 C35.56468,48.28068 39.51548,46.57388 43.99668,42.41228 L53.28548,50.62668 C47.94748,57.24988 40.25668,61.30948 29.90708,61.30948 C12.70988,61.30948 -0.00612,49.24628 -0.00612,31.73628 L-0.00612,31.73628 Z" id="Fill-3" fill="#DB071A" mask="url(#mask-2)"></path>
                    </g>
                    <mask id="mask-4" fill="white">
                        <use xlink:href="#path-3"></use>
                    </mask>
                    <g id="Clip-7"></g>
                    <polygon id="Fill-6" fill="#4B4A4A" mask="url(#mask-4)" points="64.3688 60.2276 72.8824 60.2276 72.8824 3.8352 64.3688 3.8352"></polygon>
                    <polygon id="Fill-8" fill="#4B4A4A" mask="url(#mask-4)" points="86.4314 60.22692 86.4314 -0.00068 127.5578 43.02292 127.5578 3.83452 136.0714 3.83452 136.0714 63.66092 94.945 20.74612 94.945 60.22692"></polygon>
                    <path d="M179.16776,30.86248 L202.47136,30.86248 L202.47136,32.72568 C202.47136,36.96208 201.97496,40.70888 200.96856,43.97288 C199.99616,46.99208 198.35056,49.82088 196.03856,52.44568 C190.80256,58.34128 184.14536,61.28568 176.06016,61.28568 C168.17216,61.28568 161.41976,58.43648 155.78936,52.73808 C150.16576,47.01928 147.35056,40.15128 147.35056,32.14088 C147.35056,23.96048 150.21336,17.01768 155.93896,11.31928 C161.65776,5.60048 168.62096,2.73768 176.82856,2.73768 C181.23496,2.73768 185.34896,3.64208 189.17736,5.44408 C192.82896,7.24608 196.41936,10.17008 199.94856,14.20928 L193.88296,20.01648 C189.25896,13.85568 183.62176,10.77528 176.97816,10.77528 C171.00776,10.77528 166.00296,12.83568 161.96376,16.94968 C157.92456,20.98888 155.89816,26.05488 155.89816,32.14088 C155.89816,38.42408 158.14896,43.59888 162.65736,47.66528 C166.86656,51.43928 171.43616,53.32288 176.35256,53.32288 C180.54136,53.32288 184.30176,51.91528 187.64056,49.08648 C190.97256,46.23728 192.84256,42.83048 193.22336,38.85928 L179.16776,38.85928 L179.16776,30.86248 Z" id="Fill-9" fill="#4B4A4A" mask="url(#mask-4)"></path>
                    <polygon id="Fill-10" fill="#4B4A4A" mask="url(#mask-4)" points="244.28592 11.83336 221.68272 11.83336 221.68272 25.38576 243.62632 25.38576 243.62632 33.38256 221.68272 33.38256 221.68272 52.22536 244.28592 52.22536 244.28592 60.22896 213.16912 60.22896 213.16912 3.83656 244.28592 3.83656"></polygon>
                    <path d="M287.35032,12.23524 L280.44152,16.32884 C279.15632,14.08484 277.92552,12.62284 276.75592,11.94284 C275.53872,11.16084 273.96792,10.77324 272.04352,10.77324 C269.68392,10.77324 267.71872,11.44644 266.16832,12.78604 C264.60432,14.09844 263.82912,15.75764 263.82912,17.75004 C263.82912,20.50404 265.87592,22.72084 269.96272,24.40044 L275.59312,26.69884 C280.16272,28.54844 283.51512,30.80604 285.62992,33.47164 C287.75152,36.14404 288.81232,39.40804 288.81232,43.27724 C288.81232,48.46564 287.07832,52.74964 283.62392,56.13604 C280.13552,59.54964 275.82432,61.24964 270.65632,61.24964 C265.76032,61.24964 261.72112,59.80124 258.53192,56.90444 C255.39032,54.00764 253.43192,49.92764 252.64992,44.67124 L261.27232,42.76724 C261.65992,46.07884 262.33992,48.37044 263.31912,49.63524 C265.07352,52.06964 267.63032,53.28684 270.98952,53.28684 C273.63472,53.28684 275.84472,52.39604 277.59232,50.62124 C279.34672,48.84644 280.22392,46.58884 280.22392,43.86204 C280.22392,42.76724 280.07432,41.76764 279.77512,40.84964 C279.46912,39.93844 278.99312,39.09524 278.34712,38.33364 C277.70112,37.56524 276.86472,36.84444 275.84472,36.17804 C274.81792,35.50484 273.60752,34.86564 272.19312,34.26044 L266.75312,31.99604 C259.02832,28.73204 255.17272,23.95844 255.17272,17.67524 C255.17272,13.43884 256.79112,9.89604 260.02792,7.04684 C263.26472,4.17724 267.29712,2.74244 272.11832,2.74244 C278.61912,2.74244 283.69872,5.90444 287.35032,12.23524" id="Fill-11" fill="#4B4A4A" mask="url(#mask-4)"></path>
                    <path d="M307.5844,29.43788 L310.76,29.43788 C318.5732,29.43788 322.4832,26.43228 322.4832,20.41428 C322.4832,14.59348 318.4576,11.68988 310.3928,11.68988 L307.5844,11.68988 L307.5844,29.43788 Z M307.5844,37.32588 L307.5844,60.22828 L299.0708,60.22828 L299.0708,3.83588 L308.7132,3.83588 C313.4392,3.83588 317.0092,4.16228 319.4164,4.82188 C321.8508,5.48148 323.9928,6.71908 325.8492,8.54828 C329.0792,11.71028 330.6976,15.70188 330.6976,20.52308 C330.6976,25.69108 328.9772,29.77788 325.516,32.79708 C322.0616,35.81628 317.39,37.32588 311.5284,37.32588 L307.5844,37.32588 Z" id="Fill-12" fill="#4B4A4A" mask="url(#mask-4)"></path>
                    <polygon id="Fill-13" fill="#4B4A4A" mask="url(#mask-4)" points="339.4628 60.2276 347.9764 60.2276 347.9764 3.8352 339.4628 3.8352"></polygon>
                    <polygon id="Fill-14" fill="#4B4A4A" mask="url(#mask-4)" points="392.64424 11.83336 370.04104 11.83336 370.04104 25.38576 391.98464 25.38576 391.98464 33.38256 370.04104 33.38256 370.04104 52.22536 392.64424 52.22536 392.64424 60.22896 361.52744 60.22896 361.52744 3.83656 392.64424 3.83656"></polygon>
                    <polygon id="Fill-15" fill="#4B4A4A" mask="url(#mask-4)" points="412.33364 3.8352 412.33364 52.2308 428.91204 52.2308 428.91204 60.2276 403.82004 60.2276 403.82004 3.8352"></polygon>
                    <polygon id="Fill-16" fill="#4B4A4A" mask="url(#mask-4)" points="448.88976 11.83336 448.88976 60.22896 440.38296 60.22896 440.38296 11.83336 427.41536 11.83336 427.41536 3.83656 461.81656 3.83656 461.81656 11.83336"></polygon>
                    <path d="M101.0344,125.41852 L92.6704,106.24252 L83.8984,125.41852 L101.0344,125.41852 Z M104.5024,133.41532 L80.3624,133.41532 L74.0792,147.11052 L64.9128,147.11052 L92.8132,87.17532 L119.7344,147.11052 L110.4184,147.11052 L104.5024,133.41532 Z" id="Fill-17" fill="#4B4A4A" mask="url(#mask-4)"></path>
                    <path d="M158.66848,99.12156 L151.75968,103.21516 C150.47448,100.97116 149.24368,99.50916 148.07408,98.82916 C146.85688,98.04716 145.28608,97.65956 143.36168,97.65956 C141.00208,97.65956 139.03688,98.33276 137.48648,99.67236 C135.92248,100.98476 135.14728,102.64396 135.14728,104.63636 C135.14728,107.39036 137.19408,109.60716 141.28088,111.28676 L146.91128,113.58516 C151.48088,115.43476 154.83328,117.69236 156.94808,120.35796 C159.06968,123.03036 160.13048,126.29436 160.13048,130.16356 C160.13048,135.35196 158.39648,139.63596 154.94208,143.02236 C151.45368,146.43596 147.14248,148.13596 141.97448,148.13596 C137.07848,148.13596 133.03928,146.68756 129.85008,143.79076 C126.70848,140.89396 124.75008,136.81396 123.96808,131.55756 L132.59048,129.65356 C132.97808,132.96516 133.65808,135.25676 134.63728,136.52156 C136.39168,138.95596 138.94848,140.17316 142.30768,140.17316 C144.95288,140.17316 147.16288,139.28236 148.91048,137.50756 C150.66488,135.73276 151.54208,133.47516 151.54208,130.74836 C151.54208,129.65356 151.39248,128.65396 151.09328,127.73596 C150.78728,126.82476 150.31128,125.98156 149.66528,125.21996 C149.01928,124.45156 148.18288,123.73076 147.16288,123.06436 C146.13608,122.39116 144.92568,121.75196 143.51128,121.14676 L138.07128,118.88236 C130.34648,115.61836 126.49088,110.84476 126.49088,104.56156 C126.49088,100.32516 128.10928,96.78236 131.34608,93.93316 C134.58288,91.06356 138.61528,89.62876 143.43648,89.62876 C149.93728,89.62876 155.01688,92.79076 158.66848,99.12156" id="Fill-18" fill="#4B4A4A" mask="url(#mask-4)"></path>
                    <path d="M202.27688,99.12156 L195.36808,103.21516 C194.08288,100.97116 192.85208,99.50916 191.68248,98.82916 C190.46528,98.04716 188.89448,97.65956 186.97008,97.65956 C184.61048,97.65956 182.64528,98.33276 181.09488,99.67236 C179.53088,100.98476 178.75568,102.64396 178.75568,104.63636 C178.75568,107.39036 180.80248,109.60716 184.88928,111.28676 L190.51968,113.58516 C195.08928,115.43476 198.44168,117.69236 200.55648,120.35796 C202.67808,123.03036 203.73888,126.29436 203.73888,130.16356 C203.73888,135.35196 202.00488,139.63596 198.55048,143.02236 C195.06208,146.43596 190.75088,148.13596 185.58288,148.13596 C180.68688,148.13596 176.64768,146.68756 173.45848,143.79076 C170.31688,140.89396 168.35848,136.81396 167.57648,131.55756 L176.19888,129.65356 C176.58648,132.96516 177.26648,135.25676 178.24568,136.52156 C180.00008,138.95596 182.55688,140.17316 185.91608,140.17316 C188.56128,140.17316 190.77128,139.28236 192.51888,137.50756 C194.27328,135.73276 195.15048,133.47516 195.15048,130.74836 C195.15048,129.65356 195.00088,128.65396 194.70168,127.73596 C194.39568,126.82476 193.91968,125.98156 193.27368,125.21996 C192.62768,124.45156 191.79128,123.73076 190.77128,123.06436 C189.74448,122.39116 188.53408,121.75196 187.11968,121.14676 L181.67968,118.88236 C173.95488,115.61836 170.09928,110.84476 170.09928,104.56156 C170.09928,100.32516 171.71768,96.78236 174.95448,93.93316 C178.19128,91.06356 182.22368,89.62876 187.04488,89.62876 C193.54568,89.62876 198.62528,92.79076 202.27688,99.12156" id="Fill-19" fill="#4B4A4A" mask="url(#mask-4)"></path>
                    <polygon id="Fill-20" fill="#4B4A4A" mask="url(#mask-4)" points="213.996 147.1112 222.5096 147.1112 222.5096 90.7188 213.996 90.7188"></polygon>
                    <path d="M241.8284,118.77084 C241.8284,125.00644 243.9296,130.12684 248.1116,134.14564 C252.2732,138.16444 257.0808,140.17044 262.5412,140.17044 C268.4572,140.17044 273.4416,138.13044 277.5148,134.03684 C281.5812,129.89564 283.6144,124.85684 283.6144,118.91364 C283.6144,112.90244 281.6084,107.86364 277.5896,103.79724 C273.5912,99.70364 268.6476,97.66364 262.7588,97.66364 C256.8904,97.66364 251.9332,99.70364 247.894,103.79724 C243.8548,107.83644 241.8284,112.82764 241.8284,118.77084 M233.2468,118.66204 C233.2468,110.71964 236.1572,103.90604 241.9712,98.20764 C247.7716,92.50924 254.7348,89.66004 262.8676,89.66004 C270.8984,89.66004 277.7936,92.53644 283.5396,98.28244 C289.306,104.02844 292.196,110.93044 292.196,118.98844 C292.196,127.10084 289.2924,133.97564 283.5056,139.62644 C277.678,145.29764 270.6604,148.13324 262.4256,148.13324 C255.1496,148.13324 248.608,145.61724 242.8212,140.57844 C236.436,135.00244 233.2468,127.69244 233.2468,118.66204" id="Fill-21" fill="#4B4A4A" mask="url(#mask-4)"></path>
                    <polygon id="Fill-22" fill="#4B4A4A" mask="url(#mask-4)" points="302.8958 147.11324 302.8958 86.88564 344.0222 129.90924 344.0222 90.72084 352.5358 90.72084 352.5358 150.54724 311.4094 107.63244 311.4094 147.11324"></polygon>
                    <polygon id="Fill-23" fill="#4B4A4A" mask="url(#mask-4)" points="366.0508 147.1112 374.5576 147.1112 374.5576 90.7188 366.0508 90.7188"></polygon>
                    <polygon id="Fill-24" fill="#4B4A4A" mask="url(#mask-4)" points="419.22612 98.71968 396.61612 98.71968 396.61612 112.27208 418.56652 112.27208 418.56652 120.26888 396.61612 120.26888 396.61612 139.11168 419.22612 139.11168 419.22612 147.11528 388.10932 147.11528 388.10932 90.72288 419.22612 90.72288"></polygon>
                    <path d="M438.9094,116.61592 L441.609,116.61592 C449.6738,116.61592 453.7062,113.53552 453.7062,107.37472 C453.7062,101.60152 449.7826,98.71832 441.9422,98.71832 L438.9094,98.71832 L438.9094,116.61592 Z M449.5038,123.08272 L466.9594,147.11392 L456.5554,147.11392 L440.4462,124.02792 L438.9094,124.02792 L438.9094,147.11392 L430.4026,147.11392 L430.4026,90.72152 L440.3714,90.72152 C447.8242,90.72152 453.2098,92.12232 456.5146,94.92392 C460.1662,98.03832 461.9954,102.15232 461.9954,107.26592 C461.9954,111.25752 460.853,114.69152 458.5614,117.56792 C456.2766,120.43752 453.2506,122.28032 449.5038,123.08272 L449.5038,123.08272 Z" id="Fill-25" fill="#4B4A4A" mask="url(#mask-4)"></path>
                    <polygon id="Fill-26" fill="#4B4A4A" mask="url(#mask-4)" points="490.3344 98.71968 490.3344 147.11528 481.8276 147.11528 481.8276 98.71968 468.86 98.71968 468.86 90.72288 503.2612 90.72288 503.2612 98.71968"></polygon>
                </g>
            </g>
        </g>
    </g>
</svg>