<?xml version="1.0" encoding="UTF-8"?>
<svg width="302px" height="87px" viewBox="0 0 302 87" version="1.1" xmlns="http://www.w3.org/2000/svg" xmlns:xlink="http://www.w3.org/1999/xlink">
    <!-- Generator: Sketch 43.2 (39069) - http://www.bohemiancoding.com/sketch -->
    <title>wortpaare/einladend-phaenomenal-neg</title>
    <desc>Created with Sketch.</desc>
    <defs>
        <polygon id="path-1" points="0 86.52132 301.9968 86.52132 301.9968 -0.00108 0 -0.00108"></polygon>
    </defs>
    <g id="Page-1" stroke="none" stroke-width="1" fill="none" fill-rule="evenodd">
        <g id="wortpaare/einladend-phaenomenal/neg">
            <g id="Page-1">
                <path d="M24.8166,62.69796 L24.8166,62.58636 C24.8166,57.62196 21.4686,54.32796 17.5086,54.32796 C13.545,54.32796 10.2546,57.62196 10.2546,62.58636 L10.2546,62.69796 C10.2546,67.66236 13.545,70.95636 17.5086,70.95636 C21.4686,70.95636 24.8166,67.71996 24.8166,62.69796 Z M1.881,47.68596 L10.3662,47.68596 L10.3662,51.98076 C12.429,49.19436 15.2766,47.13156 19.683,47.13156 C26.6562,47.13156 33.2946,52.59636 33.2946,62.58636 L33.2946,62.69796 C33.2946,72.68076 26.7678,78.15276 19.683,78.15276 C15.1614,78.15276 12.3714,76.08636 10.3662,73.68876 L10.3662,86.51916 L1.881,86.51916 L1.881,47.68596 Z" id="Fill-1" fill="#FFFFFF"></path>
                <path d="M21.3696,14.37732 C20.8584,10.53252 18.6012,7.93332 14.9832,7.93332 C11.4228,7.93332 9.1044,10.47492 8.4276,14.37732 L21.3696,14.37732 Z M0,16.92252 L0,16.80732 C0,8.15652 6.1632,1.03572 14.9832,1.03572 C25.1028,1.03572 29.736,8.89452 29.736,17.48772 C29.736,18.16452 29.682,18.95652 29.6244,19.74852 L8.5356,19.74852 C9.3888,23.65092 12.0996,25.68132 15.9408,25.68132 C18.8244,25.68132 20.9196,24.77772 23.292,22.57452 L28.2096,26.92692 C25.3836,30.42972 21.312,32.57892 15.8292,32.57892 C6.7284,32.57892 0,26.19252 0,16.92252 L0,16.92252 Z" id="Fill-3" fill="#FFFFFF"></path>
                <mask id="mask-2" fill="white">
                    <use xlink:href="#path-1"></use>
                </mask>
                <g id="Clip-6"></g>
                <polygon id="Fill-5" fill="#FFFFFF" mask="url(#mask-2)" points="34.0812 31.88772 38.5848 31.88772 38.5848 2.03292 34.0812 2.03292"></polygon>
                <polygon id="Fill-7" fill="#FFFFFF" mask="url(#mask-2)" points="45.75924 31.887 45.75924 0.0018 67.53204 22.779 67.53204 2.0322 72.03564 2.0322 72.03564 33.7014 50.26284 10.9818 50.26284 31.887"></polygon>
                <polygon id="Fill-8" fill="#FFFFFF" mask="url(#mask-2)" points="83.6964 2.0304 83.6964 27.6516 92.4732 27.6516 92.4732 31.8852 79.1892 31.8852 79.1892 2.0304"></polygon>
                <path d="M114.10992,20.3994 L109.68552,10.2474 L105.04152,20.3994 L114.10992,20.3994 Z M115.94952,24.633 L103.16592,24.633 L99.83952,31.887 L94.98672,31.887 L109.76112,0.153 L124.00992,31.887 L119.08152,31.887 L115.94952,24.633 Z" id="Fill-9" fill="#FFFFFF" mask="url(#mask-2)"></path>
                <path d="M132.24708,27.65052 L134.27748,27.65052 C136.30068,27.65052 137.98548,27.43812 139.32468,27.01332 C140.66748,26.55972 141.87708,25.84692 142.96068,24.86772 C145.17828,22.84452 146.28348,20.20572 146.28348,16.95852 C146.28348,13.68252 145.19268,11.02932 142.99668,8.99172 C141.02388,7.17372 138.11868,6.26652 134.27748,6.26652 L132.24708,6.26652 L132.24708,27.65052 Z M127.74348,31.88772 L127.74348,2.02932 L134.00748,2.02932 C137.00988,2.02932 139.38228,2.32812 141.12468,2.91852 C142.98948,3.50172 144.68868,4.48452 146.20788,5.87772 C149.28948,8.68932 150.83028,12.38292 150.83028,16.95852 C150.83028,21.54852 149.22468,25.26012 146.01348,28.09692 C144.40428,29.51532 142.71588,30.50172 140.94828,31.05252 C139.29948,31.60692 136.95948,31.88772 133.93188,31.88772 L127.74348,31.88772 Z" id="Fill-10" fill="#FFFFFF" mask="url(#mask-2)"></path>
                <polygon id="Fill-11" fill="#FFFFFF" mask="url(#mask-2)" points="172.96848 6.26508 161.00208 6.26508 161.00208 13.43988 172.61928 13.43988 172.61928 17.67348 161.00208 17.67348 161.00208 27.64908 172.96848 27.64908 172.96848 31.88628 156.49488 31.88628 156.49488 2.03148 172.96848 2.03148"></polygon>
                <polygon id="Fill-12" fill="#FFFFFF" mask="url(#mask-2)" points="178.88544 31.887 178.88544 0.0018 200.65824 22.779 200.65824 2.0322 205.16544 2.0322 205.16544 33.7014 183.39264 10.9818 183.39264 31.887"></polygon>
                <path d="M216.8226,27.65052 L218.853,27.65052 C220.8762,27.65052 222.561,27.43812 223.9002,27.01332 C225.243,26.55972 226.4526,25.84692 227.5362,24.86772 C229.7538,22.84452 230.859,20.20572 230.859,16.95852 C230.859,13.68252 229.7682,11.02932 227.5722,8.99172 C225.5994,7.17372 222.6942,6.26652 218.853,6.26652 L216.8226,6.26652 L216.8226,27.65052 Z M212.319,31.88772 L212.319,2.02932 L218.583,2.02932 C221.5854,2.02932 223.9578,2.32812 225.7002,2.91852 C227.565,3.50172 229.2642,4.48452 230.7834,5.87772 C233.865,8.68932 235.4058,12.38292 235.4058,16.95852 C235.4058,21.54852 233.8002,25.26012 230.589,28.09692 C228.9798,29.51532 227.2914,30.50172 225.5238,31.05252 C223.875,31.60692 221.535,31.88772 218.5074,31.88772 L212.319,31.88772 Z" id="Fill-13" fill="#FFFFFF" mask="url(#mask-2)"></path>
                <polygon id="Fill-14" fill="#FFFFFF" mask="url(#mask-2)" points="42.2928 59.7096 55.17 59.7096 55.17 48.0312 59.6772 48.0312 59.6772 77.886 55.17 77.886 55.17 63.9432 42.2928 63.9432 42.2928 77.886 37.7892 77.886 37.7892 48.0312 42.2928 48.0312"></polygon>
                <path d="M79.7868,42.2298 C79.7868,41.481 80.0568,40.8366 80.6004,40.2966 C81.1404,39.7566 81.792,39.4794 82.5516,39.4794 C83.3112,39.4794 83.9628,39.7566 84.5064,40.2966 C85.0464,40.8366 85.3164,41.4918 85.3164,42.2658 C85.3164,43.029 85.0464,43.677 84.5064,44.2206 C83.9628,44.7606 83.3112,45.0306 82.5516,45.0306 C81.7776,45.0306 81.1188,44.7606 80.5788,44.2206 C80.0496,43.6518 79.7868,42.9894 79.7868,42.2298 L79.7868,42.2298 Z M82.5336,66.3966 L78.102,56.2482 L73.4616,66.3966 L82.5336,66.3966 Z M71.1036,42.2298 C71.1036,41.481 71.3736,40.8366 71.9136,40.2966 C72.4572,39.7566 73.1052,39.4794 73.8504,39.4794 C74.6208,39.4794 75.2724,39.7566 75.8052,40.2966 C76.3452,40.8366 76.6152,41.4918 76.6152,42.2658 C76.6152,43.029 76.3452,43.677 75.8052,44.2206 C75.2724,44.7606 74.628,45.0306 73.8684,45.0306 C73.098,45.0306 72.4392,44.7606 71.8992,44.2206 C71.3664,43.6518 71.1036,42.9894 71.1036,42.2298 L71.1036,42.2298 Z M84.366,70.6338 L71.5896,70.6338 L68.2632,77.8842 L63.4068,77.8842 L78.1812,46.1538 L92.4336,77.8842 L87.5016,77.8842 L84.366,70.6338 Z" id="Fill-15" fill="#FFFFFF" mask="url(#mask-2)"></path>
                <polygon id="Fill-16" fill="#FFFFFF" mask="url(#mask-2)" points="96.16284 77.88528 96.16284 46.00008 117.93564 68.77728 117.93564 48.03048 122.44284 48.03048 122.44284 79.69968 100.67004 56.98008 100.67004 77.88528"></polygon>
                <path d="M132.92208,62.88048 C132.92208,66.17808 134.03088,68.89248 136.24848,71.02008 C138.45168,73.14768 140.99688,74.20608 143.88408,74.20608 C147.01608,74.20608 149.65848,73.12608 151.81128,70.95888 C153.96768,68.77008 155.04408,66.10248 155.04408,62.95608 C155.04408,59.77368 153.97848,57.10608 151.85088,54.94968 C149.73768,52.78248 147.12048,51.70248 143.99928,51.70248 C140.89608,51.70248 138.26808,52.78248 136.13328,54.94968 C133.99128,57.09168 132.92208,59.73408 132.92208,62.88048 M128.37528,62.81928 C128.37528,58.61808 129.91608,55.00728 132.99768,51.99408 C136.06488,48.97728 139.75128,47.46888 144.06048,47.46888 C148.31208,47.46888 151.95888,48.98808 155.00448,52.03008 C158.05728,55.07568 159.58368,58.72968 159.58368,62.99208 C159.58368,67.29048 158.05008,70.93008 154.98288,73.91808 C151.90128,76.92048 148.18248,78.42528 143.82648,78.42528 C139.97088,78.42528 136.51128,77.08968 133.44408,74.42208 C130.06728,71.47368 128.37528,67.60368 128.37528,62.81928" id="Fill-17" fill="#FFFFFF" mask="url(#mask-2)"></path>
                <polygon id="Fill-18" fill="#FFFFFF" mask="url(#mask-2)" points="164.20752 77.88528 170.48952 45.78768 180.73872 68.98968 191.35512 45.78768 196.99992 77.88528 192.37752 77.88528 189.49752 59.86368 180.65952 79.25688 172.07712 59.84208 168.86592 77.88528"></polygon>
                <polygon id="Fill-19" fill="#FFFFFF" mask="url(#mask-2)" points="219.79656 52.26336 207.83016 52.26336 207.83016 59.43456 219.44736 59.43456 219.44736 63.67176 207.83016 63.67176 207.83016 73.64736 219.79656 73.64736 219.79656 77.88456 203.32296 77.88456 203.32296 48.02976 219.79656 48.02976"></polygon>
                <polygon id="Fill-20" fill="#FFFFFF" mask="url(#mask-2)" points="225.71352 77.88528 225.71352 46.00008 247.48632 68.77728 247.48632 48.03048 251.99352 48.03048 251.99352 79.69968 230.22072 56.98008 230.22072 77.88528"></polygon>
                <path d="M275.07996,66.39624 L270.65196,56.24784 L266.00796,66.39624 L275.07996,66.39624 Z M276.91596,70.63344 L264.13596,70.63344 L260.80956,77.88384 L255.95676,77.88384 L270.72756,46.15344 L284.97996,77.88384 L280.04796,77.88384 L276.91596,70.63344 Z" id="Fill-21" fill="#FFFFFF" mask="url(#mask-2)"></path>
                <polygon id="Fill-22" fill="#FFFFFF" mask="url(#mask-2)" points="293.21712 48.03048 293.21712 73.64808 301.99392 73.64808 301.99392 77.88528 288.70992 77.88528 288.70992 48.03048"></polygon>
            </g>
        </g>
    </g>
</svg>