<?xml version="1.0" encoding="UTF-8"?>
<svg width="571px" height="164px" viewBox="0 0 571 164" version="1.1" xmlns="http://www.w3.org/2000/svg" xmlns:xlink="http://www.w3.org/1999/xlink">
    <!-- Generator: Sketch 44 (41411) - http://www.bohemiancoding.com/sketch -->
    <title>wortpaare/einladend-phaenomenal-pos</title>
    <desc>Created with Sketch.</desc>
    <defs></defs>
    <g id="Page-1" stroke="none" stroke-width="1" fill="none" fill-rule="evenodd">
        <g id="Wortpaare" transform="translate(-202.000000, -2328.000000)">
            <g id="wortpaare/einladend-phaenomenal/pos" transform="translate(198.000000, 2328.000000)">
                <g id="Group">
                    <path d="M51.28492,118.83272 L51.28492,118.62192 C51.28492,109.24472 44.96092,103.02272 37.48092,103.02272 C29.99412,103.02272 23.77892,109.24472 23.77892,118.62192 L23.77892,118.83272 C23.77892,128.20992 29.99412,134.43192 37.48092,134.43192 C44.96092,134.43192 51.28492,128.31872 51.28492,118.83272 L51.28492,118.83272 Z M7.96892,90.47672 L23.98972,90.47672 L23.98972,98.58912 C27.88612,93.32592 33.26492,89.42952 41.58812,89.42952 C54.76652,89.42952 67.29892,99.75192 67.29892,118.62192 L67.29892,118.83272 C67.29892,137.68912 54.97732,148.02512 41.58812,148.02512 C33.04732,148.02512 27.78412,144.12192 23.98972,139.59312 L23.98972,163.82832 L7.96892,163.82832 L7.96892,90.47672 Z" id="Fill-89" fill="#DB071A"></path>
                    <path d="M44.77052,27.56108 C43.81172,20.29868 39.54132,15.38908 32.71412,15.38908 C25.98212,15.38908 21.60972,20.18988 20.32452,27.56108 L44.77052,27.56108 Z M4.40572,32.36868 L4.40572,32.15108 C4.40572,15.81068 16.04732,2.36028 32.71412,2.36028 C51.82212,2.36028 60.57372,17.20468 60.57372,33.43628 C60.57372,34.71468 60.47852,36.21068 60.36972,37.70668 L20.53532,37.70668 C22.14012,45.07788 27.26732,48.91308 34.52292,48.91308 C39.96972,48.91308 43.92732,47.20628 48.40172,43.04468 L57.69052,51.26588 C52.35932,57.88228 44.66852,61.94188 34.31212,61.94188 C17.12172,61.94188 4.40572,49.87868 4.40572,32.36868 L4.40572,32.36868 Z" id="Fill-90" fill="#DB071A"></path>
                    <polygon id="Fill-91" fill="#4B4A4A" points="68.782 60.6356 77.2888 60.6356 77.2888 4.2432 68.782 4.2432"></polygon>
                    <polygon id="Fill-92" fill="#4B4A4A" points="90.84324 60.63424 90.84324 0.40664 131.96964 43.43024 131.96964 4.24184 140.47644 4.24184 140.47644 64.06144 99.35004 21.14664 99.35004 60.63424"></polygon>
                    <polygon id="Fill-93" fill="#4B4A4A" points="162.50164 4.23912 162.50164 52.63472 179.08004 52.63472 179.08004 60.63152 153.98804 60.63152 153.98804 4.23912"></polygon>
                    <path d="M219.95008,38.93612 L211.59288,19.76012 L202.82088,38.93612 L219.95008,38.93612 Z M223.42488,46.93292 L199.27808,46.93292 L192.99488,60.63492 L183.82848,60.63492 L211.73568,0.69292 L238.65008,60.63492 L229.34088,60.63492 L223.42488,46.93292 Z" id="Fill-94" fill="#4B4A4A"></path>
                    <path d="M254.20916,52.63268 L258.04436,52.63268 C261.86596,52.63268 265.04836,52.23148 267.57796,51.42908 C270.11436,50.57228 272.39916,49.22588 274.44596,47.37628 C278.63476,43.55468 280.72236,38.57028 280.72236,32.43668 C280.72236,26.24868 278.66196,21.23708 274.51396,17.38828 C270.78756,13.95428 265.29996,12.24068 258.04436,12.24068 L254.20916,12.24068 L254.20916,52.63268 Z M245.70236,60.63628 L245.70236,4.23708 L257.53436,4.23708 C263.20556,4.23708 267.68676,4.80148 270.97796,5.91668 C274.50036,7.01828 277.70996,8.87468 280.57956,11.50628 C286.40036,16.81708 289.31076,23.79388 289.31076,32.43668 C289.31076,41.10668 286.27796,48.11748 280.21236,53.47588 C277.17276,56.15508 273.98356,58.01828 270.64476,59.05868 C267.53036,60.10588 263.11036,60.63628 257.39156,60.63628 L245.70236,60.63628 Z" id="Fill-95" fill="#4B4A4A"></path>
                    <polygon id="Fill-96" fill="#4B4A4A" points="331.12736 12.23728 308.52416 12.23728 308.52416 25.78968 330.46776 25.78968 330.46776 33.78648 308.52416 33.78648 308.52416 52.62928 331.12736 52.62928 331.12736 60.63288 300.01056 60.63288 300.01056 4.24048 331.12736 4.24048"></polygon>
                    <polygon id="Fill-97" fill="#4B4A4A" points="342.30316 60.63424 342.30316 0.40664 383.42956 43.43024 383.42956 4.24184 391.94316 4.24184 391.94316 64.06144 350.81676 21.14664 350.81676 60.63424"></polygon>
                    <path d="M413.96224,52.63268 L417.79744,52.63268 C421.61904,52.63268 424.80144,52.23148 427.33104,51.42908 C429.86744,50.57228 432.15224,49.22588 434.19904,47.37628 C438.38784,43.55468 440.47544,38.57028 440.47544,32.43668 C440.47544,26.24868 438.41504,21.23708 434.26704,17.38828 C430.54064,13.95428 425.05304,12.24068 417.79744,12.24068 L413.96224,12.24068 L413.96224,52.63268 Z M405.45544,60.63628 L405.45544,4.23708 L417.28744,4.23708 C422.95864,4.23708 427.43984,4.80148 430.73104,5.91668 C434.25344,7.01828 437.46304,8.87468 440.33264,11.50628 C446.15344,16.81708 449.06384,23.79388 449.06384,32.43668 C449.06384,41.10668 446.03104,48.11748 439.96544,53.47588 C436.92584,56.15508 433.73664,58.01828 430.39784,59.05868 C427.28344,60.10588 422.86344,60.63628 417.14464,60.63628 L405.45544,60.63628 Z" id="Fill-98" fill="#4B4A4A"></path>
                    <polygon id="Fill-99" fill="#4B4A4A" points="84.29552 113.18804 108.61912 113.18804 108.61912 91.12884 117.13272 91.12884 117.13272 147.52124 108.61912 147.52124 108.61912 121.18484 84.29552 121.18484 84.29552 147.52124 75.78872 147.52124 75.78872 91.12884 84.29552 91.12884"></polygon>
                    <path d="M155.11752,80.17132 C155.11752,78.75692 155.62752,77.53972 156.65432,76.51972 C157.67432,75.49972 158.90512,74.97612 160.33992,74.97612 C161.77472,74.97612 163.00552,75.49972 164.03232,76.51972 C165.05232,77.53972 165.56232,78.77732 165.56232,80.23932 C165.56232,81.68092 165.05232,82.90492 164.03232,83.93172 C163.00552,84.95172 161.77472,85.46172 160.33992,85.46172 C158.87792,85.46172 157.63352,84.95172 156.61352,83.93172 C155.61392,82.85732 155.11752,81.60612 155.11752,80.17132 L155.11752,80.17132 Z M160.30592,125.81972 L151.93512,106.65052 L143.16992,125.81972 L160.30592,125.81972 Z M138.71592,80.17132 C138.71592,78.75692 139.22592,77.53972 140.24592,76.51972 C141.27272,75.49972 142.49672,74.97612 143.90432,74.97612 C145.35952,74.97612 146.59032,75.49972 147.59672,76.51972 C148.61672,77.53972 149.12672,78.77732 149.12672,80.23932 C149.12672,81.68092 148.61672,82.90492 147.59672,83.93172 C146.59032,84.95172 145.37312,85.46172 143.93832,85.46172 C142.48312,85.46172 141.23872,84.95172 140.21872,83.93172 C139.21232,82.85732 138.71592,81.60612 138.71592,80.17132 L138.71592,80.17132 Z M163.76712,133.82332 L139.63392,133.82332 L133.35072,147.51852 L124.17752,147.51852 L152.08472,87.58332 L179.00592,147.51852 L169.68992,147.51852 L163.76712,133.82332 Z" id="Fill-100" fill="#4B4A4A"></path>
                    <polygon id="Fill-101" fill="#4B4A4A" points="186.04936 147.52056 186.04936 87.29296 227.17576 130.31656 227.17576 91.12816 235.68936 91.12816 235.68936 150.94776 194.56296 108.03296 194.56296 147.52056"></polygon>
                    <path d="M255.48416,119.17816 C255.48416,125.40696 257.57856,130.53416 261.76736,134.55296 C265.92896,138.57176 270.73656,140.57096 276.19016,140.57096 C282.10616,140.57096 287.09736,138.53096 291.16376,134.43736 C295.23696,130.30296 297.27016,125.26416 297.27016,119.32096 C297.27016,113.30976 295.25736,108.27096 291.23856,104.19776 C287.24696,100.10416 282.30336,98.06416 276.40776,98.06416 C270.54616,98.06416 265.58216,100.10416 261.54976,104.19776 C257.50376,108.24376 255.48416,113.23496 255.48416,119.17816 M246.89576,119.06256 C246.89576,111.12696 249.80616,104.30656 255.62696,98.61496 C261.42056,92.91656 268.38376,90.06736 276.52336,90.06736 C284.55416,90.06736 291.44256,92.93696 297.19536,98.68296 C302.96176,104.43576 305.84496,111.33776 305.84496,119.38896 C305.84496,127.50816 302.94816,134.38296 297.15456,140.02696 C291.33376,145.69816 284.30936,148.54056 276.08136,148.54056 C268.79856,148.54056 262.26376,146.01776 256.47016,140.97896 C250.09176,135.40976 246.89576,128.09976 246.89576,119.06256" id="Fill-102" fill="#4B4A4A"></path>
                    <polygon id="Fill-103" fill="#4B4A4A" points="314.57888 147.52056 326.44488 86.89176 345.80448 130.71776 365.85768 86.89176 376.52008 147.52056 367.78888 147.52056 362.34888 113.47976 345.65488 150.11136 329.44368 113.43896 323.37808 147.52056"></polygon>
                    <polygon id="Fill-104" fill="#4B4A4A" points="419.5804 99.1236 396.9772 99.1236 396.9772 112.6692 418.9208 112.6692 418.9208 120.6728 396.9772 120.6728 396.9772 139.5156 419.5804 139.5156 419.5804 147.5192 388.4636 147.5192 388.4636 91.1268 419.5804 91.1268"></polygon>
                    <polygon id="Fill-105" fill="#4B4A4A" points="430.75688 147.52056 430.75688 87.29296 471.88328 130.31656 471.88328 91.12816 480.39688 91.12816 480.39688 150.94776 439.27048 108.03296 439.27048 147.52056"></polygon>
                    <path d="M524.00392,125.81904 L515.63992,106.64984 L506.86792,125.81904 L524.00392,125.81904 Z M527.47192,133.82264 L503.33192,133.82264 L497.04872,147.51784 L487.88232,147.51784 L515.78272,87.58264 L542.70392,147.51784 L533.38792,147.51784 L527.47192,133.82264 Z" id="Fill-106" fill="#4B4A4A"></path>
                    <polygon id="Fill-107" fill="#4B4A4A" points="558.263 91.12816 558.263 139.51696 574.8414 139.51696 574.8414 147.52056 549.7494 147.52056 549.7494 91.12816"></polygon>
                </g>
            </g>
        </g>
    </g>
</svg>