<?xml version="1.0" encoding="UTF-8"?>
<svg width="292px" height="87px" viewBox="0 0 292 87" version="1.1" xmlns="http://www.w3.org/2000/svg" xmlns:xlink="http://www.w3.org/1999/xlink">
    <!-- Generator: Sketch 49.3 (51167) - http://www.bohemiancoding.com/sketch -->
    <title>wortpaare/einmalig-paradiesisch-neg</title>
    <desc>Created with Sketch.</desc>
    <defs>
        <polygon id="path-1" points="1.88208 0.20916 33.29568 0.20916 33.29568 39.6 1.88208 39.6"></polygon>
        <polygon id="path-3" points="0 0.91512 29.73528 0.91512 29.73528 32.45832 0 32.45832"></polygon>
        <polygon id="path-5" points="0 86.73336 291.4344 86.73336 291.4344 -0.00144 0 -0.00144"></polygon>
    </defs>
    <g id="Page-1" stroke="none" stroke-width="1" fill="none" fill-rule="evenodd">
        <g id="negativ" transform="translate(-83.000000, -1044.000000)">
            <g id="wortpaare/einmalig-paradiesisch-neg" transform="translate(83.000000, 1044.000000)">
                <g id="Group-3" transform="translate(0.000000, 47.133360)">
                    <mask id="mask-2" fill="white">
                        <use xlink:href="#path-1"></use>
                    </mask>
                    <g id="Clip-2"></g>
                    <path d="M24.81768,15.77556 L24.81768,15.66396 C24.81768,10.69956 21.46968,7.40556 17.50968,7.40556 C13.54608,7.40556 10.25568,10.69956 10.25568,15.66396 L10.25568,15.77556 C10.25568,20.74356 13.54608,24.03396 17.50968,24.03396 C21.46968,24.03396 24.81768,20.79756 24.81768,15.77556 Z M1.88208,0.76716 L10.36728,0.76716 L10.36728,5.06196 C12.43008,2.27196 15.27768,0.20916 19.68408,0.20916 C26.65728,0.20916 33.29568,5.67756 33.29568,15.66396 L33.29568,15.77556 C33.29568,25.76196 26.76888,31.23036 19.68408,31.23036 C15.16248,31.23036 12.37248,29.16756 10.36728,26.76996 L10.36728,39.60036 L1.88208,39.60036 L1.88208,0.76716 Z" id="Fill-1" fill="#FFFFFF" mask="url(#mask-2)"></path>
                </g>
                <g id="Group-6" transform="translate(0.000000, 0.333360)">
                    <mask id="mask-4" fill="white">
                        <use xlink:href="#path-3"></use>
                    </mask>
                    <g id="Clip-5"></g>
                    <path d="M21.36888,14.25672 C20.86128,10.41192 18.60048,7.81272 14.98608,7.81272 C11.42208,7.81272 9.10368,10.35432 8.42688,14.25672 L21.36888,14.25672 Z M-0.00072,16.79832 L-0.00072,16.68672 C-0.00072,8.03592 6.16248,0.91512 14.98608,0.91512 C25.10208,0.91512 29.73528,8.77392 29.73528,17.36352 C29.73528,18.04392 29.68128,18.83232 29.62368,19.62432 L8.53848,19.62432 C9.38808,23.52672 12.09888,25.56072 15.94368,25.56072 C18.82728,25.56072 20.91888,24.65712 23.29128,22.45392 L28.20888,26.80272 C25.38648,30.30912 21.31488,32.45832 15.83208,32.45832 C6.72768,32.45832 -0.00072,26.07192 -0.00072,16.79832 Z" id="Fill-4" fill="#FFFFFF" mask="url(#mask-4)"></path>
                </g>
                <mask id="mask-6" fill="white">
                    <use xlink:href="#path-5"></use>
                </mask>
                <g id="Clip-8"></g>
                <polygon id="Fill-7" fill="#FFFFFF" mask="url(#mask-6)" points="34.0812 32.09616 38.5848 32.09616 38.5848 2.24136 34.0812 2.24136"></polygon>
                <polygon id="Fill-9" fill="#FFFFFF" mask="url(#mask-6)" points="45.75852 32.09796 45.75852 0.21276 67.53132 22.98996 67.53132 2.24316 72.03492 2.24316 72.03492 33.91596 50.26212 11.19276 50.26212 32.09796"></polygon>
                <polygon id="Fill-10" fill="#FFFFFF" mask="url(#mask-6)" points="78.14628 32.09796 84.43188 0.00036 94.67748 23.20236 105.29388 0.00036 110.93868 32.09796 106.31988 32.09796 103.43628 14.07636 94.60188 33.46956 86.01588 14.05476 82.80468 32.09796"></polygon>
                <path d="M132.96348,20.61216 L128.53548,10.46016 L123.89508,20.61216 L132.96348,20.61216 Z M134.79948,24.84576 L122.01948,24.84576 L118.69308,32.09616 L113.84028,32.09616 L128.61468,0.36576 L142.86348,32.09616 L137.93148,32.09616 L134.79948,24.84576 Z" id="Fill-11" fill="#FFFFFF" mask="url(#mask-6)"></path>
                <polygon id="Fill-12" fill="#FFFFFF" mask="url(#mask-6)" points="151.10064 2.24316 151.10064 27.86076 159.87744 27.86076 159.87744 32.09796 146.59704 32.09796 146.59704 2.24316"></polygon>
                <polygon id="Fill-13" fill="#FFFFFF" mask="url(#mask-6)" points="164.1528 32.09616 168.6564 32.09616 168.6564 2.24136 164.1528 2.24136"></polygon>
                <path d="M191.18412,16.55172 L203.52132,16.55172 L203.52132,17.53452 C203.52132,19.77732 203.25852,21.76452 202.72932,23.49252 C202.21092,25.09092 201.34332,26.58492 200.11572,27.97812 C197.34372,31.09932 193.81932,32.65812 189.53892,32.65812 C185.36292,32.65812 181.78812,31.14972 178.80732,28.13292 C175.83012,25.10532 174.34332,21.46932 174.34332,17.22492 C174.34332,12.89412 175.85892,9.22212 178.88652,6.20532 C181.91412,3.17772 185.60412,1.66212 189.94572,1.66212 C192.27852,1.66212 194.46012,2.13732 196.48332,3.09492 C198.41652,4.04532 200.31732,5.59332 202.18572,7.73532 L198.97812,10.80612 C196.52652,7.54812 193.54212,5.91732 190.02492,5.91732 C186.86412,5.91732 184.21452,7.00812 182.07612,9.18252 C179.93772,11.32452 178.86852,14.00652 178.86852,17.22492 C178.86852,20.55132 180.06012,23.29092 182.44332,25.44732 C184.67532,27.44172 187.09092,28.44252 189.69372,28.44252 C191.91132,28.44252 193.90212,27.69732 195.66972,26.19972 C197.43732,24.69132 198.42372,22.88772 198.62892,20.78532 L191.18412,20.78532 L191.18412,16.55172 Z" id="Fill-14" fill="#FFFFFF" mask="url(#mask-6)"></path>
                <path d="M53.48772,66.6108 L49.05972,56.4588 L44.41932,66.6108 L53.48772,66.6108 Z M55.32372,70.8444 L42.54372,70.8444 L39.21732,78.0948 L34.36452,78.0948 L49.13892,46.3644 L63.38772,78.0948 L58.45572,78.0948 L55.32372,70.8444 Z" id="Fill-15" fill="#FFFFFF" mask="url(#mask-6)"></path>
                <path d="M71.62488,61.94916 L73.05408,61.94916 C77.32368,61.94916 79.45488,60.31836 79.45488,57.06036 C79.45488,54.00396 77.38128,52.47396 73.23048,52.47396 L71.62488,52.47396 L71.62488,61.94916 Z M77.23368,65.37276 L86.47488,78.09516 L80.96328,78.09516 L72.43848,65.87676 L71.62488,65.87676 L71.62488,78.09516 L67.12128,78.09516 L67.12128,48.24036 L72.39888,48.24036 C76.34448,48.24036 79.19208,48.98196 80.94528,50.46516 C82.87848,52.11756 83.84688,54.29196 83.84688,56.99916 C83.84688,59.11596 83.23848,60.93396 82.02888,62.45316 C80.81568,63.97236 79.21728,64.94796 77.23368,65.37276 Z" id="Fill-16" fill="#FFFFFF" mask="url(#mask-6)"></path>
                <path d="M106.66152,66.6108 L102.23352,56.4588 L97.59312,66.6108 L106.66152,66.6108 Z M108.49752,70.8444 L95.71752,70.8444 L92.39112,78.0948 L87.53832,78.0948 L102.31272,46.3644 L116.56152,78.0948 L111.62952,78.0948 L108.49752,70.8444 Z" id="Fill-17" fill="#FFFFFF" mask="url(#mask-6)"></path>
                <path d="M124.79868,73.86012 L126.82908,73.86012 C128.85228,73.86012 130.53348,73.64772 131.87628,73.22292 C133.21548,72.76932 134.42868,72.05652 135.51228,71.07732 C137.72628,69.05412 138.83508,66.41892 138.83508,63.16812 C138.83508,59.89212 137.74068,57.23892 135.54828,55.20132 C133.57548,53.38692 130.67028,52.47612 126.82908,52.47612 L124.79868,52.47612 L124.79868,73.86012 Z M120.29508,78.09732 L120.29508,48.24252 L126.55908,48.24252 C129.56148,48.24252 131.93388,48.53772 133.67268,49.13172 C135.54108,49.71132 137.24028,50.69412 138.75948,52.08732 C141.84108,54.89892 143.38188,58.59252 143.38188,63.16812 C143.38188,67.75812 141.77628,71.46972 138.56508,74.30652 C136.95228,75.72492 135.26748,76.71132 133.49988,77.26212 C131.84748,77.82012 129.51108,78.09732 126.47988,78.09732 L120.29508,78.09732 Z" id="Fill-18" fill="#FFFFFF" mask="url(#mask-6)"></path>
                <polygon id="Fill-19" fill="#FFFFFF" mask="url(#mask-6)" points="149.0472 78.09696 153.5508 78.09696 153.5508 48.24216 149.0472 48.24216"></polygon>
                <polygon id="Fill-20" fill="#FFFFFF" mask="url(#mask-6)" points="177.19884 52.47432 165.22884 52.47432 165.22884 59.64912 176.84964 59.64912 176.84964 63.88272 165.22884 63.88272 165.22884 73.85832 177.19884 73.85832 177.19884 78.09552 160.72524 78.09552 160.72524 48.24072 177.19884 48.24072"></polygon>
                <path d="M199.99584,52.68888 L196.34184,54.85608 C195.65784,53.66448 195.00624,52.89408 194.38704,52.53408 C193.74264,52.12008 192.91104,51.91488 191.89584,51.91488 C190.64304,51.91488 189.60624,52.27128 188.78184,52.97688 C187.95744,53.67168 187.54344,54.55368 187.54344,55.60848 C187.54344,57.06648 188.62704,58.23648 190.79064,59.12568 L193.77144,60.34608 C196.19424,61.32168 197.96544,62.52048 199.08864,63.93168 C200.20824,65.34648 200.76984,67.07448 200.76984,69.12288 C200.76984,71.86968 199.85184,74.13768 198.02304,75.93048 C196.17984,77.73408 193.89384,78.63768 191.15784,78.63768 C188.56944,78.63768 186.42744,77.87088 184.73904,76.33368 C183.07584,74.80368 182.03904,72.64368 181.62504,69.86088 L186.18984,68.85288 C186.39504,70.60608 186.75864,71.81568 187.27344,72.48888 C188.20224,73.77408 189.55584,74.42208 191.33424,74.42208 C192.73824,74.42208 193.90464,73.95048 194.83344,73.01088 C195.76224,72.07128 196.22664,70.87608 196.22664,69.43248 C196.22664,68.85288 196.14384,68.32368 195.98544,67.83768 C195.82344,67.35528 195.57144,66.90888 195.22944,66.50568 C194.88744,66.09888 194.44464,65.71728 193.90464,65.36448 C193.36464,65.00808 192.72024,64.66968 191.97144,64.34568 L189.09144,63.14688 C185.00184,61.42248 182.96064,58.89528 182.96064,55.56888 C182.96064,53.32608 183.81744,51.45048 185.53104,49.94208 C187.24464,48.41928 189.37944,47.66328 191.93184,47.66328 C195.37344,47.66328 198.06264,49.33368 199.99584,52.68888" id="Fill-21" fill="#FFFFFF" mask="url(#mask-6)"></path>
                <polygon id="Fill-22" fill="#FFFFFF" mask="url(#mask-6)" points="206.2044 78.09696 210.708 78.09696 210.708 48.24216 206.2044 48.24216"></polygon>
                <path d="M234.76212,52.68888 L231.10812,54.85608 C230.42412,53.66448 229.77252,52.89408 229.15332,52.53408 C228.50892,52.12008 227.67732,51.91488 226.66212,51.91488 C225.40932,51.91488 224.37252,52.27128 223.54812,52.97688 C222.72372,53.67168 222.30972,54.55368 222.30972,55.60848 C222.30972,57.06648 223.39332,58.23648 225.55692,59.12568 L228.53772,60.34608 C230.96052,61.32168 232.73172,62.52048 233.85492,63.93168 C234.97452,65.34648 235.53612,67.07448 235.53612,69.12288 C235.53612,71.86968 234.61812,74.13768 232.78932,75.93048 C230.94612,77.73408 228.66012,78.63768 225.92412,78.63768 C223.33572,78.63768 221.19372,77.87088 219.50532,76.33368 C217.84212,74.80368 216.80532,72.64368 216.39132,69.86088 L220.95612,68.85288 C221.16132,70.60608 221.52492,71.81568 222.03972,72.48888 C222.96852,73.77408 224.32212,74.42208 226.10052,74.42208 C227.50452,74.42208 228.67092,73.95048 229.59972,73.01088 C230.52852,72.07128 230.99292,70.87608 230.99292,69.43248 C230.99292,68.85288 230.91012,68.32368 230.75172,67.83768 C230.58972,67.35528 230.33772,66.90888 229.99572,66.50568 C229.65372,66.09888 229.21092,65.71728 228.67092,65.36448 C228.13092,65.00808 227.48652,64.66968 226.73772,64.34568 L223.85772,63.14688 C219.76812,61.42248 217.72692,58.89528 217.72692,55.56888 C217.72692,53.32608 218.58372,51.45048 220.29732,49.94208 C222.01092,48.41928 224.14572,47.66328 226.69812,47.66328 C230.13972,47.66328 232.82892,49.33368 234.76212,52.68888" id="Fill-23" fill="#FFFFFF" mask="url(#mask-6)"></path>
                <path d="M263.03112,49.84488 L263.03112,55.18008 C260.42832,53.00568 257.73192,51.91488 254.94912,51.91488 C251.88192,51.91488 249.29712,53.01648 247.19472,55.21968 C245.08152,57.41568 244.02312,60.09408 244.02312,63.26568 C244.02312,66.39768 245.08152,69.04008 247.19472,71.19288 C249.30792,73.34568 251.89992,74.42208 254.96712,74.42208 C256.55472,74.42208 257.90112,74.16288 259.00992,73.64808 C259.62912,73.38888 260.26992,73.03968 260.93232,72.60408 C261.59832,72.16488 262.29672,71.63928 263.03112,71.02008 L263.03112,76.45248 C260.45352,77.91048 257.74632,78.63768 254.90952,78.63768 C250.64352,78.63768 247.00032,77.14728 243.98352,74.17008 C240.98112,71.16768 239.47992,67.54608 239.47992,63.30168 C239.47992,59.50368 240.73632,56.10888 243.24912,53.13168 C246.34512,49.48488 250.34832,47.66328 255.25872,47.66328 C257.93712,47.66328 260.52912,48.39048 263.03112,49.84488" id="Fill-24" fill="#FFFFFF" mask="url(#mask-6)"></path>
                <polygon id="Fill-25" fill="#FFFFFF" mask="url(#mask-6)" points="274.05252 59.92056 286.92972 59.92056 286.92972 48.24216 291.43692 48.24216 291.43692 78.09696 286.92972 78.09696 286.92972 64.15416 274.05252 64.15416 274.05252 78.09696 269.54892 78.09696 269.54892 48.24216 274.05252 48.24216"></polygon>
            </g>
        </g>
    </g>
</svg>