<?xml version="1.0" encoding="UTF-8"?>
<svg width="551px" height="164px" viewBox="0 0 551 164" version="1.1" xmlns="http://www.w3.org/2000/svg" xmlns:xlink="http://www.w3.org/1999/xlink">
    <!-- Generator: Sketch 49.3 (51167) - http://www.bohemiancoding.com/sketch -->
    <title>wortpaare/einmalig-paradiesisch-pos</title>
    <desc>Created with Sketch.</desc>
    <defs>
        <polygon id="path-1" points="0 1.72788 56.16664 1.72788 56.16664 61.30948 0 61.30948"></polygon>
        <polygon id="path-3" points="0 163.82968 550.4872 163.82968 550.4872 -0.00272 0 -0.00272"></polygon>
    </defs>
    <g id="Page-1" stroke="none" stroke-width="1" fill="none" fill-rule="evenodd">
        <g id="Wortpaare-Copy" transform="translate(-2580.000000, -1954.000000)">
            <g id="wortpaare/einmalig-paradiesisch-pos" transform="translate(2580.000000, 1954.000000)">
                <path d="M46.87784,118.82728 L46.87784,118.61648 C46.87784,109.23928 40.55384,103.01728 33.07384,103.01728 C25.58704,103.01728 19.37184,109.23928 19.37184,118.61648 L19.37184,118.82728 C19.37184,128.21128 25.58704,134.42648 33.07384,134.42648 C40.55384,134.42648 46.87784,128.31328 46.87784,118.82728 Z M3.55504,90.47808 L19.58264,90.47808 L19.58264,98.59048 C23.47904,93.32048 28.85784,89.42408 37.18104,89.42408 C50.35264,89.42408 62.89184,99.75328 62.89184,118.61648 L62.89184,118.82728 C62.89184,137.69048 50.56344,148.01968 37.18104,148.01968 C28.64024,148.01968 23.37024,144.12328 19.58264,139.59448 L19.58264,163.82968 L3.55504,163.82968 L3.55504,90.47808 Z" id="Fill-1" fill="#DB081A"></path>
                <g id="Group-5" transform="translate(0.000000, 0.629680)">
                    <mask id="mask-2" fill="white">
                        <use xlink:href="#path-1"></use>
                    </mask>
                    <g id="Clip-4"></g>
                    <path d="M40.36344,26.92868 C39.40464,19.66628 35.13424,14.75668 28.30704,14.75668 C21.57504,14.75668 17.19584,19.55748 15.91744,26.92868 L40.36344,26.92868 Z M-0.00136,31.72948 L-0.00136,31.51868 C-0.00136,15.17828 11.64024,1.72788 28.30704,1.72788 C47.41504,1.72788 56.16664,16.57228 56.16664,32.79708 C56.16664,34.08228 56.06464,35.57828 55.95584,37.06748 L16.12824,37.06748 C17.73304,44.43868 22.85344,48.28748 30.11584,48.28748 C35.56264,48.28748 39.51344,46.57388 43.99464,42.41228 L53.28344,50.62668 C47.95224,57.24988 40.26144,61.30948 29.90504,61.30948 C12.70784,61.30948 -0.00136,49.24628 -0.00136,31.72948 Z" id="Fill-3" fill="#DB081A" mask="url(#mask-2)"></path>
                </g>
                <mask id="mask-4" fill="white">
                    <use xlink:href="#path-3"></use>
                </mask>
                <g id="Clip-7"></g>
                <polygon id="Fill-6" fill="#4B4A4A" mask="url(#mask-4)" points="64.3756 60.62608 72.8824 60.62608 72.8824 4.23368 64.3756 4.23368"></polygon>
                <polygon id="Fill-8" fill="#4B4A4A" mask="url(#mask-4)" points="86.43276 60.6288 86.43276 0.4012 127.55916 43.4248 127.55916 4.2364 136.06596 4.2364 136.06596 64.0628 94.93956 21.1412 94.93956 60.6288"></polygon>
                <polygon id="Fill-9" fill="#4B4A4A" mask="url(#mask-4)" points="147.60964 60.6288 159.48244 0 178.83524 43.826 198.88844 0 209.55084 60.6288 200.82644 60.6288 195.37964 26.588 178.69244 63.2196 162.47444 26.5472 156.40884 60.6288"></polygon>
                <path d="M251.15324,38.93408 L242.78924,19.75808 L234.02404,38.93408 L251.15324,38.93408 Z M254.62124,46.93088 L230.48124,46.93088 L224.19804,60.62608 L215.03164,60.62608 L242.93884,0.69088 L269.85324,60.62608 L260.53724,60.62608 L254.62124,46.93088 Z" id="Fill-10" fill="#4B4A4A" mask="url(#mask-4)"></path>
                <polygon id="Fill-11" fill="#4B4A4A" mask="url(#mask-4)" points="285.41232 4.23708 285.41232 52.62588 301.99072 52.62588 301.99072 60.62948 276.90552 60.62948 276.90552 4.23708"></polygon>
                <polygon id="Fill-12" fill="#4B4A4A" mask="url(#mask-4)" points="310.0664 60.62608 318.5732 60.62608 318.5732 4.23368 310.0664 4.23368"></polygon>
                <path d="M361.12556,31.26436 L384.42916,31.26436 L384.42916,33.12076 C384.42916,37.35716 383.93276,41.11076 382.93316,44.37476 C381.95396,47.39396 380.31516,50.21596 377.99636,52.84756 C372.76036,58.74316 366.10316,61.68756 358.01796,61.68756 C350.12996,61.68756 343.37756,58.83836 337.74716,53.13996 C332.12356,47.42116 329.31516,40.55316 329.31516,32.53596 C329.31516,24.35556 332.17796,17.41956 337.89676,11.72116 C343.61556,6.00236 350.58556,3.13956 358.78636,3.13956 C363.19276,3.13956 367.31356,4.03716 371.13516,5.84596 C374.78676,7.64116 378.37716,10.56516 381.90636,14.61116 L375.84756,20.41156 C371.21676,14.25756 365.57956,11.17716 358.93596,11.17716 C352.96556,11.17716 347.96076,13.23756 343.92156,17.34476 C339.88236,21.39076 337.86276,26.45676 337.86276,32.53596 C337.86276,38.81916 340.11356,43.99396 344.61516,48.06716 C348.83116,51.83436 353.39396,53.72476 358.31036,53.72476 C362.49916,53.72476 366.25956,52.31716 369.59836,49.48836 C372.93716,46.63916 374.80036,43.23236 375.18796,39.26116 L361.12556,39.26116 L361.12556,31.26436 Z" id="Fill-13" fill="#4B4A4A" mask="url(#mask-4)"></path>
                <path d="M101.03236,125.81972 L92.66836,106.64372 L83.90316,125.81972 L101.03236,125.81972 Z M104.50036,133.81652 L80.36036,133.81652 L74.07716,147.51172 L64.91076,147.51172 L92.81796,87.57652 L119.73236,147.51172 L110.41636,147.51172 L104.50036,133.81652 Z" id="Fill-14" fill="#4B4A4A" mask="url(#mask-4)"></path>
                <path d="M135.29144,117.0144 L137.99104,117.0144 C146.05584,117.0144 150.08144,113.934 150.08144,107.78 C150.08144,102.0068 146.16464,99.1168 138.32424,99.1168 L135.29144,99.1168 L135.29144,117.0144 Z M145.88584,123.4812 L163.34144,147.5124 L152.93064,147.5124 L136.82824,124.4332 L135.29144,124.4332 L135.29144,147.5124 L126.78464,147.5124 L126.78464,91.12 L136.75344,91.12 C144.20624,91.12 149.58504,92.5208 152.89664,95.3224 C156.54824,98.4436 158.37744,102.5508 158.37744,107.6644 C158.37744,111.6628 157.22824,115.0968 154.94344,117.9664 C152.65184,120.836 149.63264,122.6788 145.88584,123.4812 Z" id="Fill-15" fill="#4B4A4A" mask="url(#mask-4)"></path>
                <path d="M201.47176,125.81972 L193.10776,106.64372 L184.34256,125.81972 L201.47176,125.81972 Z M204.93976,133.81652 L180.79976,133.81652 L174.51656,147.51172 L165.35016,147.51172 L193.25736,87.57652 L220.17176,147.51172 L210.85576,147.51172 L204.93976,133.81652 Z" id="Fill-16" fill="#4B4A4A" mask="url(#mask-4)"></path>
                <path d="M235.73084,139.51288 L239.56604,139.51288 C243.38764,139.51288 246.56324,139.11168 249.09964,138.30928 C251.62924,137.45248 253.92084,136.10608 255.96764,134.25648 C260.14964,130.43488 262.24404,125.45728 262.24404,119.31688 C262.24404,113.12888 260.17684,108.11728 256.03564,104.26848 C252.30924,100.84128 246.82164,99.12088 239.56604,99.12088 L235.73084,99.12088 L235.73084,139.51288 Z M227.22404,147.51648 L227.22404,91.12408 L239.05604,91.12408 C244.72724,91.12408 249.20844,91.68168 252.49284,92.80368 C256.02204,93.89848 259.23164,95.75488 262.10124,98.38648 C267.92204,103.69728 270.83244,110.67408 270.83244,119.31688 C270.83244,127.98688 267.79964,134.99768 261.73404,140.35608 C258.68764,143.03528 255.50524,144.89848 252.16644,145.93888 C249.04524,146.99288 244.63204,147.51648 238.90644,147.51648 L227.22404,147.51648 Z" id="Fill-17" fill="#4B4A4A" mask="url(#mask-4)"></path>
                <polygon id="Fill-18" fill="#4B4A4A" mask="url(#mask-4)" points="281.5336 147.51648 290.0404 147.51648 290.0404 91.12408 281.5336 91.12408"></polygon>
                <polygon id="Fill-19" fill="#4B4A4A" mask="url(#mask-4)" points="334.70892 99.11816 312.09892 99.11816 312.09892 112.67056 334.04932 112.67056 334.04932 120.66736 312.09892 120.66736 312.09892 139.51016 334.70892 139.51016 334.70892 147.51376 303.59212 147.51376 303.59212 91.12136 334.70892 91.12136"></polygon>
                <path d="M377.76992,99.52344 L370.86792,103.61704 C369.57592,101.36624 368.34512,99.91104 367.17552,99.23104 C365.95832,98.44904 364.38752,98.06144 362.46992,98.06144 C360.10352,98.06144 358.14512,98.73464 356.58792,100.06744 C355.03072,101.37984 354.24872,103.04584 354.24872,105.03824 C354.24872,107.79224 356.29552,110.00224 360.38232,111.68184 L366.01272,113.98704 C370.58912,115.82984 373.93472,118.09424 376.05632,120.75984 C378.17112,123.43224 379.23192,126.69624 379.23192,130.56544 C379.23192,135.75384 377.49792,140.03784 374.04352,143.42424 C370.56192,146.83104 366.24392,148.53784 361.07592,148.53784 C356.18672,148.53784 352.14072,147.08944 348.95152,144.18584 C345.80992,141.29584 343.85152,137.21584 343.06952,131.95944 L351.69192,130.05544 C352.07952,133.36704 352.76632,135.65184 353.73872,136.92344 C355.49312,139.35104 358.04992,140.57504 361.40912,140.57504 C364.06112,140.57504 366.26432,139.68424 368.01872,137.90944 C369.77312,136.13464 370.65032,133.87704 370.65032,131.15024 C370.65032,130.05544 370.49392,129.05584 370.19472,128.13784 C369.88872,127.22664 369.41272,126.38344 368.76672,125.62184 C368.12072,124.85344 367.28432,124.13264 366.26432,123.46624 C365.24432,122.79304 364.02712,122.15384 362.61272,121.54184 L357.17272,119.27744 C349.44792,116.02024 345.59232,111.24664 345.59232,104.96344 C345.59232,100.72704 347.21072,97.18424 350.44752,94.33504 C353.68432,91.45864 357.71672,90.03064 362.53792,90.03064 C369.03872,90.03064 374.11832,93.18584 377.76992,99.52344" id="Fill-20" fill="#4B4A4A" mask="url(#mask-4)"></path>
                <polygon id="Fill-21" fill="#4B4A4A" mask="url(#mask-4)" points="389.4972 147.51648 398.004 147.51648 398.004 91.12408 389.4972 91.12408"></polygon>
                <path d="M443.43956,99.52344 L436.53756,103.61704 C435.24556,101.36624 434.01476,99.91104 432.84516,99.23104 C431.62796,98.44904 430.05716,98.06144 428.13956,98.06144 C425.77316,98.06144 423.81476,98.73464 422.25756,100.06744 C420.70036,101.37984 419.91836,103.04584 419.91836,105.03824 C419.91836,107.79224 421.96516,110.00224 426.05196,111.68184 L431.68236,113.98704 C436.25876,115.82984 439.60436,118.09424 441.72596,120.75984 C443.84076,123.43224 444.90156,126.69624 444.90156,130.56544 C444.90156,135.75384 443.16756,140.03784 439.71316,143.42424 C436.23156,146.83104 431.91356,148.53784 426.74556,148.53784 C421.85636,148.53784 417.81036,147.08944 414.62116,144.18584 C411.47956,141.29584 409.52116,137.21584 408.73916,131.95944 L417.36156,130.05544 C417.74916,133.36704 418.43596,135.65184 419.40836,136.92344 C421.16276,139.35104 423.71956,140.57504 427.07876,140.57504 C429.73076,140.57504 431.93396,139.68424 433.68836,137.90944 C435.44276,136.13464 436.31996,133.87704 436.31996,131.15024 C436.31996,130.05544 436.16356,129.05584 435.86436,128.13784 C435.55836,127.22664 435.08236,126.38344 434.43636,125.62184 C433.79036,124.85344 432.95396,124.13264 431.93396,123.46624 C430.91396,122.79304 429.69676,122.15384 428.28236,121.54184 L422.84236,119.27744 C415.11756,116.02024 411.26196,111.24664 411.26196,104.96344 C411.26196,100.72704 412.88036,97.18424 416.11716,94.33504 C419.35396,91.45864 423.38636,90.03064 428.20756,90.03064 C434.70836,90.03064 439.78796,93.18584 443.43956,99.52344" id="Fill-22" fill="#4B4A4A" mask="url(#mask-4)"></path>
                <path d="M496.83656,94.15076 L496.83656,104.22836 C491.92016,100.12116 486.82696,98.06076 481.57056,98.06076 C475.77696,98.06076 470.89456,100.14156 466.92336,104.30316 C462.93176,108.45116 460.93256,113.51036 460.93256,119.50116 C460.93256,125.41716 462.93176,130.40836 466.92336,134.47476 C470.91496,138.54116 475.81096,140.57436 481.60456,140.57436 C484.60336,140.57436 487.14656,140.08476 489.24096,139.11236 C490.41056,138.62276 491.62096,137.96316 492.87216,137.14036 C494.13016,136.31076 495.44936,135.31796 496.83656,134.14836 L496.83656,144.40956 C491.96776,147.16356 486.85416,148.53716 481.49576,148.53716 C473.43776,148.53716 466.55616,145.72196 460.85776,140.09836 C455.18656,134.42716 452.35096,127.58636 452.35096,119.56916 C452.35096,112.39516 454.72416,105.98276 459.47056,100.35916 C465.31856,93.47076 472.88016,90.02996 482.15536,90.02996 C487.21456,90.02996 492.11056,91.40356 496.83656,94.15076" id="Fill-23" fill="#4B4A4A" mask="url(#mask-4)"></path>
                <polygon id="Fill-24" fill="#4B4A4A" mask="url(#mask-4)" points="517.65476 113.1826 541.97836 113.1826 541.97836 91.1234 550.49196 91.1234 550.49196 147.5158 541.97836 147.5158 541.97836 121.1794 517.65476 121.1794 517.65476 147.5158 509.14796 147.5158 509.14796 91.1234 517.65476 91.1234"></polygon>
            </g>
        </g>
    </g>
</svg>