<?xml version="1.0" encoding="UTF-8"?>
<svg width="270px" height="90px" viewBox="0 0 270 90" version="1.1" xmlns="http://www.w3.org/2000/svg" xmlns:xlink="http://www.w3.org/1999/xlink">
    <!-- Generator: Sketch 49.3 (51167) - http://www.bohemiancoding.com/sketch -->
    <title>wortpaare/einschlaegig-pfiffig-neg</title>
    <desc>Created with Sketch.</desc>
    <defs>
        <polygon id="path-1" points="1.80865385 0.201115385 32.0140385 0.201115385 32.0140385 38.0769231 1.80865385 38.0769231"></polygon>
        <polygon id="path-3" points="0 89.4586154 269.055 89.4586154 269.055 -0.00138461538 0 -0.00138461538"></polygon>
    </defs>
    <g id="Page-1" stroke="none" stroke-width="1" fill="none" fill-rule="evenodd">
        <g id="negativ" transform="translate(-506.000000, -1044.000000)">
            <g id="wortpaare/einschlaegig-pfiffig-neg" transform="translate(506.000000, 1044.000000)">
                <g id="Group-3" transform="translate(0.000000, 51.381692)">
                    <mask id="mask-2" fill="white">
                        <use xlink:href="#path-1"></use>
                    </mask>
                    <g id="Clip-2"></g>
                    <path d="M23.8621154,15.1688077 L23.8621154,15.0615 C23.8621154,10.2880385 20.6428846,7.12073077 16.8351923,7.12073077 C13.0240385,7.12073077 9.86019231,10.2880385 9.86019231,15.0615 L9.86019231,15.1688077 C9.86019231,19.9457308 13.0240385,23.1095769 16.8351923,23.1095769 C20.6428846,23.1095769 23.8621154,19.9976538 23.8621154,15.1688077 Z M1.80865385,0.737653846 L9.9675,0.737653846 L9.9675,4.86726923 C11.9509615,2.18457692 14.6890385,0.201115385 18.9259615,0.201115385 C25.6309615,0.201115385 32.0140385,5.45919231 32.0140385,15.0615 L32.0140385,15.1688077 C32.0140385,24.7711154 25.7382692,30.0291923 18.9259615,30.0291923 C14.5782692,30.0291923 11.8955769,28.0457308 9.9675,25.7403462 L9.9675,38.0772692 L1.80865385,38.0772692 L1.80865385,0.737653846 Z" id="Fill-1" fill="#FFFFFF" mask="url(#mask-2)"></path>
                </g>
                <path d="M20.5476923,20.0900769 C20.0561538,16.3931538 17.8857692,13.8939231 14.4069231,13.8939231 C10.9834615,13.8939231 8.75423077,16.3377692 8.10346154,20.0900769 L20.5476923,20.0900769 Z M0,22.5339231 L0,22.4266154 C0,14.1085385 5.92615385,7.26161538 14.4069231,7.26161538 C24.1373077,7.26161538 28.5923077,14.8181538 28.5923077,23.0773846 C28.5923077,23.7316154 28.5403846,24.4896923 28.485,25.2512308 L8.20730769,25.2512308 C9.02769231,29.0035385 11.6342308,30.9593077 15.3276923,30.9593077 C18.1003846,30.9593077 20.115,30.0904615 22.3961538,27.972 L27.1246154,32.1535385 C24.4073077,35.5250769 20.4923077,37.5916154 15.2203846,37.5916154 C6.46961538,37.5916154 0,31.4508462 0,22.5339231 Z" id="Fill-4" fill="#FFFFFF"></path>
                <mask id="mask-4" fill="white">
                    <use xlink:href="#path-3"></use>
                </mask>
                <g id="Clip-7"></g>
                <polygon id="Fill-6" fill="#FFFFFF" mask="url(#mask-4)" points="32.7703846 36.9228462 37.1007692 36.9228462 37.1007692 8.21630769 32.7703846 8.21630769"></polygon>
                <polygon id="Fill-8" fill="#FFFFFF" mask="url(#mask-4)" points="43.9975385 36.9245769 43.9975385 6.26573077 64.9329231 28.1668846 64.9329231 8.21803846 69.2633077 8.21803846 69.2633077 38.6726538 48.3279231 16.8234231 48.3279231 36.9245769"></polygon>
                <path d="M92.3746154,12.4944231 L88.8611538,14.5782692 C88.2034615,13.4325 87.5769231,12.6917308 86.9815385,12.3455769 C86.3619231,11.9475 85.5623077,11.7501923 84.5861538,11.7501923 C83.3815385,11.7501923 82.3846154,12.0928846 81.5919231,12.7713462 C80.7992308,13.4394231 80.4011538,14.2875 80.4011538,15.3017308 C80.4011538,16.7036538 81.4430769,17.8286538 83.5234615,18.6836538 L86.3896154,19.8571154 C88.7192308,20.7951923 90.4223077,21.9478846 91.5023077,23.3048077 C92.5788462,24.6651923 93.1188462,26.3267308 93.1188462,28.2963462 C93.1188462,30.9375 92.2361538,33.1182692 90.4776923,34.8421154 C88.7053846,36.5763462 86.5073077,37.4451923 83.8765385,37.4451923 C81.3876923,37.4451923 79.3280769,36.7078846 77.7046154,35.2298077 C76.1053846,33.7586538 75.1084615,31.6817308 74.7103846,29.0059615 L79.0996154,28.0367308 C79.2969231,29.7225 79.6465385,30.8855769 80.1415385,31.5328846 C81.0346154,32.7686538 82.3361538,33.3917308 84.0461538,33.3917308 C85.3961538,33.3917308 86.5176923,32.9382692 87.4107692,32.0348077 C88.3038462,31.1313462 88.7503846,29.9821154 88.7503846,28.5940385 C88.7503846,28.0367308 88.6707692,27.5278846 88.5184615,27.0605769 C88.3626923,26.5967308 88.1203846,26.1675 87.7915385,25.7798077 C87.4626923,25.3886538 87.0369231,25.0217308 86.5176923,24.6825 C85.9984615,24.3398077 85.3788462,24.0144231 84.6588462,23.7028846 L81.8896154,22.5501923 C77.9573077,20.8921154 75.9946154,18.4621154 75.9946154,15.2636538 C75.9946154,13.1071154 76.8184615,11.3036538 78.4661538,9.85326923 C80.1138462,8.38903846 82.1665385,7.66211538 84.6207692,7.66211538 C87.93,7.66211538 90.5157692,9.26826923 92.3746154,12.4944231" id="Fill-9" fill="#FFFFFF" mask="url(#mask-4)"></path>
                <path d="M119.556346,9.75946154 L119.556346,14.8894615 C117.053654,12.7986923 114.460962,11.7498462 111.785192,11.7498462 C108.835962,11.7498462 106.350577,12.8090769 104.329038,14.9275385 C102.297115,17.0390769 101.279423,19.6144615 101.279423,22.6640769 C101.279423,25.6756154 102.297115,28.2163846 104.329038,30.2863846 C106.360962,32.3563846 108.853269,33.3913846 111.8025,33.3913846 C113.329038,33.3913846 114.623654,33.1421538 115.689808,32.6471538 C116.285192,32.3979231 116.901346,32.0621538 117.538269,31.6433077 C118.178654,31.221 118.850192,30.7156154 119.556346,30.1202308 L119.556346,35.3436923 C117.077885,36.7456154 114.474808,37.4448462 111.747115,37.4448462 C107.645192,37.4448462 104.142115,36.0117692 101.241346,33.1490769 C98.3544231,30.2621538 96.9109615,26.7798462 96.9109615,22.6986923 C96.9109615,19.0467692 98.1190385,15.7825385 100.535192,12.9198462 C103.512115,9.41330769 107.361346,7.66176923 112.082885,7.66176923 C114.658269,7.66176923 117.150577,8.361 119.556346,9.75946154" id="Fill-10" fill="#FFFFFF" mask="url(#mask-4)"></path>
                <polygon id="Fill-11" fill="#FFFFFF" mask="url(#mask-4)" points="130.154192 19.4476154 142.536115 19.4476154 142.536115 8.21838462 146.869962 8.21838462 146.869962 36.9249231 142.536115 36.9249231 142.536115 23.5183846 130.154192 23.5183846 130.154192 36.9249231 125.823808 36.9249231 125.823808 8.21838462 130.154192 8.21838462"></polygon>
                <polygon id="Fill-12" fill="#FFFFFF" mask="url(#mask-4)" points="158.079462 8.21803846 158.079462 32.8503462 166.518692 32.8503462 166.518692 36.9245769 153.749077 36.9245769 153.749077 8.21803846"></polygon>
                <path d="M184.685192,2.64046154 C184.685192,1.92046154 184.944808,1.30084615 185.4675,0.781615385 C185.986731,0.262384615 186.613269,-0.000692307692 187.343654,-0.000692307692 C188.074038,-0.000692307692 188.700577,0.262384615 189.223269,0.781615385 C189.7425,1.30084615 190.002115,1.93430769 190.002115,2.67853846 C190.002115,3.40892308 189.7425,4.032 189.223269,4.55469231 C188.700577,5.07392308 188.074038,5.33353846 187.343654,5.33353846 C186.599423,5.33353846 185.969423,5.07392308 185.446731,4.55469231 C184.937885,4.01123077 184.685192,3.37084615 184.685192,2.64046154 Z M187.326346,25.8812308 L183.068654,16.1196923 L178.606731,25.8812308 L187.326346,25.8812308 Z M176.335962,2.64046154 C176.335962,1.92046154 176.599038,1.30084615 177.118269,0.781615385 C177.6375,0.262384615 178.260577,-0.000692307692 178.977115,-0.000692307692 C179.721346,-0.000692307692 180.347885,0.262384615 180.856731,0.781615385 C181.375962,1.30084615 181.635577,1.93430769 181.635577,2.67853846 C181.635577,3.40892308 181.375962,4.032 180.856731,4.55469231 C180.347885,5.07392308 179.728269,5.33353846 178.994423,5.33353846 C178.253654,5.33353846 177.620192,5.07392308 177.100962,4.55469231 C176.592115,4.01123077 176.335962,3.37084615 176.335962,2.64046154 Z M189.091731,29.952 L176.803269,29.952 L173.604808,36.9235385 L168.938654,36.9235385 L183.141346,6.41353846 L196.845577,36.9235385 L192.103269,36.9235385 L189.091731,29.952 Z" id="Fill-13" fill="#FFFFFF" mask="url(#mask-4)"></path>
                <path d="M213.893654,21.9762692 L225.756346,21.9762692 L225.756346,22.9212692 C225.756346,25.0778077 225.503654,26.9885769 224.994808,28.6501154 C224.496346,30.1870385 223.662115,31.6235769 222.481731,32.9631923 C219.816346,35.9643462 216.4275,37.4631923 212.311731,37.4631923 C208.296346,37.4631923 204.859038,36.0128077 201.992885,33.1120385 C199.130192,30.2008846 197.700577,26.7047308 197.700577,22.6235769 C197.700577,18.4593462 199.157885,14.9285769 202.069038,12.0278077 C204.980192,9.11665385 208.528269,7.65934615 212.702885,7.65934615 C214.945962,7.65934615 217.043654,8.11626923 218.989038,9.03703846 C220.847885,9.95088462 222.675577,11.4393462 224.472115,13.4989615 L221.387885,16.4516538 C219.030577,13.3189615 216.160962,11.7508846 212.779038,11.7508846 C209.739808,11.7508846 207.192115,12.7997308 205.135962,14.8905 C203.079808,16.9501154 202.051731,19.5289615 202.051731,22.6235769 C202.051731,25.8220385 203.1975,28.4562692 205.489038,30.5297308 C207.635192,32.4474231 209.957885,33.4097308 212.460577,33.4097308 C214.592885,33.4097308 216.507115,32.6931923 218.206731,31.2531923 C219.906346,29.8028077 220.854808,28.0685769 221.052115,26.0470385 L213.893654,26.0470385 L213.893654,21.9762692 Z" id="Fill-14" fill="#FFFFFF" mask="url(#mask-4)"></path>
                <polygon id="Fill-15" fill="#FFFFFF" mask="url(#mask-4)" points="231.203077 36.9228462 235.533462 36.9228462 235.533462 8.21630769 231.203077 8.21630769"></polygon>
                <path d="M257.195077,21.9762692 L269.057769,21.9762692 L269.057769,22.9212692 C269.057769,25.0778077 268.805077,26.9885769 268.296231,28.6501154 C267.797769,30.1870385 266.963538,31.6235769 265.783154,32.9631923 C263.121231,35.9643462 259.728923,37.4631923 255.616615,37.4631923 C251.601231,37.4631923 248.160462,36.0128077 245.294308,33.1120385 C242.431615,30.2008846 241.002,26.7047308 241.002,22.6235769 C241.002,18.4593462 242.459308,14.9285769 245.370462,12.0278077 C248.285077,9.11665385 251.829692,7.65934615 256.004308,7.65934615 C258.250846,7.65934615 260.345077,8.11626923 262.290462,9.03703846 C264.149308,9.95088462 265.977,11.4393462 267.777,13.4989615 L264.689308,16.4516538 C262.332,13.3189615 259.462385,11.7508846 256.080462,11.7508846 C253.044692,11.7508846 250.493538,12.7997308 248.440846,14.8905 C246.381231,16.9501154 245.353154,19.5289615 245.353154,22.6235769 C245.353154,25.8220385 246.498923,28.4562692 248.790462,30.5297308 C250.936615,32.4474231 253.259308,33.4097308 255.765462,33.4097308 C257.894308,33.4097308 259.812,32.6931923 261.508154,31.2531923 C263.207769,29.8028077 264.156231,28.0685769 264.353538,26.0470385 L257.195077,26.0470385 L257.195077,21.9762692 Z" id="Fill-16" fill="#FFFFFF" mask="url(#mask-4)"></path>
                <polygon id="Fill-17" fill="#FFFFFF" mask="url(#mask-4)" points="50.6689615 56.5172308 40.6651154 56.5172308 40.6651154 63.4160769 50.3158846 63.4160769 50.3158846 67.4868462 40.6651154 67.4868462 40.6651154 81.153 36.3347308 81.153 36.3347308 52.4464615 50.6689615 52.4464615"></polygon>
                <polygon id="Fill-18" fill="#FFFFFF" mask="url(#mask-4)" points="55.6892308 81.1543846 60.0196154 81.1543846 60.0196154 52.4478462 55.6892308 52.4478462"></polygon>
                <polygon id="Fill-19" fill="#FFFFFF" mask="url(#mask-4)" points="81.2530385 56.5172308 71.2491923 56.5172308 71.2491923 63.4160769 80.8999615 63.4160769 80.8999615 67.4868462 71.2491923 67.4868462 71.2491923 81.153 66.9188077 81.153 66.9188077 52.4464615 81.2530385 52.4464615"></polygon>
                <polygon id="Fill-20" fill="#FFFFFF" mask="url(#mask-4)" points="100.607538 56.5172308 90.6036923 56.5172308 90.6036923 63.4160769 100.254462 63.4160769 100.254462 67.4868462 90.6036923 67.4868462 90.6036923 81.153 86.2733077 81.153 86.2733077 52.4464615 100.607538 52.4464615"></polygon>
                <polygon id="Fill-21" fill="#FFFFFF" mask="url(#mask-4)" points="105.628846 81.1543846 109.959231 81.1543846 109.959231 52.4478462 105.628846 52.4478462"></polygon>
                <path d="M131.619462,66.2057308 L143.482154,66.2057308 L143.482154,67.1507308 C143.482154,69.3072692 143.229462,71.2180385 142.720615,72.8795769 C142.222154,74.4165 141.387923,75.8530385 140.207538,77.1926538 C137.542154,80.1938077 134.153308,81.6926538 130.037538,81.6926538 C126.022154,81.6926538 122.584846,80.2422692 119.718692,77.3415 C116.856,74.4303462 115.426385,70.9341923 115.426385,66.8530385 C115.426385,62.6888077 116.883692,59.1580385 119.794846,56.2572692 C122.706,53.3461154 126.254077,51.8888077 130.428692,51.8888077 C132.671769,51.8888077 134.769462,52.3457308 136.714846,53.2665 C138.573692,54.1803462 140.401385,55.6688077 142.197923,57.7284231 L139.113692,60.6811154 C136.756385,57.5484231 133.886769,55.9803462 130.504846,55.9803462 C127.465615,55.9803462 124.917923,57.0291923 122.861769,59.1199615 C120.805615,61.1795769 119.777538,63.7584231 119.777538,66.8530385 C119.777538,70.0515 120.923308,72.6857308 123.214846,74.7591923 C125.361,76.6768846 127.683692,77.6391923 130.186385,77.6391923 C132.318692,77.6391923 134.232923,76.9226538 135.932538,75.4826538 C137.632154,74.0322692 138.580615,72.2980385 138.777923,70.2765 L131.619462,70.2765 L131.619462,66.2057308 Z" id="Fill-22" fill="#FFFFFF" mask="url(#mask-4)"></path>
            </g>
        </g>
    </g>
</svg>