<?xml version="1.0" encoding="UTF-8"?>
<svg width="471px" height="164px" viewBox="0 0 471 164" version="1.1" xmlns="http://www.w3.org/2000/svg" xmlns:xlink="http://www.w3.org/1999/xlink">
    <!-- Generator: Sketch 44 (41411) - http://www.bohemiancoding.com/sketch -->
    <title>wortpaare/emotional-packend-pos</title>
    <desc>Created with Sketch.</desc>
    <defs></defs>
    <g id="Page-1" stroke="none" stroke-width="1" fill="none" fill-rule="evenodd">
        <g id="Wortpaare" transform="translate(-204.000000, -1905.000000)">
            <g id="wortpaare/emotional-packend/pos" transform="translate(198.000000, 1905.000000)">
                <g id="Group">
                    <path d="M53.55544,118.83272 L53.55544,118.62192 C53.55544,109.24472 47.22464,103.02272 39.75144,103.02272 C32.25784,103.02272 26.04264,109.24472 26.04264,118.62192 L26.04264,118.83272 C26.04264,128.20992 32.25784,134.43192 39.75144,134.43192 C47.22464,134.43192 53.55544,128.31872 53.55544,118.83272 L53.55544,118.83272 Z M10.23264,90.47672 L26.25344,90.47672 L26.25344,98.58912 C30.15664,93.32592 35.52864,89.42952 43.85184,89.42952 C57.03024,89.42952 69.56944,99.75192 69.56944,118.62192 L69.56944,118.83272 C69.56944,137.68912 57.24104,148.02512 43.85184,148.02512 C35.31104,148.02512 30.04784,144.12192 26.25344,139.59312 L26.25344,163.82832 L10.23264,163.82832 L10.23264,90.47672 Z" id="Fill-73" fill="#DB071A"></path>
                    <path d="M47.04104,27.56108 C46.07544,20.29868 41.81184,15.38908 34.98464,15.38908 C28.24584,15.38908 23.87344,20.18988 22.58824,27.56108 L47.04104,27.56108 Z M6.66944,32.36868 L6.66944,32.15108 C6.66944,15.81068 18.31784,2.36028 34.98464,2.36028 C54.08584,2.36028 62.84424,17.20468 62.84424,33.43628 C62.84424,34.71468 62.74224,36.21068 62.63344,37.70668 L22.80584,37.70668 C24.41064,45.07788 29.53104,48.91308 36.78664,48.91308 C42.24024,48.91308 46.19104,47.20628 50.67224,43.04468 L59.96104,51.26588 C54.62304,57.88228 46.93224,61.94188 36.58264,61.94188 C19.38544,61.94188 6.66944,49.87868 6.66944,32.36868 L6.66944,32.36868 Z" id="Fill-74" fill="#DB071A"></path>
                    <polygon id="Fill-75" fill="#4B4A4A" points="69.07508 60.63424 80.94788 -0.00136 100.30748 43.83144 120.35388 -0.00136 131.01628 60.63424 122.29188 60.63424 116.84508 26.59344 100.15788 63.22504 83.94668 26.55264 77.88108 60.63424"></polygon>
                    <path d="M148.73572,32.28912 C148.73572,38.52472 150.83012,43.64512 155.01892,47.66392 C159.18052,51.68272 163.98812,53.68872 169.44172,53.68872 C175.35772,53.68872 180.34892,51.64872 184.41532,47.55512 C188.48852,43.41392 190.52172,38.37512 190.52172,32.43192 C190.52172,26.42072 188.50892,21.38192 184.49012,17.31552 C180.49852,13.22192 175.55492,11.18192 169.65932,11.18192 C163.79772,11.18192 158.83372,13.22192 154.80132,17.31552 C150.75532,21.35472 148.73572,26.34592 148.73572,32.28912 M140.14732,32.18032 C140.14732,24.23792 143.05772,17.42432 148.87852,11.72592 C154.67212,6.02752 161.63532,3.17832 169.77492,3.17832 C177.80572,3.17832 184.69412,6.05472 190.44692,11.80072 C196.21332,17.54672 199.09652,24.44872 199.09652,32.50672 C199.09652,40.61912 196.19972,47.49392 190.40612,53.14472 C184.58532,58.81592 177.56092,61.65832 169.33292,61.65832 C162.05012,61.65832 155.51532,59.13552 149.72172,54.09672 C143.34332,48.52072 140.14732,41.21072 140.14732,32.18032" id="Fill-76" fill="#4B4A4A"></path>
                    <polygon id="Fill-77" fill="#4B4A4A" points="223.35008 12.23728 223.35008 60.63288 214.84328 60.63288 214.84328 12.23728 201.87568 12.23728 201.87568 4.24048 236.27688 4.24048 236.27688 12.23728"></polygon>
                    <polygon id="Fill-78" fill="#4B4A4A" points="243.8752 60.6356 252.3888 60.6356 252.3888 4.2432 243.8752 4.2432"></polygon>
                    <path d="M271.70692,32.28912 C271.70692,38.52472 273.80812,43.64512 277.99012,47.66392 C282.15172,51.68272 286.95932,53.68872 292.41972,53.68872 C298.33572,53.68872 303.32012,51.64872 307.39332,47.55512 C311.45972,43.41392 313.49292,38.37512 313.49292,32.43192 C313.49292,26.42072 311.48692,21.38192 307.46812,17.31552 C303.46972,13.22192 298.52612,11.18192 292.63732,11.18192 C286.76892,11.18192 281.81172,13.22192 277.77252,17.31552 C273.73332,21.35472 271.70692,26.34592 271.70692,32.28912 M263.12532,32.18032 C263.12532,24.23792 266.03572,17.42432 271.84972,11.72592 C277.65012,6.02752 284.61332,3.17832 292.74612,3.17832 C300.77692,3.17832 307.67212,6.05472 313.41812,11.80072 C319.18452,17.54672 322.07452,24.44872 322.07452,32.50672 C322.07452,40.61912 319.17092,47.49392 313.38412,53.14472 C307.55652,58.81592 300.53892,61.65832 292.30412,61.65832 C285.02812,61.65832 278.48652,59.13552 272.69972,54.09672 C266.31452,48.52072 263.12532,41.21072 263.12532,32.18032" id="Fill-79" fill="#4B4A4A"></path>
                    <polygon id="Fill-80" fill="#4B4A4A" points="332.77432 60.63424 332.77432 0.40664 373.90072 43.43024 373.90072 4.24184 382.41432 4.24184 382.41432 64.06144 341.28792 21.14664 341.28792 60.63424"></polygon>
                    <path d="M426.02204,38.93612 L417.65804,19.76012 L408.88604,38.93612 L426.02204,38.93612 Z M429.49004,46.93292 L405.35004,46.93292 L399.06684,60.63492 L389.90044,60.63492 L417.80084,0.69292 L444.72204,60.63492 L435.40604,60.63492 L429.49004,46.93292 Z" id="Fill-81" fill="#4B4A4A"></path>
                    <polygon id="Fill-82" fill="#4B4A4A" points="460.28112 4.23912 460.28112 52.63472 476.85952 52.63472 476.85952 60.63152 451.76752 60.63152 451.76752 4.23912"></polygon>
                    <path d="M107.70996,125.81904 L99.34596,106.64984 L90.57396,125.81904 L107.70996,125.81904 Z M111.17796,133.82264 L87.03796,133.82264 L80.75476,147.51784 L71.58156,147.51784 L99.48876,87.58264 L126.40996,147.51784 L117.09396,147.51784 L111.17796,133.82264 Z" id="Fill-83" fill="#4B4A4A"></path>
                    <path d="M172.5024,94.1562 L172.5024,104.2338 C167.5792,100.1198 162.4928,98.0594 157.2364,98.0594 C151.436,98.0594 146.5604,100.147 142.5892,104.3086 C138.5976,108.4498 136.5984,113.5158 136.5984,119.5066 C136.5984,125.4226 138.5976,130.4138 142.5892,134.4802 C146.5808,138.5398 151.4768,140.573 157.2704,140.573 C160.2624,140.573 162.8056,140.0902 164.9068,139.111 C166.0764,138.6282 167.28,137.9686 168.538,137.1458 C169.796,136.3162 171.1152,135.3166 172.5024,134.147 L172.5024,144.415 C167.6268,147.1622 162.5132,148.5426 157.1616,148.5426 C149.1036,148.5426 142.222,145.7274 136.5236,140.1038 C130.8524,134.4258 128.0168,127.585 128.0168,119.5746 C128.0168,112.3938 130.39,105.9882 135.1364,100.3646 C140.9776,93.4762 148.546,90.0286 157.8212,90.0286 C162.8804,90.0286 167.7764,91.409 172.5024,94.1562" id="Fill-84" fill="#4B4A4A"></path>
                    <polygon id="Fill-85" fill="#4B4A4A" points="193.32128 113.62664 215.27168 91.12544 226.62768 91.12544 201.13448 116.65264 226.77728 147.51784 215.38048 147.51784 195.07568 122.42584 193.32128 124.18024 193.32128 147.51784 184.80768 147.51784 184.80768 91.12544 193.32128 91.12544"></polygon>
                    <polygon id="Fill-86" fill="#4B4A4A" points="265.49104 99.1236 242.88104 99.1236 242.88104 112.6692 264.83144 112.6692 264.83144 120.6728 242.88104 120.6728 242.88104 139.5156 265.49104 139.5156 265.49104 147.5192 234.37424 147.5192 234.37424 91.1268 265.49104 91.1268"></polygon>
                    <polygon id="Fill-87" fill="#4B4A4A" points="276.66752 147.52056 276.66752 87.29296 317.79392 130.31656 317.79392 91.12816 326.30072 91.12816 326.30072 150.94776 285.17432 108.03296 285.17432 147.52056"></polygon>
                    <path d="M348.3266,139.51832 L352.155,139.51832 C355.9834,139.51832 359.159,139.11032 361.6954,138.31472 C364.225,137.45792 366.5166,136.11152 368.5634,134.26192 C372.7454,130.44032 374.8398,125.46272 374.8398,119.32232 C374.8398,113.13432 372.7726,108.12272 368.6314,104.27392 C364.905,100.83992 359.4174,99.12632 352.155,99.12632 L348.3266,99.12632 L348.3266,139.51832 Z M339.813,147.52192 L339.813,91.12952 L351.645,91.12952 C357.323,91.12952 361.7974,91.68712 365.0886,92.80232 C368.6178,93.90392 371.8206,95.76032 374.697,98.39192 C380.511,103.70272 383.4214,110.67952 383.4214,119.32232 C383.4214,127.99232 380.3954,135.00312 374.3298,140.36152 C371.2834,143.04072 368.0942,144.90392 364.7622,145.94432 C361.641,146.99152 357.2278,147.52192 351.5022,147.52192 L339.813,147.52192 Z" id="Fill-88" fill="#4B4A4A"></path>
                </g>
            </g>
        </g>
    </g>
</svg>