<?xml version="1.0" encoding="UTF-8"?>
<svg width="240px" height="84px" viewBox="0 0 240 84" version="1.1" xmlns="http://www.w3.org/2000/svg" xmlns:xlink="http://www.w3.org/1999/xlink">
    <!-- Generator: Sketch 43.2 (39069) - http://www.bohemiancoding.com/sketch -->
    <title>wortpaare/emotional-packend-neg</title>
    <desc>Created with Sketch.</desc>
    <defs>
        <polygon id="path-1" points="0 0.879230769 0 31.2092308 28.5909231 31.2092308 28.5909231 0.879230769 0 0.879230769"></polygon>
        <polygon id="path-3" points="32.1417692 3.13961538 0.610615385 3.13961538 0.610615385 35.3243077 32.1417692 35.3243077"></polygon>
        <polygon id="path-5" points="0 86.8593462 239.348077 86.8593462 239.348077 3.4605 0 3.4605"></polygon>
    </defs>
    <g id="Page-1" stroke="none" stroke-width="1" fill="none" fill-rule="evenodd">
        <g id="wortpaare/emotional-packend/neg" transform="translate(0.000000, -3.000000)">
            <g id="Page-1">
                <path d="M23.8624615,63.9522692 L23.8624615,63.8449615 C23.8624615,59.0715 20.6432308,55.9041923 16.8355385,55.9041923 C13.0243846,55.9041923 9.86053846,59.0715 9.86053846,63.8449615 L9.86053846,63.9522692 C9.86053846,68.7257308 13.0243846,71.8930385 16.8355385,71.8930385 C20.6432308,71.8930385 23.8624615,68.7811154 23.8624615,63.9522692 Z M1.809,49.5176538 L9.96784615,49.5176538 L9.96784615,53.6472692 C11.9513077,50.9680385 14.6893846,48.9845769 18.9263077,48.9845769 C25.6313077,48.9845769 32.0143846,54.2391923 32.0143846,63.8449615 L32.0143846,63.9522692 C32.0143846,73.5511154 25.7386154,78.8126538 18.9263077,78.8126538 C14.5786154,78.8126538 11.8959231,76.8257308 9.96784615,74.5203462 L9.96784615,86.8572692 L1.809,86.8572692 L1.809,49.5176538 Z" id="Fill-1" fill="#FFFFFF"></path>
                <g id="Group-5" transform="translate(0.000000, 3.782423)">
                    <mask id="mask-2" fill="white">
                        <use xlink:href="#path-1"></use>
                    </mask>
                    <g id="Clip-4"></g>
                    <path d="M20.5463077,13.7076923 C20.0582308,10.0107692 17.8843846,7.51153846 14.409,7.51153846 C10.9820769,7.51153846 8.75284615,9.95538462 8.10207692,13.7076923 L20.5463077,13.7076923 Z M-0.00138461538,16.155 L-0.00138461538,16.0442308 C-0.00138461538,7.72615385 5.92476923,0.879230769 14.409,0.879230769 C24.1359231,0.879230769 28.5909231,8.43576923 28.5909231,16.6984615 C28.5909231,17.3492308 28.539,18.1107692 28.4836154,18.8723077 L8.20938462,18.8723077 C9.02630769,22.6246154 11.6328462,24.5769231 15.3297692,24.5769231 C18.1024615,24.5769231 20.1136154,23.7080769 22.3947692,21.5896154 L27.1232308,25.7746154 C24.4093846,29.1426923 20.4943846,31.2092308 15.2224615,31.2092308 C6.46823077,31.2092308 -0.00138461538,25.0684615 -0.00138461538,16.155 L-0.00138461538,16.155 Z" id="Fill-3" fill="#FFFFFF" mask="url(#mask-2)"></path>
                </g>
                <g id="Group-8" transform="translate(31.153846, 0.320885)">
                    <mask id="mask-4" fill="white">
                        <use xlink:href="#path-3"></use>
                    </mask>
                    <g id="Clip-7"></g>
                    <polygon id="Fill-6" fill="#FFFFFF" mask="url(#mask-4)" points="0.610615385 34.0054615 6.65446154 3.13892308 16.5094615 25.452 26.7140769 3.13892308 32.1417692 34.0054615 27.7006154 34.0054615 24.9279231 16.677 16.4333077 35.3243077 8.181 16.6562308 5.09330769 34.0054615"></polygon>
                </g>
                <path d="M72.3156923,19.8969231 C72.3156923,23.0711538 73.3818462,25.6776923 75.5141538,27.7234615 C77.6326154,29.7692308 80.0799231,30.7903846 82.8560769,30.7903846 C85.8676154,30.7903846 88.4083846,29.7519231 90.4783846,27.6680769 C92.5518462,25.56 93.5868462,22.995 93.5868462,19.9696154 C93.5868462,16.9096154 92.5622308,14.3446154 90.5164615,12.2746154 C88.4845385,10.1907692 85.968,9.15230769 82.9668462,9.15230769 C79.983,9.15230769 77.4560769,10.1907692 75.4033846,12.2746154 C73.3437692,14.3307692 72.3156923,16.8715385 72.3156923,19.8969231 M67.9437692,19.8415385 C67.9437692,15.7984615 69.4253077,12.33 72.3883846,9.42923077 C75.3376154,6.52846154 78.8822308,5.07807692 83.0256923,5.07807692 C87.1137692,5.07807692 90.6203077,6.54230769 93.5487692,9.46730769 C96.4841538,12.3923077 97.9518462,15.9057692 97.9518462,20.0076923 C97.9518462,24.1373077 96.4772308,27.6369231 93.528,30.5134615 C90.5649231,33.4003846 86.9891538,34.8473077 82.8006923,34.8473077 C79.0933846,34.8473077 75.7668462,33.5630769 72.8176154,30.9980769 C69.5706923,28.1596154 67.9437692,24.4384615 67.9437692,19.8415385" id="Fill-9" fill="#FFFFFF"></path>
                <polygon id="Fill-11" fill="#FFFFFF" points="110.298115 9.68988462 110.298115 34.3256538 105.967731 34.3256538 105.967731 9.68988462 99.3665769 9.68988462 99.3665769 5.61911538 116.8785 5.61911538 116.8785 9.68988462"></polygon>
                <mask id="mask-6" fill="white">
                    <use xlink:href="#path-5"></use>
                </mask>
                <g id="Clip-14"></g>
                <polygon id="Fill-13" fill="#FFFFFF" mask="url(#mask-6)" points="120.745385 34.3270385 125.079231 34.3270385 125.079231 5.6205 120.745385 5.6205"></polygon>
                <path d="M134.914154,19.8969231 C134.914154,23.0711538 135.983769,25.6776923 138.112615,27.7234615 C140.231077,29.7692308 142.678385,30.7903846 145.458,30.7903846 C148.469538,30.7903846 151.006846,29.7519231 153.080308,27.6680769 C155.150308,25.56 156.185308,22.995 156.185308,19.9696154 C156.185308,16.9096154 155.164154,14.3446154 153.118385,12.2746154 C151.083,10.1907692 148.566462,9.15230769 145.568769,9.15230769 C142.581462,9.15230769 140.058,10.1907692 138.001846,12.2746154 C135.945692,14.3307692 134.914154,16.8715385 134.914154,19.8969231 M130.545692,19.8415385 C130.545692,15.7984615 132.027231,12.33 134.986846,9.42923077 C137.939538,6.52846154 141.484154,5.07807692 145.624154,5.07807692 C149.712231,5.07807692 153.222231,6.54230769 156.147231,9.46730769 C159.082615,12.3923077 160.553769,15.9057692 160.553769,20.0076923 C160.553769,24.1373077 159.075692,27.6369231 156.129923,30.5134615 C153.163385,33.4003846 149.591077,34.8473077 145.399154,34.8473077 C141.695308,34.8473077 138.365308,33.5630769 135.419538,30.9980769 C132.169154,28.1596154 130.545692,24.4384615 130.545692,19.8415385" id="Fill-15" fill="#FFFFFF" mask="url(#mask-6)"></path>
                <polygon id="Fill-16" fill="#FFFFFF" mask="url(#mask-6)" points="166.0005 34.3263462 166.0005 3.6675 186.935885 25.5686538 186.935885 5.61980769 191.269731 5.61980769 191.269731 36.0709615 170.334346 14.2251923 170.334346 34.3263462"></polygon>
                <path d="M213.468231,23.2805769 L209.210538,13.5190385 L204.745154,23.2805769 L213.468231,23.2805769 Z M215.233615,27.3513462 L202.945154,27.3513462 L199.746692,34.3263462 L195.080538,34.3263462 L209.283231,3.81288462 L222.987462,34.3263462 L218.245154,34.3263462 L215.233615,27.3513462 Z" id="Fill-17" fill="#FFFFFF" mask="url(#mask-6)"></path>
                <polygon id="Fill-18" fill="#FFFFFF" mask="url(#mask-6)" points="230.907462 5.61807692 230.907462 30.2538462 239.346692 30.2538462 239.346692 34.3246154 226.573615 34.3246154 226.573615 5.61807692"></polygon>
                <path d="M51.4315385,67.5083077 L47.1738462,57.7502308 L42.7084615,67.5083077 L51.4315385,67.5083077 Z M53.1969231,71.5825385 L40.9084615,71.5825385 L37.71,78.5540769 L33.0438462,78.5540769 L47.2465385,48.0440769 L60.9507692,78.5540769 L56.2084615,78.5540769 L53.1969231,71.5825385 Z" id="Fill-19" fill="#FFFFFF" mask="url(#mask-6)"></path>
                <path d="M84.4141154,51.3903462 L84.4141154,56.5203462 C81.9079615,54.4261154 79.3187308,53.3772692 76.6429615,53.3772692 C73.6902692,53.3772692 71.2083462,54.4399615 69.1868077,56.5584231 C67.1548846,58.6665 66.1371923,61.2453462 66.1371923,64.2949615 C66.1371923,67.3065 67.1548846,69.8472692 69.1868077,71.9172692 C71.2187308,73.9838077 73.7110385,75.0188077 76.6602692,75.0188077 C78.1833462,75.0188077 79.4779615,74.7730385 80.5475769,74.2745769 C81.1429615,74.0288077 81.7556538,73.6930385 82.3960385,73.2741923 C83.0364231,72.8518846 83.7079615,72.3430385 84.4141154,71.7476538 L84.4141154,76.9745769 C81.9321923,78.3730385 79.3291154,79.0757308 76.6048846,79.0757308 C72.5029615,79.0757308 68.9998846,77.6426538 66.0991154,74.7799615 C63.2121923,71.8895769 61.7687308,68.4072692 61.7687308,64.3295769 C61.7687308,60.6741923 62.9768077,57.4134231 65.3929615,54.5507308 C68.3664231,51.0441923 72.2191154,49.2891923 76.9406538,49.2891923 C79.5160385,49.2891923 82.0083462,49.9918846 84.4141154,51.3903462" id="Fill-20" fill="#FFFFFF" mask="url(#mask-6)"></path>
                <polygon id="Fill-21" fill="#FFFFFF" mask="url(#mask-6)" points="95.0119615 61.3017692 106.185808 49.8475385 111.966577 49.8475385 98.9892692 62.8421538 112.042731 78.5540769 106.241192 78.5540769 95.9050385 65.781 95.0119615 66.6740769 95.0119615 78.5540769 90.6781154 78.5540769 90.6781154 49.8475385 95.0119615 49.8475385"></polygon>
                <polygon id="Fill-22" fill="#FFFFFF" mask="url(#mask-6)" points="131.749962 53.919 120.240346 53.919 120.240346 60.8143846 131.414192 60.8143846 131.414192 64.8886154 120.240346 64.8886154 120.240346 74.4805385 131.749962 74.4805385 131.749962 78.5547692 115.909962 78.5547692 115.909962 49.8482308 131.749962 49.8482308"></polygon>
                <polygon id="Fill-23" fill="#FFFFFF" mask="url(#mask-6)" points="137.439346 78.5554615 137.439346 47.8966154 158.374731 69.7977692 158.374731 49.8489231 162.705115 49.8489231 162.705115 80.3000769 141.769731 58.4543077 141.769731 78.5554615"></polygon>
                <path d="M173.917385,74.4819231 L175.866231,74.4819231 C177.815077,74.4819231 179.431615,74.2742308 180.722769,73.8692308 C182.010462,73.4330769 183.177,72.7476923 184.218923,71.8061538 C186.347769,69.8607692 187.413923,67.3269231 187.413923,64.2011538 C187.413923,61.0511538 186.361615,58.5 184.253538,56.5407692 C182.356615,54.7926923 179.563154,53.9203846 175.866231,53.9203846 L173.917385,53.9203846 L173.917385,74.4819231 Z M169.583538,78.5561538 L169.583538,49.8496154 L175.606615,49.8496154 C178.497,49.8496154 180.774692,50.1334615 182.450077,50.7011538 C184.246615,51.2619231 185.877,52.2069231 187.341231,53.5465385 C190.300846,56.25 191.782385,59.8015385 191.782385,64.2011538 C191.782385,68.6146154 190.242,72.1834615 187.154308,74.9111538 C185.603538,76.275 183.980077,77.2234615 182.283923,77.7530769 C180.695077,78.2861538 178.448538,78.5561538 175.533923,78.5561538 L169.583538,78.5561538 Z" id="Fill-24" fill="#FFFFFF" mask="url(#mask-6)"></path>
            </g>
        </g>
    </g>
</svg>