<?xml version="1.0" encoding="UTF-8"?>
<svg width="409px" height="164px" viewBox="0 0 409 164" version="1.1" xmlns="http://www.w3.org/2000/svg" xmlns:xlink="http://www.w3.org/1999/xlink">
    <!-- Generator: Sketch 44 (41411) - http://www.bohemiancoding.com/sketch -->
    <title>wortpaare/endgueltig-passe-pos</title>
    <desc>Created with Sketch.</desc>
    <defs></defs>
    <g id="Page-1" stroke="none" stroke-width="1" fill="none" fill-rule="evenodd">
        <g id="Wortpaare" transform="translate(-1160.000000, -1483.000000)">
            <g id="wortpaare/endgueltig-passe/pos" transform="translate(1156.000000, 1482.000000)">
                <g id="Group">
                    <path d="M48.2787407,122.991852 L48.2787407,122.796667 C48.2787407,114.114074 42.4168889,108.352963 35.4972593,108.352963 C28.5587407,108.352963 22.8039259,114.114074 22.8039259,122.796667 L22.8039259,122.991852 C22.8039259,131.680741 28.5587407,137.435556 35.4972593,137.435556 C42.4168889,137.435556 48.2787407,131.775185 48.2787407,122.991852 Z M8.16503704,96.7425926 L22.9991111,96.7425926 L22.9991111,104.254074 C26.6131852,99.3744444 31.5935556,95.7666667 39.2939259,95.7666667 C51.4961481,95.7666667 63.1065185,105.330741 63.1065185,122.796667 L63.1065185,122.991852 C63.1065185,140.457778 51.6913333,150.021852 39.2939259,150.021852 C31.3920741,150.021852 26.5124444,146.414074 22.9991111,142.220741 L22.9991111,164.660741 L8.16503704,164.660741 L8.16503704,96.7425926 Z" id="Fill-1" fill="#DB071A"></path>
                    <path d="M42.2468889,38.4835926 C41.3528148,31.7591481 37.405037,27.2132222 31.0835556,27.2132222 C24.8439259,27.2132222 20.7954074,31.6584074 19.6054074,38.4835926 L42.2468889,38.4835926 Z M4.87207407,42.9287778 L4.87207407,42.7335926 C4.87207407,27.6035926 15.6513333,15.1495185 31.0835556,15.1495185 C48.7698519,15.1495185 56.8794815,28.8943333 56.8794815,43.9172963 C56.8794815,45.1072963 56.785037,46.4924815 56.6842963,47.8713704 L19.8068889,47.8713704 C21.2928148,54.6965556 26.0339259,58.2602593 32.7520741,58.2602593 C37.8017037,58.2602593 41.4598519,56.6735926 45.6091111,52.8202593 L54.2098519,60.4261852 C49.2672593,66.5587778 42.1461481,70.3176667 32.5631852,70.3176667 C16.6398519,70.3176667 4.87207407,59.148037 4.87207407,42.9287778 L4.87207407,42.9287778 Z" id="Fill-3" fill="#DB071A"></path>
                    <polygon id="Fill-5" fill="#4B4A4A" points="64.4747037 69.1043704 64.4747037 13.3380741 102.554704 53.1747407 102.554704 16.8891852 110.437667 16.8891852 110.437667 72.284 72.3576667 32.5417778 72.3576667 69.1043704"></polygon>
                    <path d="M130.825704,61.6955185 L134.376815,61.6955185 C137.915333,61.6955185 140.862,61.324037 143.204222,60.5810741 C145.552741,59.7877407 147.668296,58.5410741 149.563481,56.8284815 C153.442,53.289963 155.374963,48.6810741 155.374963,42.9955185 C155.374963,37.2658889 153.467185,32.6255185 149.626444,29.0618148 C146.176074,25.8884815 141.094963,24.2955185 134.376815,24.2955185 L130.825704,24.2955185 L130.825704,61.6955185 Z M122.949037,69.1062593 L122.949037,16.8910741 L133.904593,16.8910741 C139.155704,16.8910741 143.304963,17.4073704 146.35237,18.4462593 C149.613852,19.459963 152.585704,21.1788519 155.242741,23.6155185 C160.63237,28.5329259 163.327185,34.9929259 163.327185,42.9955185 C163.327185,51.0232963 160.519037,57.5147778 154.902741,62.4762593 C152.088296,64.957 149.135333,66.6821852 146.043852,67.6455185 C143.160148,68.6214444 139.067556,69.1062593 133.77237,69.1062593 L122.949037,69.1062593 Z" id="Fill-7" fill="#4B4A4A"></path>
                    <path d="M200.084963,41.9150741 L221.66237,41.9150741 L221.66237,43.633963 C221.66237,47.5565556 221.202741,51.0321111 220.277185,54.0543333 C219.370519,56.8498889 217.853111,59.4628519 215.706074,61.8995185 C210.864222,67.3584074 204.693852,70.0847037 197.213852,70.0847037 C189.910148,70.0847037 183.65163,67.4465556 178.438296,62.1702593 C173.231259,56.8750741 170.630889,50.5158148 170.630889,43.0924815 C170.630889,35.518037 173.28163,29.0958148 178.576815,23.8195185 C183.878296,18.5243333 190.325704,15.8735926 197.919037,15.8735926 C202.005333,15.8735926 205.814593,16.7047037 209.353111,18.3795185 C212.734222,20.0417407 216.058667,22.7491481 219.332741,26.4954444 L213.716444,31.8661852 C209.428667,26.168037 204.209037,23.3158148 198.057556,23.3158148 C192.535704,23.3158148 187.895333,25.2235926 184.16163,29.0265556 C180.415333,32.7728519 178.545333,37.4635926 178.545333,43.0924815 C178.545333,48.9102593 180.629407,53.7017407 184.797556,57.4732222 C188.701259,60.9613704 192.926074,62.7117407 197.484593,62.7117407 C201.356815,62.7117407 204.844963,61.4084074 207.930148,58.7891481 C211.02163,56.151 212.746815,52.9965556 213.105704,49.3195185 L200.084963,49.3195185 L200.084963,41.9150741 Z" id="Fill-9" fill="#4B4A4A"></path>
                    <path d="M253.585222,6.74396296 C253.585222,5.43433333 254.057444,4.3072963 255.008185,3.36285185 C255.95263,2.41840741 257.092259,1.93988889 258.427074,1.93988889 C259.749296,1.93988889 260.888926,2.41840741 261.839667,3.36285185 C262.784111,4.3072963 263.256333,5.45951852 263.256333,6.81322222 C263.256333,8.14174074 262.784111,9.27507407 261.839667,10.2258148 C260.888926,11.1702593 259.749296,11.6424815 258.427074,11.6424815 C257.07337,11.6424815 255.921148,11.1702593 254.976704,10.2258148 C254.044852,9.2372963 253.585222,8.07248148 253.585222,6.74396296 L253.585222,6.74396296 Z M238.404852,6.74396296 C238.404852,5.43433333 238.877074,4.3072963 239.821519,3.36285185 C240.772259,2.41840741 241.899296,1.93988889 243.208926,1.93988889 C244.556333,1.93988889 245.695963,2.41840741 246.621519,3.36285185 C247.565963,4.3072963 248.038185,5.45951852 248.038185,6.81322222 C248.038185,8.14174074 247.565963,9.27507407 246.621519,10.2258148 C245.695963,11.1702593 244.568926,11.6424815 243.234111,11.6424815 C241.886704,11.6424815 240.734481,11.1702593 239.790037,10.2258148 C238.864481,9.2372963 238.404852,8.07248148 238.404852,6.74396296 L238.404852,6.74396296 Z M239.450037,16.8872963 L239.450037,48.3372963 C239.450037,52.8202593 240.180407,56.1069259 241.647444,58.1784074 C243.832259,61.1817407 246.911148,62.6802593 250.877815,62.6802593 C254.869667,62.6802593 257.961148,61.1817407 260.145963,58.1784074 C261.613,56.1761852 262.349667,52.8895185 262.349667,48.3372963 L262.349667,16.8872963 L270.226333,16.8872963 L270.226333,50.5032222 C270.226333,55.9998889 268.513741,60.5332222 265.082259,64.0969259 C261.228926,68.0635926 256.494111,70.0532222 250.877815,70.0532222 C245.267815,70.0532222 240.545593,68.0635926 236.711148,64.0969259 C233.279667,60.5332222 231.57337,55.9998889 231.57337,50.5032222 L231.57337,16.8872963 L239.450037,16.8872963 Z" id="Fill-11" fill="#4B4A4A"></path>
                    <polygon id="Fill-13" fill="#4B4A4A" points="290.618778 16.8898148 290.618778 61.6942593 305.969148 61.6942593 305.969148 69.105 282.735815 69.105 282.735815 16.8898148"></polygon>
                    <polygon id="Fill-15" fill="#4B4A4A" points="324.467667 24.2923704 324.467667 69.1031111 316.591 69.1031111 316.591 24.2923704 304.583963 24.2923704 304.583963 16.8879259 336.436926 16.8879259 336.436926 24.2923704"></polygon>
                    <polygon id="Fill-17" fill="#4B4A4A" points="343.475556 69.1018519 351.358519 69.1018519 351.358519 16.8866667 343.475556 16.8866667"></polygon>
                    <path d="M390.750667,41.9150741 L412.328074,41.9150741 L412.328074,43.633963 C412.328074,47.5565556 411.868444,51.0321111 410.942889,54.0543333 C410.036222,56.8498889 408.518815,59.4628519 406.371778,61.8995185 C401.529926,67.3584074 395.359556,70.0847037 387.879556,70.0847037 C380.575852,70.0847037 374.317333,67.4465556 369.104,62.1702593 C363.896963,56.8750741 361.296593,50.5158148 361.296593,43.0924815 C361.296593,35.518037 363.947333,29.0958148 369.242519,23.8195185 C374.544,18.5243333 380.991407,15.8735926 388.584741,15.8735926 C392.671037,15.8735926 396.480296,16.7047037 400.018815,18.3795185 C403.399926,20.0417407 406.72437,22.7491481 409.998444,26.4954444 L404.382148,31.8661852 C400.09437,26.168037 394.874741,23.3158148 388.723259,23.3158148 C383.201407,23.3158148 378.561037,25.2235926 374.827333,29.0265556 C371.081037,32.7728519 369.211037,37.4635926 369.211037,43.0924815 C369.211037,48.9102593 371.295111,53.7017407 375.463259,57.4732222 C379.366963,60.9613704 383.591778,62.7117407 388.150296,62.7117407 C392.022519,62.7117407 395.510667,61.4084074 398.595852,58.7891481 C401.687333,56.151 403.412519,52.9965556 403.771407,49.3195185 L390.750667,49.3195185 L390.750667,41.9150741 Z" id="Fill-19" fill="#4B4A4A"></path>
                    <path d="M98.4218148,129.466333 L90.6836667,111.710778 L82.5614444,129.466333 L98.4218148,129.466333 Z M101.639222,136.870778 L79.2810741,136.870778 L73.4632963,149.551519 L64.9758889,149.551519 L90.8158889,94.055963 L115.73663,149.551519 L107.117,149.551519 L101.639222,136.870778 Z" id="Fill-20" fill="#4B4A4A"></path>
                    <path d="M151.786704,105.117926 L145.395963,108.908296 C144.199667,106.824222 143.060037,105.476815 141.977074,104.847185 C140.856333,104.123111 139.395593,103.764222 137.620037,103.764222 C135.428926,103.764222 133.615593,104.387556 132.173741,105.62163 C130.731889,106.836815 130.007815,108.379407 130.007815,110.224222 C130.007815,112.774222 131.903,114.820519 135.687074,116.375704 L140.900407,118.510148 C145.137815,120.216444 148.241889,122.313111 150.200037,124.781259 C152.164481,127.255704 153.140407,130.277926 153.140407,133.860519 C153.140407,138.664593 151.541148,142.631259 148.336333,145.766815 C145.11263,148.921259 141.114481,150.50163 136.335593,150.50163 C131.802259,150.50163 128.055963,149.160519 125.109296,146.472 C122.200407,143.796074 120.387074,140.018296 119.656704,135.151259 L127.640407,133.388296 C128.005593,136.454593 128.635222,138.570148 129.535593,139.747556 C131.160037,141.995333 133.527444,143.128667 136.637815,143.128667 C139.09337,143.128667 141.139667,142.303852 142.757815,140.660519 C144.382259,139.017185 145.194481,136.926815 145.194481,134.402 C145.194481,133.388296 145.055963,132.462741 144.77263,131.612741 C144.489296,130.769037 144.048556,129.988296 143.450407,129.283111 C142.852259,128.57163 142.084111,127.904222 141.139667,127.287185 C140.188926,126.663852 139.061889,126.072 137.752259,125.505333 L132.715222,123.408667 C125.568926,120.392741 121.998926,115.972741 121.998926,110.154963 C121.998926,106.23237 123.497444,102.952 126.488185,100.313852 C129.491519,97.6505185 133.225222,96.3282963 137.689296,96.3282963 C143.708556,96.3282963 148.405593,99.2497778 151.786704,105.117926" id="Fill-21" fill="#4B4A4A"></path>
                    <path d="M192.165481,105.117926 L185.774741,108.908296 C184.578444,106.824222 183.438815,105.476815 182.355852,104.847185 C181.235111,104.123111 179.77437,103.764222 177.998815,103.764222 C175.807704,103.764222 173.99437,104.387556 172.552519,105.62163 C171.110667,106.836815 170.386593,108.379407 170.386593,110.224222 C170.386593,112.774222 172.281778,114.820519 176.065852,116.375704 L181.279185,118.510148 C185.516593,120.216444 188.620667,122.313111 190.578815,124.781259 C192.543259,127.255704 193.519185,130.277926 193.519185,133.860519 C193.519185,138.664593 191.919926,142.631259 188.715111,145.766815 C185.491407,148.921259 181.493259,150.50163 176.71437,150.50163 C172.181037,150.50163 168.434741,149.160519 165.488074,146.472 C162.579185,143.796074 160.765852,140.018296 160.035481,135.151259 L168.019185,133.388296 C168.38437,136.454593 169.014,138.570148 169.91437,139.747556 C171.538815,141.995333 173.906222,143.128667 177.016593,143.128667 C179.472148,143.128667 181.518444,142.303852 183.136593,140.660519 C184.761037,139.017185 185.573259,136.926815 185.573259,134.402 C185.573259,133.388296 185.434741,132.462741 185.151407,131.612741 C184.868074,130.769037 184.427333,129.988296 183.829185,129.283111 C183.231037,128.57163 182.462889,127.904222 181.518444,127.287185 C180.567704,126.663852 179.440667,126.072 178.131037,125.505333 L173.094,123.408667 C165.947704,120.392741 162.377704,115.972741 162.377704,110.154963 C162.377704,106.23237 163.876222,102.952 166.866963,100.313852 C169.870296,97.6505185 173.604,96.3282963 178.068074,96.3282963 C184.087333,96.3282963 188.78437,99.2497778 192.165481,105.117926" id="Fill-22" fill="#4B4A4A"></path>
                    <path d="M229.297259,83.3018889 L215.502074,92.633 L211.749481,89.4911481 L222.604296,78.6048519 L229.297259,83.3018889 Z M231.834667,104.740778 L210.899481,104.740778 L210.899481,117.289296 L231.230222,117.289296 L231.230222,124.693741 L210.899481,124.693741 L210.899481,142.147074 L231.834667,142.147074 L231.834667,149.551519 L203.022815,149.551519 L203.022815,97.3363333 L231.834667,97.3363333 L231.834667,104.740778 Z" id="Fill-23" fill="#4B4A4A"></path>
                </g>
            </g>
        </g>
    </g>
</svg>