<?xml version="1.0" encoding="UTF-8"?>
<svg width="208px" height="84px" viewBox="0 0 208 84" version="1.1" xmlns="http://www.w3.org/2000/svg" xmlns:xlink="http://www.w3.org/1999/xlink">
    <!-- Generator: Sketch 43.2 (39069) - http://www.bohemiancoding.com/sketch -->
    <title>wortpaare/endlich-papierlos-neg</title>
    <desc>Created with Sketch.</desc>
    <defs>
        <polygon id="path-1" points="0 0.881653846 0 31.2116538 28.5919615 31.2116538 28.5919615 0.881653846 7.0368891e-20 0.881653846"></polygon>
        <polygon id="path-3" points="26.8812692 3.34730769 1.6155 3.34730769 1.6155 35.7504231 26.8812692 35.7504231 26.8812692 3.34730769"></polygon>
        <polygon id="path-5" points="0 86.6544231 207.495 86.6544231 207.495 3.46326923 0 3.46326923"></polygon>
    </defs>
    <g id="Page-1" stroke="none" stroke-width="1" fill="none" fill-rule="evenodd">
        <g id="wortpaare/endlich-papierlos/neg" transform="translate(0.000000, -3.000000)">
            <g id="Page-1">
                <path d="M23.8635,63.7442308 L23.8635,63.6403846 C23.8635,58.8634615 20.6408077,55.6996154 16.8365769,55.6996154 C13.0254231,55.6996154 9.86157692,58.8634615 9.86157692,63.6403846 L9.86157692,63.7442308 C9.86157692,68.5211538 13.0254231,71.685 16.8365769,71.685 C20.6408077,71.685 23.8635,68.5765385 23.8635,63.7442308 Z M1.81003846,49.3130769 L9.96888462,49.3130769 L9.96888462,53.4426923 C11.9523462,50.7634615 14.6869615,48.78 18.9273462,48.78 C25.6323462,48.78 32.0154231,54.0346154 32.0154231,63.6403846 L32.0154231,63.7442308 C32.0154231,73.3465385 25.7396538,78.6080769 18.9273462,78.6080769 C14.5796538,78.6080769 11.8969615,76.6211538 9.96888462,74.3157692 L9.96888462,86.6526923 L1.81003846,86.6526923 L1.81003846,49.3130769 Z" id="Fill-1" fill="#FFFFFF"></path>
                <g id="Group-5" transform="translate(0.000000, 3.577500)">
                    <mask id="mask-2" fill="white">
                        <use xlink:href="#path-1"></use>
                    </mask>
                    <g id="Clip-4"></g>
                    <path d="M20.5473462,13.7066538 C20.0592692,10.0131923 17.8854231,7.5105 14.4100385,7.5105 C10.9831154,7.5105 8.75388462,9.95780769 8.10311538,13.7066538 L20.5473462,13.7066538 Z M-0.000346153846,16.1539615 L-0.000346153846,16.0431923 C-0.000346153846,7.72511538 5.92580769,0.881653846 14.4100385,0.881653846 C24.1369615,0.881653846 28.5919615,8.43473077 28.5919615,16.6974231 C28.5919615,17.3516538 28.5400385,18.1097308 28.4846538,18.8712692 L8.21042308,18.8712692 C9.02734615,22.6235769 11.6338846,24.5793462 15.3273462,24.5793462 C18.1035,24.5793462 20.1146538,23.7105 22.3958077,21.5885769 L27.1242692,25.7735769 C24.4069615,29.1451154 20.4919615,31.2116538 15.2235,31.2116538 C6.46926923,31.2116538 -0.000346153846,25.0674231 -0.000346153846,16.1539615 L-0.000346153846,16.1539615 Z" id="Fill-3" fill="#FFFFFF" mask="url(#mask-2)"></path>
                </g>
                <g id="Group-8" transform="translate(31.153846, 0.115962)">
                    <mask id="mask-4" fill="white">
                        <use xlink:href="#path-3"></use>
                    </mask>
                    <g id="Clip-7"></g>
                    <polygon id="Fill-6" fill="#FFFFFF" mask="url(#mask-4)" points="1.6155 34.0023462 1.6155 3.34696154 22.5508846 25.2481154 22.5508846 5.29580769 26.8812692 5.29580769 26.8812692 35.7504231 5.94588462 13.9046538 5.94588462 34.0023462"></polygon>
                </g>
                <path d="M69.2470385,30.0485769 L71.1993462,30.0485769 C73.1447308,30.0485769 74.7612692,29.8408846 76.0524231,29.4324231 C77.3401154,28.9997308 78.5066538,28.3108846 79.5485769,27.3728077 C81.6774231,25.4239615 82.7435769,22.8901154 82.7435769,19.7643462 C82.7435769,16.6178077 81.6912692,14.0666538 79.5831923,12.1039615 C77.6862692,10.3593462 74.8928077,9.48703846 71.1993462,9.48703846 L69.2470385,9.48703846 L69.2470385,30.0485769 Z M64.9166538,34.1193462 L64.9166538,5.41280769 L70.9397308,5.41280769 C73.8266538,5.41280769 76.1078077,5.70011538 77.7797308,6.26780769 C79.5762692,6.82511538 81.2101154,7.77357692 82.6708846,9.11319231 C85.6339615,11.8131923 87.1155,15.3681923 87.1155,19.7643462 C87.1155,24.1812692 85.5716538,27.7501154 82.4839615,30.4743462 C80.9331923,31.8416538 79.3131923,32.7866538 77.6135769,33.3197308 C76.0247308,33.8528077 73.7781923,34.1193462 70.8635769,34.1193462 L64.9166538,34.1193462 Z" id="Fill-9" fill="#FFFFFF"></path>
                <polygon id="Fill-11" fill="#FFFFFF" points="96.894 5.41211538 96.894 30.0478846 105.333231 30.0478846 105.333231 34.1186538 92.5636154 34.1186538 92.5636154 5.41211538"></polygon>
                <mask id="mask-6" fill="white">
                    <use xlink:href="#path-5"></use>
                </mask>
                <g id="Clip-14"></g>
                <polygon id="Fill-13" fill="#FFFFFF" mask="url(#mask-6)" points="109.446923 34.1186538 113.777308 34.1186538 113.777308 5.41211538 109.446923 5.41211538"></polygon>
                <path d="M141.887077,6.957 L141.887077,12.087 C139.384385,9.99276923 136.791692,8.94392308 134.115923,8.94392308 C131.166692,8.94392308 128.681308,10.0066154 126.659769,12.1250769 C124.627846,14.2331538 123.610154,16.812 123.610154,19.8616154 C123.610154,22.8731538 124.627846,25.4104615 126.659769,27.4839231 C128.691692,29.5504615 131.184,30.5854615 134.133231,30.5854615 C135.659769,30.5854615 136.954385,30.3396923 138.020538,29.8412308 C138.615923,29.5954615 139.232077,29.2596923 139.869,28.8373846 C140.509385,28.4185385 141.180923,27.9096923 141.887077,27.3143077 L141.887077,32.5412308 C139.408615,33.9396923 136.805538,34.6389231 134.077846,34.6389231 C129.975923,34.6389231 126.472846,33.2093077 123.572077,30.3466154 C120.685154,27.4562308 119.241692,23.9739231 119.241692,19.8962308 C119.241692,16.2408462 120.449769,12.9800769 122.865923,10.1173846 C125.842846,6.60738462 129.692077,4.85584615 134.413615,4.85584615 C136.989,4.85584615 139.481308,5.55507692 141.887077,6.957" id="Fill-15" fill="#FFFFFF" mask="url(#mask-6)"></path>
                <polygon id="Fill-16" fill="#FFFFFF" mask="url(#mask-6)" points="152.484577 16.6416923 164.8665 16.6416923 164.8665 5.41246154 169.200346 5.41246154 169.200346 34.119 164.8665 34.119 164.8665 20.7159231 152.484577 20.7159231 152.484577 34.119 148.154192 34.119 148.154192 5.41246154 152.484577 5.41246154"></polygon>
                <path d="M51.4308462,67.3040769 L47.1731538,57.546 L42.7112308,67.3040769 L51.4308462,67.3040769 Z M53.1962308,71.3783077 L40.9077692,71.3783077 L37.7093077,78.3463846 L33.0431538,78.3463846 L47.2493077,47.8398462 L60.9500769,78.3463846 L56.2077692,78.3463846 L53.1962308,71.3783077 Z" id="Fill-17" fill="#FFFFFF" mask="url(#mask-6)"></path>
                <path d="M68.8704231,62.676 L70.4869615,62.676 C74.4677308,62.676 76.4546538,61.146 76.4546538,58.0825385 C76.4546538,55.1194615 74.4054231,53.6413846 70.3035,53.6413846 L68.8704231,53.6413846 L68.8704231,62.676 Z M68.8704231,66.6913846 L68.8704231,78.3463846 L64.5400385,78.3463846 L64.5400385,49.6398462 L69.4485,49.6398462 C71.8508077,49.6398462 73.6681154,49.8094615 74.8935,50.1452308 C76.1327308,50.481 77.2265769,51.111 78.1681154,52.0421538 C79.8158077,53.6517692 80.6396538,55.6836923 80.6396538,58.1379231 C80.6396538,60.7652308 79.7604231,62.8490769 77.9985,64.386 C76.2400385,65.9194615 73.8654231,66.6913846 70.8781154,66.6913846 L68.8704231,66.6913846 Z" id="Fill-18" fill="#FFFFFF" mask="url(#mask-6)"></path>
                <polygon id="Fill-19" fill="#FFFFFF" mask="url(#mask-6)" points="85.1019231 78.3467308 89.4323077 78.3467308 89.4323077 49.6401923 85.1019231 49.6401923"></polygon>
                <polygon id="Fill-20" fill="#FFFFFF" mask="url(#mask-6)" points="112.1715 53.7147692 100.661885 53.7147692 100.661885 60.6101538 111.835731 60.6101538 111.835731 64.6843846 100.661885 64.6843846 100.661885 74.2763077 112.1715 74.2763077 112.1715 78.3470769 96.3315 78.3470769 96.3315 49.6405385 112.1715 49.6405385"></polygon>
                <path d="M122.193,62.8248462 L123.567231,62.8248462 C127.672615,62.8248462 129.721846,61.2567692 129.721846,58.1206154 C129.721846,55.1817692 127.728,53.7140769 123.736846,53.7140769 L122.193,53.7140769 L122.193,62.8248462 Z M127.586077,66.1133077 L136.471846,78.3463846 L131.172231,78.3463846 L122.975308,66.5979231 L122.193,66.5979231 L122.193,78.3463846 L117.862615,78.3463846 L117.862615,49.6398462 L122.937231,49.6398462 C126.731077,49.6398462 129.469154,50.3529231 131.154923,51.7825385 C133.013769,53.3679231 133.944923,55.4621538 133.944923,58.0652308 C133.944923,60.0971538 133.359923,61.8452308 132.196846,63.3094615 C131.030308,64.7702308 129.493385,65.7048462 127.586077,66.1133077 L127.586077,66.1133077 Z" id="Fill-21" fill="#FFFFFF" mask="url(#mask-6)"></path>
                <polygon id="Fill-22" fill="#FFFFFF" mask="url(#mask-6)" points="145.117038 49.6412308 145.117038 74.277 153.556269 74.277 153.556269 78.3477692 140.786654 78.3477692 140.786654 49.6412308"></polygon>
                <path d="M159.433269,63.9200769 C159.433269,67.0943077 160.499423,69.7043077 162.631731,71.7500769 C164.750192,73.7958462 167.1975,74.8135385 169.973654,74.8135385 C172.988654,74.8135385 175.525962,73.7750769 177.599423,71.6912308 C179.669423,69.5866154 180.704423,67.0216154 180.704423,63.9927692 C180.704423,60.9362308 179.679808,58.3677692 177.634038,56.2977692 C175.602115,54.2139231 173.085577,53.1754615 170.087885,53.1754615 C167.100577,53.1754615 164.577115,54.2139231 162.520962,56.2977692 C160.461346,58.3573846 159.433269,60.8981538 159.433269,63.9200769 M155.064808,63.8646923 C155.064808,59.8216154 156.546346,56.3531538 159.505962,53.4558462 C162.458654,50.5550769 166.003269,49.1046923 170.143269,49.1046923 C174.231346,49.1046923 177.741346,50.5654615 180.666346,53.4904615 C183.601731,56.4154615 185.072885,59.9323846 185.072885,64.0308462 C185.072885,68.1604615 183.594808,71.6600769 180.645577,74.5366154 C177.6825,77.4235385 174.110192,78.867 169.918269,78.867 C166.210962,78.867 162.884423,77.5862308 159.935192,75.0212308 C156.688269,72.1827692 155.064808,68.4616154 155.064808,63.8646923" id="Fill-23" fill="#FFFFFF" mask="url(#mask-6)"></path>
                <path d="M206.750423,53.9176154 L203.236962,56.0014615 C202.579269,54.8591538 201.952731,54.1183846 201.357346,53.7687692 C200.737731,53.3741538 199.938115,53.1733846 198.961962,53.1733846 C197.757346,53.1733846 196.760423,53.5160769 195.967731,54.198 C195.175038,54.8660769 194.776962,55.7106923 194.776962,56.7283846 C194.776962,58.1268462 195.818885,59.2553077 197.899269,60.1103077 L200.765423,61.2803077 C203.095038,62.2218462 204.798115,63.3710769 205.878115,64.728 C206.954654,66.0883846 207.494654,67.7499231 207.494654,69.7195385 C207.494654,72.3606923 206.611962,74.5449231 204.8535,76.2653077 C203.081192,78.003 200.883115,78.8683846 198.252346,78.8683846 C195.7635,78.8683846 193.703885,78.1310769 192.080423,76.6564615 C190.481192,75.1818462 189.484269,73.1049231 189.086192,70.4291538 L193.475423,69.4599231 C193.672731,71.1491538 194.022346,72.3122308 194.517346,72.9560769 C195.410423,74.1953077 196.711962,74.8149231 198.421962,74.8149231 C199.771962,74.8149231 200.8935,74.3614615 201.786577,73.4614615 C202.679654,72.5545385 203.126192,71.4087692 203.126192,70.0172308 C203.126192,69.4599231 203.046577,68.9510769 202.894269,68.4837692 C202.7385,68.0199231 202.496192,67.5906923 202.167346,67.203 C201.8385,66.8118462 201.412731,66.4449231 200.8935,66.1056923 C200.374269,65.7664615 199.754654,65.4376154 199.034654,65.1295385 L196.265423,63.9768462 C192.333115,62.3153077 190.370423,59.8887692 190.370423,56.6903077 C190.370423,54.5337692 191.194269,52.7268462 192.841962,51.2764615 C194.489654,49.8156923 196.542346,49.0853077 198.996577,49.0853077 C202.305808,49.0853077 204.891577,50.6949231 206.750423,53.9176154" id="Fill-24" fill="#FFFFFF" mask="url(#mask-6)"></path>
            </g>
        </g>
    </g>
</svg>