<?xml version="1.0" encoding="UTF-8"?>
<svg width="408px" height="164px" viewBox="0 0 408 164" version="1.1" xmlns="http://www.w3.org/2000/svg" xmlns:xlink="http://www.w3.org/1999/xlink">
    <!-- Generator: Sketch 44 (41411) - http://www.bohemiancoding.com/sketch -->
    <title>wortpaare/endlich-papierlos-pos</title>
    <desc>Created with Sketch.</desc>
    <defs></defs>
    <g id="Page-1" stroke="none" stroke-width="1" fill="none" fill-rule="evenodd">
        <g id="Wortpaare" transform="translate(-1162.000000, -641.000000)">
            <g id="wortpaare/endlich-papierlos/pos" transform="translate(1156.000000, 635.000000)">
                <g id="Group">
                    <path d="M53.14744,124.80312 L53.14744,124.59912 C53.14744,115.21512 46.81664,108.99992 39.34344,108.99992 C31.85664,108.99992 25.64144,115.21512 25.64144,124.59912 L25.64144,124.80312 C25.64144,134.18712 31.85664,140.40232 39.34344,140.40232 C46.81664,140.40232 53.14744,134.29592 53.14744,124.80312 L53.14744,124.80312 Z M9.82464,96.45392 L25.85224,96.45392 L25.85224,104.56632 C29.74864,99.30312 35.12064,95.40672 43.45064,95.40672 C56.62224,95.40672 69.16144,105.72912 69.16144,124.59912 L69.16144,124.80312 C69.16144,143.66632 56.83304,154.00232 43.45064,154.00232 C34.90984,154.00232 29.63984,150.09912 25.85224,145.57032 L25.85224,169.80552 L9.82464,169.80552 L9.82464,96.45392 Z" id="Fill-141" fill="#DB071A"></path>
                    <path d="M46.63304,33.5342 C45.67424,26.2786 41.40384,21.3622 34.57664,21.3622 C27.84464,21.3622 23.46544,26.1698 22.18704,33.5342 L46.63304,33.5342 Z M6.26824,38.3418 L6.26824,38.1242 C6.26824,21.7838 17.90984,8.3402 34.57664,8.3402 C53.68464,8.3402 62.43624,23.1778 62.43624,39.4094 C62.43624,40.6946 62.33424,42.1838 62.22544,43.6798 L22.39784,43.6798 C24.00264,51.051 29.12304,54.893 36.37864,54.893 C41.83224,54.893 45.78304,53.1862 50.26424,49.0178 L59.55304,57.239 C54.21504,63.8622 46.52424,67.9218 36.17464,67.9218 C18.97744,67.9218 6.26824,55.8518 6.26824,38.3418 L6.26824,38.3418 Z" id="Fill-142" fill="#DB071A"></path>
                    <polygon id="Fill-143" fill="#4B4A4A" points="70.6418 66.60464 70.6418 6.38384 111.7682 49.40744 111.7682 10.21224 120.275 10.21224 120.275 70.03864 79.1486 27.12384 79.1486 66.60464"></polygon>
                    <path d="M142.30088,58.6092 L146.13608,58.6092 C149.95768,58.6092 153.13328,58.2012 155.66968,57.3988 C158.19928,56.5488 160.49088,55.1956 162.53768,53.3528 C166.71968,49.5244 168.81408,44.5468 168.81408,38.4064 C168.81408,32.2252 166.74688,27.2136 162.60568,23.358 C158.87928,19.9308 153.39168,18.2172 146.13608,18.2172 L142.30088,18.2172 L142.30088,58.6092 Z M133.79408,66.606 L133.79408,10.2136 L145.62608,10.2136 C151.29728,10.2136 155.77848,10.778 159.06288,11.8932 C162.59208,12.988 165.80168,14.8512 168.67128,17.4828 C174.49208,22.7868 177.40248,29.7704 177.40248,38.4064 C177.40248,47.0832 174.36968,54.094 168.30408,59.4456 C165.25768,62.1316 162.07528,63.988 158.73648,65.0352 C155.61528,66.0824 151.20208,66.606 145.47648,66.606 L133.79408,66.606 Z" id="Fill-144" fill="#4B4A4A"></path>
                    <polygon id="Fill-145" fill="#4B4A4A" points="196.61112 10.21224 196.61112 58.60784 213.18952 58.60784 213.18952 66.60464 188.10432 66.60464 188.10432 10.21224"></polygon>
                    <polygon id="Fill-146" fill="#4B4A4A" points="221.2652 66.606 229.772 66.606 229.772 10.2136 221.2652 10.2136"></polygon>
                    <path d="M284.9982,13.24708 L284.9982,23.32468 C280.0818,19.21068 274.9886,17.15028 269.7322,17.15028 C263.9386,17.15028 259.0562,19.23788 255.085,23.39948 C251.0934,27.54068 249.0942,32.60668 249.0942,38.59748 C249.0942,44.51348 251.0934,49.49788 255.085,53.57108 C259.0766,57.63068 263.9726,59.66388 269.7662,59.66388 C272.765,59.66388 275.3082,59.18108 277.4026,58.20188 C278.5722,57.71908 279.7826,57.05948 281.0338,56.22988 C282.2918,55.40708 283.611,54.40748 284.9982,53.23788 L284.9982,63.50588 C280.1294,66.25308 275.0158,67.62668 269.6574,67.62668 C261.5994,67.62668 254.7178,64.81828 249.0194,59.19468 C243.3482,53.51668 240.5126,46.67588 240.5126,38.66548 C240.5126,31.48468 242.8858,25.07908 247.6322,19.45548 C253.4802,12.56028 261.0418,9.11948 270.317,9.11948 C275.3762,9.11948 280.2722,10.49308 284.9982,13.24708" id="Fill-147" fill="#4B4A4A"></path>
                    <polygon id="Fill-148" fill="#4B4A4A" points="305.8164 32.27212 330.14 32.27212 330.14 10.21292 338.6536 10.21292 338.6536 66.60532 330.14 66.60532 330.14 40.27572 305.8164 40.27572 305.8164 66.60532 297.3096 66.60532 297.3096 10.21292 305.8164 10.21292"></polygon>
                    <path d="M107.30128,131.79556 L98.93728,112.62636 L90.17208,131.79556 L107.30128,131.79556 Z M110.76928,139.79916 L86.62928,139.79916 L80.34608,153.48756 L71.17968,153.48756 L99.08688,93.55916 L126.00128,153.48756 L116.68528,153.48756 L110.76928,139.79916 Z" id="Fill-149" fill="#4B4A4A"></path>
                    <path d="M141.56036,122.70464 L144.73596,122.70464 C152.55596,122.70464 156.45916,119.69904 156.45916,113.68104 C156.45916,107.86024 152.43356,104.95664 144.37556,104.95664 L141.56036,104.95664 L141.56036,122.70464 Z M141.56036,130.59264 L141.56036,153.48824 L133.05356,153.48824 L133.05356,97.09584 L142.69596,97.09584 C147.41516,97.09584 150.98516,97.42904 153.39236,98.08864 C155.82676,98.74824 157.97556,99.98584 159.82516,101.81504 C163.06196,104.97704 164.68036,108.96864 164.68036,113.78984 C164.68036,118.95104 162.95316,123.04464 159.49196,126.06384 C156.03756,129.07624 151.37276,130.59264 145.50436,130.59264 L141.56036,130.59264 Z" id="Fill-150" fill="#4B4A4A"></path>
                    <polygon id="Fill-151" fill="#4B4A4A" points="173.4476 153.4896 181.9544 153.4896 181.9544 97.0972 173.4476 97.0972"></polygon>
                    <polygon id="Fill-152" fill="#4B4A4A" points="226.6236 105.10012 204.0136 105.10012 204.0136 118.64572 225.964 118.64572 225.964 126.64932 204.0136 126.64932 204.0136 145.49212 226.6236 145.49212 226.6236 153.48892 195.5068 153.48892 195.5068 97.09652 226.6236 97.09652"></polygon>
                    <path d="M246.3096,122.99636 L249.0092,122.99636 C257.074,122.99636 261.0996,119.91596 261.0996,113.75516 C261.0996,107.98196 257.1828,105.09876 249.3424,105.09876 L246.3096,105.09876 L246.3096,122.99636 Z M256.904,129.45636 L274.3596,153.48756 L263.9488,153.48756 L247.8464,130.40836 L246.3096,130.40836 L246.3096,153.48756 L237.8028,153.48756 L237.8028,97.09516 L247.7716,97.09516 C255.2244,97.09516 260.6032,98.49596 263.9148,101.30436 C267.5664,104.41876 269.3956,108.53276 269.3956,113.64636 C269.3956,117.63796 268.2464,121.07196 265.9616,123.94836 C263.67,126.81796 260.6508,128.65396 256.904,129.45636 L256.904,129.45636 Z" id="Fill-153" fill="#4B4A4A"></path>
                    <polygon id="Fill-154" fill="#4B4A4A" points="291.34328 97.09788 291.34328 145.49348 307.92168 145.49348 307.92168 153.49028 282.83648 153.49028 282.83648 97.09788"></polygon>
                    <path d="M319.46604,125.14788 C319.46604,131.38348 321.56044,136.51068 325.74924,140.52948 C329.91084,144.54828 334.71844,146.54748 340.17204,146.54748 C346.09484,146.54748 351.07924,144.50748 355.15244,140.41388 C359.21884,136.27948 361.25204,131.24068 361.25204,125.29068 C361.25204,119.28628 359.23924,114.24068 355.22044,110.17428 C351.22884,106.08068 346.28524,104.04068 340.39644,104.04068 C334.52804,104.04068 329.57084,106.08068 325.53164,110.17428 C321.48564,114.22028 319.46604,119.21148 319.46604,125.14788 M310.88444,125.03908 C310.88444,117.09668 313.79484,110.28308 319.60884,104.59148 C325.40924,98.89308 332.37244,96.04388 340.50524,96.04388 C348.53604,96.04388 355.43124,98.91348 361.17724,104.65948 C366.94364,110.40548 369.83364,117.31428 369.83364,125.36548 C369.83364,133.47788 366.93004,140.35268 361.13644,146.00348 C355.31564,151.67468 348.29804,154.51028 340.06324,154.51028 C332.78044,154.51028 326.24564,151.99428 320.45204,146.95548 C314.07364,141.37948 310.88444,134.06948 310.88444,125.03908" id="Fill-155" fill="#4B4A4A"></path>
                    <path d="M412.41796,105.4986 L405.51596,109.5922 C404.22396,107.3482 402.99316,105.893 401.82356,105.2062 C400.60636,104.431 399.03556,104.0366 397.11796,104.0366 C394.75156,104.0366 392.79316,104.7098 391.23596,106.0494 C389.67876,107.3618 388.89676,109.021 388.89676,111.0202 C388.89676,113.7674 390.94356,115.9842 395.03036,117.6638 L400.66076,119.9622 C405.23716,121.8118 408.58276,124.0694 410.70436,126.735 C412.81916,129.4074 413.87996,132.6714 413.87996,136.5406 C413.87996,141.729 412.14596,146.0198 408.69156,149.3994 C405.20996,152.813 400.89196,154.513 395.72396,154.513 C390.83476,154.513 386.78876,153.0646 383.59956,150.1678 C380.45796,147.271 378.49956,143.191 377.71756,137.9346 L386.33996,136.0306 C386.72756,139.349 387.41436,141.6338 388.38676,142.8986 C390.14116,145.333 392.69796,146.5502 396.05716,146.5502 C398.70916,146.5502 400.91236,145.6594 402.66676,143.8914 C404.42116,142.1098 405.29836,139.859 405.29836,137.1254 C405.29836,136.0306 405.14196,135.031 404.84276,134.113 C404.53676,133.2018 404.06076,132.3586 403.41476,131.597 C402.76876,130.8286 401.93236,130.1078 400.91236,129.4414 C399.89236,128.775 398.67516,128.129 397.26076,127.5238 L391.82076,125.2594 C384.09596,121.9954 380.24036,117.2286 380.24036,110.9454 C380.24036,106.709 381.85876,103.1594 385.09556,100.3102 C388.33236,97.4406 392.36476,96.0058 397.18596,96.0058 C403.68676,96.0058 408.76636,99.1678 412.41796,105.4986" id="Fill-156" fill="#4B4A4A"></path>
                </g>
            </g>
        </g>
    </g>
</svg>