<?xml version="1.0" encoding="UTF-8"?>
<svg width="615px" height="164px" viewBox="0 0 615 164" version="1.1" xmlns="http://www.w3.org/2000/svg" xmlns:xlink="http://www.w3.org/1999/xlink">
    <!-- Generator: Sketch 44 (41411) - http://www.bohemiancoding.com/sketch -->
    <title>wortpaare/endlos-phantasievoll-pos</title>
    <desc>Created with Sketch.</desc>
    <defs></defs>
    <g id="Page-1" stroke="none" stroke-width="1" fill="none" fill-rule="evenodd">
        <g id="Wortpaare" transform="translate(-204.000000, -1058.000000)">
            <g id="wortpaare/endlos-phantasievoll/pos" transform="translate(198.000000, 1058.000000)">
                <g id="Group">
                    <path d="M53.14744,118.83272 L53.14744,118.62192 C53.14744,109.24472 46.81664,103.02272 39.34344,103.02272 C31.85664,103.02272 25.64144,109.24472 25.64144,118.62192 L25.64144,118.83272 C25.64144,128.20992 31.85664,134.43192 39.34344,134.43192 C46.81664,134.43192 53.14744,128.31872 53.14744,118.83272 L53.14744,118.83272 Z M9.82464,90.47672 L25.85224,90.47672 L25.85224,98.58912 C29.74864,93.32592 35.12064,89.42952 43.45064,89.42952 C56.62224,89.42952 69.16144,99.75192 69.16144,118.62192 L69.16144,118.83272 C69.16144,137.68912 56.83304,148.02512 43.45064,148.02512 C34.90984,148.02512 29.63984,144.12192 25.85224,139.59312 L25.85224,163.82832 L9.82464,163.82832 L9.82464,90.47672 Z" id="Fill-38" fill="#DB071A"></path>
                    <path d="M46.63304,27.56108 C45.67424,20.29868 41.40384,15.38908 34.57664,15.38908 C27.84464,15.38908 23.46544,20.18988 22.18704,27.56108 L46.63304,27.56108 Z M6.26824,32.36868 L6.26824,32.15108 C6.26824,15.81068 17.90984,2.36028 34.57664,2.36028 C53.68464,2.36028 62.43624,17.20468 62.43624,33.43628 C62.43624,34.71468 62.33424,36.21068 62.22544,37.70668 L22.39784,37.70668 C24.00264,45.07788 29.12304,48.91308 36.37864,48.91308 C41.83224,48.91308 45.78304,47.20628 50.26424,43.04468 L59.55304,51.26588 C54.21504,57.88228 46.52424,61.94188 36.17464,61.94188 C18.97744,61.94188 6.26824,49.87868 6.26824,32.36868 L6.26824,32.36868 Z" id="Fill-39" fill="#DB071A"></path>
                    <polygon id="Fill-40" fill="#4B4A4A" points="70.6418 60.63424 70.6418 0.40664 111.7682 43.43024 111.7682 4.24184 120.275 4.24184 120.275 64.06144 79.1486 21.14664 79.1486 60.63424"></polygon>
                    <path d="M142.30088,52.63268 L146.13608,52.63268 C149.95768,52.63268 153.13328,52.23148 155.66968,51.42908 C158.19928,50.57228 160.49088,49.22588 162.53768,47.37628 C166.71968,43.55468 168.81408,38.57028 168.81408,32.43668 C168.81408,26.24868 166.74688,21.23708 162.60568,17.38828 C158.87928,13.95428 153.39168,12.24068 146.13608,12.24068 L142.30088,12.24068 L142.30088,52.63268 Z M133.79408,60.63628 L133.79408,4.23708 L145.62608,4.23708 C151.29728,4.23708 155.77848,4.80148 159.06288,5.91668 C162.59208,7.01828 165.80168,8.87468 168.67128,11.50628 C174.49208,16.81708 177.40248,23.79388 177.40248,32.43668 C177.40248,41.10668 174.36968,48.11748 168.30408,53.47588 C165.25768,56.15508 162.07528,58.01828 158.73648,59.05868 C155.61528,60.10588 151.20208,60.63628 145.47648,60.63628 L133.79408,60.63628 Z" id="Fill-41" fill="#4B4A4A"></path>
                    <polygon id="Fill-42" fill="#4B4A4A" points="196.61112 4.23912 196.61112 52.63472 213.18952 52.63472 213.18952 60.63152 188.10432 60.63152 188.10432 4.23912"></polygon>
                    <path d="M224.73456,32.28912 C224.73456,38.52472 226.82896,43.64512 231.01776,47.66392 C235.17936,51.68272 239.98696,53.68872 245.44056,53.68872 C251.36336,53.68872 256.34776,51.64872 260.42096,47.55512 C264.48736,43.41392 266.52056,38.37512 266.52056,32.43192 C266.52056,26.42072 264.50776,21.38192 260.48896,17.31552 C256.49736,13.22192 251.55376,11.18192 245.66496,11.18192 C239.79656,11.18192 234.83936,13.22192 230.80016,17.31552 C226.75416,21.35472 224.73456,26.34592 224.73456,32.28912 M216.15296,32.18032 C216.15296,24.23792 219.06336,17.42432 224.87736,11.72592 C230.67776,6.02752 237.64096,3.17832 245.77376,3.17832 C253.80456,3.17832 260.69976,6.05472 266.44576,11.80072 C272.21216,17.54672 275.10216,24.44872 275.10216,32.50672 C275.10216,40.61912 272.19856,47.49392 266.40496,53.14472 C260.58416,58.81592 253.56656,61.65832 245.33176,61.65832 C238.04896,61.65832 231.51416,59.13552 225.72056,54.09672 C219.34216,48.52072 216.15296,41.21072 216.15296,32.18032" id="Fill-43" fill="#4B4A4A"></path>
                    <path d="M317.68648,12.63916 L310.78448,16.73276 C309.49248,14.48876 308.26168,13.02676 307.09208,12.34676 C305.87488,11.56476 304.30408,11.17716 302.38648,11.17716 C300.02008,11.17716 298.06168,11.85036 296.50448,13.18996 C294.94728,14.50236 294.16528,16.16156 294.16528,18.15396 C294.16528,20.90796 296.21208,23.12476 300.29888,24.80436 L305.92928,27.10276 C310.50568,28.95236 313.85128,31.20996 315.97288,33.87556 C318.08768,36.54796 319.14848,39.81196 319.14848,43.68116 C319.14848,48.86956 317.41448,53.15356 313.96008,56.54676 C310.47848,59.95356 306.16048,61.65356 300.99248,61.65356 C296.10328,61.65356 292.05728,60.21196 288.86808,57.30836 C285.72648,54.41156 283.76808,50.33156 282.98608,45.07516 L291.60848,43.17116 C291.99608,46.48276 292.68288,48.77436 293.65528,50.03916 C295.40968,52.47356 297.96648,53.69076 301.32568,53.69076 C303.97768,53.69076 306.18088,52.79996 307.93528,51.02516 C309.68968,49.25036 310.56688,46.99276 310.56688,44.26596 C310.56688,43.17116 310.41048,42.17156 310.11128,41.25356 C309.80528,40.34236 309.32928,39.49916 308.68328,38.73756 C308.03728,37.96916 307.20088,37.24836 306.18088,36.58196 C305.16088,35.90876 303.94368,35.26956 302.52928,34.66436 L297.08928,32.39996 C289.36448,29.13596 285.50888,24.36236 285.50888,18.07916 C285.50888,13.84276 287.12728,10.29996 290.36408,7.45076 C293.60088,4.58116 297.63328,3.14636 302.45448,3.14636 C308.95528,3.14636 314.03488,6.30836 317.68648,12.63916" id="Fill-44" fill="#4B4A4A"></path>
                    <polygon id="Fill-45" fill="#4B4A4A" points="86.15464 113.18804 110.47824 113.18804 110.47824 91.12884 118.99184 91.12884 118.99184 147.52124 110.47824 147.52124 110.47824 121.18484 86.15464 121.18484 86.15464 147.52124 77.64784 147.52124 77.64784 91.12884 86.15464 91.12884"></polygon>
                    <path d="M162.1596,125.81904 L153.7956,106.64984 L145.0304,125.81904 L162.1596,125.81904 Z M165.6276,133.82264 L141.4876,133.82264 L135.2044,147.51784 L126.038,147.51784 L153.9452,87.58264 L180.8596,147.51784 L171.5436,147.51784 L165.6276,133.82264 Z" id="Fill-46" fill="#4B4A4A"></path>
                    <polygon id="Fill-47" fill="#4B4A4A" points="187.90848 147.52056 187.90848 87.29296 229.03488 130.31656 229.03488 91.12816 237.54168 91.12816 237.54168 150.94776 196.41528 108.03296 196.41528 147.52056"></polygon>
                    <polygon id="Fill-48" fill="#4B4A4A" points="266.61644 99.1236 266.61644 147.5192 258.10964 147.5192 258.10964 99.1236 245.14204 99.1236 245.14204 91.1268 279.54324 91.1268 279.54324 99.1236"></polygon>
                    <path d="M313.73228,125.81904 L305.36828,106.64984 L296.60308,125.81904 L313.73228,125.81904 Z M317.20028,133.82264 L293.06028,133.82264 L286.77708,147.51784 L277.61068,147.51784 L305.51788,87.58264 L332.43228,147.51784 L323.11628,147.51784 L317.20028,133.82264 Z" id="Fill-49" fill="#4B4A4A"></path>
                    <path d="M371.36568,99.52208 L364.46368,103.61568 C363.17168,101.37168 361.94088,99.91648 360.77128,99.22968 C359.55408,98.45448 357.98328,98.06008 356.06568,98.06008 C353.69928,98.06008 351.74088,98.74008 350.18368,100.07288 C348.62648,101.38528 347.84448,103.04448 347.84448,105.04368 C347.84448,107.79768 349.89128,110.00768 353.97808,111.68728 L359.60848,113.98568 C364.18488,115.83528 367.53048,118.09968 369.65208,120.75848 C371.76688,123.43088 372.82768,126.69488 372.82768,130.57088 C372.82768,135.75248 371.09368,140.04328 367.63928,143.42968 C364.15768,146.83648 359.83968,148.54328 354.67168,148.54328 C349.78248,148.54328 345.73648,147.09488 342.54728,144.19128 C339.40568,141.29448 337.44728,137.21448 336.66528,131.95808 L345.28768,130.05408 C345.67528,133.37248 346.36208,135.65728 347.33448,136.92208 C349.08888,139.35648 351.64568,140.57368 355.00488,140.57368 C357.65688,140.57368 359.86008,139.68288 361.61448,137.91488 C363.36888,136.14008 364.24608,133.88248 364.24608,131.15568 C364.24608,130.05408 364.08968,129.06128 363.79048,128.14328 C363.48448,127.22528 363.00848,126.38888 362.36248,125.62048 C361.71648,124.85208 360.88008,124.13128 359.86008,123.46488 C358.84008,122.79848 357.62288,122.15248 356.20848,121.54728 L350.76848,119.28288 C343.04368,116.01888 339.18808,111.25208 339.18808,104.96888 C339.18808,100.73248 340.80648,97.18288 344.04328,94.34048 C347.28008,91.46408 351.31248,90.02928 356.13368,90.02928 C362.63448,90.02928 367.71408,93.19128 371.36568,99.52208" id="Fill-50" fill="#4B4A4A"></path>
                    <polygon id="Fill-51" fill="#4B4A4A" points="383.0916 147.5192 391.5984 147.5192 391.5984 91.1268 383.0916 91.1268"></polygon>
                    <polygon id="Fill-52" fill="#4B4A4A" points="436.26828 99.1236 413.65828 99.1236 413.65828 112.6692 435.60868 112.6692 435.60868 120.6728 413.65828 120.6728 413.65828 139.5156 436.26828 139.5156 436.26828 147.5192 405.15148 147.5192 405.15148 91.1268 436.26828 91.1268"></polygon>
                    <polygon id="Fill-53" fill="#4B4A4A" points="450.29328 91.12816 465.88568 130.20096 481.70248 91.12816 491.01848 91.12816 465.70888 151.75696 440.97728 91.12816"></polygon>
                    <path d="M501.3198,119.17816 C501.3198,125.40696 503.4142,130.53416 507.603,134.55296 C511.7646,138.57176 516.5722,140.57096 522.0258,140.57096 C527.9418,140.57096 532.933,138.53096 536.9994,134.43736 C541.0726,130.30296 543.1058,125.26416 543.1058,119.32096 C543.1058,113.30976 541.093,108.27096 537.0742,104.19776 C533.0826,100.10416 528.139,98.06416 522.2434,98.06416 C516.3818,98.06416 511.4178,100.10416 507.3854,104.19776 C503.3394,108.24376 501.3198,113.23496 501.3198,119.17816 M492.7314,119.06256 C492.7314,111.12696 495.6418,104.30656 501.4626,98.61496 C507.2562,92.91656 514.2194,90.06736 522.359,90.06736 C530.3898,90.06736 537.2782,92.93696 543.031,98.68296 C548.7974,104.43576 551.6806,111.33776 551.6806,119.38896 C551.6806,127.50816 548.7838,134.38296 542.9902,140.02696 C537.1694,145.69816 530.145,148.54056 521.917,148.54056 C514.6342,148.54056 508.0994,146.01776 502.3058,140.97896 C495.9274,135.40976 492.7314,128.09976 492.7314,119.06256" id="Fill-54" fill="#4B4A4A"></path>
                    <polygon id="Fill-55" fill="#4B4A4A" points="570.89332 91.12816 570.89332 139.51696 587.47172 139.51696 587.47172 147.52056 562.38652 147.52056 562.38652 91.12816"></polygon>
                    <polygon id="Fill-56" fill="#4B4A4A" points="604.05692 91.12816 604.05692 139.51696 620.63532 139.51696 620.63532 147.52056 595.55012 147.52056 595.55012 91.12816"></polygon>
                </g>
            </g>
        </g>
    </g>
</svg>