<?xml version="1.0" encoding="UTF-8"?>
<svg width="326px" height="87px" viewBox="0 0 326 87" version="1.1" xmlns="http://www.w3.org/2000/svg" xmlns:xlink="http://www.w3.org/1999/xlink">
    <!-- Generator: Sketch 43.2 (39069) - http://www.bohemiancoding.com/sketch -->
    <title>wortpaare/endlos-phantasievoll-neg</title>
    <desc>Created with Sketch.</desc>
    <defs>
        <polygon id="path-1" points="0 0.9144 0 32.4576 29.73564 32.4576 29.73564 0.9144 7.31836466e-20 0.9144"></polygon>
        <polygon id="path-3" points="0 86.52132 325.2528 86.52132 325.2528 -0.00108 0 -0.00108"></polygon>
    </defs>
    <g id="Page-1" stroke="none" stroke-width="1" fill="none" fill-rule="evenodd">
        <g id="wortpaare/endlos-phantasievoll/neg">
            <g id="Page-1">
                <path d="M24.81804,62.69796 L24.81804,62.58636 C24.81804,57.62196 21.46644,54.32796 17.51004,54.32796 C13.54644,54.32796 10.25604,57.62196 10.25604,62.58636 L10.25604,62.69796 C10.25604,67.66236 13.54644,70.95636 17.51004,70.95636 C21.46644,70.95636 24.81804,67.71996 24.81804,62.69796 Z M1.88244,47.68596 L10.36764,47.68596 L10.36764,51.98076 C12.43044,49.19436 15.27444,47.13156 19.68444,47.13156 C26.65764,47.13156 33.29604,52.59636 33.29604,62.58636 L33.29604,62.69796 C33.29604,72.68076 26.76924,78.15276 19.68444,78.15276 C15.16284,78.15276 12.37284,76.08636 10.36764,73.68876 L10.36764,86.51916 L1.88244,86.51916 L1.88244,47.68596 Z" id="Fill-1" fill="#FFFFFF"></path>
                <g id="Group-5" transform="translate(0.000000, 0.121320)">
                    <mask id="mask-2" fill="white">
                        <use xlink:href="#path-1"></use>
                    </mask>
                    <g id="Clip-4"></g>
                    <path d="M21.36924,14.256 C20.86164,10.4112 18.60084,7.812 14.98644,7.812 C11.42244,7.812 9.10404,10.3536 8.42724,14.256 L21.36924,14.256 Z M-0.00036,16.8012 L-0.00036,16.686 C-0.00036,8.0352 6.16284,0.9144 14.98644,0.9144 C25.10244,0.9144 29.73564,8.7732 29.73564,17.3664 C29.73564,18.0432 29.68164,18.8352 29.62404,19.6272 L8.53884,19.6272 C9.38844,23.5296 12.09924,25.56 15.94044,25.56 C18.82764,25.56 20.91924,24.6564 23.29164,22.4532 L28.20924,26.8056 C25.38324,30.3084 21.31164,32.4576 15.83244,32.4576 C6.72804,32.4576 -0.00036,26.0712 -0.00036,16.8012 L-0.00036,16.8012 Z" id="Fill-3" fill="#FFFFFF" mask="url(#mask-2)"></path>
                </g>
                <polygon id="Fill-6" fill="#FFFFFF" points="34.08012 31.887 34.08012 0.0018 55.85292 22.779 55.85292 2.0322 60.35652 2.0322 60.35652 33.7014 38.58372 10.9818 38.58372 31.887"></polygon>
                <path d="M72.01692,27.65052 L74.04732,27.65052 C76.07052,27.65052 77.75172,27.43812 79.09452,27.01332 C80.43372,26.55972 81.64692,25.84692 82.73052,24.86772 C84.94452,22.84452 86.05332,20.20572 86.05332,16.95852 C86.05332,13.68252 84.95892,11.02932 82.76652,8.99172 C80.79372,7.17372 77.88852,6.26652 74.04732,6.26652 L72.01692,6.26652 L72.01692,27.65052 Z M67.51332,31.88772 L67.51332,2.02932 L73.77732,2.02932 C76.77972,2.02932 79.15212,2.32812 80.89092,2.91852 C82.75932,3.50172 84.45852,4.48452 85.97772,5.87772 C89.05932,8.68932 90.60012,12.38292 90.60012,16.95852 C90.60012,21.54852 88.99452,25.26012 85.78332,28.09692 C84.17052,29.51532 82.48572,30.50172 80.71812,31.05252 C79.06572,31.60692 76.72932,31.88772 73.69812,31.88772 L67.51332,31.88772 Z" id="Fill-8" fill="#FFFFFF"></path>
                <polygon id="Fill-10" fill="#FFFFFF" points="100.76976 2.0304 100.76976 27.6516 109.54656 27.6516 109.54656 31.8852 96.26616 31.8852 96.26616 2.0304"></polygon>
                <path d="M115.65828,16.8804 C115.65828,20.1816 116.76708,22.8924 118.98468,25.02 C121.18788,27.1476 123.73308,28.2096 126.62028,28.2096 C129.75588,28.2096 132.39468,27.1296 134.55108,24.9624 C136.70388,22.77 137.78028,20.1024 137.78028,16.956 C137.78028,13.7736 136.71468,11.106 134.58708,8.9532 C132.47388,6.786 129.85668,5.706 126.73908,5.706 C123.63228,5.706 121.00788,6.786 118.86948,8.9532 C116.72748,11.0916 115.65828,13.734 115.65828,16.8804 M111.11508,16.8228 C111.11508,12.618 112.65588,9.0108 115.73388,5.994 C118.80468,2.9772 122.49108,1.4688 126.79668,1.4688 C131.04828,1.4688 134.69868,2.9916 137.74068,6.0336 C140.79348,9.0756 142.32348,12.7296 142.32348,16.9956 C142.32348,21.2904 140.78628,24.93 137.71908,27.9216 C134.63748,30.924 130.92228,32.4288 126.56268,32.4288 C122.70708,32.4288 119.24748,31.0932 116.18028,28.4256 C112.80348,25.4736 111.11508,21.6036 111.11508,16.8228" id="Fill-12" fill="#FFFFFF"></path>
                <path d="M164.86812,6.47784 L161.21412,8.64504 C160.53012,7.45704 159.87852,6.68304 159.25932,6.32304 C158.61492,5.90904 157.78332,5.70384 156.76812,5.70384 C155.51532,5.70384 154.47852,6.06024 153.65412,6.76944 C152.82972,7.46424 152.41572,8.34264 152.41572,9.39744 C152.41572,10.85544 153.49932,12.02904 155.66292,12.91824 L158.64372,14.13504 C161.06652,15.11424 162.83772,16.30944 163.96092,17.72064 C165.08052,19.13544 165.64212,20.86344 165.64212,22.91184 C165.64212,25.65864 164.72412,27.92664 162.89532,29.72304 C161.05212,31.52664 158.76612,32.42664 156.03012,32.42664 C153.44172,32.42664 151.29972,31.66344 149.61132,30.12624 C147.94812,28.59264 146.91132,26.43264 146.49732,23.64984 L151.06212,22.64184 C151.26732,24.39504 151.63092,25.60824 152.14572,26.27784 C153.07452,27.56664 154.42812,28.21104 156.20652,28.21104 C157.61052,28.21104 158.77692,27.73944 159.70572,26.79984 C160.63452,25.86024 161.09892,24.66504 161.09892,23.22144 C161.09892,22.64184 161.01612,22.11264 160.85772,21.62664 C160.69572,21.14424 160.44372,20.69784 160.10172,20.29464 C159.75972,19.88784 159.31692,19.50624 158.77692,19.15344 C158.23692,18.79704 157.59252,18.45864 156.84372,18.13824 L153.96372,16.93944 C149.87412,15.21144 147.83292,12.68424 147.83292,9.35784 C147.83292,7.11504 148.68972,5.23944 150.40332,3.73104 C152.11692,2.21184 154.25172,1.45224 156.80412,1.45224 C160.24572,1.45224 162.93492,3.12624 164.86812,6.47784" id="Fill-14" fill="#FFFFFF"></path>
                <polygon id="Fill-16" fill="#FFFFFF" points="42.29244 59.7096 55.16964 59.7096 55.16964 48.0312 59.67684 48.0312 59.67684 77.886 55.16964 77.886 55.16964 63.9432 42.29244 63.9432 42.29244 77.886 37.78884 77.886 37.78884 48.0312 42.29244 48.0312"></polygon>
                <path d="M82.53072,66.39624 L78.10272,56.24784 L73.46232,66.39624 L82.53072,66.39624 Z M84.36672,70.63344 L71.58672,70.63344 L68.26032,77.88384 L63.40752,77.88384 L78.18192,46.15344 L92.43072,77.88384 L87.49872,77.88384 L84.36672,70.63344 Z" id="Fill-18" fill="#FFFFFF"></path>
                <polygon id="Fill-20" fill="#FFFFFF" points="96.16248 77.88528 96.16248 46.00008 117.93528 68.77728 117.93528 48.03048 122.43888 48.03048 122.43888 79.69968 100.66608 56.98008 100.66608 77.88528"></polygon>
                <polygon id="Fill-22" fill="#FFFFFF" points="137.8314 52.26336 137.8314 77.88456 133.3278 77.88456 133.3278 52.26336 126.4626 52.26336 126.4626 48.02976 144.675 48.02976 144.675 52.26336"></polygon>
                <path d="M162.77472,66.39624 L158.34672,56.24784 L153.70632,66.39624 L162.77472,66.39624 Z M164.61072,70.63344 L151.83072,70.63344 L148.50432,77.88384 L143.65152,77.88384 L158.42592,46.15344 L172.67472,77.88384 L167.74272,77.88384 L164.61072,70.63344 Z" id="Fill-24" fill="#FFFFFF"></path>
                <path d="M193.28688,52.47432 L189.63288,54.64152 C188.94888,53.45352 188.29728,52.68312 187.67808,52.31952 C187.03368,51.90912 186.20208,51.70032 185.18688,51.70032 C183.93408,51.70032 182.89728,52.06032 182.07288,52.76592 C181.24848,53.46072 180.83448,54.33912 180.83448,55.39752 C180.83448,56.85552 181.91808,58.02552 184.08168,58.91472 L187.06248,60.13152 C189.48528,61.11072 191.25648,62.30952 192.37968,63.71712 C193.49928,65.13192 194.06088,66.85992 194.06088,68.91192 C194.06088,71.65512 193.14288,73.92672 191.31408,75.71952 C189.47088,77.52312 187.18488,78.42672 184.44888,78.42672 C181.86048,78.42672 179.71848,77.65992 178.03008,76.12272 C176.36688,74.58912 175.33008,72.42912 174.91608,69.64632 L179.48088,68.63832 C179.68608,70.39512 180.04968,71.60472 180.56448,72.27432 C181.49328,73.56312 182.84688,74.20752 184.62528,74.20752 C186.02928,74.20752 187.19568,73.73592 188.12448,72.79992 C189.05328,71.86032 189.51768,70.66512 189.51768,69.22152 C189.51768,68.63832 189.43488,68.11272 189.27648,67.62672 C189.11448,67.14072 188.86248,66.69792 188.52048,66.29112 C188.17848,65.88432 187.73568,65.50272 187.19568,65.14992 C186.65568,64.79712 186.01128,64.45512 185.26248,64.13472 L182.38248,62.93592 C178.29288,61.20792 176.25168,58.68432 176.25168,55.35792 C176.25168,53.11512 177.10848,51.23592 178.82208,49.73112 C180.53568,48.20832 182.67048,47.44872 185.22288,47.44872 C188.66448,47.44872 191.35368,49.12272 193.28688,52.47432" id="Fill-26" fill="#FFFFFF"></path>
                <mask id="mask-4" fill="white">
                    <use xlink:href="#path-3"></use>
                </mask>
                <g id="Clip-29"></g>
                <polygon id="Fill-28" fill="#FFFFFF" mask="url(#mask-4)" points="199.494 77.88492 203.9976 77.88492 203.9976 48.03012 199.494 48.03012"></polygon>
                <polygon id="Fill-30" fill="#FFFFFF" mask="url(#mask-4)" points="227.64672 52.26336 215.67672 52.26336 215.67672 59.43456 227.29752 59.43456 227.29752 63.67176 215.67672 63.67176 215.67672 73.64736 227.64672 73.64736 227.64672 77.88456 211.17312 77.88456 211.17312 48.02976 227.64672 48.02976"></polygon>
                <polygon id="Fill-31" fill="#FFFFFF" mask="url(#mask-4)" points="235.07172 48.03048 243.32652 68.71608 251.70012 48.03048 256.63212 48.03048 243.23292 80.12808 230.13972 48.03048"></polygon>
                <path d="M262.08576,62.88048 C262.08576,66.17808 263.19456,68.89248 265.41216,71.02008 C267.61536,73.14768 270.16056,74.20608 273.04776,74.20608 C276.17976,74.20608 278.82216,73.12608 280.97496,70.95888 C283.13136,68.77008 284.20776,66.10248 284.20776,62.95608 C284.20776,59.77368 283.14216,57.10608 281.01456,54.94968 C278.90136,52.78248 276.28416,51.70248 273.16296,51.70248 C270.05976,51.70248 267.43176,52.78248 265.29696,54.94968 C263.15496,57.09168 262.08576,59.73408 262.08576,62.88048 M257.53896,62.81928 C257.53896,58.61808 259.07976,55.00728 262.16136,51.99408 C265.22856,48.97728 268.91496,47.46888 273.22416,47.46888 C277.47576,47.46888 281.12256,48.98808 284.16816,52.03008 C287.22096,55.07568 288.74736,58.72968 288.74736,62.99208 C288.74736,67.29048 287.21376,70.93008 284.14656,73.91808 C281.06496,76.92048 277.34616,78.42528 272.99016,78.42528 C269.13456,78.42528 265.67496,77.08968 262.60776,74.42208 C259.23096,71.47368 257.53896,67.60368 257.53896,62.81928" id="Fill-32" fill="#FFFFFF" mask="url(#mask-4)"></path>
                <polygon id="Fill-33" fill="#FFFFFF" mask="url(#mask-4)" points="298.91916 48.03048 298.91916 73.64808 307.69596 73.64808 307.69596 77.88528 294.41556 77.88528 294.41556 48.03048"></polygon>
                <polygon id="Fill-34" fill="#FFFFFF" mask="url(#mask-4)" points="316.476 48.03048 316.476 73.64808 325.2528 73.64808 325.2528 77.88528 311.9724 77.88528 311.9724 48.03048"></polygon>
            </g>
        </g>
    </g>
</svg>