<?xml version="1.0" encoding="UTF-8"?>
<svg width="301px" height="158px" viewBox="0 0 301 158" version="1.1" xmlns="http://www.w3.org/2000/svg" xmlns:xlink="http://www.w3.org/1999/xlink">
    <!-- Generator: Sketch 44.1 (41455) - http://www.bohemiancoding.com/sketch -->
    <title>wortpaare/endlos-positiv-pos</title>
    <desc>Created with Sketch.</desc>
    <defs>
        <polygon id="path-1" points="50.7763846 6.31615385 3.05215385 6.31615385 3.05215385 67.5285769 50.7763846 67.5285769 50.7763846 6.31615385"></polygon>
        <polygon id="path-3" points="0 163.683846 300.847692 163.683846 300.847692 6.53846154 0 6.53846154"></polygon>
    </defs>
    <g id="Page-1" stroke="none" stroke-width="1" fill="none" fill-rule="evenodd">
        <g id="Wortpaare-Copy" transform="translate(-2580.000000, -1468.000000)">
            <g id="wortpaare/endlos-positiv/pos" transform="translate(2580.000000, 1462.000000)">
                <g id="Page-1">
                    <path d="M45.0728846,120.412308 L45.0728846,120.209615 C45.0728846,111.193077 38.9921154,105.210385 31.7998077,105.210385 C24.6009615,105.210385 18.6248077,111.193077 18.6248077,120.209615 L18.6248077,120.412308 C18.6248077,129.428846 24.6009615,135.405 31.7998077,135.405 C38.9921154,135.405 45.0728846,129.533462 45.0728846,120.412308 Z M3.41634615,93.1534615 L18.8275,93.1534615 L18.8275,100.953846 C22.5740385,95.8930769 27.7459615,92.14 35.7490385,92.14 C48.4140385,92.14 60.4709615,102.071923 60.4709615,120.209615 L60.4709615,120.412308 C60.4709615,138.55 48.6167308,148.481923 35.7490385,148.481923 C27.5367308,148.481923 22.4694231,144.728846 18.8275,140.374231 L18.8275,163.683846 L3.41634615,163.683846 L3.41634615,93.1534615 Z" id="Fill-1" fill="#DB071A"></path>
                    <path d="M38.8123077,32.6537308 C37.8838462,25.6706538 33.7842308,20.9498846 27.2130769,20.9498846 C20.7465385,20.9498846 16.5357692,25.5660385 15.3065385,32.6537308 L38.8123077,32.6537308 Z M0,37.2764231 L0,37.0671923 C0,21.3552692 11.1938462,8.42219231 27.2130769,8.42219231 C45.5926923,8.42219231 54.0076923,22.6956538 54.0076923,38.3029615 C54.0076923,39.5321923 53.9096154,40.9706538 53.805,42.4091154 L15.5026923,42.4091154 C17.0523077,49.4902692 21.9757692,53.1845 28.9523077,53.1845 C34.1896154,53.1845 37.995,51.5433462 42.3038462,47.5418077 L51.2353846,55.4402692 C46.1026923,61.8087308 38.7076923,65.7121923 28.7496154,65.7121923 C12.2203846,65.7121923 0,54.1129615 0,37.2764231 L0,37.2764231 Z" id="Fill-3" fill="#DB071A"></path>
                    <g id="Group-7" transform="translate(58.846154, 0.222308)">
                        <mask id="mask-2" fill="white">
                            <use xlink:href="#path-1"></use>
                        </mask>
                        <g id="Clip-6"></g>
                        <polygon id="Fill-5" fill="#4B4A4A" mask="url(#mask-2)" points="3.05215385 64.2266538 3.05215385 6.3155 42.5967692 47.6843462 42.5967692 10.0031923 50.7763846 10.0031923 50.7763846 67.5285769 11.2317692 26.2643462 11.2317692 64.2266538"></polygon>
                    </g>
                    <path d="M130.801269,56.7584231 L134.488962,56.7584231 C138.163577,56.7584231 141.217038,56.3726538 143.655885,55.6011154 C146.088192,54.7772692 148.291654,53.4826538 150.259731,51.7041923 C154.280885,48.0295769 156.294731,43.2368846 156.294731,37.3391923 C156.294731,31.3891923 154.307038,26.5703462 150.325115,22.8695769 C146.742038,19.5676538 141.4655,17.9199615 134.488962,17.9199615 L130.801269,17.9199615 L130.801269,56.7584231 Z M122.621654,64.4476538 L122.621654,10.2241923 L133.998577,10.2241923 C139.451654,10.2241923 143.7605,10.7668846 146.918577,11.8391923 C150.312038,12.8984231 153.398192,14.6834231 156.157423,17.2138077 C161.754346,22.3203462 164.552808,29.0288077 164.552808,37.3391923 C164.552808,45.6757308 161.636654,52.4168846 155.804346,57.5691923 C152.875115,60.1453462 149.815115,61.9368846 146.604731,62.9372692 C143.603577,63.9441923 139.360115,64.4476538 133.854731,64.4476538 L122.621654,64.4476538 Z" id="Fill-8" fill="#4B4A4A"></path>
                    <polygon id="Fill-10" fill="#4B4A4A" points="183.022654 10.2261538 183.022654 56.7603846 198.963423 56.7603846 198.963423 64.4496154 174.843038 64.4496154 174.843038 10.2261538"></polygon>
                    <path d="M210.063769,37.1973077 C210.063769,43.1930769 212.077615,48.1165385 216.105308,51.9807692 C220.106846,55.845 224.729538,57.7738462 229.973385,57.7738462 C235.668385,57.7738462 240.461077,55.8123077 244.377615,51.8761538 C248.287615,47.8942308 250.242615,43.0492308 250.242615,37.3346154 C250.242615,31.5546154 248.307231,26.7096154 244.443,22.7996154 C240.604923,18.8634615 235.851462,16.9019231 230.189154,16.9019231 C224.546462,16.9019231 219.779923,18.8634615 215.896077,22.7996154 C212.005692,26.6834615 210.063769,31.4826923 210.063769,37.1973077 M201.812231,37.0926923 C201.812231,29.4557692 204.610692,22.9042308 210.201077,17.425 C215.778385,11.9457692 222.473769,9.20615385 230.293769,9.20615385 C238.015692,9.20615385 244.645692,11.9719231 250.170692,17.4969231 C255.715308,23.0219231 258.494154,29.6584615 258.494154,37.4065385 C258.494154,45.2069231 255.702231,51.8173077 250.131462,57.2507692 C244.534538,62.7038462 237.786846,65.4303846 229.868769,65.4303846 C222.866077,65.4303846 216.582615,63.0111538 211.011846,58.1661538 C204.878769,52.8046154 201.812231,45.7757692 201.812231,37.0926923" id="Fill-12" fill="#4B4A4A"></path>
                    <path d="M299.440615,18.3031154 L292.804077,22.2392692 C291.561769,20.0815769 290.378308,18.6758077 289.253692,18.0219615 C288.083308,17.2700385 286.572923,16.8973462 284.729077,16.8973462 C282.453692,16.8973462 280.570615,17.5446538 279.073308,18.8327308 C277.576,20.0946538 276.824077,21.6900385 276.824077,23.6058077 C276.824077,26.2538846 278.792154,28.3854231 282.721769,30.0004231 L288.135615,32.2104231 C292.536,33.9888846 295.752923,36.1596538 297.792923,38.7227308 C299.826385,41.2923462 300.846385,44.4308077 300.846385,48.1511923 C300.846385,53.1400385 299.179077,57.2592692 295.857538,60.5154231 C292.509846,63.7977308 288.357923,65.4323462 283.388692,65.4323462 C278.687538,65.4323462 274.797154,64.0396538 271.730615,61.2542692 C268.709846,58.4688846 266.826769,54.5458077 266.074846,49.4915769 L274.365615,47.6608077 C274.738308,50.8450385 275.398692,53.0485 276.333692,54.2646538 C278.020615,56.6054231 280.479077,57.7758077 283.709077,57.7758077 C286.259077,57.7758077 288.377538,56.9192692 290.064462,55.2127308 C291.751385,53.5061923 292.594846,51.3354231 292.594846,48.7135 C292.594846,47.6608077 292.444462,46.6996538 292.156769,45.8169615 C291.862538,44.9408077 291.404846,44.1300385 290.783692,43.3977308 C290.162538,42.6588846 289.358308,41.9658077 288.377538,41.3250385 C287.396769,40.6777308 286.226385,40.0631154 284.866385,39.4811923 L279.635615,37.3038846 C272.207923,34.1654231 268.500615,29.5754231 268.500615,23.5338846 C268.500615,19.4604231 270.056769,16.0538846 273.169077,13.3142692 C276.281385,10.5550385 280.158692,9.17542308 284.794462,9.17542308 C291.045231,9.17542308 295.929462,12.2158077 299.440615,18.3031154" id="Fill-14" fill="#4B4A4A"></path>
                    <path d="M74.1801538,120.741192 C74.1801538,126.736962 76.194,131.666962 80.2216923,135.531192 C84.2232308,139.395423 88.8459231,141.317731 94.0897692,141.317731 C99.7847692,141.317731 104.577462,139.356192 108.494,135.420038 C112.404,131.444654 114.359,126.599654 114.359,120.8785 C114.359,115.0985 112.423615,110.2535 108.559385,106.3435 C104.721308,102.407346 99.9678462,100.445808 94.3055385,100.445808 C88.6628462,100.445808 83.8963077,102.407346 80.0124615,106.3435 C76.1220769,110.227346 74.1801538,115.026577 74.1801538,120.741192 M65.9286154,120.636577 C65.9286154,112.999654 68.7270769,106.448115 74.3174615,100.968885 C79.8947692,95.4896538 86.5901538,92.7500385 94.4101538,92.7500385 C102.132077,92.7500385 108.762077,95.5158077 114.287077,101.040808 C119.831692,106.565808 122.610538,113.202346 122.610538,120.950423 C122.610538,128.750808 119.818615,135.361192 114.247846,140.794654 C108.650923,146.247731 101.903231,148.974269 93.9851538,148.974269 C86.9824615,148.974269 80.699,146.555038 75.1282308,141.710038 C68.9951538,136.3485 65.9286154,129.319654 65.9286154,120.636577" id="Fill-16" fill="#4B4A4A"></path>
                    <path d="M163.557,101.847654 L156.920462,105.783808 C155.678154,103.626115 154.494692,102.220346 153.370077,101.5665 C152.199692,100.814577 150.689308,100.441885 148.845462,100.441885 C146.570077,100.441885 144.687,101.089192 143.189692,102.377269 C141.692385,103.639192 140.940462,105.234577 140.940462,107.150346 C140.940462,109.798423 142.908538,111.929962 146.838154,113.544962 L152.252,115.754962 C156.652385,117.533423 159.869308,119.704192 161.909308,122.267269 C163.942769,124.836885 164.962769,127.975346 164.962769,131.695731 C164.962769,136.684577 163.295462,140.810346 159.973923,144.059962 C156.626231,147.342269 152.474308,148.976885 147.505077,148.976885 C142.803923,148.976885 138.913538,147.584192 135.847,144.798808 C132.826231,142.013423 130.943154,138.090346 130.191231,133.036115 L138.482,131.205346 C138.854692,134.396115 139.515077,136.593038 140.450077,137.809192 C142.137,140.149962 144.595462,141.320346 147.825462,141.320346 C150.375462,141.320346 152.493923,140.463808 154.180846,138.763808 C155.867769,137.050731 156.711231,134.8865 156.711231,132.258038 C156.711231,131.205346 156.560846,130.244192 156.273154,129.3615 C155.978923,128.485346 155.521231,127.674577 154.900077,126.942269 C154.278923,126.203423 153.474692,125.510346 152.493923,124.869577 C151.513154,124.228808 150.342769,123.607654 148.982769,123.025731 L143.752,120.848423 C136.324308,117.709962 132.617,113.119962 132.617,107.078423 C132.617,103.004962 134.173154,99.5984231 137.285462,96.8588077 C140.397769,94.0995769 144.275077,92.7199615 148.910846,92.7199615 C155.161615,92.7199615 160.045846,95.7603462 163.557,101.847654" id="Fill-18" fill="#4B4A4A"></path>
                    <mask id="mask-4" fill="white">
                        <use xlink:href="#path-3"></use>
                    </mask>
                    <g id="Clip-21"></g>
                    <polygon id="Fill-20" fill="#4B4A4A" mask="url(#mask-4)" points="174.831923 147.991538 183.011538 147.991538 183.011538 93.7680769 174.831923 93.7680769"></polygon>
                    <polygon id="Fill-22" fill="#4B4A4A" mask="url(#mask-4)" points="211.002692 101.461231 211.002692 147.995462 202.823077 147.995462 202.823077 101.461231 190.354231 101.461231 190.354231 93.772 223.432308 93.772 223.432308 101.461231"></polygon>
                    <polygon id="Fill-23" fill="#4B4A4A" mask="url(#mask-4)" points="230.742308 147.991538 238.921923 147.991538 238.921923 93.7680769 230.742308 93.7680769"></polygon>
                    <polygon id="Fill-24" fill="#4B4A4A" mask="url(#mask-4)" points="254.690077 93.7700385 269.682769 131.346577 284.891231 93.7700385 293.848923 93.7700385 269.512769 152.066962 245.732385 93.7700385"></polygon>
                </g>
            </g>
        </g>
    </g>
</svg>