<?xml version="1.0" encoding="UTF-8"?>
<svg width="613px" height="158px" viewBox="0 0 613 158" version="1.1" xmlns="http://www.w3.org/2000/svg" xmlns:xlink="http://www.w3.org/1999/xlink">
    <!-- Generator: Sketch 44 (41411) - http://www.bohemiancoding.com/sketch -->
    <title>wortpaare/enthusiastisch-produktiv-pos</title>
    <desc>Created with Sketch.</desc>
    <defs>
        <polygon id="path-1" points="0 1.66142308 0 58.9514231 54.0070385 58.9514231 54.0070385 1.66142308 1.32919016e-19 1.66142308"></polygon>
        <polygon id="path-3" points="50.7750769 6.31615385 3.05084615 6.31615385 3.05084615 67.5285769 50.7750769 67.5285769 50.7750769 6.31615385"></polygon>
        <polygon id="path-5" points="0 163.685808 612.065385 163.685808 612.065385 6.54042308 0 6.54042308"></polygon>
    </defs>
    <g id="Page-1" stroke="none" stroke-width="1" fill="none" fill-rule="evenodd">
        <g id="Desktop-Projekte" transform="translate(-231.000000, -203.000000)">
            <g id="wortpaare/enthusiastisch-produktiv/pos" transform="translate(231.000000, 197.000000)">
                <g id="Page-1">
                    <path d="M45.0755,120.414269 L45.0755,120.211577 C45.0755,111.195038 38.9881923,105.212346 31.8024231,105.212346 C24.6035769,105.212346 18.6274231,111.195038 18.6274231,120.211577 L18.6274231,120.414269 C18.6274231,129.437346 24.6035769,135.4135 31.8024231,135.4135 C38.9881923,135.4135 45.0755,129.535423 45.0755,120.414269 Z M3.41896154,93.1554231 L18.8301154,93.1554231 L18.8301154,100.955808 C22.5766538,95.8950385 27.7420385,92.1419615 35.7516538,92.1419615 C48.4166538,92.1419615 60.4735769,102.073885 60.4735769,120.211577 L60.4735769,120.414269 C60.4735769,138.551962 48.6193462,148.483885 35.7516538,148.483885 C27.5393462,148.483885 22.4720385,144.737346 18.8301154,140.376192 L18.8301154,163.685808 L3.41896154,163.685808 L3.41896154,93.1554231 Z" id="Fill-1" fill="#DB071A"></path>
                    <g id="Group-5" transform="translate(0.000000, 6.762731)">
                        <mask id="mask-2" fill="white">
                            <use xlink:href="#path-1"></use>
                        </mask>
                        <g id="Clip-4"></g>
                        <path d="M38.8116538,25.8929615 C37.8897308,18.9098846 33.7835769,14.1891154 27.2189615,14.1891154 C20.7458846,14.1891154 16.5351154,18.8052692 15.3058846,25.8929615 L38.8116538,25.8929615 Z M-0.000653846154,30.5156538 L-0.000653846154,30.3064231 C-0.000653846154,14.5945 11.1931923,1.66142308 27.2189615,1.66142308 C45.5920385,1.66142308 54.0070385,15.9348846 54.0070385,31.5421923 C54.0070385,32.7714231 53.9089615,34.2098846 53.8043462,35.6483462 L15.5085769,35.6483462 C17.0516538,42.7295 21.9751154,46.4237308 28.9516538,46.4237308 C34.1955,46.4237308 37.9943462,44.7825769 42.3031923,40.7810385 L51.2347308,48.6795 C46.1020385,55.0479615 38.7070385,58.9514231 28.7555,58.9514231 C12.2197308,58.9514231 -0.000653846154,47.3521923 -0.000653846154,30.5156538 L-0.000653846154,30.5156538 Z" id="Fill-3" fill="#DB071A" mask="url(#mask-2)"></path>
                    </g>
                    <g id="Group-8" transform="translate(58.846154, 0.224269)">
                        <mask id="mask-4" fill="white">
                            <use xlink:href="#path-3"></use>
                        </mask>
                        <g id="Clip-7"></g>
                        <polygon id="Fill-6" fill="#4B4A4A" mask="url(#mask-4)" points="3.05084615 64.2266538 3.05084615 6.3155 42.5954615 47.6908846 42.5954615 10.0031923 50.7750769 10.0031923 50.7750769 67.5285769 11.2304615 26.2578077 11.2304615 64.2266538"></polygon>
                    </g>
                    <polygon id="Fill-9" fill="#4B4A4A" points="137.577731 17.9153846 137.577731 64.4496154 129.398115 64.4496154 129.398115 17.9153846 116.929269 17.9153846 116.929269 10.2261538 150.007346 10.2261538 150.007346 17.9153846"></polygon>
                    <polygon id="Fill-11" fill="#4B4A4A" points="165.497615 31.4395385 188.885692 31.4395385 188.885692 10.2287692 197.071846 10.2287692 197.071846 64.4522308 188.885692 64.4522308 188.885692 39.1287692 165.497615 39.1287692 165.497615 64.4522308 157.318 64.4522308 157.318 10.2287692 165.497615 10.2287692"></polygon>
                    <path d="M218.245346,10.2281154 L218.245346,42.8877308 C218.245346,47.5431154 219.003808,50.9561923 220.527269,53.1138846 C222.796115,56.2196538 225.993423,57.7758077 230.112654,57.7758077 C234.258038,57.7758077 237.468423,56.2196538 239.737269,53.1138846 C241.260731,51.0215769 242.019192,47.6215769 242.019192,42.8877308 L242.019192,10.2281154 L250.205346,10.2281154 L250.205346,45.1369615 C250.205346,50.8515769 248.426885,55.5527308 244.863423,59.2535 C240.861885,63.3792692 235.944962,65.4323462 230.112654,65.4323462 C224.286885,65.4323462 219.383038,63.3792692 215.401115,59.2535 C211.844192,55.5527308 210.065731,50.8515769 210.065731,45.1369615 L210.065731,10.2281154 L218.245346,10.2281154 Z" id="Fill-13" fill="#4B4A4A"></path>
                    <path d="M293.856115,18.3050769 L287.219577,22.2412308 C285.977269,20.0835385 284.793808,18.6843077 283.669192,18.0239231 C282.498808,17.2785385 280.988423,16.8993077 279.144577,16.8993077 C276.869192,16.8993077 274.986115,17.5466154 273.488808,18.8346923 C271.9915,20.0966154 271.239577,21.692 271.239577,23.6143077 C271.239577,26.2558462 273.207654,28.3873846 277.137269,29.9958462 L282.551115,32.2123846 C286.9515,33.9908462 290.168423,36.1616154 292.208423,38.7246923 C294.241885,41.2943077 295.261885,44.4327692 295.261885,48.1531538 C295.261885,53.142 293.594577,57.2612308 290.273038,60.5173846 C286.925346,63.7996923 282.773423,65.4343077 277.804192,65.4343077 C273.103038,65.4343077 269.212654,64.0416154 266.146115,61.2562308 C263.125346,58.4708462 261.242269,54.5477692 260.490346,49.4935385 L268.781115,47.6627692 C269.153808,50.8535385 269.814192,53.0439231 270.749192,54.2666154 C272.436115,56.6073846 274.894577,57.7777692 278.124577,57.7777692 C280.674577,57.7777692 282.793038,56.9212308 284.479962,55.2212308 C286.166885,53.5081538 287.010346,51.3373846 287.010346,48.7154615 C287.010346,47.6627692 286.859962,46.7016154 286.572269,45.8189231 C286.278038,44.9427692 285.820346,44.132 285.199192,43.3996923 C284.578038,42.6608462 283.773808,41.9677692 282.793038,41.327 C281.812269,40.6862308 280.641885,40.0650769 279.281885,39.4831538 L274.051115,37.2993077 C266.623423,34.1673846 262.916115,29.5773846 262.916115,23.5358462 C262.916115,19.4623846 264.472269,16.0558462 267.584577,13.3162308 C270.696885,10.557 274.574192,9.17738462 279.209962,9.17738462 C285.460731,9.17738462 290.344962,12.2177692 293.856115,18.3050769" id="Fill-15" fill="#4B4A4A"></path>
                    <mask id="mask-6" fill="white">
                        <use xlink:href="#path-5"></use>
                    </mask>
                    <g id="Clip-18"></g>
                    <polygon id="Fill-17" fill="#4B4A4A" mask="url(#mask-6)" points="305.130385 64.4515769 313.31 64.4515769 313.31 10.2281154 305.130385 10.2281154"></polygon>
                    <path d="M354.857346,43.5906154 L346.815038,25.1586923 L338.386962,43.5906154 L354.857346,43.5906154 Z M358.191962,51.2863846 L334.980423,51.2863846 L328.938885,64.4483077 L320.125038,64.4483077 L346.958885,6.81830769 L372.838115,64.4483077 L363.880423,64.4483077 L358.191962,51.2863846 Z" id="Fill-19" fill="#4B4A4A" mask="url(#mask-6)"></path>
                    <path d="M410.274731,18.3050769 L403.638192,22.2412308 C402.395885,20.0835385 401.212423,18.6843077 400.087808,18.0239231 C398.917423,17.2785385 397.407038,16.8993077 395.563192,16.8993077 C393.287808,16.8993077 391.404731,17.5466154 389.907423,18.8346923 C388.410115,20.0966154 387.658192,21.692 387.658192,23.6143077 C387.658192,26.2558462 389.626269,28.3873846 393.555885,29.9958462 L398.969731,32.2123846 C403.370115,33.9908462 406.587038,36.1616154 408.627038,38.7246923 C410.6605,41.2943077 411.6805,44.4327692 411.6805,48.1531538 C411.6805,53.142 410.013192,57.2612308 406.691654,60.5173846 C403.343962,63.7996923 399.192038,65.4343077 394.222808,65.4343077 C389.521654,65.4343077 385.631269,64.0416154 382.564731,61.2562308 C379.543962,58.4708462 377.660885,54.5477692 376.908962,49.4935385 L385.199731,47.6627692 C385.572423,50.8535385 386.232808,53.0439231 387.167808,54.2666154 C388.854731,56.6073846 391.313192,57.7777692 394.543192,57.7777692 C397.093192,57.7777692 399.211654,56.9212308 400.898577,55.2212308 C402.5855,53.5081538 403.428962,51.3373846 403.428962,48.7154615 C403.428962,47.6627692 403.278577,46.7016154 402.990885,45.8189231 C402.696654,44.9427692 402.238962,44.132 401.617808,43.3996923 C400.996654,42.6608462 400.192423,41.9677692 399.211654,41.327 C398.230885,40.6862308 397.0605,40.0650769 395.7005,39.4831538 L390.469731,37.2993077 C383.042038,34.1673846 379.334731,29.5773846 379.334731,23.5358462 C379.334731,19.4623846 380.890885,16.0558462 384.003192,13.3162308 C387.1155,10.557 390.992808,9.17738462 395.628577,9.17738462 C401.879346,9.17738462 406.763577,12.2177692 410.274731,18.3050769" id="Fill-20" fill="#4B4A4A" mask="url(#mask-6)"></path>
                    <polygon id="Fill-21" fill="#4B4A4A" mask="url(#mask-6)" points="437.526385 17.9153846 437.526385 64.4496154 429.346769 64.4496154 429.346769 17.9153846 416.877923 17.9153846 416.877923 10.2261538 449.956 10.2261538 449.956 17.9153846"></polygon>
                    <polygon id="Fill-22" fill="#4B4A4A" mask="url(#mask-6)" points="457.267308 64.4515769 465.446923 64.4515769 465.446923 10.2281154 457.267308 10.2281154"></polygon>
                    <path d="M509.133654,18.3050769 L502.497115,22.2412308 C501.254808,20.0835385 500.071346,18.6843077 498.946731,18.0239231 C497.776346,17.2785385 496.265962,16.8993077 494.422115,16.8993077 C492.146731,16.8993077 490.263654,17.5466154 488.766346,18.8346923 C487.269038,20.0966154 486.517115,21.692 486.517115,23.6143077 C486.517115,26.2558462 488.485192,28.3873846 492.414808,29.9958462 L497.828654,32.2123846 C502.229038,33.9908462 505.445962,36.1616154 507.485962,38.7246923 C509.519423,41.2943077 510.539423,44.4327692 510.539423,48.1531538 C510.539423,53.142 508.872115,57.2612308 505.550577,60.5173846 C502.202885,63.7996923 498.050962,65.4343077 493.081731,65.4343077 C488.380577,65.4343077 484.490192,64.0416154 481.423654,61.2562308 C478.402885,58.4708462 476.519808,54.5477692 475.767885,49.4935385 L484.058654,47.6627692 C484.431346,50.8535385 485.091731,53.0439231 486.026731,54.2666154 C487.713654,56.6073846 490.172115,57.7777692 493.402115,57.7777692 C495.952115,57.7777692 498.070577,56.9212308 499.7575,55.2212308 C501.444423,53.5081538 502.287885,51.3373846 502.287885,48.7154615 C502.287885,47.6627692 502.1375,46.7016154 501.849808,45.8189231 C501.555577,44.9427692 501.097885,44.132 500.476731,43.3996923 C499.855577,42.6608462 499.051346,41.9677692 498.070577,41.327 C497.089808,40.6862308 495.919423,40.0650769 494.559423,39.4831538 L489.328654,37.2993077 C481.900962,34.1673846 478.193654,29.5773846 478.193654,23.5358462 C478.193654,19.4623846 479.749808,16.0558462 482.862115,13.3162308 C485.974423,10.557 489.851731,9.17738462 494.4875,9.17738462 C500.738269,9.17738462 505.6225,12.2177692 509.133654,18.3050769" id="Fill-23" fill="#4B4A4A" mask="url(#mask-6)"></path>
                    <path d="M560.474308,13.1396923 L560.474308,22.8296923 C555.747,18.8804615 550.849692,16.8993077 545.795462,16.8993077 C540.224692,16.8993077 535.530077,18.9000769 531.718154,22.9081538 C527.873538,26.8900769 525.957769,31.7612308 525.957769,37.5216154 C525.957769,43.2035385 527.873538,48.0027692 531.718154,51.9127692 C535.549692,55.8227692 540.257385,57.7777692 545.834692,57.7777692 C548.711615,57.7777692 551.157,57.3135385 553.170846,56.372 C554.295462,55.9077692 555.459308,55.267 556.662385,54.4758462 C557.872,53.6846923 559.140462,52.7235385 560.474308,51.5989231 L560.474308,61.4654615 C555.792769,64.1135385 550.875846,65.4343077 545.723538,65.4343077 C537.982,65.4343077 531.365077,62.7273846 525.885846,57.3266154 C520.426231,51.867 517.699692,45.2893077 517.699692,37.5804615 C517.699692,30.6823846 519.988154,24.5166154 524.552,19.1158462 C530.168538,12.4858462 537.439308,9.17738462 546.357769,9.17738462 C551.228923,9.17738462 555.936615,10.4981538 560.474308,13.1396923" id="Fill-24" fill="#4B4A4A" mask="url(#mask-6)"></path>
                    <polygon id="Fill-25" fill="#4B4A4A" mask="url(#mask-6)" points="580.491808 31.4395385 603.879885 31.4395385 603.879885 10.2287692 612.066038 10.2287692 612.066038 64.4522308 603.879885 64.4522308 603.879885 39.1287692 580.491808 39.1287692 580.491808 64.4522308 572.312192 64.4522308 572.312192 10.2287692 580.491808 10.2287692"></polygon>
                    <path d="M76.8164615,118.674385 L79.4122308,118.674385 C87.1668462,118.674385 91.0376154,115.712462 91.0376154,109.788615 C91.0376154,104.237462 87.2714615,101.458615 79.7326154,101.458615 L76.8164615,101.458615 L76.8164615,118.674385 Z M87.0033846,124.885923 L103.787615,147.992846 L93.7772308,147.992846 L78.2941538,125.801308 L76.8164615,125.801308 L76.8164615,147.992846 L68.6368462,147.992846 L68.6368462,93.7693846 L78.2222308,93.7693846 C85.3883846,93.7693846 90.5603077,95.1163077 93.7445385,97.8101538 C97.2556923,100.811308 99.0145385,104.767077 99.0145385,109.684 C99.0145385,113.522077 97.9095385,116.824 95.7126154,119.583231 C93.5091538,122.349 90.6060769,124.114385 87.0033846,124.885923 L87.0033846,124.885923 Z" id="Fill-26" fill="#4B4A4A" mask="url(#mask-6)"></path>
                    <path d="M116.2545,120.743154 C116.2545,126.732385 118.268346,131.662385 122.296038,135.533154 C126.297577,139.390846 130.920269,141.319692 136.164115,141.319692 C141.859115,141.319692 146.651808,139.358154 150.568346,135.422 C154.478346,131.446615 156.433346,126.595077 156.433346,120.880462 C156.433346,115.100462 154.497962,110.255462 150.633731,106.345462 C146.795654,102.409308 142.042192,100.447769 136.379885,100.447769 C130.737192,100.447769 125.970654,102.409308 122.086808,106.345462 C118.196423,110.235846 116.2545,115.035077 116.2545,120.743154 M108.002962,120.638538 C108.002962,113.001615 110.801423,106.450077 116.391808,100.977385 C121.969115,95.4981538 128.6645,92.752 136.4845,92.752 C144.206423,92.752 150.836423,95.5177692 156.361423,101.036231 C161.906038,106.567769 164.684885,113.210846 164.684885,120.952385 C164.684885,128.752769 161.892962,135.363154 156.322192,140.790077 C150.725269,146.249692 143.977577,148.976231 136.0595,148.976231 C129.056808,148.976231 122.773346,146.550462 117.202577,141.712 C111.0695,136.350462 108.002962,129.321615 108.002962,120.638538" id="Fill-27" fill="#4B4A4A" mask="url(#mask-6)"></path>
                    <path d="M183.155385,140.307538 L186.843077,140.307538 C190.517692,140.307538 193.571154,139.915231 196.01,139.143692 C198.442308,138.326385 200.645769,137.025231 202.613846,135.253308 C206.635,131.572154 208.648846,126.786 208.648846,120.881769 C208.648846,114.931769 206.661154,110.119462 202.679231,106.412154 C199.096154,103.116769 193.819615,101.462538 186.843077,101.462538 L183.155385,101.462538 L183.155385,140.307538 Z M174.975769,147.996769 L174.975769,93.7733077 L186.352692,93.7733077 C191.805769,93.7733077 196.114615,94.3094615 199.272692,95.3883077 C202.666154,96.441 205.752308,98.226 208.511538,100.756385 C214.108462,105.862923 216.906923,112.571385 216.906923,120.881769 C216.906923,129.224846 213.990769,135.966 208.158462,141.111769 C205.229231,143.694462 202.169231,145.479462 198.958846,146.486385 C195.957692,147.493308 191.714231,147.996769 186.208846,147.996769 L174.975769,147.996769 Z" id="Fill-28" fill="#4B4A4A" mask="url(#mask-6)"></path>
                    <path d="M235.377423,93.772 L235.377423,126.431615 C235.377423,131.087 236.135885,134.500077 237.659346,136.657769 C239.928192,139.763538 243.1255,141.319692 247.244731,141.319692 C251.390115,141.319692 254.6005,139.763538 256.869346,136.657769 C258.392808,134.565462 259.151269,131.165462 259.151269,126.431615 L259.151269,93.772 L267.337423,93.772 L267.337423,128.680846 C267.337423,134.395462 265.558962,139.096615 261.9955,142.797385 C257.993962,146.923154 253.077038,148.976231 247.244731,148.976231 C241.418962,148.976231 236.515115,146.923154 232.533192,142.797385 C228.976269,139.096615 227.197808,134.395462 227.197808,128.680846 L227.197808,93.772 L235.377423,93.772 Z" id="Fill-29" fill="#4B4A4A" mask="url(#mask-6)"></path>
                    <polygon id="Fill-30" fill="#4B4A4A" mask="url(#mask-6)" points="288.511577 115.405154 309.617731 93.7693846 320.536962 93.7693846 296.024269 118.314769 320.680808 147.992846 309.722346 147.992846 290.1985 123.872462 288.511577 125.559385 288.511577 147.992846 280.331962 147.992846 280.331962 93.7693846 288.511577 93.7693846"></polygon>
                    <polygon id="Fill-31" fill="#4B4A4A" mask="url(#mask-6)" points="345.895731 101.459923 345.895731 147.994154 337.716115 147.994154 337.716115 101.459923 325.247269 101.459923 325.247269 93.7706923 358.325346 93.7706923 358.325346 101.459923"></polygon>
                    <polygon id="Fill-32" fill="#4B4A4A" mask="url(#mask-6)" points="365.637308 147.9935 373.816923 147.9935 373.816923 93.7700385 365.637308 93.7700385"></polygon>
                    <polygon id="Fill-33" fill="#4B4A4A" mask="url(#mask-6)" points="389.583115 93.772 404.575808 131.348538 419.784269 93.772 428.741962 93.772 404.405808 152.068923 380.625423 93.772"></polygon>
                </g>
            </g>
        </g>
    </g>
</svg>