<?xml version="1.0" encoding="UTF-8"?>
<svg width="936px" height="242px" viewBox="0 0 936 242" version="1.1" xmlns="http://www.w3.org/2000/svg" xmlns:xlink="http://www.w3.org/1999/xlink">
    <!-- Generator: Sketch 43.2 (39069) - http://www.bohemiancoding.com/sketch -->
    <title>wortpaare/enthusiastisch-produktiv-neg</title>
    <desc>Created with Sketch.</desc>
    <defs>
        <polygon id="path-1" points="0 0.601985043 0 88.4092073 82.5257739 88.4092073 82.5257739 0.601985043 2.03107688e-19 0.601985043"></polygon>
        <polygon id="path-3" points="73.6992663 1.90286325 0.7739737 1.90286325 0.7739737 95.7219038 73.6992663 95.7219038 73.6992663 1.90286325"></polygon>
        <polygon id="path-5" points="0 243.100143 935.270124 243.100143 935.270124 2.24659615 0 2.24659615"></polygon>
    </defs>
    <g id="Page-1" stroke="none" stroke-width="1" fill="none" fill-rule="evenodd">
        <g id="Desktop-Intro-Projekte" transform="translate(-252.000000, -356.000000)">
            <g id="wortpaare/enthusiastisch-produktiv/neg" transform="translate(252.000000, 354.000000)">
                <g id="Page-1">
                    <path d="M68.8778839,176.778733 L68.8778839,176.468071 C68.8778839,162.648605 59.5761374,153.479053 48.5958803,153.479053 C37.595641,153.479053 28.4637438,162.648605 28.4637438,176.468071 L28.4637438,176.778733 C28.4637438,190.60822 37.595641,199.76775 48.5958803,199.76775 C59.5761374,199.76775 68.8778839,190.758541 68.8778839,176.778733 Z M5.22436436,134.999652 L28.773469,134.999652 L28.773469,146.955143 C34.4983892,139.198605 42.3913856,133.44634 54.6305257,133.44634 C73.9833537,133.44634 92.4070062,148.668797 92.4070062,176.468071 L92.4070062,176.778733 C92.4070062,204.578006 74.2930789,219.800464 54.6305257,219.800464 C42.0816605,219.800464 34.338531,214.05822 28.773469,207.373968 L28.773469,243.100143 L5.22436436,243.100143 L5.22436436,134.999652 Z" id="Fill-1" fill="#FFFFFF"></path>
                    <g id="Group-5" transform="translate(0.000000, 4.531767)">
                        <mask id="mask-2" fill="white">
                            <use xlink:href="#path-1"></use>
                        </mask>
                        <g id="Clip-4"></g>
                        <path d="M59.3063768,37.7411731 C57.8976268,27.0383526 51.6231941,19.8029252 41.5920949,19.8029252 C31.7008715,19.8029252 25.2665807,26.8780107 23.3882473,37.7411731 L59.3063768,37.7411731 Z M-0.000999113475,44.8262799 L-0.000999113475,44.5055962 C-0.000999113475,20.42425 17.1038236,0.601985043 41.5920949,0.601985043 C69.6671835,0.601985043 82.5257739,22.4786303 82.5257739,46.3996346 C82.5257739,48.2836517 82.3759069,50.4883526 82.2160488,52.6930534 L23.6979725,52.6930534 C26.0558803,63.5461944 33.5792048,69.2082671 44.2397456,69.2082671 C52.2526356,69.2082671 58.0574849,66.6929038 64.6416427,60.5598269 L78.2895328,72.6656389 C70.446492,82.4264509 59.1465186,88.4092073 43.9400115,88.4092073 C18.6724317,88.4092073 -0.000999113475,70.6313013 -0.000999113475,44.8262799 L-0.000999113475,44.8262799 Z" id="Fill-3" fill="#FFFFFF" mask="url(#mask-2)"></path>
                    </g>
                    <g id="Group-8" transform="translate(93.809102, 0.343733)">
                        <mask id="mask-4" fill="white">
                            <use xlink:href="#path-3"></use>
                        </mask>
                        <g id="Clip-7"></g>
                        <polygon id="Fill-6" fill="#FFFFFF" mask="url(#mask-4)" points="0.7739737 90.6611132 0.7739737 1.90186111 61.2003567 65.3170748 61.2003567 7.55391239 73.6992663 7.55391239 73.6992663 95.7219038 13.2728833 32.4670321 13.2728833 90.6611132"></polygon>
                    </g>
                    <polygon id="Fill-9" fill="#FFFFFF" points="210.227463 19.6807692 210.227463 91.0028419 197.728553 91.0028419 197.728553 19.6807692 178.675459 19.6807692 178.675459 7.89564103 229.22061 7.89564103 229.22061 19.6807692"></polygon>
                    <polygon id="Fill-11" fill="#FFFFFF" points="252.889608 40.4089658 288.627897 40.4089658 288.627897 7.89964957 301.136798 7.89964957 301.136798 91.0068504 288.627897 91.0068504 288.627897 52.194094 252.889608 52.194094 252.889608 91.0068504 240.390699 91.0068504 240.390699 7.89964957 252.889608 7.89964957"></polygon>
                    <path d="M333.492089,7.89864744 L333.492089,57.9553782 C333.492089,65.0905919 334.65106,70.3217457 336.978995,73.628797 C340.445918,78.3889466 345.331583,80.7740321 351.625998,80.7740321 C357.960378,80.7740321 362.866025,78.3889466 366.332949,73.628797 C368.660883,70.4219594 369.819855,65.2108483 369.819855,57.9553782 L369.819855,7.89864744 L382.328755,7.89864744 L382.328755,61.4027286 C382.328755,70.1614038 379.611167,77.3667671 374.165998,83.0388611 C368.051424,89.362344 360.53809,92.5090534 351.625998,92.5090534 C342.723897,92.5090534 335.230546,89.362344 329.145945,83.0388611 C323.710768,77.3667671 320.993179,70.1614038 320.993179,61.4027286 L320.993179,7.89864744 L333.492089,7.89864744 Z" id="Fill-13" fill="#FFFFFF"></path>
                    <path d="M449.028572,20.2780427 L438.88757,26.310906 C436.989254,23.0038547 435.180859,20.8592821 433.462384,19.8471239 C431.673971,18.704688 429.366019,18.1234487 426.548519,18.1234487 C423.071604,18.1234487 420.194157,19.1155641 417.906187,21.0897735 C415.618217,23.0238974 414.469237,25.4691111 414.469237,28.4153932 C414.469237,32.4640256 417.476568,35.7309915 423.48124,38.1962479 L431.7539,41.5934915 C438.477934,44.3193034 443.393572,47.6463974 446.510806,51.5747735 C449.618049,55.5131709 451.176666,60.3234274 451.176666,66.0255855 C451.176666,73.6718889 448.628926,79.9853504 443.55343,84.9759915 C438.437969,90.0067179 432.093598,92.5120598 424.500336,92.5120598 C417.31671,92.5120598 411.371985,90.3775085 406.686143,86.108406 C402.070238,81.8393034 399.192792,75.8264829 398.043811,68.0799658 L410.71257,65.2739829 C411.282065,70.1644103 412.291169,73.5215684 413.719902,75.3955641 C416.297614,78.9832137 420.054281,80.7770385 424.989902,80.7770385 C428.886444,80.7770385 432.123572,79.4642393 434.701285,76.8586838 C437.278997,74.2330855 438.567854,70.9059915 438.567854,66.8874231 C438.567854,65.2739829 438.338058,63.8008419 437.898448,62.4479573 C437.448847,61.105094 436.749467,59.8624444 435.800309,58.7400513 C434.851152,57.6076368 433.622242,56.5453718 432.123572,55.5632778 C430.624902,54.5811838 428.836488,53.6291538 426.758332,52.7372521 L418.765425,49.3901154 C407.415496,44.5898803 401.750522,37.5548803 401.750522,28.2951368 C401.750522,22.0518248 404.128412,16.8306923 408.884192,12.6317393 C413.639973,8.40272222 419.564715,6.28821368 426.64843,6.28821368 C436.199955,6.28821368 443.663332,10.9481496 449.028572,20.2780427" id="Fill-15" fill="#FFFFFF"></path>
                    <mask id="mask-6" fill="white">
                        <use xlink:href="#path-5"></use>
                    </mask>
                    <g id="Clip-18"></g>
                    <polygon id="Fill-17" fill="#FFFFFF" mask="url(#mask-6)" points="466.256285 91.0058483 478.755195 91.0058483 478.755195 7.89864744 466.256285 7.89864744"></polygon>
                    <path d="M542.241863,59.0326752 L529.952767,30.7824402 L517.074194,59.0326752 L542.241863,59.0326752 Z M547.337341,70.8278248 L511.868813,70.8278248 L502.637004,91.0008376 L489.168955,91.0008376 L530.172572,2.67250427 L569.717483,91.0008376 L556.029629,91.0008376 L547.337341,70.8278248 Z" id="Fill-19" fill="#FFFFFF" mask="url(#mask-6)"></path>
                    <path d="M626.922724,20.2780427 L616.781723,26.310906 C614.883407,23.0038547 613.075012,20.8592821 611.356536,19.8471239 C609.568123,18.704688 607.260171,18.1234487 604.442671,18.1234487 C600.965756,18.1234487 598.088309,19.1155641 595.80034,21.0897735 C593.51237,23.0238974 592.363389,25.4691111 592.363389,28.4153932 C592.363389,32.4640256 595.370721,35.7309915 601.375393,38.1962479 L609.648052,41.5934915 C616.372086,44.3193034 621.287724,47.6463974 624.404958,51.5747735 C627.512201,55.5131709 629.070818,60.3234274 629.070818,66.0255855 C629.070818,73.6718889 626.523079,79.9853504 621.447582,84.9759915 C616.332121,90.0067179 609.987751,92.5120598 602.394488,92.5120598 C595.210863,92.5120598 589.266137,90.3775085 584.580295,86.108406 C579.964391,81.8393034 577.086944,75.8264829 575.937964,68.0799658 L588.606723,65.2739829 C589.176217,70.1644103 590.185322,73.5215684 591.614054,75.3955641 C594.191767,78.9832137 597.948434,80.7770385 602.884054,80.7770385 C606.780597,80.7770385 610.017724,79.4642393 612.595437,76.8586838 C615.17315,74.2330855 616.462006,70.9059915 616.462006,66.8874231 C616.462006,65.2739829 616.23221,63.8008419 615.7926,62.4479573 C615.342999,61.105094 614.64362,59.8624444 613.694462,58.7400513 C612.745304,57.6076368 611.516395,56.5453718 610.017724,55.5632778 C608.519054,54.5811838 606.730641,53.6291538 604.652485,52.7372521 L596.659577,49.3901154 C585.309648,44.5898803 579.644675,37.5548803 579.644675,28.2951368 C579.644675,22.0518248 582.022565,16.8306923 586.778345,12.6317393 C591.534125,8.40272222 597.458868,6.28821368 604.542582,6.28821368 C614.094107,6.28821368 621.557485,10.9481496 626.922724,20.2780427" id="Fill-20" fill="#FFFFFF" mask="url(#mask-6)"></path>
                    <polygon id="Fill-21" fill="#FFFFFF" mask="url(#mask-6)" points="668.565774 19.6807692 668.565774 91.0028419 656.066864 91.0028419 656.066864 19.6807692 637.01377 19.6807692 637.01377 7.89564103 687.558921 7.89564103 687.558921 19.6807692"></polygon>
                    <polygon id="Fill-22" fill="#FFFFFF" mask="url(#mask-6)" points="698.730009 91.0058483 711.228918 91.0058483 711.228918 7.89864744 698.730009 7.89864744"></polygon>
                    <path d="M777.984685,20.2780427 L767.843684,26.310906 C765.945368,23.0038547 764.136973,20.8592821 762.418497,19.8471239 C760.630084,18.704688 758.322132,18.1234487 755.504632,18.1234487 C752.027717,18.1234487 749.15027,19.1155641 746.862301,21.0897735 C744.574331,23.0238974 743.42535,25.4691111 743.42535,28.4153932 C743.42535,32.4640256 746.432682,35.7309915 752.437354,38.1962479 L760.710013,41.5934915 C767.434047,44.3193034 772.349685,47.6463974 775.466919,51.5747735 C778.574162,55.5131709 780.132779,60.3234274 780.132779,66.0255855 C780.132779,73.6718889 777.58504,79.9853504 772.509543,84.9759915 C767.394082,90.0067179 761.049712,92.5120598 753.456449,92.5120598 C746.272824,92.5120598 740.328098,90.3775085 735.642256,86.108406 C731.026352,81.8393034 728.148905,75.8264829 726.999925,68.0799658 L739.668684,65.2739829 C740.238178,70.1644103 741.247283,73.5215684 742.676015,75.3955641 C745.253728,78.9832137 749.010395,80.7770385 753.946015,80.7770385 C757.842558,80.7770385 761.079685,79.4642393 763.657398,76.8586838 C766.235111,74.2330855 767.523967,70.9059915 767.523967,66.8874231 C767.523967,65.2739829 767.294171,63.8008419 766.854561,62.4479573 C766.40496,61.105094 765.705581,59.8624444 764.756423,58.7400513 C763.807265,57.6076368 762.578355,56.5453718 761.079685,55.5632778 C759.581015,54.5811838 757.792602,53.6291538 755.714446,52.7372521 L747.721538,49.3901154 C736.371609,44.5898803 730.706636,37.5548803 730.706636,28.2951368 C730.706636,22.0518248 733.084526,16.8306923 737.840306,12.6317393 C742.596086,8.40272222 748.520829,6.28821368 755.604543,6.28821368 C765.156068,6.28821368 772.619446,10.9481496 777.984685,20.2780427" id="Fill-23" fill="#FFFFFF" mask="url(#mask-6)"></path>
                    <path d="M856.44107,12.3611624 L856.44107,27.2128291 C849.21748,21.1599231 841.73412,18.1234487 834.010973,18.1234487 C825.498526,18.1234487 818.324891,21.1899872 812.490068,27.3330855 C806.625272,33.4360983 803.687879,40.9020171 803.687879,49.7308419 C803.687879,58.4394103 806.625272,65.795094 812.490068,71.7878718 C818.354864,77.7806496 825.548481,80.7770385 834.060928,80.7770385 C838.467019,80.7770385 842.203703,80.0655214 845.280973,78.6224444 C846.999448,77.9109274 848.77787,76.9288333 850.616238,75.7162479 C852.464598,74.5036624 854.402879,73.0305214 856.44107,71.3068462 L856.44107,86.4290897 C849.287418,90.4877436 841.774084,92.5120598 833.90107,92.5120598 C822.061575,92.5120598 811.950547,88.3632137 803.577976,80.0855641 C795.24537,71.7177222 791.079066,61.6362265 791.079066,49.8210342 C791.079066,39.2484915 794.565973,29.7983419 801.539785,21.5206923 C810.13216,11.3590256 821.242302,6.28821368 834.87021,6.28821368 C842.303614,6.28821368 849.497231,8.31252991 856.44107,12.3611624" id="Fill-24" fill="#FFFFFF" mask="url(#mask-6)"></path>
                    <polygon id="Fill-25" fill="#FFFFFF" mask="url(#mask-6)" points="887.028929 40.4089658 922.767218 40.4089658 922.767218 7.89964957 935.276119 7.89964957 935.276119 91.0068504 922.767218 91.0068504 922.767218 52.194094 887.028929 52.194094 887.028929 91.0068504 874.53002 91.0068504 874.53002 7.89964957 887.028929 7.89964957"></polygon>
                    <path d="M117.379848,174.112047 L121.346328,174.112047 C133.195814,174.112047 139.110566,169.572368 139.110566,160.493009 C139.110566,151.984868 133.355672,147.725786 121.835894,147.725786 L117.379848,147.725786 L117.379848,174.112047 Z M132.946035,183.632346 L158.593278,219.047859 L143.296851,219.047859 L119.637844,185.035338 L117.379848,185.035338 L117.379848,219.047859 L104.880938,219.047859 L104.880938,135.940658 L119.527941,135.940658 C130.478225,135.940658 138.381213,138.00506 143.246895,142.133863 C148.612135,146.733671 151.29975,152.796598 151.29975,160.332667 C151.29975,166.215209 149.611248,171.276 146.254227,175.505017 C142.887215,179.744056 138.451151,182.449825 132.946035,183.632346 L132.946035,183.632346 Z" id="Fill-26" fill="#FFFFFF" mask="url(#mask-6)"></path>
                    <path d="M177.643375,177.282808 C177.643375,186.46238 180.720645,194.018491 186.875184,199.951141 C192.989758,205.863748 200.05349,208.820051 208.06638,208.820051 C216.768659,208.820051 224.09216,205.813641 230.07685,199.780778 C236.051549,193.687786 239.038898,186.251932 239.038898,177.493256 C239.038898,168.634368 236.081522,161.208534 230.176762,155.215756 C224.311965,149.182893 217.04841,146.176483 208.396088,146.176483 C199.773738,146.176483 192.490201,149.182893 186.555467,155.215756 C180.610742,161.17847 177.643375,168.534154 177.643375,177.282808 M165.034563,177.122466 C165.034563,165.417509 169.310769,155.376098 177.853189,146.988214 C186.375627,138.590308 196.606549,134.381333 208.555946,134.381333 C220.355476,134.381333 230.486487,138.620372 238.928996,147.078406 C247.401478,155.556483 251.64771,165.738192 251.64771,177.603491 C251.64771,189.558983 247.381496,199.690585 238.869049,208.008321 C230.316637,216.376162 220.005786,220.555073 207.906522,220.555073 C197.206017,220.555073 187.604536,216.837145 179.09209,209.421333 C169.720405,201.203812 165.034563,190.430842 165.034563,177.122466" id="Fill-27" fill="#FFFFFF" mask="url(#mask-6)"></path>
                    <path d="M279.872666,207.268744 L285.507666,207.268744 C291.122684,207.268744 295.788543,206.667462 299.515237,205.48494 C303.231939,204.232269 306.598951,202.238017 309.606283,199.522226 C315.750831,193.880197 318.8281,186.544556 318.8281,177.495261 C318.8281,168.375816 315.790795,161.00009 309.706194,155.317974 C304.231052,150.267205 296.168207,147.731799 285.507666,147.731799 L279.872666,147.731799 L279.872666,207.268744 Z M267.373756,219.053872 L267.373756,135.946671 L284.758331,135.946671 C293.090937,135.946671 299.675095,136.768423 304.500813,138.421949 C309.686212,140.035389 314.402027,142.771222 318.618286,146.649491 C327.170698,154.476179 331.446903,164.758103 331.446903,177.495261 C331.446903,190.282526 326.990857,200.614556 318.078765,208.501372 C313.602737,212.459812 308.926886,215.195645 304.021238,216.738936 C299.435308,218.282226 292.951061,219.053872 284.538526,219.053872 L267.373756,219.053872 Z" id="Fill-28" fill="#FFFFFF" mask="url(#mask-6)"></path>
                    <path d="M359.669861,135.944667 L359.669861,186.001397 C359.669861,193.136611 360.828832,198.367765 363.156767,201.674816 C366.623691,206.434966 371.509355,208.820051 377.80377,208.820051 C384.13815,208.820051 389.043797,206.434966 392.510721,201.674816 C394.838655,198.467979 395.997627,193.256868 395.997627,186.001397 L395.997627,135.944667 L408.506527,135.944667 L408.506527,189.448748 C408.506527,198.207423 405.788939,205.412786 400.34377,211.08488 C394.229196,217.408363 386.715863,220.555073 377.80377,220.555073 C368.901669,220.555073 361.408318,217.408363 355.323717,211.08488 C349.88854,205.412786 347.170951,198.207423 347.170951,189.448748 L347.170951,135.944667 L359.669861,135.944667 Z" id="Fill-29" fill="#FFFFFF" mask="url(#mask-6)"></path>
                    <polygon id="Fill-30" fill="#FFFFFF" mask="url(#mask-6)" points="440.862817 169.101363 473.1142 135.940658 489.799395 135.940658 452.342631 173.560872 490.0192 219.047859 473.274059 219.047859 443.44053 182.079034 440.862817 184.664547 440.862817 219.047859 428.363908 219.047859 428.363908 135.940658 440.862817 135.940658"></polygon>
                    <polygon id="Fill-31" fill="#FFFFFF" mask="url(#mask-6)" points="528.548013 147.727791 528.548013 219.049863 516.049104 219.049863 516.049104 147.727791 496.99601 147.727791 496.99601 135.942662 547.54116 135.942662 547.54116 147.727791"></polygon>
                    <polygon id="Fill-32" fill="#FFFFFF" mask="url(#mask-6)" points="558.714246 219.048861 571.213156 219.048861 571.213156 135.94166 558.714246 135.94166"></polygon>
                    <polygon id="Fill-33" fill="#FFFFFF" mask="url(#mask-6)" points="595.305778 135.944667 618.21545 193.537466 641.45483 135.944667 655.142684 135.944667 617.955681 225.295179 581.617924 135.944667"></polygon>
                </g>
            </g>
        </g>
    </g>
</svg>