<?xml version="1.0" encoding="UTF-8"?>
<svg width="572px" height="164px" viewBox="0 0 572 164" version="1.1" xmlns="http://www.w3.org/2000/svg" xmlns:xlink="http://www.w3.org/1999/xlink">
    <!-- Generator: Sketch 44 (41411) - http://www.bohemiancoding.com/sketch -->
    <title>wortpaare/ereignisreich-populaer-pos</title>
    <desc>Created with Sketch.</desc>
    <defs></defs>
    <g id="Page-1" stroke="none" stroke-width="1" fill="none" fill-rule="evenodd">
        <g id="Wortpaare" transform="translate(-1162.000000, -218.000000)">
            <g id="wortpaare/ereignisreich-populaer/pos" transform="translate(1156.000000, 212.000000)">
                <g id="Group">
                    <path d="M53.62548,124.80312 L53.62548,124.59912 C53.62548,115.21512 47.30148,108.99992 39.82148,108.99992 C32.33468,108.99992 26.11948,115.21512 26.11948,124.59912 L26.11948,124.80312 C26.11948,134.18712 32.33468,140.40232 39.82148,140.40232 C47.30148,140.40232 53.62548,134.29592 53.62548,124.80312 L53.62548,124.80312 Z M10.30268,96.45392 L26.33028,96.45392 L26.33028,104.56632 C30.22668,99.30312 35.60548,95.40672 43.92868,95.40672 C57.10028,95.40672 69.63948,105.72912 69.63948,124.59912 L69.63948,124.80312 C69.63948,143.66632 57.31108,154.00232 43.92868,154.00232 C35.38788,154.00232 30.11788,150.09912 26.33028,145.57032 L26.33028,169.80552 L10.30268,169.80552 L10.30268,96.45392 Z" id="Fill-169" fill="#DB071A"></path>
                    <path d="M47.11108,33.5342 C46.15228,26.2786 41.88188,21.3622 35.05468,21.3622 C28.32268,21.3622 23.94348,26.1698 22.66508,33.5342 L47.11108,33.5342 Z M6.74628,38.3418 L6.74628,38.1242 C6.74628,21.7838 18.38788,8.3402 35.05468,8.3402 C54.16268,8.3402 62.91428,23.1778 62.91428,39.4094 C62.91428,40.6946 62.81228,42.1838 62.70348,43.6798 L22.87588,43.6798 C24.48068,51.051 29.60108,54.893 36.86348,54.893 C42.31028,54.893 46.26108,53.1862 50.74228,49.0178 L60.03108,57.239 C54.69988,63.8622 47.00908,67.9218 36.65268,67.9218 C19.45548,67.9218 6.74628,55.8518 6.74628,38.3418 L6.74628,38.3418 Z" id="Fill-170" fill="#DB071A"></path>
                    <path d="M79.63004,36.11072 L82.32964,36.11072 C90.39444,36.11072 94.42004,33.03032 94.42004,26.86952 C94.42004,21.09632 90.50324,18.21312 82.66284,18.21312 L79.63004,18.21312 L79.63004,36.11072 Z M90.22444,42.57072 L107.68004,66.60192 L97.26924,66.60192 L81.16684,43.52272 L79.63004,43.52272 L79.63004,66.60192 L71.12324,66.60192 L71.12324,10.20952 L81.09204,10.20952 C88.54484,10.20952 93.92364,11.61032 97.23524,14.41872 C100.88684,17.53312 102.71604,21.64712 102.71604,26.76072 C102.71604,30.75232 101.56684,34.18632 99.28204,37.06272 C96.99044,39.93232 93.97124,41.76832 90.22444,42.57072 L90.22444,42.57072 Z" id="Fill-171" fill="#4B4A4A"></path>
                    <polygon id="Fill-172" fill="#4B4A4A" points="147.27168 18.21448 124.66168 18.21448 124.66168 31.76008 146.61208 31.76008 146.61208 39.76368 124.66168 39.76368 124.66168 58.60648 147.27168 58.60648 147.27168 66.60328 116.15488 66.60328 116.15488 10.21088 147.27168 10.21088"></polygon>
                    <polygon id="Fill-173" fill="#4B4A4A" points="158.4536 66.606 166.9604 66.606 166.9604 10.2136 158.4536 10.2136"></polygon>
                    <path d="M209.50732,37.23952 L232.81092,37.23952 L232.81092,39.10272 C232.81092,43.33912 232.31452,47.08592 231.31492,50.35672 C230.33572,53.36912 228.69692,56.19792 226.37812,58.82952 C221.14212,64.71832 214.48492,67.66952 206.39972,67.66952 C198.51172,67.66952 191.75932,64.82032 186.12892,59.12192 C180.50532,53.39632 177.69692,46.52832 177.69692,38.51792 C177.69692,30.33752 180.55972,23.40152 186.27852,17.70312 C191.99732,11.97752 198.96732,9.11472 207.16812,9.11472 C211.57452,9.11472 215.69532,10.01912 219.51692,11.82112 C223.16852,13.62312 226.75892,16.54712 230.28812,20.58632 L224.22932,26.39352 C219.59852,20.23272 213.96132,17.15232 207.31772,17.15232 C201.34732,17.15232 196.34252,19.21272 192.30332,23.32672 C188.26412,27.36592 186.24452,32.43192 186.24452,38.51792 C186.24452,44.80112 188.49532,49.97592 192.99692,54.04232 C197.21292,57.81632 201.77572,59.70672 206.69212,59.70672 C210.88092,59.70672 214.64132,58.29232 217.98012,55.47032 C221.31892,52.62112 223.18212,49.20752 223.56972,45.24312 L209.50732,45.24312 L209.50732,37.23952 Z" id="Fill-174" fill="#4B4A4A"></path>
                    <polygon id="Fill-175" fill="#4B4A4A" points="243.51072 66.60464 243.51072 6.38384 284.63712 49.40744 284.63712 10.21224 293.14392 10.21224 293.14392 70.03864 252.01752 27.12384 252.01752 66.60464"></polygon>
                    <polygon id="Fill-176" fill="#4B4A4A" points="306.6596 66.606 315.1664 66.606 315.1664 10.2136 306.6596 10.2136"></polygon>
                    <path d="M360.60468,18.61228 L353.70268,22.70588 C352.41068,20.46188 351.17988,19.00668 350.01028,18.31988 C348.79308,17.54468 347.22228,17.15028 345.30468,17.15028 C342.93828,17.15028 340.97988,17.82348 339.42268,19.16308 C337.86548,20.47548 337.08348,22.13468 337.08348,24.13388 C337.08348,26.88108 339.13028,29.09788 343.21708,30.77748 L348.84748,33.07588 C353.42388,34.92548 356.76948,37.18308 358.89108,39.84868 C361.00588,42.52108 362.06668,45.78508 362.06668,49.65428 C362.06668,54.84268 360.33268,59.13348 356.87828,62.51308 C353.39668,65.92668 349.07868,67.62668 343.91068,67.62668 C339.02148,67.62668 334.97548,66.17828 331.78628,63.28148 C328.64468,60.38468 326.68628,56.30468 325.90428,51.04828 L334.52668,49.14428 C334.91428,52.46268 335.60108,54.74748 336.57348,56.01228 C338.32788,58.44668 340.88468,59.66388 344.24388,59.66388 C346.89588,59.66388 349.09908,58.77308 350.85348,57.00508 C352.60788,55.22348 353.48508,52.97268 353.48508,50.23908 C353.48508,49.14428 353.32868,48.14468 353.02948,47.22668 C352.72348,46.31548 352.24748,45.47228 351.60148,44.71068 C350.95548,43.94228 350.11908,43.22148 349.09908,42.55508 C348.07908,41.88868 346.86188,41.24268 345.44748,40.63748 L340.00748,38.37308 C332.28268,35.10908 328.42708,30.34228 328.42708,24.05908 C328.42708,19.82268 330.04548,16.27308 333.28228,13.42388 C336.51908,10.55428 340.55148,9.11948 345.37268,9.11948 C351.87348,9.11948 356.95308,12.28148 360.60468,18.61228" id="Fill-177" fill="#4B4A4A"></path>
                    <path d="M380.83876,36.11072 L383.53836,36.11072 C391.60316,36.11072 395.62876,33.03032 395.62876,26.86952 C395.62876,21.09632 391.71196,18.21312 383.87156,18.21312 L380.83876,18.21312 L380.83876,36.11072 Z M391.43316,42.57072 L408.88876,66.60192 L398.47796,66.60192 L382.37556,43.52272 L380.83876,43.52272 L380.83876,66.60192 L372.33196,66.60192 L372.33196,10.20952 L382.30076,10.20952 C389.75356,10.20952 395.13236,11.61032 398.44396,14.41872 C402.09556,17.53312 403.92476,21.64712 403.92476,26.76072 C403.92476,30.75232 402.77556,34.18632 400.49076,37.06272 C398.19916,39.93232 395.17996,41.76832 391.43316,42.57072 L391.43316,42.57072 Z" id="Fill-178" fill="#4B4A4A"></path>
                    <polygon id="Fill-179" fill="#4B4A4A" points="448.4804 18.21448 425.8704 18.21448 425.8704 31.76008 447.8208 31.76008 447.8208 39.76368 425.8704 39.76368 425.8704 58.60648 448.4804 58.60648 448.4804 66.60328 417.3636 66.60328 417.3636 10.21088 448.4804 10.21088"></polygon>
                    <polygon id="Fill-180" fill="#4B4A4A" points="459.6596 66.606 468.1664 66.606 468.1664 10.2136 459.6596 10.2136"></polygon>
                    <path d="M523.38988,13.24708 L523.38988,23.32468 C518.47348,19.21068 513.38028,17.15028 508.12388,17.15028 C502.33028,17.15028 497.44788,19.23788 493.47668,23.39948 C489.48508,27.54068 487.48588,32.60668 487.48588,38.59748 C487.48588,44.51348 489.48508,49.49788 493.47668,53.57108 C497.46828,57.63068 502.36428,59.66388 508.15788,59.66388 C511.15668,59.66388 513.69988,59.18108 515.79428,58.20188 C516.96388,57.71908 518.17428,57.05948 519.42548,56.22988 C520.68348,55.40708 522.00268,54.40748 523.38988,53.23788 L523.38988,63.50588 C518.52108,66.25308 513.40748,67.62668 508.04908,67.62668 C499.99108,67.62668 493.10948,64.81828 487.41108,59.19468 C481.73988,53.51668 478.90428,46.67588 478.90428,38.66548 C478.90428,31.48468 481.27748,25.07908 486.02388,19.45548 C491.87188,12.56028 499.43348,9.11948 508.70868,9.11948 C513.76788,9.11948 518.66388,10.49308 523.38988,13.24708" id="Fill-181" fill="#4B4A4A"></path>
                    <polygon id="Fill-182" fill="#4B4A4A" points="544.20808 32.27212 568.53168 32.27212 568.53168 10.21292 577.04528 10.21292 577.04528 66.60532 568.53168 66.60532 568.53168 40.27572 544.20808 40.27572 544.20808 66.60532 535.70128 66.60532 535.70128 10.21292 544.20808 10.21292"></polygon>
                    <path d="M83.89636,125.14788 C83.89636,131.38348 85.99076,136.51068 90.17956,140.52948 C94.34116,144.54828 99.14876,146.54748 104.60236,146.54748 C110.52516,146.54748 115.50956,144.50748 119.58276,140.41388 C123.64916,136.27948 125.68236,131.24068 125.68236,125.29068 C125.68236,119.28628 123.66956,114.24068 119.65076,110.17428 C115.65916,106.08068 110.71556,104.04068 104.82676,104.04068 C98.95836,104.04068 94.00116,106.08068 89.96196,110.17428 C85.91596,114.22028 83.89636,119.21148 83.89636,125.14788 M75.31476,125.03908 C75.31476,117.09668 78.22516,110.28308 84.03916,104.59148 C89.83956,98.89308 96.80276,96.04388 104.93556,96.04388 C112.96636,96.04388 119.86156,98.91348 125.60756,104.65948 C131.37396,110.40548 134.26396,117.31428 134.26396,125.36548 C134.26396,133.47788 131.36036,140.35268 125.56676,146.00348 C119.74596,151.67468 112.72836,154.51028 104.49356,154.51028 C97.21076,154.51028 90.67596,151.99428 84.88236,146.95548 C78.50396,141.37948 75.31476,134.06948 75.31476,125.03908" id="Fill-183" fill="#4B4A4A"></path>
                    <path d="M153.47396,122.70464 L156.64956,122.70464 C164.46956,122.70464 168.37276,119.69904 168.37276,113.68104 C168.37276,107.86024 164.34716,104.95664 156.28916,104.95664 L153.47396,104.95664 L153.47396,122.70464 Z M153.47396,130.59264 L153.47396,153.48824 L144.96716,153.48824 L144.96716,97.09584 L154.60956,97.09584 C159.32876,97.09584 162.89876,97.42904 165.30596,98.08864 C167.74036,98.74824 169.88916,99.98584 171.73876,101.81504 C174.97556,104.97704 176.59396,108.96864 176.59396,113.78984 C176.59396,118.95104 174.86676,123.04464 171.40556,126.06384 C167.95116,129.07624 163.28636,130.59264 157.41796,130.59264 L153.47396,130.59264 Z" id="Fill-184" fill="#4B4A4A"></path>
                    <path d="M193.86868,97.09788 L193.86868,131.06388 C193.86868,135.91228 194.65748,139.45508 196.24188,141.69908 C198.60148,144.92908 201.92668,146.54748 206.21068,146.54748 C210.52188,146.54748 213.86068,144.92908 216.22028,141.69908 C217.80468,139.52308 218.59348,135.98708 218.59348,131.06388 L218.59348,97.09788 L227.10708,97.09788 L227.10708,133.40308 C227.10708,139.34628 225.25748,144.24228 221.55148,148.08428 C217.38988,152.37508 212.27628,154.51028 206.21068,154.51028 C200.15188,154.51028 195.05188,152.37508 190.91068,148.08428 C187.21148,144.24228 185.36188,139.34628 185.36188,133.40308 L185.36188,97.09788 L193.86868,97.09788 Z" id="Fill-185" fill="#4B4A4A"></path>
                    <polygon id="Fill-186" fill="#4B4A4A" points="249.12888 97.09788 249.12888 145.49348 265.70728 145.49348 265.70728 153.49028 240.62208 153.49028 240.62208 97.09788"></polygon>
                    <path d="M301.39368,86.14104 C301.39368,84.73344 301.90368,83.50944 302.93048,82.48944 C303.95048,81.46944 305.18128,80.95264 306.61608,80.95264 C308.05088,80.95264 309.28168,81.46944 310.30848,82.48944 C311.32848,83.50944 311.83848,84.75384 311.83848,86.21584 C311.83848,87.65744 311.32848,88.88144 310.30848,89.90824 C309.28168,90.92824 308.05088,91.43824 306.61608,91.43824 C305.15408,91.43824 303.91648,90.92824 302.88968,89.90824 C301.89008,88.83384 301.39368,87.58264 301.39368,86.14104 L301.39368,86.14104 Z M306.58208,131.79624 L298.21808,112.62704 L289.45288,131.79624 L306.58208,131.79624 Z M284.99208,86.14104 C284.99208,84.73344 285.50888,83.50944 286.52888,82.48944 C287.54888,81.46944 288.77288,80.95264 290.18048,80.95264 C291.64248,80.95264 292.87328,81.46944 293.87288,82.48944 C294.89288,83.50944 295.40288,84.75384 295.40288,86.21584 C295.40288,87.65744 294.89288,88.88144 293.87288,89.90824 C292.87328,90.92824 291.65608,91.43824 290.21448,91.43824 C288.75928,91.43824 287.51488,90.92824 286.49488,89.90824 C285.49528,88.83384 284.99208,87.58264 284.99208,86.14104 L284.99208,86.14104 Z M310.05008,139.79984 L285.91008,139.79984 L279.62688,153.48824 L270.46048,153.48824 L298.36088,93.55984 L325.28208,153.48824 L315.96608,153.48824 L310.05008,139.79984 Z" id="Fill-187" fill="#4B4A4A"></path>
                    <path d="M340.83912,122.99636 L343.53872,122.99636 C351.60352,122.99636 355.62912,119.91596 355.62912,113.75516 C355.62912,107.98196 351.71232,105.09876 343.87192,105.09876 L340.83912,105.09876 L340.83912,122.99636 Z M351.43352,129.45636 L368.88912,153.48756 L358.47832,153.48756 L342.37592,130.40836 L340.83912,130.40836 L340.83912,153.48756 L332.33232,153.48756 L332.33232,97.09516 L342.30112,97.09516 C349.75392,97.09516 355.13272,98.49596 358.44432,101.30436 C362.09592,104.41876 363.92512,108.53276 363.92512,113.64636 C363.92512,117.63796 362.77592,121.07196 360.49112,123.94836 C358.19952,126.81796 355.18032,128.65396 351.43352,129.45636 L351.43352,129.45636 Z" id="Fill-188" fill="#4B4A4A"></path>
                </g>
            </g>
        </g>
    </g>
</svg>