<?xml version="1.0" encoding="UTF-8"?>
<svg width="302px" height="87px" viewBox="0 0 302 87" version="1.1" xmlns="http://www.w3.org/2000/svg" xmlns:xlink="http://www.w3.org/1999/xlink">
    <!-- Generator: Sketch 43.2 (39069) - http://www.bohemiancoding.com/sketch -->
    <title>wortpaare/ereignisreich-populaer-neg</title>
    <desc>Created with Sketch.</desc>
    <defs>
        <polygon id="path-1" points="0 0.91692 0 32.46012 29.73492 32.46012 29.73492 0.91692 9.75781955e-20 0.91692"></polygon>
        <polygon id="path-3" points="0 86.5206 301.9212 86.5206 301.9212 0.0018 0 0.0018"></polygon>
    </defs>
    <g id="Page-1" stroke="none" stroke-width="1" fill="none" fill-rule="evenodd">
        <g id="wortpaare/ereignisreich-populaer/neg" transform="translate(-1.000000, 0.000000)">
            <g id="Page-1" transform="translate(0.953846, 0.000000)">
                <path d="M24.81732,62.694 L24.81732,62.586 C24.81732,57.618 21.46932,54.3276 17.50932,54.3276 C13.54572,54.3276 10.25532,57.618 10.25532,62.586 L10.25532,62.694 C10.25532,67.662 13.54572,70.9524 17.50932,70.9524 C21.46932,70.9524 24.81732,67.7196 24.81732,62.694 Z M1.88172,47.6856 L10.36692,47.6856 L10.36692,51.9804 C12.42972,49.194 15.27732,47.1312 19.68372,47.1312 C26.65692,47.1312 33.29532,52.596 33.29532,62.586 L33.29532,62.694 C33.29532,72.6804 26.76852,78.1524 19.68372,78.1524 C15.16212,78.1524 12.37212,76.086 10.36692,73.6884 L10.36692,86.5188 L1.88172,86.5188 L1.88172,47.6856 Z" id="Fill-1" fill="#FFFFFF"></path>
                <g id="Group-5" transform="translate(0.000000, 0.120600)">
                    <mask id="mask-2" fill="white">
                        <use xlink:href="#path-1"></use>
                    </mask>
                    <g id="Clip-4"></g>
                    <path d="M21.36852,14.25492 C20.86092,10.41372 18.60012,7.81092 14.98572,7.81092 C11.42172,7.81092 9.10332,10.35612 8.42652,14.25492 L21.36852,14.25492 Z M-0.00108,16.80012 L-0.00108,16.68492 C-0.00108,8.03412 6.16212,0.91692 14.98572,0.91692 C25.10172,0.91692 29.73492,8.77212 29.73492,17.36532 C29.73492,18.04572 29.68092,18.83412 29.62332,19.62612 L8.53812,19.62612 C9.38772,23.52852 12.09852,25.56252 15.94332,25.56252 C18.82692,25.56252 20.91852,24.65892 23.29092,22.45212 L28.20852,26.80452 C25.38612,30.31092 21.31452,32.46012 15.83172,32.46012 C6.72732,32.46012 -0.00108,26.07012 -0.00108,16.80012 L-0.00108,16.80012 Z" id="Fill-3" fill="#FFFFFF" mask="url(#mask-2)"></path>
                </g>
                <path d="M38.58444,15.73956 L40.01364,15.73956 C44.28324,15.73956 46.41444,14.10876 46.41444,10.84716 C46.41444,7.79076 44.34084,6.26436 40.19004,6.26436 L38.58444,6.26436 L38.58444,15.73956 Z M44.19324,19.15956 L53.43444,31.88196 L47.92284,31.88196 L39.39804,19.66356 L38.58444,19.66356 L38.58444,31.88196 L34.08084,31.88196 L34.08084,2.02716 L39.35844,2.02716 C43.30404,2.02716 46.15164,2.76876 47.90484,4.25556 C49.83804,5.90436 50.80644,8.08236 50.80644,10.78956 C50.80644,12.90276 50.19804,14.72076 48.98844,16.24356 C47.77524,17.76276 46.17684,18.73476 44.19324,19.15956 L44.19324,19.15956 Z" id="Fill-6" fill="#FFFFFF"></path>
                <polygon id="Fill-8" fill="#FFFFFF" points="74.39472 6.26472 62.42472 6.26472 62.42472 13.43592 74.04552 13.43592 74.04552 17.67312 62.42472 17.67312 62.42472 27.64872 74.39472 27.64872 74.39472 31.88232 57.92112 31.88232 57.92112 2.02752 74.39472 2.02752"></polygon>
                <mask id="mask-4" fill="white">
                    <use xlink:href="#path-3"></use>
                </mask>
                <g id="Clip-11"></g>
                <polygon id="Fill-10" fill="#FFFFFF" mask="url(#mask-4)" points="80.3124 31.8834 84.816 31.8834 84.816 2.0286 80.3124 2.0286"></polygon>
                <path d="M107.34336,16.33716 L119.68056,16.33716 L119.68056,17.32356 C119.68056,19.56636 119.41776,21.54996 118.88856,23.28156 C118.37016,24.87636 117.50256,26.37396 116.27496,27.76716 C113.50296,30.88476 109.97856,32.44716 105.69816,32.44716 C101.52216,32.44716 97.94736,30.93876 94.96656,27.92196 C91.98936,24.89076 90.50256,21.25476 90.50256,17.01396 C90.50256,12.68316 92.01816,9.01116 95.04576,5.99436 C98.07336,2.96316 101.76336,1.44756 106.10496,1.44756 C108.43776,1.44756 110.61936,1.92636 112.64256,2.88036 C114.57576,3.83436 116.47656,5.38236 118.34496,7.52076 L115.13736,10.59516 C112.68576,7.33356 109.70136,5.70276 106.18416,5.70276 C103.02336,5.70276 100.37376,6.79356 98.23536,8.97156 C96.09696,11.10996 95.02776,13.79196 95.02776,17.01396 C95.02776,20.34036 96.21936,23.07996 98.60256,25.23276 C100.83456,27.23076 103.25016,28.23156 105.85296,28.23156 C108.07056,28.23156 110.06136,27.48276 111.82896,25.98876 C113.59656,24.48036 114.58296,22.67316 114.78816,20.57436 L107.34336,20.57436 L107.34336,16.33716 Z" id="Fill-12" fill="#FFFFFF" mask="url(#mask-4)"></path>
                <polygon id="Fill-13" fill="#FFFFFF" mask="url(#mask-4)" points="125.3448 31.88304 125.3448 0.00144 147.1176 22.77864 147.1176 2.02824 151.6212 2.02824 151.6212 33.70104 129.8484 10.98144 129.8484 31.88304"></polygon>
                <polygon id="Fill-14" fill="#FFFFFF" mask="url(#mask-4)" points="158.778 31.8834 163.2816 31.8834 163.2816 2.0286 158.778 2.0286"></polygon>
                <path d="M187.33608,6.47568 L183.68208,8.64288 C182.99808,7.45488 182.34648,6.68448 181.72728,6.32088 C181.08288,5.91048 180.25128,5.70168 179.23608,5.70168 C177.98328,5.70168 176.94648,6.05808 176.12208,6.76728 C175.29768,7.46208 174.88368,8.34048 174.88368,9.39888 C174.88368,10.85328 175.96728,12.02688 178.13088,12.91608 L181.11168,14.13288 C183.53448,15.11208 185.30568,16.30728 186.42888,17.71848 C187.54848,19.13328 188.11008,20.86128 188.11008,22.90968 C188.11008,25.65648 187.19208,27.92808 185.36328,29.71728 C183.52008,31.52448 181.23408,32.42448 178.49808,32.42448 C175.90968,32.42448 173.76768,31.65768 172.07928,30.12408 C170.41608,28.59048 169.37928,26.43048 168.96528,23.64768 L173.53008,22.63968 C173.73528,24.39648 174.09888,25.60608 174.61368,26.27568 C175.54248,27.56448 176.89608,28.20888 178.67448,28.20888 C180.07848,28.20888 181.24488,27.73728 182.17368,26.80128 C183.10248,25.85808 183.56688,24.66648 183.56688,23.21928 C183.56688,22.63968 183.48408,22.11048 183.32568,21.62448 C183.16368,21.14208 182.91168,20.69568 182.56968,20.29248 C182.22768,19.88568 181.78488,19.50408 181.24488,19.15128 C180.70488,18.79848 180.06048,18.45648 179.31168,18.13608 L176.43168,16.93728 C172.34208,15.20928 170.30088,12.68568 170.30088,9.35928 C170.30088,7.11648 171.15768,5.23728 172.87128,3.72888 C174.58488,2.20968 176.71968,1.45008 179.27208,1.45008 C182.71368,1.45008 185.40288,3.12408 187.33608,6.47568" id="Fill-15" fill="#FFFFFF" mask="url(#mask-4)"></path>
                <path d="M198.04824,15.73956 L199.47744,15.73956 C203.74704,15.73956 205.87824,14.10876 205.87824,10.84716 C205.87824,7.79076 203.80464,6.26436 199.65384,6.26436 L198.04824,6.26436 L198.04824,15.73956 Z M203.65704,19.15956 L212.89824,31.88196 L207.38664,31.88196 L198.86184,19.66356 L198.04824,19.66356 L198.04824,31.88196 L193.54464,31.88196 L193.54464,2.02716 L198.82224,2.02716 C202.76784,2.02716 205.61544,2.76876 207.36864,4.25556 C209.30184,5.90436 210.27024,8.08236 210.27024,10.78956 C210.27024,12.90276 209.66184,14.72076 208.45224,16.24356 C207.23904,17.76276 205.64064,18.73476 203.65704,19.15956 L203.65704,19.15956 Z" id="Fill-16" fill="#FFFFFF" mask="url(#mask-4)"></path>
                <polygon id="Fill-17" fill="#FFFFFF" mask="url(#mask-4)" points="233.85816 6.26472 221.88816 6.26472 221.88816 13.43592 233.50896 13.43592 233.50896 17.67312 221.88816 17.67312 221.88816 27.64872 233.85816 27.64872 233.85816 31.88232 217.38456 31.88232 217.38456 2.02752 233.85816 2.02752"></polygon>
                <polygon id="Fill-18" fill="#FFFFFF" mask="url(#mask-4)" points="239.778 31.8834 244.2816 31.8834 244.2816 2.0286 239.778 2.0286"></polygon>
                <path d="M273.51612,3.63528 L273.51612,8.97048 C270.91332,6.79248 268.21692,5.70168 265.43412,5.70168 C262.36692,5.70168 259.78212,6.80688 257.67972,9.01008 C255.56652,11.20248 254.50812,13.88448 254.50812,17.05608 C254.50812,20.18808 255.56652,22.82688 257.67972,24.98328 C259.79292,27.13248 262.38492,28.20888 265.45212,28.20888 C267.03972,28.20888 268.38612,27.95328 269.49492,27.43488 C270.11412,27.17928 270.75492,26.83008 271.41732,26.39088 C272.08332,25.95528 272.78172,25.42608 273.51612,24.80688 L273.51612,30.24288 C270.93852,31.69728 268.23132,32.42448 265.39452,32.42448 C261.12852,32.42448 257.48532,30.93768 254.46852,27.96048 C251.46612,24.95448 249.96492,21.33288 249.96492,17.09208 C249.96492,13.29048 251.22132,9.89928 253.73412,6.92208 C256.83012,3.27168 260.83332,1.45008 265.74372,1.45008 C268.42212,1.45008 271.01412,2.17728 273.51612,3.63528" id="Fill-19" fill="#FFFFFF" mask="url(#mask-4)"></path>
                <polygon id="Fill-20" fill="#FFFFFF" mask="url(#mask-4)" points="284.53788 13.70736 297.41508 13.70736 297.41508 2.02896 301.92228 2.02896 301.92228 31.88376 297.41508 31.88376 297.41508 17.94456 284.53788 17.94456 284.53788 31.88376 280.03428 31.88376 280.03428 2.02896 284.53788 2.02896"></polygon>
                <path d="M40.84344,62.87688 C40.84344,66.17808 41.95224,68.89248 44.16984,71.02008 C46.37304,73.14768 48.91824,74.20608 51.80544,74.20608 C54.94104,74.20608 57.57984,73.12608 59.73624,70.95888 C61.88904,68.77008 62.96544,66.10248 62.96544,62.95248 C62.96544,59.77368 61.89984,57.10248 59.77224,54.94968 C57.65904,52.78248 55.04184,51.70248 51.92424,51.70248 C48.81744,51.70248 46.19304,52.78248 44.05464,54.94968 C41.91264,57.09168 40.84344,59.73408 40.84344,62.87688 M36.30024,62.81928 C36.30024,58.61448 37.84104,55.00728 40.91904,51.99408 C43.98984,48.97728 47.67624,47.46888 51.98184,47.46888 C56.23344,47.46888 59.88384,48.98808 62.92584,52.03008 C65.97864,55.07208 67.50864,58.72968 67.50864,62.99208 C67.50864,67.28688 65.97144,70.92648 62.90424,73.91808 C59.82264,76.92048 56.10744,78.42168 51.74784,78.42168 C47.89224,78.42168 44.43264,77.08968 41.36544,74.42208 C37.98864,71.47008 36.30024,67.60008 36.30024,62.81928" id="Fill-21" fill="#FFFFFF" mask="url(#mask-4)"></path>
                <path d="M77.67828,61.58304 L79.35948,61.58304 C83.49948,61.58304 85.56588,59.99184 85.56588,56.80584 C85.56588,53.72424 83.43468,52.18704 79.16868,52.18704 L77.67828,52.18704 L77.67828,61.58304 Z M77.67828,65.75904 L77.67828,77.88024 L73.17468,77.88024 L73.17468,48.02544 L78.27948,48.02544 C80.77788,48.02544 82.66788,48.20184 83.94228,48.55104 C85.23108,48.90024 86.36868,49.55544 87.34788,50.52384 C89.06148,52.19784 89.91828,54.31104 89.91828,56.86344 C89.91828,59.59584 89.00388,61.76304 87.17148,63.36144 C85.34268,64.95624 82.87308,65.75904 79.76628,65.75904 L77.67828,65.75904 Z" id="Fill-22" fill="#FFFFFF" mask="url(#mask-4)"></path>
                <path d="M99.06372,48.02688 L99.06372,66.00888 C99.06372,68.57568 99.48132,70.45128 100.32012,71.63928 C101.56932,73.34928 103.32972,74.20608 105.59772,74.20608 C107.88012,74.20608 109.64772,73.34928 110.89692,71.63928 C111.73572,70.48728 112.15332,68.61528 112.15332,66.00888 L112.15332,48.02688 L116.66052,48.02688 L116.66052,67.24728 C116.66052,70.39368 115.68132,72.98568 113.71932,75.01968 C111.51612,77.29128 108.80892,78.42168 105.59772,78.42168 C102.39012,78.42168 99.69012,77.29128 97.49772,75.01968 C95.53932,72.98568 94.56012,70.39368 94.56012,67.24728 L94.56012,48.02688 L99.06372,48.02688 Z" id="Fill-23" fill="#FFFFFF" mask="url(#mask-4)"></path>
                <polygon id="Fill-24" fill="#FFFFFF" mask="url(#mask-4)" points="128.31912 48.02688 128.31912 73.64808 137.09592 73.64808 137.09592 77.88168 123.81552 77.88168 123.81552 48.02688"></polygon>
                <path d="M155.98872,42.2262 C155.98872,41.481 156.25872,40.833 156.80232,40.293 C157.34232,39.753 157.99392,39.4794 158.75352,39.4794 C159.51312,39.4794 160.16472,39.753 160.70832,40.293 C161.24832,40.833 161.51832,41.4918 161.51832,42.2658 C161.51832,43.029 161.24832,43.677 160.70832,44.2206 C160.16472,44.7606 159.51312,45.0306 158.75352,45.0306 C157.97952,45.0306 157.32432,44.7606 156.78072,44.2206 C156.25152,43.6518 155.98872,42.9894 155.98872,42.2262 L155.98872,42.2262 Z M158.73552,66.3966 L154.30752,56.2482 L149.66712,66.3966 L158.73552,66.3966 Z M147.30552,42.2262 C147.30552,41.481 147.57912,40.833 148.11912,40.293 C148.65912,39.753 149.30712,39.4794 150.05232,39.4794 C150.82632,39.4794 151.47792,39.753 152.00712,40.293 C152.54712,40.833 152.81712,41.4918 152.81712,42.2658 C152.81712,43.029 152.54712,43.677 152.00712,44.2206 C151.47792,44.7606 150.83352,45.0306 150.07032,45.0306 C149.29992,45.0306 148.64112,44.7606 148.10112,44.2206 C147.57192,43.6518 147.30552,42.9894 147.30552,42.2262 L147.30552,42.2262 Z M160.57152,70.6338 L147.79152,70.6338 L144.46512,77.8806 L139.61232,77.8806 L154.38312,46.1538 L168.63552,77.8806 L163.70352,77.8806 L160.57152,70.6338 Z" id="Fill-25" fill="#FFFFFF" mask="url(#mask-4)"></path>
                <path d="M176.8716,61.73784 L178.3008,61.73784 C182.5704,61.73784 184.7016,60.10704 184.7016,56.84544 C184.7016,53.78904 182.628,52.26264 178.4772,52.26264 L176.8716,52.26264 L176.8716,61.73784 Z M182.4804,65.15784 L191.7216,77.88024 L186.21,77.88024 L177.6852,65.66184 L176.8716,65.66184 L176.8716,77.88024 L172.368,77.88024 L172.368,48.02544 L177.6456,48.02544 C181.5912,48.02544 184.4388,48.76704 186.192,50.25384 C188.1252,51.90264 189.0936,54.08064 189.0936,56.78784 C189.0936,58.90104 188.4852,60.71904 187.2756,62.24184 C186.0624,63.76104 184.464,64.73304 182.4804,65.15784 L182.4804,65.15784 Z" id="Fill-26" fill="#FFFFFF" mask="url(#mask-4)"></path>
            </g>
        </g>
    </g>
</svg>