<?xml version="1.0" encoding="UTF-8"?>
<svg width="494px" height="164px" viewBox="0 0 494 164" version="1.1" xmlns="http://www.w3.org/2000/svg" xmlns:xlink="http://www.w3.org/1999/xlink">
    <!-- Generator: Sketch 44 (41411) - http://www.bohemiancoding.com/sketch -->
    <title>wortpaare/erstklassig-platziert-pos</title>
    <desc>Created with Sketch.</desc>
    <defs></defs>
    <g id="Page-1" stroke="none" stroke-width="1" fill="none" fill-rule="evenodd">
        <g id="Wortpaare" transform="translate(-198.000000, -2757.000000)">
            <g id="wortpaare/erstklassig-platziert/pos" transform="translate(198.000000, 2751.000000)">
                <g id="Group">
                    <path d="M46.87852,124.80312 L46.87852,124.59912 C46.87852,115.21512 40.54772,108.99992 33.07452,108.99992 C25.58772,108.99992 19.37252,115.21512 19.37252,124.59912 L19.37252,124.80312 C19.37252,134.18712 25.58772,140.40232 33.07452,140.40232 C40.54772,140.40232 46.87852,134.29592 46.87852,124.80312 L46.87852,124.80312 Z M3.55572,96.45392 L19.58332,96.45392 L19.58332,104.56632 C23.47972,99.30312 28.85172,95.40672 37.18172,95.40672 C50.35332,95.40672 62.89252,105.72912 62.89252,124.59912 L62.89252,124.80312 C62.89252,143.66632 50.56412,154.00232 37.18172,154.00232 C28.64092,154.00232 23.37092,150.09912 19.58332,145.57032 L19.58332,169.80552 L3.55572,169.80552 L3.55572,96.45392 Z" id="Fill-121" fill="#DB071A"></path>
                    <path d="M40.36412,33.5342 C39.40532,26.2786 35.13492,21.3622 28.30772,21.3622 C21.57572,21.3622 17.19652,26.1698 15.91812,33.5342 L40.36412,33.5342 Z M-0.000680000008,38.3418 L-0.000680000008,38.1242 C-0.000680000008,21.7838 11.64092,8.3402 28.30772,8.3402 C47.41572,8.3402 56.16732,23.1778 56.16732,39.4094 C56.16732,40.6946 56.06532,42.1838 55.95652,43.6798 L16.12892,43.6798 C17.73372,51.051 22.85412,54.893 30.10972,54.893 C35.56332,54.893 39.51412,53.1862 43.99532,49.0178 L53.28412,57.239 C47.94612,63.8622 40.25532,67.9218 29.90572,67.9218 C12.70852,67.9218 -0.000680000008,55.8518 -0.000680000008,38.3418 L-0.000680000008,38.3418 Z" id="Fill-122" fill="#DB071A"></path>
                    <path d="M72.88308,36.11072 L75.58268,36.11072 C83.64748,36.11072 87.67308,33.03032 87.67308,26.86952 C87.67308,21.09632 83.75628,18.21312 75.91588,18.21312 L72.88308,18.21312 L72.88308,36.11072 Z M83.47748,42.57072 L100.93308,66.60192 L90.52228,66.60192 L74.41988,43.52272 L72.88308,43.52272 L72.88308,66.60192 L64.37628,66.60192 L64.37628,10.20952 L74.34508,10.20952 C81.79788,10.20952 87.17668,11.61032 90.48828,14.41872 C94.13988,17.53312 95.96908,21.64712 95.96908,26.76072 C95.96908,30.75232 94.81988,34.18632 92.53508,37.06272 C90.24348,39.93232 87.22428,41.76832 83.47748,42.57072 L83.47748,42.57072 Z" id="Fill-123" fill="#4B4A4A"></path>
                    <path d="M141.29176,18.61228 L134.38976,22.70588 C133.09776,20.46188 131.86696,19.00668 130.69736,18.31988 C129.48016,17.54468 127.90936,17.15028 125.99176,17.15028 C123.62536,17.15028 121.66696,17.82348 120.10976,19.16308 C118.55256,20.47548 117.77056,22.13468 117.77056,24.13388 C117.77056,26.88108 119.81736,29.09788 123.90416,30.77748 L129.53456,33.07588 C134.11096,34.92548 137.45656,37.18308 139.57816,39.84868 C141.69296,42.52108 142.75376,45.78508 142.75376,49.65428 C142.75376,54.84268 141.01976,59.13348 137.56536,62.51308 C134.08376,65.92668 129.76576,67.62668 124.59776,67.62668 C119.70856,67.62668 115.66256,66.17828 112.47336,63.28148 C109.33176,60.38468 107.37336,56.30468 106.59136,51.04828 L115.21376,49.14428 C115.60136,52.46268 116.28816,54.74748 117.26056,56.01228 C119.01496,58.44668 121.57176,59.66388 124.93096,59.66388 C127.58296,59.66388 129.78616,58.77308 131.54056,57.00508 C133.29496,55.22348 134.17216,52.97268 134.17216,50.23908 C134.17216,49.14428 134.01576,48.14468 133.71656,47.22668 C133.41056,46.31548 132.93456,45.47228 132.28856,44.71068 C131.64256,43.94228 130.80616,43.22148 129.78616,42.55508 C128.76616,41.88868 127.54896,41.24268 126.13456,40.63748 L120.69456,38.37308 C112.96976,35.10908 109.11416,30.34228 109.11416,24.05908 C109.11416,19.82268 110.73256,16.27308 113.96936,13.42388 C117.20616,10.55428 121.23856,9.11948 126.05976,9.11948 C132.56056,9.11948 137.64016,12.28148 141.29176,18.61228" id="Fill-124" fill="#4B4A4A"></path>
                    <polygon id="Fill-125" fill="#4B4A4A" points="169.63348 18.21448 169.63348 66.60328 161.12668 66.60328 161.12668 18.21448 148.15908 18.21448 148.15908 10.21088 182.56028 10.21088 182.56028 18.21448"></polygon>
                    <polygon id="Fill-126" fill="#4B4A4A" points="198.67016 32.71072 220.62056 10.20952 231.97656 10.20952 206.48336 35.74352 232.12616 66.60192 220.72936 66.60192 200.42456 41.51672 198.67016 43.27112 198.67016 66.60192 190.16336 66.60192 190.16336 10.20952 198.67016 10.20952"></polygon>
                    <polygon id="Fill-127" fill="#4B4A4A" points="248.23196 10.21224 248.23196 58.60784 264.81036 58.60784 264.81036 66.60464 239.72516 66.60464 239.72516 10.21224"></polygon>
                    <path d="M305.6838,44.90924 L297.3198,25.74004 L288.5546,44.90924 L305.6838,44.90924 Z M309.1518,52.91284 L285.0118,52.91284 L278.7286,66.60124 L269.5622,66.60124 L297.4694,6.67284 L324.3838,66.60124 L315.0678,66.60124 L309.1518,52.91284 Z" id="Fill-128" fill="#4B4A4A"></path>
                    <path d="M363.3172,18.61228 L356.4152,22.70588 C355.1232,20.46188 353.8924,19.00668 352.7228,18.31988 C351.5056,17.54468 349.9348,17.15028 348.0172,17.15028 C345.6508,17.15028 343.6924,17.82348 342.1352,19.16308 C340.578,20.47548 339.796,22.13468 339.796,24.13388 C339.796,26.88108 341.8428,29.09788 345.9296,30.77748 L351.56,33.07588 C356.1364,34.92548 359.482,37.18308 361.6036,39.84868 C363.7184,42.52108 364.7792,45.78508 364.7792,49.65428 C364.7792,54.84268 363.0452,59.13348 359.5908,62.51308 C356.1092,65.92668 351.7912,67.62668 346.6232,67.62668 C341.734,67.62668 337.688,66.17828 334.4988,63.28148 C331.3572,60.38468 329.3988,56.30468 328.6168,51.04828 L337.2392,49.14428 C337.6268,52.46268 338.3136,54.74748 339.286,56.01228 C341.0404,58.44668 343.5972,59.66388 346.9564,59.66388 C349.6084,59.66388 351.8116,58.77308 353.566,57.00508 C355.3204,55.22348 356.1976,52.97268 356.1976,50.23908 C356.1976,49.14428 356.0412,48.14468 355.742,47.22668 C355.436,46.31548 354.96,45.47228 354.314,44.71068 C353.668,43.94228 352.8316,43.22148 351.8116,42.55508 C350.7916,41.88868 349.5744,41.24268 348.16,40.63748 L342.72,38.37308 C334.9952,35.10908 331.1396,30.34228 331.1396,24.05908 C331.1396,19.82268 332.758,16.27308 335.9948,13.42388 C339.2316,10.55428 343.264,9.11948 348.0852,9.11948 C354.586,9.11948 359.6656,12.28148 363.3172,18.61228" id="Fill-129" fill="#4B4A4A"></path>
                    <path d="M406.92628,18.61228 L400.02428,22.70588 C398.73228,20.46188 397.50148,19.00668 396.33188,18.31988 C395.11468,17.54468 393.54388,17.15028 391.62628,17.15028 C389.25988,17.15028 387.30148,17.82348 385.74428,19.16308 C384.18708,20.47548 383.40508,22.13468 383.40508,24.13388 C383.40508,26.88108 385.45188,29.09788 389.53868,30.77748 L395.16908,33.07588 C399.74548,34.92548 403.09108,37.18308 405.21268,39.84868 C407.32748,42.52108 408.38828,45.78508 408.38828,49.65428 C408.38828,54.84268 406.65428,59.13348 403.19988,62.51308 C399.71828,65.92668 395.40028,67.62668 390.23228,67.62668 C385.34308,67.62668 381.29708,66.17828 378.10788,63.28148 C374.96628,60.38468 373.00788,56.30468 372.22588,51.04828 L380.84828,49.14428 C381.23588,52.46268 381.92268,54.74748 382.89508,56.01228 C384.64948,58.44668 387.20628,59.66388 390.56548,59.66388 C393.21748,59.66388 395.42068,58.77308 397.17508,57.00508 C398.92948,55.22348 399.80668,52.97268 399.80668,50.23908 C399.80668,49.14428 399.65028,48.14468 399.35108,47.22668 C399.04508,46.31548 398.56908,45.47228 397.92308,44.71068 C397.27708,43.94228 396.44068,43.22148 395.42068,42.55508 C394.40068,41.88868 393.18348,41.24268 391.76908,40.63748 L386.32908,38.37308 C378.60428,35.10908 374.74868,30.34228 374.74868,24.05908 C374.74868,19.82268 376.36708,16.27308 379.60388,13.42388 C382.84068,10.55428 386.87308,9.11948 391.69428,9.11948 C398.19508,9.11948 403.27468,12.28148 406.92628,18.61228" id="Fill-130" fill="#4B4A4A"></path>
                    <polygon id="Fill-131" fill="#4B4A4A" points="418.6556 66.606 427.1624 66.606 427.1624 10.2136 418.6556 10.2136"></polygon>
                    <path d="M469.71068,37.23952 L493.01428,37.23952 L493.01428,39.10272 C493.01428,43.33912 492.51788,47.08592 491.51828,50.35672 C490.53908,53.36912 488.90028,56.19792 486.58148,58.82952 C481.34548,64.71832 474.68828,67.66952 466.60308,67.66952 C458.71508,67.66952 451.96268,64.82032 446.33228,59.12192 C440.70868,53.39632 437.90028,46.52832 437.90028,38.51792 C437.90028,30.33752 440.76308,23.40152 446.48188,17.70312 C452.20068,11.97752 459.17068,9.11472 467.37148,9.11472 C471.77788,9.11472 475.89868,10.01912 479.72028,11.82112 C483.37188,13.62312 486.96228,16.54712 490.49148,20.58632 L484.43268,26.39352 C479.80188,20.23272 474.16468,17.15232 467.52108,17.15232 C461.55068,17.15232 456.54588,19.21272 452.50668,23.32672 C448.46748,27.36592 446.44788,32.43192 446.44788,38.51792 C446.44788,44.80112 448.69868,49.97592 453.20028,54.04232 C457.41628,57.81632 461.97908,59.70672 466.89548,59.70672 C471.08428,59.70672 474.84468,58.29232 478.18348,55.47032 C481.52228,52.62112 483.38548,49.20752 483.77308,45.24312 L469.71068,45.24312 L469.71068,37.23952 Z" id="Fill-132" fill="#4B4A4A"></path>
                    <polygon id="Fill-133" fill="#4B4A4A" points="79.88572 97.09788 79.88572 145.49348 96.46412 145.49348 96.46412 153.49028 71.37892 153.49028 71.37892 97.09788"></polygon>
                    <path d="M137.33688,131.79556 L128.97288,112.62636 L120.20768,131.79556 L137.33688,131.79556 Z M140.80488,139.79916 L116.66488,139.79916 L110.38168,153.48756 L101.21528,153.48756 L129.12248,93.55916 L156.03688,153.48756 L146.72088,153.48756 L140.80488,139.79916 Z" id="Fill-134" fill="#4B4A4A"></path>
                    <polygon id="Fill-135" fill="#4B4A4A" points="175.50392 105.10012 175.50392 153.48892 166.99712 153.48892 166.99712 105.10012 154.02952 105.10012 154.02952 97.09652 188.43072 97.09652 188.43072 105.10012"></polygon>
                    <polygon id="Fill-136" fill="#4B4A4A" points="205.78228 145.49484 232.84628 145.49484 232.84628 153.49164 191.79468 153.49164 219.47748 105.10284 196.32348 105.10284 196.32348 97.09924 233.46508 97.09924"></polygon>
                    <polygon id="Fill-137" fill="#4B4A4A" points="242.7804 153.4896 251.2872 153.4896 251.2872 97.0972 242.7804 97.0972"></polygon>
                    <polygon id="Fill-138" fill="#4B4A4A" points="295.95844 105.10012 273.34844 105.10012 273.34844 118.64572 295.29884 118.64572 295.29884 126.64932 273.34844 126.64932 273.34844 145.49212 295.95844 145.49212 295.95844 153.48892 264.84164 153.48892 264.84164 97.09652 295.95844 97.09652"></polygon>
                    <path d="M315.64444,122.99636 L318.34404,122.99636 C326.40884,122.99636 330.43444,119.91596 330.43444,113.75516 C330.43444,107.98196 326.51764,105.09876 318.67724,105.09876 L315.64444,105.09876 L315.64444,122.99636 Z M326.23884,129.45636 L343.69444,153.48756 L333.28364,153.48756 L317.18124,130.40836 L315.64444,130.40836 L315.64444,153.48756 L307.13764,153.48756 L307.13764,97.09516 L317.10644,97.09516 C324.55924,97.09516 329.93804,98.49596 333.24964,101.30436 C336.90124,104.41876 338.73044,108.53276 338.73044,113.64636 C338.73044,117.63796 337.58124,121.07196 335.29644,123.94836 C333.00484,126.81796 329.98564,128.65396 326.23884,129.45636 L326.23884,129.45636 Z" id="Fill-139" fill="#4B4A4A"></path>
                    <polygon id="Fill-140" fill="#4B4A4A" points="367.06944 105.10012 367.06944 153.48892 358.56264 153.48892 358.56264 105.10012 345.59504 105.10012 345.59504 97.09652 379.99624 97.09652 379.99624 105.10012"></polygon>
                </g>
            </g>
        </g>
    </g>
</svg>