<?xml version="1.0" encoding="UTF-8"?>
<svg width="262px" height="87px" viewBox="0 0 262 87" version="1.1" xmlns="http://www.w3.org/2000/svg" xmlns:xlink="http://www.w3.org/1999/xlink">
    <!-- Generator: Sketch 43.2 (39069) - http://www.bohemiancoding.com/sketch -->
    <title>wortpaare/erstklassig-platziert-neg</title>
    <desc>Created with Sketch.</desc>
    <defs>
        <polygon id="path-1" points="0 0.91692 0 32.46012 29.73564 32.46012 29.73564 0.91692 7.31836466e-20 0.91692"></polygon>
        <polygon id="path-3" points="0 89.9658 261.0072 89.9658 261.0072 3.5982 0 3.5982"></polygon>
    </defs>
    <g id="Page-1" stroke="none" stroke-width="1" fill="none" fill-rule="evenodd">
        <g id="wortpaare/erstklassig-platziert/neg" transform="translate(0.000000, -3.000000)">
            <g id="Page-1">
                <path d="M24.81804,66.1392 L24.81804,66.0312 C24.81804,61.0632 21.46644,57.7728 17.51004,57.7728 C13.54644,57.7728 10.25604,61.0632 10.25604,66.0312 L10.25604,66.1392 C10.25604,71.1072 13.54644,74.3976 17.51004,74.3976 C21.46644,74.3976 24.81804,71.1648 24.81804,66.1392 Z M1.88244,51.1308 L10.36764,51.1308 L10.36764,55.4256 C12.43044,52.6392 15.27444,50.5764 19.68444,50.5764 C26.65764,50.5764 33.29604,56.0412 33.29604,66.0312 L33.29604,66.1392 C33.29604,76.1256 26.76924,81.5976 19.68444,81.5976 C15.16284,81.5976 12.37284,79.5312 10.36764,77.1336 L10.36764,89.964 L1.88244,89.964 L1.88244,51.1308 Z" id="Fill-1" fill="#FFFFFF"></path>
                <g id="Group-5" transform="translate(0.000000, 3.565800)">
                    <mask id="mask-2" fill="white">
                        <use xlink:href="#path-1"></use>
                    </mask>
                    <g id="Clip-4"></g>
                    <path d="M21.36924,14.25492 C20.85804,10.41372 18.60084,7.81092 14.98644,7.81092 C11.42244,7.81092 9.10404,10.35612 8.42724,14.25492 L21.36924,14.25492 Z M-0.00036,16.80012 L-0.00036,16.68492 C-0.00036,8.03412 6.16284,0.91692 14.98644,0.91692 C25.10244,0.91692 29.73564,8.77212 29.73564,17.36532 C29.73564,18.04572 29.68164,18.83412 29.62404,19.62612 L8.53884,19.62612 C9.38844,23.52852 12.09924,25.56252 15.94044,25.56252 C18.82764,25.56252 20.91924,24.65892 23.29164,22.45212 L28.20924,26.80452 C25.38324,30.31092 21.31164,32.46012 15.83244,32.46012 C6.72804,32.46012 -0.00036,26.07012 -0.00036,16.80012 L-0.00036,16.80012 Z" id="Fill-3" fill="#FFFFFF" mask="url(#mask-2)"></path>
                </g>
                <path d="M38.58552,19.18476 L40.01472,19.18476 C44.28432,19.18476 46.41552,17.55396 46.41552,14.29236 C46.41552,11.23596 44.34192,9.70956 40.19112,9.70956 L38.58552,9.70956 L38.58552,19.18476 Z M44.19432,22.60476 L53.43552,35.32716 L47.92392,35.32716 L39.39912,23.10876 L38.58552,23.10876 L38.58552,35.32716 L34.08192,35.32716 L34.08192,5.47236 L39.35952,5.47236 C43.30512,5.47236 46.15272,6.21396 47.90592,7.70076 C49.83912,9.34956 50.80752,11.52756 50.80752,14.23476 C50.80752,16.34796 50.19912,18.16596 48.98952,19.68876 C47.77632,21.20796 46.17792,22.17996 44.19432,22.60476 L44.19432,22.60476 Z" id="Fill-6" fill="#FFFFFF"></path>
                <path d="M74.80152,9.92088 L71.14752,12.08808 C70.46352,10.90008 69.81192,10.12968 69.19272,9.76608 C68.54832,9.35568 67.71672,9.14688 66.70152,9.14688 C65.44872,9.14688 64.41192,9.50328 63.58752,10.21248 C62.76312,10.90728 62.34912,11.78568 62.34912,12.84408 C62.34912,14.29848 63.43272,15.47208 65.59632,16.36128 L68.57712,17.57808 C70.99992,18.55728 72.77112,19.75248 73.89432,21.16368 C75.01392,22.57848 75.57552,24.30648 75.57552,26.35488 C75.57552,29.10168 74.65752,31.37328 72.82872,33.16248 C70.98552,34.96968 68.69952,35.86968 65.96352,35.86968 C63.37512,35.86968 61.23312,35.10288 59.54472,33.56928 C57.88152,32.03568 56.84472,29.87568 56.43072,27.09288 L60.99552,26.08488 C61.20072,27.84168 61.56432,29.05128 62.07912,29.72088 C63.00792,31.00968 64.36152,31.65408 66.13992,31.65408 C67.54392,31.65408 68.71032,31.18248 69.63912,30.24648 C70.56792,29.30328 71.03232,28.11168 71.03232,26.66448 C71.03232,26.08488 70.94952,25.55568 70.79112,25.06968 C70.62912,24.58728 70.37712,24.14088 70.03512,23.73768 C69.69312,23.33088 69.25032,22.94928 68.71032,22.59648 C68.17032,22.24368 67.52592,21.90168 66.77712,21.58128 L63.89712,20.38248 C59.80752,18.65448 57.76632,16.13088 57.76632,12.80448 C57.76632,10.56168 58.62312,8.68248 60.33672,7.17408 C62.05032,5.65488 64.18512,4.89528 66.73752,4.89528 C70.17912,4.89528 72.86832,6.56928 74.80152,9.92088" id="Fill-8" fill="#FFFFFF"></path>
                <polygon id="Fill-10" fill="#FFFFFF" points="89.80632 9.70992 89.80632 35.32752 85.30272 35.32752 85.30272 9.70992 78.43752 9.70992 78.43752 5.47272 96.64992 5.47272 96.64992 9.70992"></polygon>
                <polygon id="Fill-12" fill="#FFFFFF" points="105.17832 17.38476 116.79912 5.47236 122.81112 5.47236 109.31472 18.99036 122.89032 35.32716 116.85672 35.32716 106.10712 22.04676 105.17832 22.97556 105.17832 35.32716 100.67472 35.32716 100.67472 5.47236 105.17832 5.47236"></polygon>
                <polygon id="Fill-14" fill="#FFFFFF" points="131.41728 5.4738 131.41728 31.095 140.19408 31.095 140.19408 35.3286 126.91368 35.3286 126.91368 5.4738"></polygon>
                <path d="M161.8326,23.8428 L157.4046,13.6944 L152.7642,23.8428 L161.8326,23.8428 Z M163.6686,28.08 L150.8886,28.08 L147.5622,35.3268 L142.7094,35.3268 L157.4838,3.6 L171.7326,35.3268 L166.8006,35.3268 L163.6686,28.08 Z" id="Fill-16" fill="#FFFFFF"></path>
                <path d="M192.34476,9.92088 L188.69076,12.08808 C188.00676,10.90008 187.35516,10.12968 186.73596,9.76608 C186.09156,9.35568 185.25996,9.14688 184.24476,9.14688 C182.99196,9.14688 181.95516,9.50328 181.13076,10.21248 C180.30636,10.90728 179.89236,11.78568 179.89236,12.84408 C179.89236,14.29848 180.97596,15.47208 183.13956,16.36128 L186.12036,17.57808 C188.54316,18.55728 190.31436,19.75248 191.43756,21.16368 C192.55716,22.57848 193.11876,24.30648 193.11876,26.35488 C193.11876,29.10168 192.20076,31.37328 190.37196,33.16248 C188.52876,34.96968 186.24276,35.86968 183.50676,35.86968 C180.91836,35.86968 178.77636,35.10288 177.08796,33.56928 C175.42476,32.03568 174.38796,29.87568 173.97396,27.09288 L178.53876,26.08488 C178.74396,27.84168 179.10756,29.05128 179.62236,29.72088 C180.55116,31.00968 181.90476,31.65408 183.68316,31.65408 C185.08716,31.65408 186.25356,31.18248 187.18236,30.24648 C188.11116,29.30328 188.57556,28.11168 188.57556,26.66448 C188.57556,26.08488 188.49276,25.55568 188.33436,25.06968 C188.17236,24.58728 187.92036,24.14088 187.57836,23.73768 C187.23636,23.33088 186.79356,22.94928 186.25356,22.59648 C185.71356,22.24368 185.06916,21.90168 184.32036,21.58128 L181.44036,20.38248 C177.35076,18.65448 175.30956,16.13088 175.30956,12.80448 C175.30956,10.56168 176.16636,8.68248 177.87996,7.17408 C179.59356,5.65488 181.72836,4.89528 184.28076,4.89528 C187.72236,4.89528 190.41156,6.56928 192.34476,9.92088" id="Fill-18" fill="#FFFFFF"></path>
                <path d="M215.43192,9.92088 L211.77792,12.08808 C211.09392,10.90008 210.44232,10.12968 209.82312,9.76608 C209.17872,9.35568 208.34712,9.14688 207.33192,9.14688 C206.07912,9.14688 205.04232,9.50328 204.21792,10.21248 C203.39352,10.90728 202.97952,11.78568 202.97952,12.84408 C202.97952,14.29848 204.06312,15.47208 206.22672,16.36128 L209.20752,17.57808 C211.63032,18.55728 213.40152,19.75248 214.52472,21.16368 C215.64432,22.57848 216.20592,24.30648 216.20592,26.35488 C216.20592,29.10168 215.28792,31.37328 213.45912,33.16248 C211.61592,34.96968 209.32992,35.86968 206.59392,35.86968 C204.00552,35.86968 201.86352,35.10288 200.17512,33.56928 C198.51192,32.03568 197.47512,29.87568 197.06112,27.09288 L201.62592,26.08488 C201.83112,27.84168 202.19472,29.05128 202.70952,29.72088 C203.63832,31.00968 204.99192,31.65408 206.77032,31.65408 C208.17432,31.65408 209.34072,31.18248 210.26952,30.24648 C211.19832,29.30328 211.66272,28.11168 211.66272,26.66448 C211.66272,26.08488 211.57992,25.55568 211.42152,25.06968 C211.25952,24.58728 211.00752,24.14088 210.66552,23.73768 C210.32352,23.33088 209.88072,22.94928 209.34072,22.59648 C208.80072,22.24368 208.15632,21.90168 207.40752,21.58128 L204.52752,20.38248 C200.43792,18.65448 198.39672,16.13088 198.39672,12.80448 C198.39672,10.56168 199.25352,8.68248 200.96712,7.17408 C202.68072,5.65488 204.81552,4.89528 207.36792,4.89528 C210.80952,4.89528 213.49872,6.56928 215.43192,9.92088" id="Fill-20" fill="#FFFFFF"></path>
                <mask id="mask-4" fill="white">
                    <use xlink:href="#path-3"></use>
                </mask>
                <g id="Clip-23"></g>
                <polygon id="Fill-22" fill="#FFFFFF" mask="url(#mask-4)" points="221.6412 35.3286 226.1448 35.3286 226.1448 5.4738 221.6412 5.4738"></polygon>
                <path d="M248.67036,19.78236 L261.00756,19.78236 L261.00756,20.76876 C261.00756,23.01156 260.74476,24.99516 260.21556,26.72676 C259.69716,28.32156 258.82956,29.81916 257.60196,31.21236 C254.82996,34.32996 251.30556,35.89236 247.02516,35.89236 C242.84916,35.89236 239.27436,34.38396 236.29356,31.36716 C233.31636,28.33596 231.82956,24.69996 231.82956,20.45916 C231.82956,16.12836 233.34516,12.45636 236.37276,9.43956 C239.40036,6.40836 243.09036,4.89276 247.43196,4.89276 C249.76476,4.89276 251.94636,5.37156 253.96956,6.32556 C255.90276,7.27956 257.80356,8.82756 259.67196,10.96596 L256.46436,14.04036 C254.01276,10.77876 251.02836,9.14796 247.51116,9.14796 C244.35036,9.14796 241.70076,10.23876 239.56236,12.41676 C237.42396,14.55516 236.35476,17.23716 236.35476,20.45916 C236.35476,23.78556 237.54636,26.52516 239.92956,28.67796 C242.16156,30.67596 244.57716,31.67676 247.17996,31.67676 C249.39756,31.67676 251.38836,30.92796 253.15596,29.43396 C254.92356,27.92556 255.90996,26.11836 256.11516,24.01956 L248.67036,24.01956 L248.67036,19.78236 Z" id="Fill-24" fill="#FFFFFF" mask="url(#mask-4)"></path>
                <polygon id="Fill-25" fill="#FFFFFF" mask="url(#mask-4)" points="42.29244 51.47208 42.29244 77.09328 51.06924 77.09328 51.06924 81.32688 37.78884 81.32688 37.78884 51.47208"></polygon>
                <path d="M72.70812,69.84144 L68.28012,59.69304 L63.63972,69.84144 L72.70812,69.84144 Z M74.54412,74.07864 L61.76412,74.07864 L58.43772,81.32544 L53.58492,81.32544 L68.35932,49.59864 L82.60812,81.32544 L77.67612,81.32544 L74.54412,74.07864 Z" id="Fill-26" fill="#FFFFFF" mask="url(#mask-4)"></path>
                <polygon id="Fill-27" fill="#FFFFFF" mask="url(#mask-4)" points="92.9142 55.70856 92.9142 81.32616 88.4106 81.32616 88.4106 55.70856 81.5454 55.70856 81.5454 51.47136 99.7578 51.47136 99.7578 55.70856"></polygon>
                <polygon id="Fill-28" fill="#FFFFFF" mask="url(#mask-4)" points="108.94356 77.094 123.27156 77.094 123.27156 81.3276 101.53836 81.3276 116.19396 55.71 103.93596 55.71 103.93596 51.4728 123.59916 51.4728"></polygon>
                <polygon id="Fill-29" fill="#FFFFFF" mask="url(#mask-4)" points="128.5308 81.3258 133.0344 81.3258 133.0344 51.471 128.5308 51.471"></polygon>
                <polygon id="Fill-30" fill="#FFFFFF" mask="url(#mask-4)" points="156.68388 55.70856 144.71388 55.70856 144.71388 62.87976 156.33468 62.87976 156.33468 67.11696 144.71388 67.11696 144.71388 77.09256 156.68388 77.09256 156.68388 81.32616 140.21028 81.32616 140.21028 51.47136 156.68388 51.47136"></polygon>
                <path d="M167.10624,65.18304 L168.53544,65.18304 C172.80504,65.18304 174.93624,63.55224 174.93624,60.29064 C174.93624,57.23424 172.86264,55.70784 168.71184,55.70784 L167.10624,55.70784 L167.10624,65.18304 Z M172.71504,68.60304 L181.95624,81.32544 L176.44464,81.32544 L167.91984,69.10704 L167.10624,69.10704 L167.10624,81.32544 L162.60264,81.32544 L162.60264,51.47064 L167.88024,51.47064 C171.82584,51.47064 174.67344,52.21224 176.42664,53.69904 C178.35984,55.34784 179.32824,57.52584 179.32824,60.23304 C179.32824,62.34624 178.71984,64.16424 177.51024,65.68704 C176.29704,67.20624 174.69864,68.17824 172.71504,68.60304 L172.71504,68.60304 Z" id="Fill-31" fill="#FFFFFF" mask="url(#mask-4)"></path>
                <polygon id="Fill-32" fill="#FFFFFF" mask="url(#mask-4)" points="194.33124 55.70856 194.33124 81.32616 189.82764 81.32616 189.82764 55.70856 182.96244 55.70856 182.96244 51.47136 201.17484 51.47136 201.17484 55.70856"></polygon>
            </g>
        </g>
    </g>
</svg>