<?xml version="1.0" encoding="UTF-8"?>
<svg width="367px" height="162px" viewBox="0 0 367 162" version="1.1" xmlns="http://www.w3.org/2000/svg" xmlns:xlink="http://www.w3.org/1999/xlink">
    <!-- Generator: Sketch 44 (41411) - http://www.bohemiancoding.com/sketch -->
    <title>wortpaare/explosiv-plakativ-pos</title>
    <desc>Created with Sketch.</desc>
    <defs></defs>
    <g id="Page-1" stroke="none" stroke-width="1" fill="none" fill-rule="evenodd">
        <g id="Wortpaare" transform="translate(-204.000000, -1484.000000)">
            <g id="wortpaare/explosiv-plakativ/pos" transform="translate(198.000000, 1482.000000)">
                <g id="Group">
                    <path d="M53.14404,118.83272 L53.14404,118.62192 C53.14404,109.24472 46.82004,103.02272 39.34004,103.02272 C31.85324,103.02272 25.63804,109.24472 25.63804,118.62192 L25.63804,118.83272 C25.63804,128.20992 31.85324,134.43192 39.34004,134.43192 C46.82004,134.43192 53.14404,128.31872 53.14404,118.83272 L53.14404,118.83272 Z M9.82804,90.47672 L25.84884,90.47672 L25.84884,98.58912 C29.74524,93.32592 35.12404,89.42952 43.44724,89.42952 C56.62564,89.42952 69.15804,99.75192 69.15804,118.62192 L69.15804,118.83272 C69.15804,137.68912 56.83644,148.02512 43.44724,148.02512 C34.90644,148.02512 29.64324,144.12192 25.84884,139.59312 L25.84884,163.82832 L9.82804,163.82832 L9.82804,90.47672 Z" id="Fill-57" fill="#DB071A"></path>
                    <path d="M46.62964,27.56108 C45.67084,20.29868 41.40044,15.38908 34.57324,15.38908 C27.84124,15.38908 23.46884,20.18988 22.18364,27.56108 L46.62964,27.56108 Z M6.26484,32.36868 L6.26484,32.15108 C6.26484,15.81068 17.90644,2.36028 34.57324,2.36028 C53.68124,2.36028 62.43284,17.20468 62.43284,33.43628 C62.43284,34.71468 62.33764,36.21068 62.22884,37.70668 L22.39444,37.70668 C23.99924,45.07788 29.12644,48.91308 36.38204,48.91308 C41.82884,48.91308 45.78644,47.20628 50.26084,43.04468 L59.55644,51.26588 C54.21844,57.88228 46.52764,61.94188 36.17124,61.94188 C18.98084,61.94188 6.26484,49.87868 6.26484,32.36868 L6.26484,32.36868 Z" id="Fill-58" fill="#DB071A"></path>
                    <polygon id="Fill-59" fill="#4B4A4A" points="82.43572 31.15692 66.91812 4.24252 76.59452 4.24252 87.37252 23.34372 98.69452 4.24252 108.43892 4.24252 92.19372 31.15692 109.24132 60.63492 99.71452 60.63492 87.22292 39.04492 74.36412 60.63492 64.72852 60.63492"></polygon>
                    <path d="M125.35392,29.8418 L128.52952,29.8418 C136.34272,29.8418 140.25272,26.8362 140.25272,20.8182 C140.25272,14.9974 136.22712,12.0938 128.16232,12.0938 L125.35392,12.0938 L125.35392,29.8418 Z M125.35392,37.7298 L125.35392,60.6322 L116.84032,60.6322 L116.84032,4.2398 L126.48272,4.2398 C131.20872,4.2398 134.77872,4.5662 137.18592,5.2258 C139.62032,5.8854 141.76232,7.123 143.61872,8.9522 C146.84872,12.1142 148.46712,16.1058 148.46712,20.927 C148.46712,26.095 146.74672,30.1818 143.28552,33.201 C139.83112,36.2202 135.15952,37.7298 129.29792,37.7298 L125.35392,37.7298 Z" id="Fill-60" fill="#4B4A4A"></path>
                    <polygon id="Fill-61" fill="#4B4A4A" points="165.74864 4.23912 165.74864 52.63472 182.32704 52.63472 182.32704 60.63152 157.23504 60.63152 157.23504 4.23912"></polygon>
                    <path d="M193.87208,32.28912 C193.87208,38.52472 195.96648,43.64512 200.15528,47.66392 C204.31688,51.68272 209.12448,53.68872 214.57808,53.68872 C220.49408,53.68872 225.48528,51.64872 229.55168,47.55512 C233.62488,43.41392 235.65808,38.37512 235.65808,32.43192 C235.65808,26.42072 233.64528,21.38192 229.62648,17.31552 C225.63488,13.22192 220.69128,11.18192 214.79568,11.18192 C208.93408,11.18192 203.97008,13.22192 199.93768,17.31552 C195.89168,21.35472 193.87208,26.34592 193.87208,32.28912 M185.28368,32.18032 C185.28368,24.23792 188.19408,17.42432 194.01488,11.72592 C199.80848,6.02752 206.77168,3.17832 214.91128,3.17832 C222.94208,3.17832 229.83048,6.05472 235.58328,11.80072 C241.34968,17.54672 244.23288,24.44872 244.23288,32.50672 C244.23288,40.61912 241.33608,47.49392 235.54248,53.14472 C229.72168,58.81592 222.69728,61.65832 214.46928,61.65832 C207.18648,61.65832 200.65168,59.13552 194.85808,54.09672 C188.47968,48.52072 185.28368,41.21072 185.28368,32.18032" id="Fill-62" fill="#4B4A4A"></path>
                    <path d="M286.8206,12.63916 L279.9186,16.73276 C278.6266,14.48876 277.3958,13.02676 276.2262,12.34676 C275.0158,11.56476 273.4382,11.17716 271.5206,11.17716 C269.1542,11.17716 267.1958,11.85036 265.6386,13.18996 C264.0814,14.50236 263.2994,16.16156 263.2994,18.15396 C263.2994,20.90796 265.3462,23.12476 269.433,24.80436 L275.0634,27.10276 C279.6398,28.95236 282.9922,31.20996 285.107,33.87556 C287.2286,36.54796 288.2826,39.81196 288.2826,43.68116 C288.2826,48.86956 286.5554,53.15356 283.0942,56.54676 C279.6126,59.95356 275.2946,61.65356 270.1334,61.65356 C265.2374,61.65356 261.1914,60.21196 258.009,57.30836 C254.8674,54.41156 252.909,50.33156 252.1202,45.07516 L260.7426,43.17116 C261.137,46.48276 261.817,48.77436 262.7894,50.03916 C264.5438,52.47356 267.1006,53.69076 270.4598,53.69076 C273.1118,53.69076 275.3218,52.79996 277.0694,51.02516 C278.8238,49.25036 279.701,46.99276 279.701,44.26596 C279.701,43.17116 279.5514,42.17156 279.2454,41.25356 C278.9394,40.34236 278.4634,39.49916 277.8174,38.73756 C277.1714,37.96916 276.3418,37.24836 275.3218,36.58196 C274.295,35.90876 273.0778,35.26956 271.6634,34.66436 L266.2234,32.39996 C258.5054,29.13596 254.6498,24.36236 254.6498,18.07916 C254.6498,13.84276 256.2682,10.29996 259.4982,7.45076 C262.7418,4.58116 266.7742,3.14636 271.5954,3.14636 C278.0962,3.14636 283.169,6.30836 286.8206,12.63916" id="Fill-63" fill="#4B4A4A"></path>
                    <polygon id="Fill-64" fill="#4B4A4A" points="298.5472 60.6356 307.054 60.6356 307.054 4.2432 298.5472 4.2432"></polygon>
                    <polygon id="Fill-65" fill="#4B4A4A" points="323.45696 4.23912 339.04936 43.31872 354.86616 4.23912 364.17536 4.23912 338.87256 64.87472 314.14096 4.23912"></polygon>
                    <polygon id="Fill-66" fill="#4B4A4A" points="86.15464 91.12816 86.15464 139.51696 102.73304 139.51696 102.73304 147.52056 77.64784 147.52056 77.64784 91.12816"></polygon>
                    <path d="M143.6092,125.81904 L135.2452,106.64984 L126.4732,125.81904 L143.6092,125.81904 Z M147.0772,133.82264 L122.9372,133.82264 L116.654,147.51784 L107.4876,147.51784 L135.388,87.58264 L162.3092,147.51784 L152.9932,147.51784 L147.0772,133.82264 Z" id="Fill-67" fill="#4B4A4A"></path>
                    <polygon id="Fill-68" fill="#4B4A4A" points="177.86828 113.62664 199.81868 91.12544 211.17468 91.12544 185.68148 116.65264 211.32428 147.51784 199.92748 147.51784 179.62268 122.42584 177.86828 124.18024 177.86828 147.51784 169.35468 147.51784 169.35468 91.12544 177.86828 91.12544"></polygon>
                    <path d="M248.5774,125.81904 L240.2134,106.64984 L231.4414,125.81904 L248.5774,125.81904 Z M252.0454,133.82264 L227.9054,133.82264 L221.6222,147.51784 L212.4558,147.51784 L240.3562,87.58264 L267.2774,147.51784 L257.9614,147.51784 L252.0454,133.82264 Z" id="Fill-69" fill="#4B4A4A"></path>
                    <polygon id="Fill-70" fill="#4B4A4A" points="286.74104 99.1236 286.74104 147.5192 278.23424 147.5192 278.23424 99.1236 265.26664 99.1236 265.26664 91.1268 299.66784 91.1268 299.66784 99.1236"></polygon>
                    <polygon id="Fill-71" fill="#4B4A4A" points="307.2648 147.5192 315.7784 147.5192 315.7784 91.1268 307.2648 91.1268"></polygon>
                    <polygon id="Fill-72" fill="#4B4A4A" points="332.1766 91.12816 347.7758 130.20096 363.5858 91.12816 372.9018 91.12816 347.5922 151.75696 322.8674 91.12816"></polygon>
                </g>
            </g>
        </g>
    </g>
</svg>