<?xml version="1.0" encoding="UTF-8"?>
<svg width="195px" height="87px" viewBox="0 0 195 87" version="1.1" xmlns="http://www.w3.org/2000/svg" xmlns:xlink="http://www.w3.org/1999/xlink">
    <!-- Generator: Sketch 43.2 (39069) - http://www.bohemiancoding.com/sketch -->
    <title>wortpaare/explosiv-plakativ-neg</title>
    <desc>Created with Sketch.</desc>
    <defs>
        <polygon id="path-1" points="14.86782 0.9144 0 0.9144 0 32.4576 29.73564 32.4576 29.73564 0.9144 14.86782 0.9144"></polygon>
        <polygon id="path-3" points="0 89.08452 194.1012 89.08452 194.1012 3.59892 0 3.59892"></polygon>
    </defs>
    <g id="Page-1" stroke="none" stroke-width="1" fill="none" fill-rule="evenodd">
        <g id="wortpaare/explosiv-plakativ/neg" transform="translate(0.000000, -3.000000)">
            <g id="Page-1">
                <path d="M24.81804,65.26116 L24.81804,65.14956 C24.81804,60.18516 21.46644,56.89116 17.51004,56.89116 C13.54644,56.89116 10.25604,60.18516 10.25604,65.14956 L10.25604,65.26116 C10.25604,70.22556 13.54644,73.51956 17.51004,73.51956 C21.46644,73.51956 24.81804,70.28316 24.81804,65.26116 Z M1.88244,50.24916 L10.36764,50.24916 L10.36764,54.54396 C12.43044,51.75756 15.27444,49.69476 19.68444,49.69476 C26.65764,49.69476 33.29604,55.15956 33.29604,65.14956 L33.29604,65.26116 C33.29604,75.24396 26.76924,80.71596 19.68444,80.71596 C15.16284,80.71596 12.37284,78.64956 10.36764,76.25196 L10.36764,89.08236 L1.88244,89.08236 L1.88244,50.24916 Z" id="Fill-1" fill="#FFFFFF"></path>
                <g id="Group-5" transform="translate(0.000000, 2.684520)">
                    <mask id="mask-2" fill="white">
                        <use xlink:href="#path-1"></use>
                    </mask>
                    <g id="Clip-4"></g>
                    <path d="M21.36924,14.256 C20.86164,10.4112 18.60084,7.812 14.98644,7.812 C11.42244,7.812 9.10404,10.3536 8.42724,14.256 L21.36924,14.256 Z M-0.00036,16.8012 L-0.00036,16.686 C-0.00036,8.0352 6.16284,0.9144 14.98644,0.9144 C25.10244,0.9144 29.73564,8.7732 29.73564,17.3664 C29.73564,18.0432 29.68164,18.8352 29.62404,19.6272 L8.53884,19.6272 C9.38844,23.5296 12.09924,25.56 15.94044,25.56 C18.82764,25.56 20.91924,24.6564 23.29164,22.4532 L28.20924,26.8056 C25.38324,30.3084 21.31164,32.4576 15.83244,32.4576 C6.72804,32.4576 -0.00036,26.0712 -0.00036,16.8012 L-0.00036,16.8012 Z" id="Fill-3" fill="#FFFFFF" mask="url(#mask-2)"></path>
                </g>
                <polygon id="Fill-6" fill="#FFFFFF" points="40.3236 18.8442 32.1084 4.5954 37.2312 4.5954 42.9372 14.7078 48.9312 4.5954 54.09 4.5954 45.4896 18.8442 54.5148 34.4502 49.4712 34.4502 42.858 23.0202 36.0504 34.4502 30.9492 34.4502"></polygon>
                <path d="M63.04536,18.14796 L64.72656,18.14796 C68.86296,18.14796 70.93296,16.55676 70.93296,13.37076 C70.93296,10.28916 68.80176,8.75196 64.53216,8.75196 L63.04536,8.75196 L63.04536,18.14796 Z M63.04536,22.32396 L63.04536,34.44876 L58.53816,34.44876 L58.53816,4.59396 L63.64296,4.59396 C66.14496,4.59396 68.03496,4.76676 69.30936,5.11596 C70.59816,5.46516 71.73216,6.12036 72.71496,7.08876 C74.42496,8.76276 75.28176,10.87596 75.28176,13.42836 C75.28176,16.16436 74.37096,18.32796 72.53856,19.92636 C70.70976,21.52476 68.23656,22.32396 65.13336,22.32396 L63.04536,22.32396 Z" id="Fill-8" fill="#FFFFFF"></path>
                <polygon id="Fill-10" fill="#FFFFFF" points="84.4308 4.5936 84.4308 30.2148 93.2076 30.2148 93.2076 34.4484 79.9236 34.4484 79.9236 4.5936"></polygon>
                <path d="M99.31932,19.4436 C99.31932,22.7448 100.42812,25.4556 102.64572,27.5832 C104.84892,29.7108 107.39412,30.7728 110.28132,30.7728 C113.41332,30.7728 116.05572,29.6928 118.20852,27.5256 C120.36492,25.3332 121.44132,22.6656 121.44132,19.5192 C121.44132,16.3368 120.37572,13.6692 118.24812,11.5164 C116.13492,9.3492 113.51772,8.2692 110.39652,8.2692 C107.29332,8.2692 104.66532,9.3492 102.53052,11.5164 C100.38852,13.6548 99.31932,16.2972 99.31932,19.4436 M94.77252,19.386 C94.77252,15.1812 96.31332,11.574 99.39492,8.5572 C102.46212,5.5404 106.14852,4.032 110.45772,4.032 C114.70932,4.032 118.35612,5.5548 121.40172,8.5968 C124.45452,11.6388 125.98092,15.2928 125.98092,19.5588 C125.98092,23.8536 124.44732,27.4932 121.38012,30.4848 C118.29852,33.4872 114.57972,34.992 110.22372,34.992 C106.36812,34.992 102.90852,33.6564 99.84132,30.9888 C96.46452,28.0368 94.77252,24.1668 94.77252,19.386" id="Fill-12" fill="#FFFFFF"></path>
                <path d="M148.52772,9.04104 L144.87372,11.20824 C144.18972,10.02024 143.53812,9.24624 142.91892,8.88624 C142.27812,8.47224 141.44292,8.26704 140.42772,8.26704 C139.17492,8.26704 138.13812,8.62344 137.31372,9.33264 C136.48932,10.02744 136.07532,10.90584 136.07532,11.96064 C136.07532,13.41864 137.15892,14.59224 139.32252,15.48144 L142.30332,16.69824 C144.72612,17.67744 146.50092,18.87264 147.62052,20.28384 C148.74372,21.69864 149.30172,23.42664 149.30172,25.47504 C149.30172,28.22184 148.38732,30.48984 146.55492,32.28624 C144.71172,34.08984 142.42572,34.98984 139.69332,34.98984 C137.10132,34.98984 134.95932,34.22664 133.27452,32.68944 C131.61132,31.15584 130.57452,28.99584 130.15692,26.21304 L134.72172,25.20504 C134.93052,26.95824 135.29052,28.17144 135.80532,28.84104 C136.73412,30.12984 138.08772,30.77424 139.86612,30.77424 C141.27012,30.77424 142.44012,30.30264 143.36532,29.36304 C144.29412,28.42344 144.75852,27.22824 144.75852,25.78464 C144.75852,25.20504 144.67932,24.67584 144.51732,24.18984 C144.35532,23.70744 144.10332,23.26104 143.76132,22.85784 C143.41932,22.45104 142.98012,22.06944 142.44012,21.71664 C141.89652,21.36024 141.25212,21.02184 140.50332,20.70144 L137.62332,19.50264 C133.53732,17.77464 131.49612,15.24744 131.49612,11.92104 C131.49612,9.67824 132.35292,7.80264 134.06292,6.29424 C135.78012,4.77504 137.91492,4.01544 140.46732,4.01544 C143.90892,4.01544 146.59452,5.68944 148.52772,9.04104" id="Fill-14" fill="#FFFFFF"></path>
                <mask id="mask-4" fill="white">
                    <use xlink:href="#path-3"></use>
                </mask>
                <g id="Clip-17"></g>
                <polygon id="Fill-16" fill="#FFFFFF" mask="url(#mask-4)" points="154.7352 34.45092 159.2388 34.45092 159.2388 4.59612 154.7352 4.59612"></polygon>
                <polygon id="Fill-18" fill="#FFFFFF" mask="url(#mask-4)" points="167.92344 4.5936 176.17824 25.2828 184.55184 4.5936 189.48024 4.5936 176.08464 36.6948 162.99144 4.5936"></polygon>
                <polygon id="Fill-19" fill="#FFFFFF" mask="url(#mask-4)" points="42.29244 50.59368 42.29244 76.21128 51.06924 76.21128 51.06924 80.44848 37.78884 80.44848 37.78884 50.59368"></polygon>
                <path d="M72.70956,68.95944 L68.28156,58.81104 L63.63756,68.95944 L72.70956,68.95944 Z M74.54556,73.19664 L61.76556,73.19664 L58.43916,80.44704 L53.58636,80.44704 L68.35716,48.71664 L82.60956,80.44704 L77.67756,80.44704 L74.54556,73.19664 Z" id="Fill-20" fill="#FFFFFF" mask="url(#mask-4)"></path>
                <polygon id="Fill-21" fill="#FFFFFF" mask="url(#mask-4)" points="90.84672 62.50464 102.46752 50.59224 108.47952 50.59224 94.98312 64.10664 108.55872 80.44704 102.52512 80.44704 91.77552 67.16304 90.84672 68.09184 90.84672 80.44704 86.33952 80.44704 86.33952 50.59224 90.84672 50.59224"></polygon>
                <path d="M128.28132,68.95944 L123.85332,58.81104 L119.20932,68.95944 L128.28132,68.95944 Z M130.11732,73.19664 L117.33732,73.19664 L114.01092,80.44704 L109.15812,80.44704 L123.92892,48.71664 L138.18132,80.44704 L133.24932,80.44704 L130.11732,73.19664 Z" id="Fill-22" fill="#FFFFFF" mask="url(#mask-4)"></path>
                <polygon id="Fill-23" fill="#FFFFFF" mask="url(#mask-4)" points="148.4856 54.82656 148.4856 80.44776 143.982 80.44776 143.982 54.82656 137.1168 54.82656 137.1168 50.59296 155.3292 50.59296 155.3292 54.82656"></polygon>
                <polygon id="Fill-24" fill="#FFFFFF" mask="url(#mask-4)" points="159.3504 80.44812 163.8576 80.44812 163.8576 50.59332 159.3504 50.59332"></polygon>
                <polygon id="Fill-25" fill="#FFFFFF" mask="url(#mask-4)" points="172.53936 50.59368 180.79776 71.27928 189.16776 50.59368 194.09976 50.59368 180.70056 82.69128 167.61096 50.59368"></polygon>
            </g>
        </g>
    </g>
</svg>