<?xml version="1.0" encoding="UTF-8"?>
<svg width="395px" height="164px" viewBox="0 0 395 164" version="1.1" xmlns="http://www.w3.org/2000/svg" xmlns:xlink="http://www.w3.org/1999/xlink">
    <!-- Generator: Sketch 44 (41411) - http://www.bohemiancoding.com/sketch -->
    <title>wortpaare/extrem-plemplem-pos</title>
    <desc>Created with Sketch.</desc>
    <defs>
        <polygon id="path-1" points="5.52943108e-19 1.7272 5.52943108e-19 61.3088 56.1646 61.3088 56.1646 1.7272 0 1.7272"></polygon>
    </defs>
    <g id="Page-1" stroke="none" stroke-width="1" fill="none" fill-rule="evenodd">
        <g id="Wortpaare" transform="translate(-1152.000000, -1905.000000)">
            <g id="wortpaare/extrem-plemplem/pos" transform="translate(1152.000000, 1905.000000)">
                <g id="Page-1">
                    <path d="M46.8758,118.82796 L46.8758,118.61716 C46.8758,109.23996 40.5518,103.01796 33.0718,103.01796 C25.585,103.01796 19.3698,109.23996 19.3698,118.61716 L19.3698,118.82796 C19.3698,128.21196 25.585,134.42716 33.0718,134.42716 C40.5518,134.42716 46.8758,128.31396 46.8758,118.82796 L46.8758,118.82796 Z M3.5598,90.47876 L19.5806,90.47876 L19.5806,98.59116 C23.477,93.32796 28.8558,89.42476 37.179,89.42476 C50.3574,89.42476 62.8898,99.75396 62.8898,118.61716 L62.8898,118.82796 C62.8898,137.69116 50.5682,148.02036 37.179,148.02036 C28.6382,148.02036 23.375,144.12396 19.5806,139.59516 L19.5806,163.83036 L3.5598,163.83036 L3.5598,90.47876 Z" id="Fill-1" fill="#DB071A"></path>
                    <g id="Group-5" transform="translate(0.000000, 0.631040)">
                        <mask id="mask-2" fill="white">
                            <use xlink:href="#path-1"></use>
                        </mask>
                        <g id="Clip-4"></g>
                        <path d="M40.3614,26.928 C39.4026,19.6656 35.1322,14.756 28.305,14.756 C21.573,14.756 17.2006,19.5568 15.9154,26.928 L40.3614,26.928 Z M-0.0034,31.7356 L-0.0034,31.518 C-0.0034,15.1776 11.6382,1.7272 28.305,1.7272 C47.413,1.7272 56.1646,16.5716 56.1646,32.8032 C56.1646,34.0816 56.0694,35.5776 55.9606,37.0736 L16.1262,37.0736 C17.731,44.4448 22.8582,48.28 30.1138,48.28 C35.5606,48.28 39.5182,46.5732 43.9926,42.4116 L53.2814,50.6328 C47.9502,57.2492 40.2594,61.3088 29.903,61.3088 C12.7126,61.3088 -0.0034,49.2456 -0.0034,31.7356 L-0.0034,31.7356 Z" id="Fill-3" fill="#DB071A" mask="url(#mask-2)"></path>
                    </g>
                    <polygon id="Fill-6" fill="#4B4A4A" points="76.16748 31.15488 60.64988 4.24048 70.32628 4.24048 81.10428 23.34168 92.42628 4.24048 102.17068 4.24048 85.92548 31.15488 102.97308 60.62608 93.44628 60.62608 80.95468 39.04288 68.09588 60.62608 58.46028 60.62608"></polygon>
                    <polygon id="Fill-8" fill="#4B4A4A" points="126.13116 12.23592 126.13116 60.63152 117.62436 60.63152 117.62436 12.23592 104.65676 12.23592 104.65676 4.23912 139.05796 4.23912 139.05796 12.23592"></polygon>
                    <path d="M155.17056,30.13216 L157.87016,30.13216 C165.92816,30.13216 169.96056,27.05176 169.96056,20.89096 C169.96056,15.11776 166.04376,12.23456 158.19656,12.23456 L155.17056,12.23456 L155.17056,30.13216 Z M165.76496,36.59896 L183.22056,60.63016 L172.80976,60.63016 L156.70736,37.54416 L155.17056,37.54416 L155.17056,60.63016 L146.65696,60.63016 L146.65696,4.23776 L156.63256,4.23776 C164.08536,4.23776 169.46416,5.63856 172.77576,8.44016 C176.42736,11.55456 178.25656,15.66856 178.25656,20.78216 C178.25656,24.77376 177.10736,28.20776 174.82256,31.08416 C172.53096,33.95376 169.50496,35.79656 165.76496,36.59896 L165.76496,36.59896 Z" id="Fill-10" fill="#4B4A4A"></path>
                    <polygon id="Fill-12" fill="#4B4A4A" points="222.8122 12.23592 200.2022 12.23592 200.2022 25.78832 222.1526 25.78832 222.1526 33.78512 200.2022 33.78512 200.2022 52.62792 222.8122 52.62792 222.8122 60.63152 191.6954 60.63152 191.6954 4.23912 222.8122 4.23912"></polygon>
                    <polygon id="Fill-14" fill="#4B4A4A" points="232.016 60.62948 243.882 0.00068 263.2416 43.82668 283.2948 0.00068 293.9572 60.62948 285.226 60.62948 279.786 26.58868 263.092 63.22028 246.8808 26.55468 240.8152 60.62948"></polygon>
                    <polygon id="Fill-16" fill="#4B4A4A" points="79.8864 91.12272 79.8864 139.51832 96.4648 139.51832 96.4648 147.51512 71.3796 147.51512 71.3796 91.12272"></polygon>
                    <polygon id="Fill-18" fill="#4B4A4A" points="135.66068 99.12156 113.05068 99.12156 113.05068 112.67396 135.00108 112.67396 135.00108 120.67076 113.05068 120.67076 113.05068 139.51356 135.66068 139.51356 135.66068 147.51716 104.54388 147.51716 104.54388 91.12476 135.66068 91.12476"></polygon>
                    <polygon id="Fill-20" fill="#4B4A4A" points="144.86448 147.51512 156.73048 86.88632 176.09008 130.71232 196.14328 86.88632 206.80568 147.51512 198.07448 147.51512 192.63448 113.47432 175.94048 150.10592 159.72928 113.44032 153.66368 147.51512"></polygon>
                    <path d="M227.26144,116.72608 L230.43704,116.72608 C238.25024,116.72608 242.16024,113.72048 242.16024,107.70248 C242.16024,101.88168 238.13464,98.97808 230.06984,98.97808 L227.26144,98.97808 L227.26144,116.72608 Z M227.26144,124.61408 L227.26144,147.51648 L218.74784,147.51648 L218.74784,91.12408 L228.39024,91.12408 C233.11624,91.12408 236.68624,91.45048 239.09344,92.11008 C241.52784,92.76968 243.66984,94.00728 245.52624,95.83648 C248.75624,98.99848 250.37464,102.99008 250.37464,107.81128 C250.37464,112.97928 248.65424,117.06608 245.19304,120.08528 C241.73864,123.10448 237.06704,124.61408 231.20544,124.61408 L227.26144,124.61408 Z" id="Fill-22" fill="#4B4A4A"></path>
                    <polygon id="Fill-24" fill="#4B4A4A" points="267.65616 91.12272 267.65616 139.51832 284.23456 139.51832 284.23456 147.51512 259.14256 147.51512 259.14256 91.12272"></polygon>
                    <polygon id="Fill-26" fill="#4B4A4A" points="323.42432 99.12156 300.82112 99.12156 300.82112 112.67396 322.76472 112.67396 322.76472 120.67076 300.82112 120.67076 300.82112 139.51356 323.42432 139.51356 323.42432 147.51716 292.30752 147.51716 292.30752 91.12476 323.42432 91.12476"></polygon>
                    <polygon id="Fill-28" fill="#4B4A4A" points="332.62812 147.51512 344.50092 86.88632 363.86052 130.71232 383.90692 86.88632 394.56932 147.51512 385.84492 147.51512 380.39812 113.47432 363.71092 150.10592 347.49972 113.44032 341.43412 147.51512"></polygon>
                </g>
            </g>
        </g>
    </g>
</svg>