<?xml version="1.0" encoding="UTF-8"?>
<svg width="161px" height="90px" viewBox="0 0 161 90" version="1.1" xmlns="http://www.w3.org/2000/svg" xmlns:xlink="http://www.w3.org/1999/xlink">
    <!-- Generator: Sketch 43.2 (39069) - http://www.bohemiancoding.com/sketch -->
    <title>wortpaare/extrem-pfiffig-neg</title>
    <desc>Created with Sketch.</desc>
    <defs>
        <polygon id="path-1" points="0 0.385757286 0 32.9763784 30.6413045 32.9763784 30.6413045 0.385757286 1.00552589e-19 0.385757286"></polygon>
        <polygon id="path-3" points="34.2364094 0.0195867176 0.444426345 0.0195867176 0.444426345 34.6031381 34.2364094 34.6031381 34.2364094 0.0195867176"></polygon>
        <polygon id="path-5" points="0 89.9792974 160.368167 89.9792974 160.368167 0.364388199 0 0.364388199"></polygon>
    </defs>
    <g id="Page-1" stroke="none" stroke-width="1" fill="none" fill-rule="evenodd">
        <g id="wortpaare/extrem-pfiffig/neg">
            <g id="wortpaare/extrem-pfiffig-neg-copy">
                <path d="M25.5738054,65.3648607 L25.5738054,65.2495549 C25.5738054,60.1203075 22.1237512,56.7169271 18.0430418,56.7169271 C13.9586228,56.7169271 10.5679243,60.1203075 10.5679243,65.2495549 L10.5679243,65.3648607 C10.5679243,70.4941082 13.9586228,73.8974885 18.0430418,73.8974885 C22.1237512,73.8974885 25.5738054,70.5536209 25.5738054,65.3648607 Z M1.93907888,49.8543734 L10.6829261,49.8543734 L10.6829261,54.2917862 C12.8086047,51.4128612 15.7430057,49.281564 20.2837222,49.281564 C27.4694804,49.281564 34.3102332,54.9278278 34.3102332,65.2495549 L34.3102332,65.3648607 C34.3102332,75.6791488 27.5844822,81.3328516 20.2837222,81.3328516 C15.6242941,81.3328516 12.7492489,79.1978349 10.6829261,76.7206204 L10.6829261,89.9770657 L1.93907888,89.9770657 L1.93907888,49.8543734 Z" id="Fill-1" fill="#FFFFFF"></path>
                <g id="Group-5" transform="translate(0.000000, 1.269312)">
                    <mask id="mask-2" fill="white">
                        <use xlink:href="#path-1"></use>
                    </mask>
                    <g id="Clip-4"></g>
                    <path d="M22.0198786,14.1703774 C21.4968058,10.1979073 19.1670918,7.51239847 15.4425171,7.51239847 C11.7698787,7.51239847 9.38080883,10.1383946 8.68337851,14.1703774 L22.0198786,14.1703774 Z M-0.00111292073,16.8000932 L-0.00111292073,16.6810678 C-0.00111292073,7.74301003 6.34995471,0.385757286 15.4425171,0.385757286 C25.8668746,0.385757286 30.6413045,8.50551601 30.6413045,17.3840612 C30.6413045,18.0833349 30.5856585,18.901634 30.5263027,19.7199331 L8.79838032,19.7199331 C9.67387796,23.7519159 12.467309,25.8497372 16.4293068,25.8497372 C19.4008051,25.8497372 21.5561616,24.9161323 24.0008775,22.6397731 L29.0683765,27.1366985 C26.1599437,30.7558122 21.9642325,32.9763784 16.314305,32.9763784 C6.93238323,32.9763784 -0.00111292073,26.3779121 -0.00111292073,16.8000932 L-0.00111292073,16.8000932 Z" id="Fill-3" fill="#FFFFFF" mask="url(#mask-2)"></path>
                </g>
                <polygon id="Fill-6" fill="#FFFFFF" points="41.5538632 17.4065827 33.0845365 2.68463808 38.3672002 2.68463808 44.2434217 13.1328297 50.4201317 2.68463808 55.7398928 2.68463808 46.8736243 17.4065827 56.1776416 33.5307943 50.9803018 33.5307943 44.1655172 21.7212506 37.1504069 33.5307943 31.8900016 33.5307943"></polygon>
                <polygon id="Fill-8" fill="#FFFFFF" points="68.8118887 7.05807477 68.8118887 33.5300504 64.1710093 33.5300504 64.1710093 7.05807477 57.0965432 7.05807477 57.0965432 2.68389417 75.8640964 2.68389417 75.8640964 7.05807477"></polygon>
                <path d="M84.6524604,16.8471636 L86.1252255,16.8471636 C90.5249722,16.8471636 92.7211357,15.1622114 92.7211357,11.792307 C92.7211357,8.63441639 90.5843279,7.05733086 86.3070026,7.05733086 L84.6524604,7.05733086 L84.6524604,16.8471636 Z M90.4322288,20.3844474 L99.9551205,33.5293065 L94.275515,33.5293065 L85.4908607,20.9014637 L84.6524604,20.9014637 L84.6524604,33.5293065 L80.011581,33.5293065 L80.011581,2.68315026 L85.4500536,2.68315026 C89.515924,2.68315026 92.450325,3.44937578 94.2569663,4.9818268 C96.2490944,6.68537673 97.2470134,8.93569924 97.2470134,11.7327943 C97.2470134,13.9161651 96.620068,15.7945334 95.3735968,17.3678994 C94.1234159,18.9375459 92.4762932,19.9455416 90.4322288,20.3844474 L90.4322288,20.3844474 Z" id="Fill-10" fill="#FFFFFF"></path>
                <polygon id="Fill-12" fill="#FFFFFF" points="121.554315 7.05807477 109.219444 7.05807477 109.219444 14.4711206 121.194471 14.4711206 121.194471 18.8453012 109.219444 18.8453012 109.219444 29.1521503 121.554315 29.1521503 121.554315 33.5300504 104.578564 33.5300504 104.578564 2.68389417 121.554315 2.68389417"></polygon>
                <g id="Group-16" transform="translate(126.131016, 0.344801)">
                    <mask id="mask-4" fill="white">
                        <use xlink:href="#path-3"></use>
                    </mask>
                    <g id="Clip-15"></g>
                    <polygon id="Fill-14" fill="#FFFFFF" mask="url(#mask-4)" points="0.444426345 33.1859928 6.92162499 0.0188428094 17.479533 23.9950062 28.4195438 0.0188428094 34.2364094 33.1859928 29.4768184 33.1859928 26.5053201 14.5659689 17.4016285 34.6031381 8.55390873 14.5436517 5.24482443 33.1859928"></polygon>
                </g>
                <polygon id="Fill-17" fill="#FFFFFF" points="54.3027412 54.5837702 43.5816048 54.5837702 43.5816048 61.9930965 53.9243481 61.9930965 53.9243481 66.3709967 43.5816048 66.3709967 43.5816048 81.0557458 38.9407254 81.0557458 38.9407254 50.2095896 54.3027412 50.2095896"></polygon>
                <mask id="mask-6" fill="white">
                    <use xlink:href="#path-5"></use>
                </mask>
                <g id="Clip-20"></g>
                <polygon id="Fill-19" fill="#FFFFFF" mask="url(#mask-6)" points="59.6859387 81.0561178 64.3268182 81.0561178 64.3268182 50.2099615 59.6859387 50.2099615"></polygon>
                <polygon id="Fill-21" fill="#FFFFFF" mask="url(#mask-6)" points="87.0797406 54.5837702 76.3586042 54.5837702 76.3586042 61.9930965 86.7013475 61.9930965 86.7013475 66.3709967 76.3586042 66.3709967 76.3586042 81.0557458 71.7177247 81.0557458 71.7177247 50.2095896 87.0797406 50.2095896"></polygon>
                <polygon id="Fill-22" fill="#FFFFFF" mask="url(#mask-6)" points="107.821986 54.5837702 97.1008498 54.5837702 97.1008498 61.9930965 107.443593 61.9930965 107.443593 66.3709967 97.1008498 66.3709967 97.1008498 81.0557458 92.4599703 81.0557458 92.4599703 50.2095896 107.821986 50.2095896"></polygon>
                <polygon id="Fill-23" fill="#FFFFFF" mask="url(#mask-6)" points="113.202587 81.0561178 117.843466 81.0561178 117.843466 50.2099615 113.202587 50.2099615"></polygon>
                <path d="M141.057509,64.9940225 L153.770773,64.9940225 L153.770773,66.0094572 C153.770773,68.3267315 153.499963,70.3761988 152.954631,72.1652981 C152.42043,73.8130549 151.526383,75.3603841 150.261363,76.7998466 C147.404867,80.024689 143.773035,81.6352504 139.36216,81.6352504 C135.058866,81.6352504 131.375099,80.0767625 128.303437,76.9597869 C125.235486,73.8279331 123.703365,70.0711964 123.703365,65.6895767 C123.703365,61.2149685 125.265164,57.4210363 128.385051,54.3040607 C131.504939,51.1759264 135.307418,49.60628 139.78136,49.60628 C142.185269,49.60628 144.433368,50.100979 146.51824,51.090377 C148.510368,52.0723359 150.469109,53.6717387 152.394461,55.8848657 L149.089087,59.0576345 C146.562757,55.6877301 143.487386,54.0027778 139.862974,54.0027778 C136.605826,54.0027778 133.87546,55.1297989 131.671877,57.3801214 C129.468294,59.5895289 128.366503,62.3643067 128.366503,65.6895767 C128.366503,69.1264329 129.594425,71.9570038 132.05027,74.1850091 C134.350307,76.245635 136.839539,77.2796675 139.521678,77.2796675 C141.806875,77.2796675 143.858359,76.5097224 145.67984,74.9623932 C147.50132,73.4039054 148.517787,71.5404152 148.729242,69.3682031 L141.057509,69.3682031 L141.057509,64.9940225 Z" id="Fill-24" fill="#FFFFFF" mask="url(#mask-6)"></path>
            </g>
        </g>
    </g>
</svg>