<?xml version="1.0" encoding="UTF-8"?>
<svg width="295px" height="164px" viewBox="0 0 295 164" version="1.1" xmlns="http://www.w3.org/2000/svg" xmlns:xlink="http://www.w3.org/1999/xlink">
    <!-- Generator: Sketch 44 (41411) - http://www.bohemiancoding.com/sketch -->
    <title>wortpaare/extrem-pfiffig-pos</title>
    <desc>Created with Sketch.</desc>
    <defs></defs>
    <g id="Page-1" stroke="none" stroke-width="1" fill="none" fill-rule="evenodd">
        <g id="Wortpaare" transform="translate(-204.000000, -635.000000)">
            <g id="wortpaare/extrem-pfiffig/pos" transform="translate(198.000000, 635.000000)">
                <g id="Group">
                    <path d="M53.62548,118.83272 L53.62548,118.62192 C53.62548,109.24472 47.30148,103.02272 39.82148,103.02272 C32.33468,103.02272 26.11948,109.24472 26.11948,118.62192 L26.11948,118.83272 C26.11948,128.20992 32.33468,134.43192 39.82148,134.43192 C47.30148,134.43192 53.62548,128.31872 53.62548,118.83272 L53.62548,118.83272 Z M10.30268,90.47672 L26.33028,90.47672 L26.33028,98.58912 C30.22668,93.32592 35.60548,89.42952 43.92868,89.42952 C57.10028,89.42952 69.63948,99.75192 69.63948,118.62192 L69.63948,118.83272 C69.63948,137.68912 57.31108,148.02512 43.92868,148.02512 C35.38788,148.02512 30.11788,144.12192 26.33028,139.59312 L26.33028,163.82832 L10.30268,163.82832 L10.30268,90.47672 Z" id="Fill-108" fill="#DB071A"></path>
                    <path d="M47.11108,27.56108 C46.15228,20.29868 41.88188,15.38908 35.05468,15.38908 C28.32268,15.38908 23.94348,20.18988 22.66508,27.56108 L47.11108,27.56108 Z M6.74628,32.36868 L6.74628,32.15108 C6.74628,15.81068 18.38788,2.36028 35.05468,2.36028 C54.16268,2.36028 62.91428,17.20468 62.91428,33.43628 C62.91428,34.71468 62.81228,36.21068 62.70348,37.70668 L22.87588,37.70668 C24.48068,45.07788 29.60108,48.91308 36.86348,48.91308 C42.31028,48.91308 46.26108,47.20628 50.74228,43.04468 L60.03108,51.26588 C54.69988,57.88228 47.00908,61.94188 36.65268,61.94188 C19.45548,61.94188 6.74628,49.87868 6.74628,32.36868 L6.74628,32.36868 Z" id="Fill-109" fill="#DB071A"></path>
                    <polygon id="Fill-110" fill="#4B4A4A" points="82.91716 31.15692 67.39276 4.24252 77.07596 4.24252 87.84716 23.34372 99.16916 4.24252 108.92036 4.24252 92.66836 31.15692 109.72276 60.63492 100.19596 60.63492 87.70436 39.04492 74.84556 60.63492 65.20316 60.63492"></polygon>
                    <polygon id="Fill-111" fill="#4B4A4A" points="132.88152 12.23728 132.88152 60.63288 124.37472 60.63288 124.37472 12.23728 111.40712 12.23728 111.40712 4.24048 145.80832 4.24048 145.80832 12.23728"></polygon>
                    <path d="M161.91752,30.1342 L164.61712,30.1342 C172.68192,30.1342 176.70752,27.0538 176.70752,20.893 C176.70752,15.1198 172.79072,12.2366 164.95032,12.2366 L161.91752,12.2366 L161.91752,30.1342 Z M172.51192,36.601 L189.96752,60.6322 L179.55672,60.6322 L163.45432,37.5462 L161.91752,37.5462 L161.91752,60.6322 L153.41072,60.6322 L153.41072,4.2398 L163.37952,4.2398 C170.83232,4.2398 176.21112,5.6406 179.52272,8.4422 C183.17432,11.5566 185.00352,15.6706 185.00352,20.7842 C185.00352,24.7758 183.85432,28.2098 181.56952,31.0862 C179.27792,33.9558 176.25872,35.7986 172.51192,36.601 L172.51192,36.601 Z" id="Fill-112" fill="#4B4A4A"></path>
                    <polygon id="Fill-113" fill="#4B4A4A" points="229.55848 12.23728 206.94848 12.23728 206.94848 25.78968 228.89888 25.78968 228.89888 33.78648 206.94848 33.78648 206.94848 52.62928 229.55848 52.62928 229.55848 60.63288 198.44168 60.63288 198.44168 4.24048 229.55848 4.24048"></polygon>
                    <polygon id="Fill-114" fill="#4B4A4A" points="238.76296 60.63424 250.63576 -0.00136 269.98856 43.83144 290.04176 -0.00136 300.70416 60.63424 291.97976 60.63424 286.53296 26.59344 269.84576 63.22504 253.62776 26.55264 247.56216 60.63424"></polygon>
                    <polygon id="Fill-115" fill="#4B4A4A" points="106.28536 99.1236 86.63336 99.1236 86.63336 112.6692 105.59176 112.6692 105.59176 120.6728 86.63336 120.6728 86.63336 147.5192 78.12656 147.5192 78.12656 91.1268 106.28536 91.1268"></polygon>
                    <polygon id="Fill-116" fill="#4B4A4A" points="116.1508 147.5192 124.6576 147.5192 124.6576 91.1268 116.1508 91.1268"></polygon>
                    <polygon id="Fill-117" fill="#4B4A4A" points="166.36676 99.1236 146.71476 99.1236 146.71476 112.6692 165.67316 112.6692 165.67316 120.6728 146.71476 120.6728 146.71476 147.5192 138.20796 147.5192 138.20796 91.1268 166.36676 91.1268"></polygon>
                    <polygon id="Fill-118" fill="#4B4A4A" points="204.3876 99.1236 184.7356 99.1236 184.7356 112.6692 203.694 112.6692 203.694 120.6728 184.7356 120.6728 184.7356 147.5192 176.2288 147.5192 176.2288 91.1268 204.3876 91.1268"></polygon>
                    <polygon id="Fill-119" fill="#4B4A4A" points="214.2544 147.5192 222.7612 147.5192 222.7612 91.1268 214.2544 91.1268"></polygon>
                    <path d="M265.3088,118.15544 L288.6124,118.15544 L288.6124,120.01184 C288.6124,124.24824 288.116,127.99504 287.1164,131.26584 C286.1372,134.27824 284.4984,137.10704 282.1796,139.73864 C276.9436,145.63424 270.2864,148.57864 262.2012,148.57864 C254.3132,148.57864 247.5608,145.72944 241.9304,140.03104 C236.3068,134.30544 233.4984,127.43744 233.4984,119.42704 C233.4984,111.24664 236.3612,104.31064 242.08,98.61224 C247.7988,92.89344 254.7688,90.02384 262.9696,90.02384 C267.376,90.02384 271.4968,90.92824 275.3184,92.73704 C278.97,94.53224 282.5604,97.45624 286.0896,101.50224 L280.0308,107.30264 C275.4,101.14184 269.7628,98.06144 263.1192,98.06144 C257.1488,98.06144 252.144,100.12184 248.1048,104.23584 C244.0656,108.27504 242.046,113.34784 242.046,119.42704 C242.046,125.71024 244.2968,130.88504 248.7984,134.95824 C253.0144,138.72544 257.5772,140.61584 262.4936,140.61584 C266.6824,140.61584 270.4428,139.20824 273.7816,136.37944 C277.1204,133.53024 278.9836,130.12344 279.3712,126.15224 L265.3088,126.15224 L265.3088,118.15544 Z" id="Fill-120" fill="#4B4A4A"></path>
                </g>
            </g>
        </g>
    </g>
</svg>