<?xml version="1.0" encoding="UTF-8"?>
<svg width="209px" height="87px" viewBox="0 0 209 87" version="1.1" xmlns="http://www.w3.org/2000/svg" xmlns:xlink="http://www.w3.org/1999/xlink">
    <!-- Generator: Sketch 44.1 (41455) - http://www.bohemiancoding.com/sketch -->
    <title>wortpaare/extrem-plemplem-neg</title>
    <desc>Created with Sketch.</desc>
    <defs></defs>
    <g id="Page-1" stroke="none" stroke-width="1" fill="none" fill-rule="evenodd">
        <g id="negativ" transform="translate(-521.000000, -142.000000)" fill="#FFFFFF">
            <g id="wortpaare/extrem-plemplem/neg" transform="translate(521.000000, 142.000000)">
                <g id="Page-1">
                    <path d="M24.8166,62.90892 L24.8166,62.79732 C24.8166,57.83292 21.4686,54.53892 17.5086,54.53892 C13.545,54.53892 10.2546,57.83292 10.2546,62.79732 L10.2546,62.90892 C10.2546,67.87692 13.545,71.16732 17.5086,71.16732 C21.4686,71.16732 24.8166,67.93092 24.8166,62.90892 L24.8166,62.90892 Z M1.881,47.90052 L10.3662,47.90052 L10.3662,52.19532 C12.429,49.40892 15.2766,47.34252 19.683,47.34252 C26.6562,47.34252 33.2946,52.81092 33.2946,62.79732 L33.2946,62.90892 C33.2946,72.89532 26.7678,78.36372 19.683,78.36372 C15.1614,78.36372 12.3714,76.30092 10.3662,73.90332 L10.3662,86.73372 L1.881,86.73372 L1.881,47.90052 Z" id="Fill-1"></path>
                    <path d="M21.3696,14.59008 C20.8584,10.74528 18.6012,8.14608 14.9832,8.14608 C11.4228,8.14608 9.1044,10.68768 8.4276,14.59008 L21.3696,14.59008 Z M0,17.13528 L0,17.02008 C0,8.36928 6.1632,1.24848 14.9832,1.24848 C25.1028,1.24848 29.736,9.10728 29.736,17.70048 C29.736,18.37728 29.682,19.16928 29.6244,19.96128 L8.5356,19.96128 C9.3888,23.86368 12.0996,25.89408 15.9408,25.89408 C18.8244,25.89408 20.9196,24.99048 23.292,22.78728 L28.2096,27.13968 C25.3836,30.64248 21.312,32.79168 15.8292,32.79168 C6.7284,32.79168 0,26.40528 0,17.13528 L0,17.13528 Z" id="Fill-3"></path>
                    <polygon id="Fill-5" points="40.32396 16.49376 32.10876 2.24496 37.23156 2.24496 42.93756 12.35736 48.93156 2.24496 54.09036 2.24496 45.48996 16.49376 54.51516 32.09616 49.47156 32.09616 42.85836 20.66976 36.05076 32.09616 30.94956 32.09616"></polygon>
                    <polygon id="Fill-7" points="66.77568 6.47784 66.77568 32.09904 62.27208 32.09904 62.27208 6.47784 55.40688 6.47784 55.40688 2.24424 73.61928 2.24424 73.61928 6.47784"></polygon>
                    <path d="M82.14948,15.95232 L83.57868,15.95232 C87.84468,15.95232 89.97948,14.32152 89.97948,11.05992 C89.97948,8.00352 87.90588,6.47712 83.75148,6.47712 L82.14948,6.47712 L82.14948,15.95232 Z M87.75828,19.37592 L96.99948,32.09832 L91.48788,32.09832 L82.96308,19.87632 L82.14948,19.87632 L82.14948,32.09832 L77.64228,32.09832 L77.64228,2.24352 L82.92348,2.24352 C86.86908,2.24352 89.71668,2.98512 91.46988,4.46832 C93.40308,6.11712 94.37148,8.29512 94.37148,11.00232 C94.37148,13.11552 93.76308,14.93352 92.55348,16.45632 C91.34028,17.97552 89.73828,18.95112 87.75828,19.37592 L87.75828,19.37592 Z" id="Fill-9"></path>
                    <polygon id="Fill-11" points="117.9594 6.47784 105.9894 6.47784 105.9894 13.65264 117.6102 13.65264 117.6102 17.88624 105.9894 17.88624 105.9894 27.86184 117.9594 27.86184 117.9594 32.09904 101.4858 32.09904 101.4858 2.24424 117.9594 2.24424"></polygon>
                    <polygon id="Fill-13" points="122.83236 32.09796 129.11436 0.00036 139.36356 23.20236 149.97996 0.00036 155.62476 32.09796 151.00236 32.09796 148.12236 14.07636 139.28436 33.46956 130.70196 14.05836 127.49076 32.09796"></polygon>
                    <polygon id="Fill-15" points="42.2928 48.24144 42.2928 73.86264 51.0696 73.86264 51.0696 78.09624 37.7892 78.09624 37.7892 48.24144"></polygon>
                    <polygon id="Fill-17" points="71.82036 52.47612 59.85036 52.47612 59.85036 59.65092 71.47116 59.65092 71.47116 63.88452 59.85036 63.88452 59.85036 73.86012 71.82036 73.86012 71.82036 78.09732 55.34676 78.09732 55.34676 48.24252 71.82036 48.24252"></polygon>
                    <polygon id="Fill-19" points="76.69296 78.09624 82.97496 45.99864 93.22416 69.20064 103.84056 45.99864 109.48536 78.09624 104.86296 78.09624 101.98296 60.07464 93.14496 79.46784 84.56256 60.05664 81.35136 78.09624"></polygon>
                    <path d="M120.31488,61.79616 L121.99608,61.79616 C126.13248,61.79616 128.20248,60.20496 128.20248,57.01896 C128.20248,53.93736 126.07128,52.40016 121.80168,52.40016 L120.31488,52.40016 L120.31488,61.79616 Z M120.31488,65.97216 L120.31488,78.09696 L115.80768,78.09696 L115.80768,48.24216 L120.91248,48.24216 C123.41448,48.24216 125.30448,48.41496 126.57888,48.76416 C127.86768,49.11336 129.00168,49.76856 129.98448,50.73696 C131.69448,52.41096 132.55128,54.52416 132.55128,57.07656 C132.55128,59.81256 131.64048,61.97616 129.80808,63.57456 C127.97928,65.17296 125.50608,65.97216 122.40288,65.97216 L120.31488,65.97216 Z" id="Fill-21"></path>
                    <polygon id="Fill-23" points="141.70068 48.24144 141.70068 73.86264 150.47748 73.86264 150.47748 78.09624 137.19348 78.09624 137.19348 48.24144"></polygon>
                    <polygon id="Fill-25" points="171.22464 52.47612 159.25824 52.47612 159.25824 59.65092 170.87544 59.65092 170.87544 63.88452 159.25824 63.88452 159.25824 73.86012 171.22464 73.86012 171.22464 78.09732 154.75104 78.09732 154.75104 48.24252 171.22464 48.24252"></polygon>
                    <polygon id="Fill-27" points="176.0976 78.09624 182.3832 45.99864 192.6324 69.20064 203.2452 45.99864 208.89 78.09624 204.2712 78.09624 201.3876 60.07464 192.5532 79.46784 183.9708 60.05664 180.7596 78.09624"></polygon>
                </g>
            </g>
        </g>
    </g>
</svg>