<?xml version="1.0" encoding="UTF-8"?>
<svg width="566px" height="169px" viewBox="0 0 566 169" version="1.1" xmlns="http://www.w3.org/2000/svg" xmlns:xlink="http://www.w3.org/1999/xlink">
    <!-- Generator: Sketch 44.1 (41455) - http://www.bohemiancoding.com/sketch -->
    <title>wortpaare/mitarbeiter/echt-punktgenau-pos</title>
    <desc>Created with Sketch.</desc>
    <defs></defs>
    <g id="Page-1" stroke="none" stroke-width="1" fill="none" fill-rule="evenodd">
        <g id="Wortpaare-Copy" transform="translate(-3369.000000, -785.000000)">
            <g id="wortpaare/mitarbeiter/echt-punktgenau/pos" transform="translate(3369.000000, 785.000000)">
                <g id="Group-6">
                    <path d="M49.8917146,122.005007 L49.8917146,121.78489 C49.8917146,111.993226 43.2900976,105.496218 35.4817335,105.496218 C27.6662709,105.496218 21.1782301,111.993226 21.1782301,121.78489 L21.1782301,122.005007 C21.1782301,131.803772 27.6662709,138.293679 35.4817335,138.293679 C43.2900976,138.293679 49.8917146,131.91028 49.8917146,122.005007 L49.8917146,122.005007 Z M4.66708923,92.4027963 L21.398284,92.4027963 L21.398284,100.873758 C25.4657319,95.3779285 31.0806555,91.3022103 39.7692353,91.3022103 C53.5190547,91.3022103 66.6087124,102.087952 66.6087124,121.78489 L66.6087124,122.005007 C66.6087124,141.701945 53.7391086,152.487687 39.7692353,152.487687 C30.8535031,152.487687 25.3521557,148.419069 21.398284,143.6901 L21.398284,168.996475 L4.66708923,168.996475 L4.66708923,92.4027963 Z" id="Fill-440" fill="#DB071A"></path>
                    <path d="M43.0913393,26.7020775 C42.090449,19.1186855 37.6325829,13.9920853 30.505676,13.9920853 C23.4781483,13.9920853 18.906706,19.0050766 17.5721856,26.7020775 L43.0913393,26.7020775 Z M0.95456701,31.7221693 L0.95456701,31.4949516 C0.95456701,14.4323196 13.107221,0.38742326 30.505676,0.38742326 C50.4524971,0.38742326 59.5882832,15.8879333 59.5882832,32.8369564 C59.5882832,34.1718606 59.4818055,35.7339825 59.3682293,37.2961045 L17.7922395,37.2961045 C19.4674885,44.9931053 24.8126687,48.9978179 32.3938804,48.9978179 C38.0797892,48.9978179 42.2040252,47.2155788 46.8819452,42.8700396 L56.5785137,51.4546097 C51.0132796,58.363449 42.9848616,62.60248 32.1738265,62.60248 C14.2216875,62.60248 0.95456701,50.0060966 0.95456701,31.7221693 L0.95456701,31.7221693 Z" id="Fill-441" fill="#DB071A"></path>
                    <path d="M111.657295,5.51473351 L111.657295,16.037755 C106.52507,11.7419196 101.208284,9.59755223 95.7211333,9.59755223 C89.6732003,9.59755223 84.5764681,11.7703218 80.4380351,16.1158611 C76.2641095,20.4400986 74.1842453,25.7300116 74.1842453,31.9855999 C74.1842453,38.1630821 76.2641095,43.374889 80.4380351,47.6210205 C84.6048621,51.8671519 89.7086929,53.9902177 95.7637243,53.9902177 C98.88707,53.9902177 101.541914,53.4789778 103.728256,52.4635985 C104.9492,51.9523586 106.212735,51.2636048 107.518862,50.4044377 C108.832086,49.5381701 110.209198,48.4943886 111.657295,47.2730933 L111.657295,57.9949303 C106.574759,60.8635542 101.236678,62.3049667 95.6430496,62.3049667 C87.2384104,62.3049667 80.0547154,59.3653373 74.1061616,53.4931789 C68.1789034,47.564216 65.2188235,40.428159 65.2188235,32.0566055 C65.2188235,24.5584201 67.703303,17.869698 72.658065,11.9975396 C78.7556876,4.80467808 86.6492338,1.20469706 96.3316054,1.20469706 C101.619997,1.20469706 106.730927,2.63900903 111.657295,5.51473351" id="Fill-442" fill="#4B4A4A"></path>
                    <polygon id="Fill-443" fill="#4B4A4A" points="133.389392 25.3849246 158.780772 25.3849246 158.780772 2.35072652 167.66811 2.35072652 167.66811 61.2356233 158.780772 61.2356233 158.780772 33.7351765 133.389392 33.7351765 133.389392 61.2356233 124.509152 61.2356233 124.509152 2.35072652 133.389392 2.35072652"></polygon>
                    <polygon id="Fill-444" fill="#4B4A4A" points="198.017802 10.7016884 198.017802 61.2363333 189.130464 61.2363333 189.130464 10.7016884 175.600698 10.7016884 175.600698 2.35143658 211.512075 2.35143658 211.512075 10.7016884"></polygon>
                    <path d="M84.3514452,93.0759288 L84.3514452,128.543197 C84.3514452,133.605893 85.1748727,137.305281 86.8288262,139.641364 C89.2920102,143.021228 92.763183,144.71116 97.2352461,144.71116 C101.735703,144.71116 105.221073,143.021228 107.684257,139.641364 C109.33821,137.376287 110.161638,133.676898 110.161638,128.543197 L110.161638,93.0759288 L119.048976,93.0759288 L119.048976,130.985788 C119.048976,137.184572 117.118181,142.296971 113.249491,146.315885 C108.905201,150.789234 103.56712,153.025909 97.2352461,153.025909 C90.9104711,153.025909 85.5865865,150.789234 81.2635921,146.315885 C77.4020012,142.296971 75.4712057,137.184572 75.4712057,130.985788 L75.4712057,93.0759288 L84.3514452,93.0759288 Z" id="Fill-445" fill="#4B4A4A"></path>
                    <polygon id="Fill-446" fill="#4B4A4A" points="133.153721 151.960115 133.153721 89.0705061 176.085527 133.995713 176.085527 93.0752188 184.965766 93.0752188 184.965766 155.545895 142.033961 110.734297 142.033961 151.960115"></polygon>
                    <polygon id="Fill-447" fill="#4B4A4A" points="207.958559 116.568113 230.872559 93.0723785 242.727075 93.0723785 216.114751 119.73496 242.883243 151.957275 230.986135 151.957275 209.789976 125.75623 207.958559 127.588173 207.958559 151.957275 199.07832 151.957275 199.07832 93.0723785 207.958559 93.0723785"></polygon>
                    <polygon id="Fill-448" fill="#4B4A4A" points="270.257238 101.427601 270.257238 151.962246 261.376998 151.962246 261.376998 101.427601 247.840134 101.427601 247.840134 93.0773489 283.751511 93.0773489 283.751511 101.427601"></polygon>
                    <path d="M320.012844,121.297792 L344.339447,121.297792 L344.339447,123.243344 C344.339447,127.666989 343.821256,131.579395 342.777775,134.987661 C341.755589,138.140307 340.044847,141.094137 337.624254,143.834951 C332.158399,149.991132 325.208955,153.065672 316.768823,153.065672 C308.534549,153.065672 301.485725,150.09054 295.608157,144.140275 C289.737686,138.168709 286.806001,130.997149 286.806001,122.632696 C286.806001,114.090729 289.794475,106.841063 295.764324,100.890799 C301.734173,94.9192327 309.010149,91.9298993 317.570955,91.9298993 C322.170792,91.9298993 326.47249,92.8742731 330.461855,94.75592 C334.273756,96.6375668 338.021771,99.6908052 341.705899,103.908534 L335.381124,109.972408 C330.547037,103.539306 324.66237,100.322755 317.727123,100.322755 C311.494628,100.322755 306.270123,102.474222 302.053606,106.770058 C297.83709,110.987787 295.728831,116.2777 295.728831,122.632696 C295.728831,129.193608 298.078439,134.59713 302.777655,138.843262 C307.178733,142.784069 311.941835,144.750923 317.074059,144.750923 C321.446743,144.750923 325.372221,143.281108 328.857591,140.327277 C332.342961,137.352145 334.287953,133.794767 334.692568,129.648044 L320.012844,129.648044 L320.012844,121.297792 Z" id="Fill-449" fill="#4B4A4A"></path>
                    <polygon id="Fill-450" fill="#4B4A4A" points="387.993172 101.427601 364.390617 101.427601 364.390617 115.579005 387.304616 115.579005 387.304616 123.929257 364.390617 123.929257 364.390617 143.604893 387.993172 143.604893 387.993172 151.962246 355.510377 151.962246 355.510377 93.0773489 387.993172 93.0773489"></polygon>
                    <polygon id="Fill-451" fill="#4B4A4A" points="399.659578 151.960115 399.659578 89.0705061 442.591383 133.995713 442.591383 93.0752188 451.471623 93.0752188 451.471623 155.545895 408.539817 110.734297 408.539817 151.960115"></polygon>
                    <path d="M496.997225,129.306507 L488.266054,109.282944 L479.116071,129.306507 L496.997225,129.306507 Z M500.617467,137.656759 L475.417746,137.656759 L468.85872,151.957275 L459.289925,151.957275 L488.422222,89.3729897 L516.518136,151.957275 L506.793173,151.957275 L500.617467,137.656759 Z" id="Fill-452" fill="#4B4A4A"></path>
                    <path d="M530.510724,93.0759288 L530.510724,128.543197 C530.510724,133.605893 531.334152,137.305281 532.988105,139.641364 C535.451289,143.021228 538.922462,144.71116 543.394525,144.71116 C547.894982,144.71116 551.380352,143.021228 553.843536,139.641364 C555.497489,137.376287 556.320917,133.676898 556.320917,128.543197 L556.320917,93.0759288 L565.208255,93.0759288 L565.208255,130.985788 C565.208255,137.184572 563.277459,142.296971 559.40877,146.315885 C555.06448,150.789234 549.726398,153.025909 543.394525,153.025909 C537.06975,153.025909 531.745865,150.789234 527.422871,146.315885 C523.56128,142.296971 521.630485,137.184572 521.630485,130.985788 L521.630485,93.0759288 L530.510724,93.0759288 Z" id="Fill-453" fill="#4B4A4A"></path>
                </g>
            </g>
        </g>
    </g>
</svg>