<?xml version="1.0" encoding="UTF-8"?>
<svg width="526px" height="169px" viewBox="0 0 526 169" version="1.1" xmlns="http://www.w3.org/2000/svg" xmlns:xlink="http://www.w3.org/1999/xlink">
    <!-- Generator: Sketch 44.1 (41455) - http://www.bohemiancoding.com/sketch -->
    <title>wortpaare/ehrlich-passioniert-pos</title>
    <desc>Created with Sketch.</desc>
    <defs></defs>
    <g id="Page-1" stroke="none" stroke-width="1" fill="none" fill-rule="evenodd">
        <g id="Wortpaare-Copy" transform="translate(-230.000000, -785.000000)">
            <g id="wortpaare/mitarbeiter/ehrlich-passioniert/pos" transform="translate(229.000000, 785.000000)">
                <g id="Group">
                    <path d="M50.060136,122.005007 L50.060136,121.78489 C50.060136,111.993226 43.458519,105.496218 35.6501549,105.496218 C27.8346923,105.496218 21.3466515,111.993226 21.3466515,121.78489 L21.3466515,122.005007 C21.3466515,131.803772 27.8346923,138.293679 35.6501549,138.293679 C43.458519,138.293679 50.060136,131.91028 50.060136,122.005007 L50.060136,122.005007 Z M4.83551063,92.4027963 L21.5667054,92.4027963 L21.5667054,100.873758 C25.6341533,95.3779285 31.2490769,91.3022103 39.9376567,91.3022103 C53.6874761,91.3022103 66.7771338,102.087952 66.7771338,121.78489 L66.7771338,122.005007 C66.7771338,141.701945 53.90753,152.487687 39.9376567,152.487687 C31.0219245,152.487687 25.5205771,148.419069 21.5667054,143.6901 L21.5667054,168.996475 L4.83551063,168.996475 L4.83551063,92.4027963 Z" id="Fill-404" fill="#DB071A"></path>
                    <path d="M43.2597607,26.7020775 C42.2588704,19.1186855 37.8010043,13.9920853 30.6740974,13.9920853 C23.6465697,13.9920853 19.0751274,19.0050766 17.740607,26.7020775 L43.2597607,26.7020775 Z M1.12298841,31.7221693 L1.12298841,31.4949516 C1.12298841,14.4323196 13.2827409,0.38742326 30.6740974,0.38742326 C50.6209185,0.38742326 59.7567046,15.8879333 59.7567046,32.8369564 C59.7567046,34.1718606 59.6502269,35.7339825 59.5437492,37.2961045 L17.9606609,37.2961045 C19.6359099,44.9931053 24.9810901,48.9978179 32.5623018,48.9978179 C38.2482106,48.9978179 42.3724466,47.2155788 47.0574651,42.8700396 L56.7540336,51.4546097 C51.181701,58.363449 43.153283,62.60248 32.3422479,62.60248 C14.3901089,62.60248 1.12298841,50.0060966 1.12298841,31.7221693 L1.12298841,31.7221693 Z" id="Fill-405" fill="#DB071A"></path>
                    <polygon id="Fill-406" fill="#4B4A4A" points="77.2098181 25.3849246 102.601199 25.3849246 102.601199 2.35072652 111.488537 2.35072652 111.488537 61.2356233 102.601199 61.2356233 102.601199 33.7351765 77.2098181 33.7351765 77.2098181 61.2356233 68.3295785 61.2356233 68.3295785 2.35072652 77.2098181 2.35072652"></polygon>
                    <path d="M134.476361,29.3889272 L137.29447,29.3889272 C145.713307,29.3889272 149.915626,26.1723761 149.915626,19.7392739 C149.915626,13.7109033 145.826883,10.7002683 137.642297,10.7002683 L134.476361,10.7002683 L134.476361,29.3889272 Z M145.535844,36.1415543 L163.757726,61.2349132 L152.889903,61.2349132 L136.080625,37.1285314 L134.476361,37.1285314 L134.476361,61.2349132 L125.596121,61.2349132 L125.596121,2.35001647 L136.002541,2.35001647 C143.782511,2.35001647 149.397435,3.81273065 152.85441,6.73815902 C156.666312,9.99021288 158.575812,14.2860482 158.575812,19.6256651 C158.575812,23.7936904 157.376163,27.3794703 154.991063,30.3830048 C152.598864,33.3794387 149.447124,35.3036889 145.535844,36.1415543 L145.535844,36.1415543 Z" id="Fill-407" fill="#4B4A4A"></path>
                    <polygon id="Fill-408" fill="#4B4A4A" points="181.486262 2.34930641 181.486262 52.8839513 198.792436 52.8839513 198.792436 61.2342031 172.606022 61.2342031 172.606022 2.34930641"></polygon>
                    <polygon id="Fill-409" fill="#4B4A4A" points="207.22405 61.2349132 216.104289 61.2349132 216.104289 2.35001647 207.22405 2.35001647"></polygon>
                    <path d="M273.753442,5.51473351 L273.753442,16.037755 C268.621217,11.7419196 263.304431,9.59755223 257.817281,9.59755223 C251.769348,9.59755223 246.672615,11.7703218 242.527084,16.1158611 C238.360257,20.4400986 236.273294,25.7300116 236.273294,31.9855999 C236.273294,38.1630821 238.360257,43.374889 242.527084,47.6210205 C246.693911,51.8671519 251.80484,53.9902177 257.852773,53.9902177 C260.983217,53.9902177 263.638061,53.4789778 265.824403,52.4635985 C267.045347,51.9523586 268.308883,51.2636048 269.615009,50.4044377 C270.928234,49.5381701 272.305345,48.4943886 273.753442,47.2730933 L273.753442,57.9949303 C268.670907,60.8635542 263.332825,62.3049667 257.739197,62.3049667 C249.327459,62.3049667 242.143764,59.3653373 236.19521,53.4931789 C230.275051,47.564216 227.314971,40.428159 227.314971,32.0566055 C227.314971,24.5584201 229.792352,17.869698 234.747114,11.9975396 C240.851835,4.80467808 248.745381,1.20469706 258.427753,1.20469706 C263.709046,1.20469706 268.819975,2.63900903 273.753442,5.51473351" id="Fill-410" fill="#4B4A4A"></path>
                    <polygon id="Fill-411" fill="#4B4A4A" points="295.485539 25.3849246 320.876919 25.3849246 320.876919 2.35072652 329.764258 2.35072652 329.764258 61.2356233 320.876919 61.2356233 320.876919 33.7351765 295.485539 33.7351765 295.485539 61.2356233 286.605299 61.2356233 286.605299 2.35072652 295.485539 2.35072652"></polygon>
                    <path d="M106.598371,129.306507 L97.8672003,109.282944 L88.7172173,129.306507 L106.598371,129.306507 Z M110.218613,137.656759 L85.0188921,137.656759 L78.4598662,151.957275 L68.8910709,151.957275 L98.0233676,89.3729897 L126.119281,151.957275 L116.394319,151.957275 L110.218613,137.656759 Z" id="Fill-412" fill="#4B4A4A"></path>
                    <path d="M166.762527,101.847244 L159.557536,106.121777 C158.208819,103.778594 156.923988,102.251975 155.703044,101.54192 C154.43241,100.725356 152.792653,100.320624 150.790873,100.320624 C148.32059,100.320624 146.276219,101.023579 144.650659,102.422388 C143.0251,103.792795 142.208771,105.525331 142.208771,107.605793 C142.208771,110.481518 144.345423,112.796298 148.611629,114.550135 L154.489198,116.950123 C159.266497,118.881473 162.758965,121.238857 164.973701,124.022275 C167.181339,126.812792 168.288707,130.221058 168.288707,134.261274 C168.288707,139.678997 166.478586,144.152346 162.872542,147.688422 C159.238103,151.2529 154.730547,153.028039 149.335678,153.028039 C144.231847,153.028039 140.008232,151.515621 136.679029,148.490785 C133.399516,145.465949 131.355145,141.205616 130.538816,135.716887 L139.53973,133.728732 C139.944345,137.186702 140.661295,139.579589 141.676382,140.900292 C143.507799,143.442291 146.176839,144.71329 149.683505,144.71329 C152.451925,144.71329 154.751843,143.783117 156.583259,141.929872 C158.414676,140.076628 159.330384,137.719244 159.330384,134.871922 C159.330384,133.728732 159.167118,132.684951 158.854783,131.726376 C158.53535,130.774902 158.038454,129.894433 157.364096,129.099171 C156.689737,128.296808 155.81662,127.54415 154.751843,126.848295 C153.687066,126.14534 152.416432,125.477888 150.939942,124.845939 L145.261131,122.481454 C137.197221,119.073188 133.172364,114.088599 133.172364,107.527687 C133.172364,103.104042 134.86181,99.4046528 138.240702,96.4295206 C141.619594,93.4330867 145.829012,91.9348697 150.861858,91.9348697 C157.648036,91.9348697 162.950625,95.2366275 166.762527,101.847244" id="Fill-413" fill="#4B4A4A"></path>
                    <path d="M212.285999,101.847244 L205.081009,106.121777 C203.732291,103.778594 202.447461,102.251975 201.226516,101.54192 C199.955883,100.725356 198.316126,100.320624 196.314346,100.320624 C193.844063,100.320624 191.799691,101.023579 190.174132,102.422388 C188.548572,103.792795 187.732243,105.525331 187.732243,107.605793 C187.732243,110.481518 189.868896,112.796298 194.135102,114.550135 L200.012671,116.950123 C204.78997,118.881473 208.282438,121.238857 210.497174,124.022275 C212.704812,126.812792 213.81218,130.221058 213.81218,134.261274 C213.81218,139.678997 212.002059,144.152346 208.396014,147.688422 C204.761576,151.2529 200.25402,153.028039 194.85915,153.028039 C189.75532,153.028039 185.531704,151.515621 182.202502,148.490785 C178.922989,145.465949 176.878617,141.205616 176.062288,135.716887 L185.063203,133.728732 C185.467818,137.186702 186.184768,139.579589 187.199855,140.900292 C189.031271,143.442291 191.700312,144.71329 195.206978,144.71329 C197.975398,144.71329 200.275316,143.783117 202.106732,141.929872 C203.938148,140.076628 204.853856,137.719244 204.853856,134.871922 C204.853856,133.728732 204.690591,132.684951 204.378256,131.726376 C204.058823,130.774902 203.561927,129.894433 202.887568,129.099171 C202.21321,128.296808 201.340093,127.54415 200.275316,126.848295 C199.210539,126.14534 197.939905,125.477888 196.463414,124.845939 L190.784604,122.481454 C182.720693,119.073188 178.695837,114.088599 178.695837,107.527687 C178.695837,103.104042 180.385283,99.4046528 183.764175,96.4295206 C187.143067,93.4330867 191.352485,91.9348697 196.385331,91.9348697 C203.171509,91.9348697 208.474098,95.2366275 212.285999,101.847244" id="Fill-414" fill="#4B4A4A"></path>
                    <polygon id="Fill-415" fill="#4B4A4A" points="224.530224 151.958695 233.410464 151.958695 233.410464 93.0737986 224.530224 93.0737986"></polygon>
                    <path d="M253.577339,122.365715 C253.577339,128.876924 255.763681,134.223641 260.136365,138.420069 C264.480655,142.616496 269.499303,144.71116 275.19231,144.71116 C281.375115,144.71116 286.578325,142.580993 290.830334,138.30646 C295.075245,133.982222 297.1977,128.720711 297.1977,122.514827 C297.1977,116.237937 295.09654,110.976426 290.901319,106.730295 C286.734492,102.455761 281.573874,100.325595 275.426561,100.325595 C269.300545,100.325595 264.125729,102.455761 259.909212,106.730295 C255.685597,110.948024 253.577339,116.159831 253.577339,122.365715 M244.619016,122.252106 C244.619016,113.958659 247.657179,106.843904 253.726408,100.893639 C259.781439,94.9433746 267.050316,91.9682423 275.540138,91.9682423 C283.923481,91.9682423 291.121373,94.9717768 297.119617,100.971745 C303.139156,106.971714 306.156024,114.178776 306.156024,122.592933 C306.156024,131.063894 303.124959,138.242555 297.077026,144.143115 C291.000699,150.064978 283.675033,153.025909 275.078734,153.025909 C267.476227,153.025909 260.654556,150.398704 254.606623,145.137193 C247.948218,139.314738 244.619016,131.681642 244.619016,122.252106" id="Fill-416" fill="#4B4A4A"></path>
                    <polygon id="Fill-417" fill="#4B4A4A" points="317.325533 151.960115 317.325533 89.0705061 360.257339 133.995713 360.257339 93.0752188 369.137579 93.0752188 369.137579 155.545895 326.205773 110.734297 326.205773 151.960115"></polygon>
                    <polygon id="Fill-418" fill="#4B4A4A" points="383.252972 151.958695 392.133211 151.958695 392.133211 93.0737986 383.252972 93.0737986"></polygon>
                    <polygon id="Fill-419" fill="#4B4A4A" points="438.759083 101.427601 415.156528 101.427601 415.156528 115.579005 438.070527 115.579005 438.070527 123.929257 415.156528 123.929257 415.156528 143.604893 438.759083 143.604893 438.759083 151.962246 406.276288 151.962246 406.276288 93.0773489 438.759083 93.0773489"></polygon>
                    <path d="M459.309278,120.11555 L462.127387,120.11555 C470.546223,120.11555 474.748543,116.898999 474.748543,110.465896 C474.748543,104.437526 470.6598,101.426891 462.475214,101.426891 L459.309278,101.426891 L459.309278,120.11555 Z M470.368761,126.868177 L488.590643,151.961536 L477.72282,151.961536 L460.913542,127.855154 L459.309278,127.855154 L459.309278,151.961536 L450.429038,151.961536 L450.429038,93.0766389 L460.835458,93.0766389 C468.615428,93.0766389 474.230352,94.539353 477.687327,97.4647814 C481.499229,100.716835 483.408729,105.012671 483.408729,110.352287 C483.408729,114.520313 482.20908,118.106093 479.82398,121.109627 C477.431781,124.106061 474.280041,126.030311 470.368761,126.868177 L470.368761,126.868177 Z" id="Fill-420" fill="#4B4A4A"></path>
                    <polygon id="Fill-421" fill="#4B4A4A" points="512.991781 101.427601 512.991781 151.962246 504.111542 151.962246 504.111542 101.427601 490.574678 101.427601 490.574678 93.0773489 526.486054 93.0773489 526.486054 101.427601"></polygon>
                </g>
            </g>
        </g>
    </g>
</svg>