<?xml version="1.0" encoding="UTF-8"?>
<svg width="641px" height="170px" viewBox="0 0 641 170" version="1.1" xmlns="http://www.w3.org/2000/svg" xmlns:xlink="http://www.w3.org/1999/xlink">
    <!-- Generator: Sketch 44.1 (41455) - http://www.bohemiancoding.com/sketch -->
    <title>wortpaare/mitarbeiter/eindrucksvoll-punkt-pos</title>
    <desc>Created with Sketch.</desc>
    <defs></defs>
    <g id="Page-1" stroke="none" stroke-width="1" fill="none" fill-rule="evenodd">
        <g id="Wortpaare-Copy" transform="translate(-2574.000000, -783.000000)">
            <g id="wortpaare/mitarbeiter/eindrucksvoll-punkt/pos" transform="translate(2574.000000, 783.000000)">
                <g id="Group-4">
                    <path d="M48.6308204,122.632393 L48.6308204,122.415153 C48.6308204,112.751484 42.1084934,106.339405 34.4092051,106.339405 C26.6959054,106.339405 20.2926756,112.751484 20.2926756,122.415153 L20.2926756,122.632393 C20.2926756,132.303069 26.6959054,138.70814 34.4092051,138.70814 C42.1084934,138.70814 48.6308204,132.408185 48.6308204,122.632393 L48.6308204,122.632393 Z M3.99736664,93.4171388 L20.509853,93.4171388 L20.509853,101.777369 C24.5241316,96.3533804 30.0586519,92.3309396 38.6406611,92.3309396 C52.2107443,92.3309396 65.1292953,102.975692 65.1292953,122.415153 L65.1292953,122.632393 C65.1292953,142.071854 52.4279217,152.716606 38.6406611,152.716606 C29.8414745,152.716606 24.4120401,148.701173 20.509853,144.03402 L20.509853,169.009593 L3.99736664,169.009593 L3.99736664,93.4171388 Z" id="Fill-422" fill="#DB071A"></path>
                    <path d="M41.9193389,28.5752529 C40.9315321,21.0909902 36.5319388,16.0314044 29.4981941,16.0314044 C22.5625295,16.0314044 18.0508446,20.9788665 16.7337689,28.5752529 L41.9193389,28.5752529 Z M0.333374118,33.5297227 L0.333374118,33.3054751 C0.333374118,16.4658841 12.3271699,2.60458113 29.4981941,2.60458113 C49.1842725,2.60458113 58.2006365,17.9024701 58.2006365,34.6299373 C58.2006365,35.9473918 58.0955506,37.4890939 57.9834591,39.0307959 L16.9509463,39.0307959 C18.6042967,46.6271824 23.8796052,50.5795458 31.3547104,50.5795458 C36.9732993,50.5795458 41.0436237,48.8206039 45.6603944,44.5318691 L55.2302104,53.0042227 C49.7307188,59.8227504 41.8072474,64.0063691 31.1445387,64.0063691 C13.4270682,64.0063691 0.333374118,51.5746444 0.333374118,33.5297227 L0.333374118,33.5297227 Z" id="Fill-423" fill="#DB071A"></path>
                    <polygon id="Fill-424" fill="#4B4A4A" points="66.6551416 62.656679 75.4263053 62.656679 75.4263053 4.54151952 66.6551416 4.54151952"></polygon>
                    <polygon id="Fill-425" fill="#4B4A4A" points="89.3824038 62.6559783 89.3824038 0.58845531 131.753009 44.9264047 131.753009 4.54081875 140.524173 4.54081875 140.524173 66.1948852 98.1535675 21.9690596 98.1535675 62.6559783"></polygon>
                    <path d="M163.209401,54.4127777 L167.160628,54.4127777 C171.097844,54.4127777 174.376522,53.9993213 176.98265,53.1724083 C179.595784,52.2894335 181.949707,50.9019017 184.058429,48.9957973 C188.373954,45.0574494 190.52471,39.9207785 190.52471,33.5998001 C190.52471,27.2227598 188.401977,22.0580579 184.128486,18.091679 C180.289351,14.552772 174.635733,12.7868224 167.160628,12.7868224 L163.209401,12.7868224 L163.209401,54.4127777 Z M154.445243,62.6538759 L154.445243,4.53871642 L166.635199,4.53871642 C172.477971,4.53871642 177.094742,5.12035856 180.485511,6.26962736 C184.114475,7.40488069 187.421176,9.31799278 190.37759,12.0299868 C196.374488,17.5030291 199.372937,24.6929669 199.372937,33.5998001 C199.372937,42.5346642 196.248385,49.7596406 189.999281,55.2817371 C186.867724,58.0427853 183.58204,59.9629051 180.142231,61.0350888 C176.93361,62.1142802 172.379891,62.6538759 166.488079,62.6538759 L154.445243,62.6538759 Z" id="Fill-426" fill="#4B4A4A"></path>
                    <path d="M219.166203,31.2269804 L221.947475,31.2269804 C230.249255,31.2269804 234.403648,28.0524758 234.403648,21.7034664 C234.403648,15.7538981 230.368352,12.7826177 222.283749,12.7826177 L219.166203,12.7826177 L219.166203,31.2269804 Z M230.081118,37.8913379 L248.064806,62.656679 L237.339045,62.656679 L220.749496,38.8654133 L219.166203,38.8654133 L219.166203,62.656679 L210.395039,62.656679 L210.395039,4.54151952 L220.672433,4.54151952 C228.350704,4.54151952 233.89223,5.98511326 237.304017,8.87230073 C241.066089,12.0818441 242.950629,16.3215247 242.950629,21.5913426 C242.950629,25.704884 241.766662,29.243791 239.412739,32.2080636 C237.051811,35.1653284 233.934265,37.064425 230.081118,37.8913379 L230.081118,37.8913379 Z" id="Fill-427" fill="#4B4A4A"></path>
                    <path d="M264.696389,4.54081875 L264.696389,39.544463 C264.696389,44.5409792 265.509053,48.19201 267.141386,50.4975553 C269.572372,53.8332379 272.99817,55.5010792 277.411774,55.5010792 C281.853402,55.5010792 285.286206,53.8332379 287.724197,50.4975553 C289.35653,48.2620873 290.169194,44.6110566 290.169194,39.544463 L290.169194,4.54081875 L298.940358,4.54081875 L298.940358,41.9551244 C298.940358,48.0728784 297.027795,53.1184488 293.216683,57.0848277 C288.929181,61.4997017 283.660878,63.7071388 277.411774,63.7071388 C271.169676,63.7071388 265.915385,61.4997017 261.641894,57.0848277 C257.837788,53.1184488 255.925225,48.0728784 255.925225,41.9551244 L255.925225,4.54081875 L264.696389,4.54081875 Z" id="Fill-428" fill="#4B4A4A"></path>
                    <path d="M355.79109,7.66486772 L355.79109,18.0503333 C350.725953,13.8106527 345.478667,11.6943163 340.063244,11.6943163 C334.094369,11.6943163 329.064261,13.8386837 324.979925,18.1274184 C320.860561,22.39513 318.807884,27.6158938 318.807884,33.7897097 C318.807884,39.8864405 320.860561,45.0301192 324.979925,49.2207457 C329.085278,53.4113722 334.129398,55.5066854 340.105278,55.5066854 C343.187796,55.5066854 345.807936,55.0021284 347.965698,54.000022 C349.170682,53.495465 350.417701,52.8157146 351.706754,51.9677784 C353.002812,51.1128346 354.361922,50.0826973 355.79109,48.8773666 L355.79109,59.4590488 C350.774993,62.2901744 345.50669,63.7127449 339.986181,63.7127449 C331.691407,63.7127449 324.601616,60.811542 318.730821,55.0161438 C312.881043,49.1646838 309.959657,42.1219085 309.959657,33.8597871 C309.959657,26.4596172 312.41166,19.8583294 317.301654,14.0629312 C323.319569,6.96409406 331.109932,3.41117161 340.665736,3.41117161 C345.884999,3.41117161 350.929119,4.8267344 355.79109,7.66486772" id="Fill-429" fill="#4B4A4A"></path>
                    <polygon id="Fill-430" fill="#4B4A4A" points="377.239808 27.726616 399.861283 4.53801565 411.553833 4.53801565 385.289382 30.8520665 411.707959 62.6531752 399.966369 62.6531752 379.047284 36.7946272 377.239808 38.6026232 377.239808 62.6531752 368.47565 62.6531752 368.47565 4.53801565 377.239808 4.53801565"></polygon>
                    <path d="M450.238728,13.1981765 L443.127921,17.416834 C441.796834,15.1042809 440.528798,13.5976175 439.323814,12.8968439 C438.076795,12.0909541 436.451468,11.6915132 434.475854,11.6915132 C432.037863,11.6915132 430.020215,12.3852791 428.415905,13.7658032 C426.811595,15.1182964 426.005937,16.8281841 426.005937,18.8814509 C426.005937,21.7195842 428.114659,24.0041063 432.325098,25.7350173 L438.125835,28.1036322 C442.840686,30.0097366 446.294507,32.3363051 448.473287,35.0833379 C450.659072,37.8373784 451.744959,41.2010919 451.744959,45.188494 C451.744959,50.5353971 449.965505,54.9502711 446.399593,58.4401239 C442.812663,61.9580077 438.36403,63.7099419 433.046687,63.7099419 C428.002567,63.7099419 423.834163,62.217294 420.555485,59.2319982 C417.318842,56.2467024 415.301194,52.0420604 414.48853,46.6250801 L423.371785,44.6629138 C423.778117,48.0756815 424.478689,50.4372888 425.480508,51.7407278 C427.287984,54.2494975 429.922135,55.5038823 433.382962,55.5038823 C436.115193,55.5038823 438.392053,54.5858688 440.192523,52.7568496 C442,50.9278303 442.903738,48.6012618 442.903738,45.7911594 C442.903738,44.6629138 442.749612,43.6327765 442.434354,42.6867321 C442.119097,41.7476954 441.628696,40.878736 440.963153,40.0938696 C440.297609,39.3019953 439.442911,38.5591752 438.392053,37.8724171 C437.334189,37.1786511 436.080165,36.5199239 434.622975,35.8962353 L429.018397,33.5626591 C421.066903,30.1989455 417.094659,25.2795144 417.094659,18.8043658 C417.094659,14.4385459 418.76202,10.7875151 422.089738,7.85127351 C425.431467,4.89400867 429.585861,3.41537625 434.552917,3.41537625 C441.250387,3.41537625 446.476656,6.67397376 450.238728,13.1981765" id="Fill-431" fill="#4B4A4A"></path>
                    <polygon id="Fill-432" fill="#4B4A4A" points="465.105571 4.54081875 481.169691 44.8142809 497.465 4.54081875 507.055833 4.54081875 480.987542 67.0217982 455.507732 4.54081875"></polygon>
                    <path d="M517.668801,33.4477322 C517.668801,39.8738266 519.833569,45.1506523 524.142088,49.2922246 C528.42959,53.4337969 533.382635,55.5010792 539.00823,55.5010792 C545.103208,55.5010792 550.238402,53.3987582 554.434829,49.1801008 C558.624251,44.9123892 560.718962,39.7196564 560.718962,33.5948946 C560.718962,27.4000555 558.652274,22.2073227 554.511892,18.0166962 C550.392528,13.7980388 545.299368,11.6957178 539.232413,11.6957178 C533.186475,11.6957178 528.079304,13.7980388 523.917905,18.0166962 C519.756506,22.1792917 517.668801,27.3229704 517.668801,33.4477322 M508.82758,33.3356084 C508.82758,25.1505721 511.826029,18.12882 517.815921,12.2563367 C523.791802,6.38385347 530.965661,3.44761184 539.344504,3.44761184 C547.618262,3.44761184 554.722064,6.41188441 560.641899,12.3334218 C566.582751,18.2549592 569.560183,25.3678119 569.560183,33.6719797 C569.560183,42.0322095 566.56874,49.1170312 560.60687,54.9404603 C554.602967,60.7849126 547.373062,63.7071388 538.889133,63.7071388 C531.39301,63.7071388 524.653506,61.1142762 518.691637,55.9215434 C512.113264,50.1751994 508.82758,42.6418826 508.82758,33.3356084" id="Fill-433" fill="#4B4A4A"></path>
                    <polygon id="Fill-434" fill="#4B4A4A" points="589.354149 4.54081875 589.354149 54.41488 606.434099 54.41488 606.434099 62.6559783 580.582985 62.6559783 580.582985 4.54081875"></polygon>
                    <polygon id="Fill-435" fill="#4B4A4A" points="623.521055 4.54081875 623.521055 54.41488 640.601004 54.41488 640.601004 62.6559783 614.749891 62.6559783 614.749891 4.54081875"></polygon>
                    <path d="M82.6400971,94.0814722 L82.6400971,129.085116 C82.6400971,134.081633 83.4527608,137.732663 85.085094,140.038209 C87.5160795,143.373891 90.9418774,145.041733 95.3554822,145.041733 C99.7971098,145.041733 103.236919,143.373891 105.667905,140.038209 C107.300238,137.802741 108.112902,134.15171 108.112902,129.085116 L108.112902,94.0814722 L116.884065,94.0814722 L116.884065,131.495778 C116.884065,137.613532 114.978509,142.659102 111.160391,146.625481 C106.872889,151.040355 101.604586,153.247792 95.3554822,153.247792 C89.113384,153.247792 83.8590927,151.040355 79.5926081,146.625481 C75.7814954,142.659102 73.8759391,137.613532 73.8759391,131.495778 L73.8759391,94.0814722 L82.6400971,94.0814722 Z" id="Fill-436" fill="#4B4A4A"></path>
                    <polygon id="Fill-437" fill="#4B4A4A" points="130.804435 152.195931 130.804435 90.128408 173.17504 134.466357 173.17504 94.0807715 181.939198 94.0807715 181.939198 155.734838 139.568593 111.509012 139.568593 152.195931"></polygon>
                    <polygon id="Fill-438" fill="#4B4A4A" points="204.631432 117.266569 227.245902 94.0779684 238.945457 94.0779684 212.681006 120.392019 239.099583 152.193128 227.357994 152.193128 206.438908 126.33458 204.631432 128.142576 204.631432 152.193128 195.867274 152.193128 195.867274 94.0779684 204.631432 94.0779684"></polygon>
                    <polygon id="Fill-439" fill="#4B4A4A" points="266.115748 102.323972 266.115748 152.198033 257.35159 152.198033 257.35159 102.323972 243.991679 102.323972 243.991679 94.0828738 279.433626 94.0828738 279.433626 102.323972"></polygon>
                </g>
            </g>
        </g>
    </g>
</svg>