<?xml version="1.0" encoding="UTF-8"?>
<svg width="572px" height="170px" viewBox="0 0 572 170" version="1.1" xmlns="http://www.w3.org/2000/svg" xmlns:xlink="http://www.w3.org/1999/xlink">
    <!-- Generator: Sketch 44.1 (41455) - http://www.bohemiancoding.com/sketch -->
    <title>wortpaare/mitarbeiter/einfallsreich-pragmatisch-pos</title>
    <desc>Created with Sketch.</desc>
    <defs></defs>
    <g id="Page-1" stroke="none" stroke-width="1" fill="none" fill-rule="evenodd">
        <g id="Wortpaare-Copy" transform="translate(-1074.000000, -1462.000000)">
            <g id="wortpaare/mitarbeiter/einfallsreich-pragmatisch/pos" transform="translate(1074.000000, 1462.000000)">
                <g id="Group-9">
                    <path d="M49.23245,122.689923 L49.23245,122.472684 C49.23245,112.809015 42.710123,106.396936 35.0108347,106.396936 C27.297535,106.396936 20.8943052,112.809015 20.8943052,122.472684 L20.8943052,122.689923 C20.8943052,132.353592 27.297535,138.758663 35.0108347,138.758663 C42.710123,138.758663 49.23245,132.465716 49.23245,122.689923 L49.23245,122.689923 Z M4.59899625,93.4746696 L21.1114826,93.4746696 L21.1114826,101.834899 C25.1257612,96.4109112 30.6602815,92.3884704 39.2422907,92.3884704 C52.8123739,92.3884704 65.730925,103.033222 65.730925,122.472684 L65.730925,122.689923 C65.730925,142.129385 53.0295513,152.774137 39.2422907,152.774137 C30.4431041,152.774137 25.0136697,148.751696 21.1114826,144.084543 L21.1114826,169.067124 L4.59899625,169.067124 L4.59899625,93.4746696 Z" id="Fill-153" fill="#DB071A"></path>
                    <path d="M42.5209685,28.6292798 C41.5331618,21.1450171 37.1335684,16.0854313 30.0998237,16.0854313 C23.1641591,16.0854313 18.6524742,21.0399011 17.3353985,28.6292798 L42.5209685,28.6292798 Z M0.935003734,33.5837496 L0.935003734,33.359502 C0.935003734,16.519911 12.9287995,2.65860802 30.0998237,2.65860802 C49.7859021,2.65860802 58.8022661,17.956497 58.8022661,34.6839642 C58.8022661,36.0014187 58.6971802,37.5431208 58.5850887,39.0848228 L17.5525759,39.0848228 C19.2059263,46.6812093 24.4812348,50.6405804 31.9633457,50.6405804 C37.5749289,50.6405804 41.6452533,48.8746308 46.262024,44.585896 L55.83184,53.0582496 C50.3393541,59.883785 42.408877,64.060396 31.7461684,64.060396 C14.0286978,64.060396 0.935003734,51.6286713 0.935003734,33.5837496 L0.935003734,33.5837496 Z" id="Fill-154" fill="#DB071A"></path>
                    <polygon id="Fill-155" fill="#4B4A4A" points="67.2560706 62.7072021 76.0202286 62.7072021 76.0202286 4.59204255 67.2560706 4.59204255"></polygon>
                    <polygon id="Fill-156" fill="#4B4A4A" points="89.9868357 62.7100052 89.9868357 0.642482207 132.357441 44.9804316 132.357441 4.59484564 141.121599 4.59484564 141.121599 66.2489121 98.7509937 22.0230865 98.7509937 62.7100052"></polygon>
                    <polygon id="Fill-157" fill="#4B4A4A" points="184.058267 12.8380462 163.811731 12.8380462 163.811731 26.8044652 183.336678 26.8044652 183.336678 35.0455634 163.811731 35.0455634 163.811731 62.7121075 155.040567 62.7121075 155.040567 4.59694796 184.058267 4.59694796"></polygon>
                    <path d="M220.934285,40.3518216 L212.317247,20.5900044 L203.279866,40.3518216 L220.934285,40.3518216 Z M224.507203,48.5929198 L199.636891,48.5929198 L193.163604,62.7065013 L183.719891,62.7065013 L212.464368,0.940311012 L240.20002,62.7065013 L230.602181,62.7065013 L224.507203,48.5929198 Z" id="Fill-158" fill="#4B4A4A"></path>
                    <polygon id="Fill-159" fill="#4B4A4A" points="256.229112 4.59484564 256.229112 54.4689069 273.309062 54.4689069 273.309062 62.7100052 247.457948 62.7100052 247.457948 4.59484564"></polygon>
                    <polygon id="Fill-160" fill="#4B4A4A" points="290.396017 4.59484564 290.396017 54.4689069 307.475967 54.4689069 307.475967 62.7100052 281.624854 62.7100052 281.624854 4.59484564"></polygon>
                    <path d="M348.870676,13.2522034 L341.752862,17.4708608 C340.428781,15.1583078 339.160745,13.6516444 337.955761,12.9508708 C336.701737,12.144981 335.083415,11.7455401 333.100796,11.7455401 C330.66981,11.7455401 328.645157,12.439306 327.047852,13.8198301 C325.436536,15.1723232 324.637884,16.882211 324.637884,18.9354778 C324.637884,21.7736111 326.746606,24.0581332 330.957045,25.7890442 L336.757783,28.1576591 C341.465628,30.0637635 344.919449,32.390332 347.098228,35.1373648 C349.284013,37.8914053 350.376906,41.2551188 350.376906,45.2425209 C350.376906,50.589424 348.590447,55.004298 345.03154,58.4941508 C341.437605,62.0120346 336.995977,63.7639687 331.671629,63.7639687 C326.627509,63.7639687 322.46611,62.2713209 319.180427,59.2860251 C315.943783,56.3007293 313.926135,52.0960873 313.120477,46.6791069 L322.003732,44.7169407 C322.403059,48.1297084 323.103631,50.4913157 324.112455,51.7947547 C325.919931,54.3035244 328.554082,55.5579092 332.014909,55.5579092 C334.740135,55.5579092 337.016994,54.6398957 338.817465,52.8108765 C340.624941,50.9818572 341.528679,48.6552887 341.528679,45.8451863 C341.528679,44.7169407 341.374553,43.6868034 341.066302,42.740759 C340.751044,41.8017223 340.260644,40.9327629 339.5951,40.1478964 C338.929556,39.3560222 338.067853,38.6132021 337.016994,37.9264439 C335.95913,37.232678 334.712112,36.5739508 333.254922,35.9502622 L327.650344,33.6166859 C319.691844,30.2529724 315.7196,25.3335413 315.7196,18.8583927 C315.7196,14.4925728 317.386962,10.841542 320.721685,7.90530041 C324.056409,4.94803557 328.210802,3.46940315 333.177859,3.46940315 C339.875329,3.46940315 345.108603,6.72800066 348.870676,13.2522034" id="Fill-161" fill="#4B4A4A"></path>
                    <path d="M369.716902,31.2810073 L372.498173,31.2810073 C380.799954,31.2810073 384.954347,28.1065027 384.954347,21.7574933 C384.954347,15.807925 380.919051,12.8366446 372.834448,12.8366446 L369.716902,12.8366446 L369.716902,31.2810073 Z M380.631816,37.9453648 L398.615504,62.7107059 L387.889744,62.7107059 L371.300195,38.9194402 L369.716902,38.9194402 L369.716902,62.7107059 L360.945738,62.7107059 L360.945738,4.59554642 L371.223132,4.59554642 C378.901403,4.59554642 384.442929,6.03914015 387.854715,8.92632763 C391.616788,12.135871 393.501327,16.3755516 393.501327,21.6453695 C393.501327,25.7589109 392.31736,29.2978179 389.963438,32.2620905 C387.602509,35.2193553 384.484963,37.1184519 380.631816,37.9453648 L380.631816,37.9453648 Z" id="Fill-162" fill="#4B4A4A"></path>
                    <polygon id="Fill-163" fill="#4B4A4A" points="439.404218 12.8380462 416.110193 12.8380462 416.110193 26.8044652 438.724663 26.8044652 438.724663 35.0455634 416.110193 35.0455634 416.110193 54.4640015 439.404218 54.4640015 439.404218 62.7121075 407.346035 62.7121075 407.346035 4.59694796 439.404218 4.59694796"></polygon>
                    <polygon id="Fill-164" fill="#4B4A4A" points="450.917421 62.7072021 459.681579 62.7072021 459.681579 4.59204255 450.917421 4.59204255"></polygon>
                    <path d="M516.576447,7.71889461 L516.576447,18.1043602 C511.51131,13.8646796 506.264025,11.7483432 500.848602,11.7483432 C494.879727,11.7483432 489.849618,13.8927105 485.765283,18.1814453 C481.645918,22.4491569 479.593242,27.6699207 479.593242,33.8437366 C479.593242,39.9404674 481.645918,45.0841461 485.765283,49.2747726 C489.870636,53.4653991 494.914755,55.5607123 500.890636,55.5607123 C503.973154,55.5607123 506.593294,55.0561553 508.751056,54.0540489 C509.95604,53.5494919 511.203059,52.8697414 512.492111,52.0218053 C513.78817,51.1668615 515.14728,50.1367242 516.576447,48.9313935 L516.576447,59.5130757 C511.56035,62.3442013 506.292048,63.7667718 500.771539,63.7667718 C492.476764,63.7667718 485.386974,60.8655689 479.516179,55.0701707 C473.666401,49.2187107 470.745015,42.1759354 470.745015,33.913814 C470.745015,26.5136441 473.197018,19.9123563 478.087011,14.1169581 C484.104927,7.01812095 491.895289,3.4651985 501.451094,3.4651985 C506.670357,3.4651985 511.714476,4.8807613 516.576447,7.71889461" id="Fill-165" fill="#4B4A4A"></path>
                    <polygon id="Fill-166" fill="#4B4A4A" points="538.025165 27.3286439 563.084632 27.3286439 563.084632 4.59554642 571.855796 4.59554642 571.855796 62.7107059 563.084632 62.7107059 563.084632 35.5697421 538.025165 35.5697421 538.025165 62.7107059 529.261007 62.7107059 529.261007 4.59554642 538.025165 4.59554642"></polygon>
                    <path d="M83.2417267,120.82096 L86.0229983,120.82096 C94.3317843,120.82096 98.4791717,117.646455 98.4791717,111.297446 C98.4791717,105.347878 94.4438759,102.376597 86.3662786,102.376597 L83.2417267,102.376597 L83.2417267,120.82096 Z M94.1566413,127.485318 L112.140329,152.250659 L101.414569,152.250659 L84.8250198,128.459393 L83.2417267,128.459393 L83.2417267,152.250659 L74.4775687,152.250659 L74.4775687,94.1354991 L84.7479569,94.1354991 C92.426228,94.1354991 97.967754,95.5790929 101.379541,98.4662803 C105.141613,101.675824 107.026152,105.915504 107.026152,111.185322 C107.026152,115.298864 105.842185,118.837771 103.488263,121.802043 C101.127335,124.759308 98.016794,126.658405 94.1566413,127.485318 L94.1566413,127.485318 Z" id="Fill-167" fill="#4B4A4A"></path>
                    <path d="M151.424214,129.892475 L142.807176,110.130658 L133.776801,129.892475 L151.424214,129.892475 Z M154.997132,138.133573 L130.126819,138.133573 L123.653533,152.247155 L114.209819,152.247155 L142.961302,90.4809645 L170.689949,152.247155 L161.09211,152.247155 L154.997132,138.133573 Z" id="Fill-168" fill="#4B4A4A"></path>
                    <path d="M205.195231,121.988449 L229.203839,121.988449 L229.203839,123.908569 C229.203839,128.274389 228.692422,132.135652 227.662581,135.499365 C226.653757,138.6108 224.965378,141.526019 222.576426,144.231005 C217.182021,150.306713 210.323419,153.341062 201.993616,153.341062 C193.866978,153.341062 186.910297,150.404821 181.109559,144.532338 C175.315827,138.638831 172.422464,131.561017 172.422464,123.305903 C172.422464,114.875596 175.371873,107.720697 181.263685,101.848214 C187.155497,95.9547075 194.336362,93.0044504 202.785262,93.0044504 C207.32497,93.0044504 211.570437,93.9364794 215.507653,95.7935296 C219.269726,97.6505798 222.968747,100.663907 226.604717,104.826502 L220.362618,110.811109 C215.591722,104.4621 209.783978,101.287595 202.939388,101.287595 C196.788364,101.287595 191.632153,103.410939 187.470754,107.65062 C183.309356,111.813215 181.228656,117.033979 181.228656,123.305903 C181.228656,129.781052 183.54755,135.11394 188.185338,139.304566 C192.528886,143.19386 197.229725,145.135003 202.294862,145.135003 C206.610386,145.135003 210.484551,143.684401 213.92436,140.769183 C217.364169,137.832941 219.283737,134.322065 219.683063,130.229547 L205.195231,130.229547 L205.195231,121.988449 Z" id="Fill-169" fill="#4B4A4A"></path>
                    <polygon id="Fill-170" fill="#4B4A4A" points="238.194983 152.249958 250.426973 89.7689785 270.365257 134.933841 291.025131 89.7689785 302.010103 152.249958 293.021762 152.249958 287.410179 117.169229 270.218137 154.919906 253.509491 117.13419 247.260387 152.249958"></polygon>
                    <path d="M344.87181,129.892475 L336.254772,110.130658 L327.224396,129.892475 L344.87181,129.892475 Z M348.444728,138.133573 L323.574415,138.133573 L317.101128,152.247155 L307.657415,152.247155 L336.408898,90.4809645 L364.137545,152.247155 L354.539706,152.247155 L348.444728,138.133573 Z" id="Fill-171" fill="#4B4A4A"></path>
                    <polygon id="Fill-172" fill="#4B4A4A" points="384.193525 102.377999 384.193525 152.25206 375.429367 152.25206 375.429367 102.377999 362.069456 102.377999 362.069456 94.1369007 397.511402 94.1369007 397.511402 102.377999"></polygon>
                    <polygon id="Fill-173" fill="#4B4A4A" points="405.345201 152.25206 414.109359 152.25206 414.109359 94.1369007 405.345201 94.1369007"></polygon>
                    <path d="M460.917388,102.792156 L453.806581,107.010814 C452.475494,104.69826 451.207458,103.191597 450.002474,102.490823 C448.74845,101.684934 447.130128,101.285493 445.154514,101.285493 C442.716523,101.285493 440.698875,101.979259 439.094565,103.359783 C437.490255,104.712276 436.684597,106.422164 436.684597,108.475431 C436.684597,111.313564 438.793319,113.598086 443.003758,115.328997 L448.804495,117.697612 C453.519346,119.603716 456.966161,121.930285 459.151946,124.677317 C461.330726,127.431358 462.423619,130.795072 462.423619,134.782474 C462.423619,140.129377 460.63716,144.544251 457.078253,148.034104 C453.491323,151.551987 449.04269,153.303921 443.718341,153.303921 C438.681227,153.303921 434.512823,151.811274 431.227139,148.825978 C427.990496,145.840682 425.972848,141.63604 425.16719,136.21906 L434.050445,134.256893 C434.449771,137.669661 435.157349,140.031268 436.159167,141.334707 C437.966644,143.843477 440.600795,145.097862 444.061622,145.097862 C446.793853,145.097862 449.063707,144.179848 450.871183,142.350829 C452.67866,140.52181 453.582398,138.195241 453.582398,135.385139 C453.582398,134.256893 453.421266,133.226756 453.113014,132.280712 C452.797757,131.341675 452.307356,130.472716 451.641813,129.687849 C450.976269,128.895975 450.114565,128.153155 449.063707,127.466397 C448.012849,126.772631 446.758825,126.113903 445.301634,125.490215 L439.697057,123.156639 C431.738557,119.792925 427.766313,114.873494 427.766313,108.398345 C427.766313,104.032526 429.433674,100.381495 432.768398,97.4452531 C436.103122,94.4879883 440.257515,93.0093559 445.224571,93.0093559 C451.922042,93.0093559 457.155316,96.2679534 460.917388,102.792156" id="Fill-174" fill="#4B4A4A"></path>
                    <path d="M515.93052,97.2588473 L515.93052,107.644313 C510.865383,103.404632 505.618097,101.288296 500.202674,101.288296 C494.233799,101.288296 489.203691,103.432663 485.112349,107.721398 C480.999991,111.98911 478.940308,117.209873 478.940308,123.383689 C478.940308,129.48042 480.999991,134.624099 485.112349,138.814725 C489.224708,143.005352 494.268828,145.100665 500.237703,145.100665 C503.327226,145.100665 505.947366,144.596108 508.105128,143.594002 C509.310113,143.089445 510.557131,142.409694 511.846184,141.561758 C513.142242,140.706814 514.501352,139.676677 515.93052,138.471346 L515.93052,149.053028 C510.914423,151.884154 505.64612,153.306725 500.125611,153.306725 C491.823831,153.306725 484.73404,150.405522 478.863245,144.610123 C473.020473,138.758663 470.099087,131.715888 470.099087,123.453767 C470.099087,116.053597 472.544084,109.452309 477.434078,103.656911 C483.458999,96.5580737 491.249362,93.0051512 500.805166,93.0051512 C506.017423,93.0051512 511.061543,94.420714 515.93052,97.2588473" id="Fill-175" fill="#4B4A4A"></path>
                    <polygon id="Fill-176" fill="#4B4A4A" points="537.378537 116.869297 562.438004 116.869297 562.438004 94.1361999 571.209168 94.1361999 571.209168 152.251359 562.438004 152.251359 562.438004 125.110396 537.378537 125.110396 537.378537 152.251359 528.614379 152.251359 528.614379 94.1361999 537.378537 94.1361999"></polygon>
                </g>
            </g>
        </g>
    </g>
</svg>