<?xml version="1.0" encoding="UTF-8"?>
<svg width="509px" height="169px" viewBox="0 0 509 169" version="1.1" xmlns="http://www.w3.org/2000/svg" xmlns:xlink="http://www.w3.org/1999/xlink">
    <!-- Generator: Sketch 49.3 (51167) - http://www.bohemiancoding.com/sketch -->
    <title>wortpaare/mitarbeiter/einschlaegig-pfiffig-pos</title>
    <desc>Created with Sketch.</desc>
    <defs>
        <polygon id="path-1" points="0 168.977385 508.215 168.977385 508.215 -0.00261538462 0 -0.00261538462"></polygon>
    </defs>
    <g id="Page-1" stroke="none" stroke-width="1" fill="none" fill-rule="evenodd">
        <g id="Wortpaare-Copy" transform="translate(-3461.000000, -1954.000000)">
            <g id="wortpaare/mitarbeiter/einschlaegig-pfiffig-pos" transform="translate(3461.000000, 1954.000000)">
                <path d="M45.0728846,125.705846 L45.0728846,125.503154 C45.0728846,116.486615 38.9921154,110.503923 31.7998077,110.503923 C24.6009615,110.503923 18.6248077,116.486615 18.6248077,125.503154 L18.6248077,125.705846 C18.6248077,134.728923 24.6009615,140.705077 31.7998077,140.705077 C38.9921154,140.705077 45.0728846,134.827 45.0728846,125.705846 Z M3.41634615,98.447 L18.8275,98.447 L18.8275,106.247385 C22.5740385,101.180077 27.7459615,97.4335385 35.7490385,97.4335385 C48.4140385,97.4335385 60.4709615,107.365462 60.4709615,125.503154 L60.4709615,125.705846 C60.4709615,143.843538 48.6167308,153.775462 35.7490385,153.775462 C27.5367308,153.775462 22.4694231,150.028923 18.8275,145.674308 L18.8275,168.977385 L3.41634615,168.977385 L3.41634615,98.447 Z" id="Fill-1" fill="#DB081A"></path>
                <path d="M38.8123077,37.9472692 C37.8838462,30.9641923 33.7842308,26.2434231 27.2130769,26.2434231 C20.7465385,26.2434231 16.5357692,30.8595769 15.3065385,37.9472692 L38.8123077,37.9472692 Z M0,42.5634231 L0,42.3607308 C0,26.6488077 11.1938462,13.7157308 27.2130769,13.7157308 C45.5926923,13.7157308 54.0076923,27.9891923 54.0076923,43.5899615 C54.0076923,44.8257308 53.9096154,46.2641923 53.805,47.6961154 L15.5026923,47.6961154 C17.0523077,54.7838077 21.9757692,58.4845769 28.9523077,58.4845769 C34.1896154,58.4845769 37.995,56.8368846 42.3038462,52.8353462 L51.2353846,60.7338077 C46.1026923,67.1022692 38.7076923,71.0057308 28.7496154,71.0057308 C12.2203846,71.0057308 0,59.4065 0,42.5634231 Z" id="Fill-3" fill="#DB081A"></path>
                <mask id="mask-2" fill="white">
                    <use xlink:href="#path-1"></use>
                </mask>
                <g id="Clip-6"></g>
                <polygon id="Fill-5" fill="#4B4A4A" mask="url(#mask-2)" points="61.8996154 69.7431538 70.0792308 69.7431538 70.0792308 15.5196923 61.8996154 15.5196923"></polygon>
                <polygon id="Fill-7" fill="#4B4A4A" mask="url(#mask-2)" points="83.1064615 69.7457692 83.1064615 11.8346154 122.651077 53.2034615 122.651077 15.5223077 130.830692 15.5223077 130.830692 73.0476923 91.2860769 31.7769231 91.2860769 69.7457692"></polygon>
                <path d="M174.485385,23.5999231 L167.848846,27.5360769 C166.606538,25.3718462 165.423077,23.9726154 164.298462,23.3187692 C163.128077,22.5668462 161.617692,22.1941538 159.773846,22.1941538 C157.498462,22.1941538 155.615385,22.8414615 154.118077,24.123 C152.620769,25.3849231 151.868846,26.9868462 151.868846,28.9026154 C151.868846,31.5506923 153.836923,33.6756923 157.766538,35.2906923 L163.180385,37.5072308 C167.580769,39.2791538 170.797692,41.4564615 172.837692,44.0195385 C174.871154,46.5891538 175.891154,49.7276154 175.891154,53.448 C175.891154,58.4368462 174.223846,62.5560769 170.902308,65.8122308 C167.554615,69.088 163.402692,70.7291538 158.433462,70.7291538 C153.732308,70.7291538 149.841923,69.3364615 146.775385,66.5445385 C143.754615,63.7656923 141.871538,59.8426154 141.119615,54.7883846 L149.410385,52.9576154 C149.783077,56.1418462 150.443462,58.3387692 151.378462,59.5614615 C153.065385,61.8956923 155.523846,63.0726154 158.753846,63.0726154 C161.303846,63.0726154 163.422308,62.2160769 165.109231,60.5095385 C166.796154,58.803 167.639615,56.6322308 167.639615,54.0103077 C167.639615,52.9576154 167.489231,51.9964615 167.201538,51.1137692 C166.907308,50.2376154 166.449615,49.4268462 165.828462,48.6945385 C165.207308,47.9556923 164.403077,47.2626154 163.422308,46.6218462 C162.441538,45.9745385 161.271154,45.3599231 159.911154,44.7714615 L154.680385,42.5941538 C147.252692,39.4622308 143.545385,34.8722308 143.545385,28.8306923 C143.545385,24.7572308 145.101538,21.3506923 148.213846,18.6110769 C151.326154,15.8453077 155.203462,14.4722308 159.839231,14.4722308 C166.09,14.4722308 170.974231,17.5060769 174.485385,23.5999231" id="Fill-8" fill="#4B4A4A" mask="url(#mask-2)"></path>
                <path d="M225.828654,18.4345385 L225.828654,28.1245385 C221.101346,24.1753077 216.204038,22.1941538 211.149808,22.1941538 C205.579038,22.1941538 200.884423,24.1949231 197.065962,28.1964615 C193.227885,32.1849231 191.305577,37.0495385 191.305577,42.8099231 C191.305577,48.4983846 193.227885,53.2976154 197.065962,57.2076154 C200.904038,61.1176154 205.611731,63.0726154 211.1825,63.0726154 C214.065962,63.0726154 216.511346,62.6018462 218.525192,61.6668462 C219.649808,61.1960769 220.813654,60.5618462 222.016731,59.7706923 C223.226346,58.973 224.494808,58.0183846 225.828654,56.8937692 L225.828654,66.7603077 C221.147115,69.4083846 216.230192,70.7291538 211.077885,70.7291538 C203.329808,70.7291538 196.712885,68.0222308 191.233654,62.6149231 C185.780577,57.1618462 183.054038,50.5841538 183.054038,42.8753077 C183.054038,35.9772308 185.335962,29.8114615 189.899808,24.4041538 C195.522885,17.7806923 202.793654,14.4722308 211.712115,14.4722308 C216.576731,14.4722308 221.284423,15.793 225.828654,18.4345385" id="Fill-9" fill="#4B4A4A" mask="url(#mask-2)"></path>
                <polygon id="Fill-10" fill="#4B4A4A" mask="url(#mask-2)" points="245.846808 36.7343846 269.234885 36.7343846 269.234885 15.5236154 277.421038 15.5236154 277.421038 69.7470769 269.234885 69.7470769 269.234885 44.4236154 245.846808 44.4236154 245.846808 69.7470769 237.667192 69.7470769 237.667192 15.5236154 245.846808 15.5236154"></polygon>
                <polygon id="Fill-11" fill="#4B4A4A" mask="url(#mask-2)" points="298.594538 15.5229615 298.594538 62.0506538 314.535308 62.0506538 314.535308 69.7464231 290.414923 69.7464231 290.414923 15.5229615"></polygon>
                <path d="M348.849808,4.98688462 C348.849808,3.62688462 349.340192,2.4565 350.3275,1.47573077 C351.308269,0.494961538 352.491731,-0.00196153846 353.871346,-0.00196153846 C355.250962,-0.00196153846 356.434423,0.494961538 357.421731,1.47573077 C358.4025,2.4565 358.892885,3.65303846 358.892885,5.05880769 C358.892885,6.43842308 358.4025,7.61534615 357.421731,8.60265385 C356.434423,9.58342308 355.250962,10.0738077 353.871346,10.0738077 C352.465577,10.0738077 351.275577,9.58342308 350.288269,8.60265385 C349.327115,7.57611538 348.849808,6.3665 348.849808,4.98688462 Z M353.838654,48.8861154 L345.796346,30.4476538 L337.368269,48.8861154 L353.838654,48.8861154 Z M333.079038,4.98688462 C333.079038,3.62688462 333.575962,2.4565 334.556731,1.47573077 C335.5375,0.494961538 336.714423,-0.00196153846 338.067885,-0.00196153846 C339.473654,-0.00196153846 340.657115,0.494961538 341.618269,1.47573077 C342.599038,2.4565 343.089423,3.65303846 343.089423,5.05880769 C343.089423,6.43842308 342.599038,7.61534615 341.618269,8.60265385 C340.657115,9.58342308 339.486731,10.0738077 338.100577,10.0738077 C336.701346,10.0738077 335.504808,9.58342308 334.524038,8.60265385 C333.562885,7.57611538 333.079038,6.3665 333.079038,4.98688462 Z M357.173269,56.5753462 L333.961731,56.5753462 L327.920192,69.7438077 L319.106346,69.7438077 L345.933654,12.1138077 L371.819423,69.7438077 L362.861731,69.7438077 L357.173269,56.5753462 Z" id="Fill-12" fill="#4B4A4A" mask="url(#mask-2)"></path>
                <path d="M404.021346,41.5107308 L426.428654,41.5107308 L426.428654,43.2957308 C426.428654,47.3691923 425.951346,50.9784231 424.990192,54.1168846 C424.048654,57.0199615 422.472885,59.7334231 420.243269,62.2638077 C415.208654,67.9326538 408.8075,70.7638077 401.033269,70.7638077 C393.448654,70.7638077 386.955962,68.0241923 381.542115,62.5449615 C376.134808,57.0461154 373.434423,50.4422692 373.434423,42.7334231 C373.434423,34.8676538 376.187115,28.1984231 381.685962,22.7191923 C387.184808,17.2203462 393.886731,14.4676538 401.772115,14.4676538 C406.009038,14.4676538 409.971346,15.3307308 413.645962,17.0699615 C417.157115,18.7961154 420.609423,21.6076538 424.002885,25.4980385 L418.177115,31.0753462 C413.724423,25.1580385 408.304038,22.1961154 401.915962,22.1961154 C396.175192,22.1961154 391.362885,24.1772692 387.479038,28.1265 C383.595192,32.0168846 381.653269,36.8880385 381.653269,42.7334231 C381.653269,48.7749615 383.8175,53.7507308 388.145962,57.6672692 C392.199808,61.2895769 396.587115,63.1072692 401.314423,63.1072692 C405.342115,63.1072692 408.957885,61.7538077 412.168269,59.0338077 C415.378654,56.2941923 417.170192,53.0184231 417.542885,49.1999615 L404.021346,49.1999615 L404.021346,41.5107308 Z" id="Fill-13" fill="#4B4A4A" mask="url(#mask-2)"></path>
                <polygon id="Fill-14" fill="#4B4A4A" mask="url(#mask-2)" points="436.716923 69.7431538 444.896538 69.7431538 444.896538 15.5196923 436.716923 15.5196923"></polygon>
                <path d="M485.812923,41.5107308 L508.220231,41.5107308 L508.220231,43.2957308 C508.220231,47.3691923 507.742923,50.9784231 506.781769,54.1168846 C505.840231,57.0199615 504.264462,59.7334231 502.034846,62.2638077 C497.006769,67.9326538 490.599077,70.7638077 482.831385,70.7638077 C475.246769,70.7638077 468.747538,68.0241923 463.333692,62.5449615 C457.926385,57.0461154 455.226,50.4422692 455.226,42.7334231 C455.226,34.8676538 457.978692,28.1984231 463.477538,22.7191923 C468.982923,17.2203462 475.678308,14.4676538 483.563692,14.4676538 C487.807154,14.4676538 491.762923,15.3307308 495.437538,17.0699615 C498.948692,18.7961154 502.401,21.6076538 505.801,25.4980385 L499.968692,31.0753462 C495.516,25.1580385 490.095615,22.1961154 483.707538,22.1961154 C477.973308,22.1961154 473.154462,24.1772692 469.277154,28.1265 C465.386769,32.0168846 463.444846,36.8880385 463.444846,42.7334231 C463.444846,48.7749615 465.609077,53.7507308 469.937538,57.6672692 C473.991385,61.2895769 478.378692,63.1072692 483.112538,63.1072692 C487.133692,63.1072692 490.756,61.7538077 493.959846,59.0338077 C497.170231,56.2941923 498.961769,53.0184231 499.334462,49.1999615 L485.812923,49.1999615 L485.812923,41.5107308 Z" id="Fill-15" fill="#4B4A4A" mask="url(#mask-2)"></path>
                <polygon id="Fill-16" fill="#4B4A4A" mask="url(#mask-2)" points="95.7080385 106.754769 76.8118846 106.754769 76.8118846 119.785923 95.0411154 119.785923 95.0411154 127.475154 76.8118846 127.475154 76.8118846 153.289 68.6322692 153.289 68.6322692 99.0655385 95.7080385 99.0655385"></polygon>
                <polygon id="Fill-17" fill="#4B4A4A" mask="url(#mask-2)" points="105.190769 153.291615 113.370385 153.291615 113.370385 99.0681538 105.190769 99.0681538"></polygon>
                <polygon id="Fill-18" fill="#4B4A4A" mask="url(#mask-2)" points="153.477962 106.754769 134.581808 106.754769 134.581808 119.785923 152.811038 119.785923 152.811038 127.475154 134.581808 127.475154 134.581808 153.289 126.402192 153.289 126.402192 99.0655385 153.477962 99.0655385"></polygon>
                <polygon id="Fill-19" fill="#4B4A4A" mask="url(#mask-2)" points="190.036462 106.754769 171.140308 106.754769 171.140308 119.785923 189.369538 119.785923 189.369538 127.475154 171.140308 127.475154 171.140308 153.289 162.960692 153.289 162.960692 99.0655385 190.036462 99.0655385"></polygon>
                <polygon id="Fill-20" fill="#4B4A4A" mask="url(#mask-2)" points="199.521154 153.291615 207.700769 153.291615 207.700769 99.0681538 199.521154 99.0681538"></polygon>
                <path d="M248.614538,125.054615 L271.021846,125.054615 L271.021846,126.839615 C271.021846,130.913077 270.544538,134.522308 269.583385,137.660769 C268.641846,140.563846 267.066077,143.277308 264.836462,145.807692 C259.801846,151.476538 253.400692,154.307692 245.626462,154.307692 C238.041846,154.307692 231.549154,151.568077 226.135308,146.088846 C220.728,140.59 218.027615,133.986154 218.027615,126.277308 C218.027615,118.411538 220.780308,111.742308 226.279154,106.263077 C231.778,100.764231 238.479923,98.0115385 246.365308,98.0115385 C250.602231,98.0115385 254.564538,98.8746154 258.239154,100.613846 C261.750308,102.34 265.202615,105.151538 268.596077,109.041923 L262.770308,114.619231 C258.317615,108.701923 252.897231,105.74 246.509154,105.74 C240.768385,105.74 235.956077,107.721154 232.072231,111.670385 C228.188385,115.560769 226.246462,120.431923 226.246462,126.277308 C226.246462,132.318846 228.410692,137.294615 232.739154,141.211154 C236.793,144.833462 241.180308,146.651154 245.907615,146.651154 C249.935308,146.651154 253.551077,145.297692 256.761462,142.577692 C259.971846,139.838077 261.763385,136.562308 262.136077,132.743846 L248.614538,132.743846 L248.614538,125.054615 Z" id="Fill-21" fill="#4B4A4A" mask="url(#mask-2)"></path>
            </g>
        </g>
    </g>
</svg>