<?xml version="1.0" encoding="UTF-8"?>
<svg width="504px" height="170px" viewBox="0 0 504 170" version="1.1" xmlns="http://www.w3.org/2000/svg" xmlns:xlink="http://www.w3.org/1999/xlink">
    <!-- Generator: Sketch 44.1 (41455) - http://www.bohemiancoding.com/sketch -->
    <title>wortpaare/mitarbeiter/einzigartig-praezise-pos</title>
    <desc>Created with Sketch.</desc>
    <defs></defs>
    <g id="Page-1" stroke="none" stroke-width="1" fill="none" fill-rule="evenodd">
        <g id="Wortpaare-Copy" transform="translate(-1831.000000, -1462.000000)">
            <g id="wortpaare/mitarbeiter/einzigartig-praezise/pos" transform="translate(1831.000000, 1462.000000)">
                <g id="Group-10">
                    <path d="M48.3119537,122.689923 L48.3119537,122.472684 C48.3119537,112.809015 41.7966324,106.396936 34.0903384,106.396936 C26.3770387,106.396936 19.9738089,112.809015 19.9738089,122.472684 L19.9738089,122.689923 C19.9738089,132.353592 26.3770387,138.758663 34.0903384,138.758663 C41.7966324,138.758663 48.3119537,132.465716 48.3119537,122.689923 L48.3119537,122.689923 Z M3.67849995,93.4746696 L20.1909863,93.4746696 L20.1909863,101.834899 C24.2052649,96.4109112 29.7467909,92.3884704 38.3217944,92.3884704 C51.8918776,92.3884704 64.8104287,103.033222 64.8104287,122.472684 L64.8104287,122.689923 C64.8104287,142.129385 52.109055,152.774137 38.3217944,152.774137 C29.5226078,152.774137 24.0931734,148.751696 20.1909863,144.084543 L20.1909863,169.067124 L3.67849995,169.067124 L3.67849995,93.4746696 Z" id="Fill-117" fill="#DB071A"></path>
                    <path d="M41.6004722,28.6292798 C40.6126655,21.1450171 36.2200779,16.0854313 29.1793274,16.0854313 C22.2436628,16.0854313 17.7319779,21.0399011 16.4149022,28.6292798 L41.6004722,28.6292798 Z M0.0145074309,33.5837496 L0.0145074309,33.359502 C0.0145074309,16.519911 12.0153089,2.65860802 29.1793274,2.65860802 C48.8654058,2.65860802 57.8817698,17.956497 57.8817698,34.6839642 C57.8817698,36.0014187 57.7766839,37.5431208 57.6715981,39.0848228 L16.6320796,39.0848228 C18.28543,46.6812093 23.5607385,50.6405804 31.0428494,50.6405804 C36.6544326,50.6405804 40.724757,48.8746308 45.3485334,44.585896 L54.9183494,53.0582496 C49.4188578,59.883785 41.4953864,64.060396 30.8256721,64.060396 C13.1082015,64.060396 0.0145074309,51.6286713 0.0145074309,33.5837496 L0.0145074309,33.5837496 Z" id="Fill-118" fill="#DB071A"></path>
                    <polygon id="Fill-119" fill="#4B4A4A" points="66.3411789 62.7072021 75.1053369 62.7072021 75.1053369 4.59204255 66.3411789 4.59204255"></polygon>
                    <polygon id="Fill-120" fill="#4B4A4A" points="89.0663394 62.7100052 89.0663394 0.642482207 131.436945 44.9804316 131.436945 4.59484564 140.201103 4.59484564 140.201103 66.2489121 97.8304974 22.0230865 97.8304974 62.7100052"></polygon>
                    <polygon id="Fill-121" fill="#4B4A4A" points="164.172581 54.4668046 192.055354 54.4668046 192.055354 62.7079028 149.761812 62.7079028 178.282105 12.8408493 154.427622 12.8408493 154.427622 4.59274332 192.692875 4.59274332"></polygon>
                    <polygon id="Fill-122" fill="#4B4A4A" points="202.294217 62.7072021 211.058375 62.7072021 211.058375 4.59204255 202.294217 4.59204255"></polygon>
                    <path d="M254.895278,32.4477955 L278.903887,32.4477955 L278.903887,34.3679153 C278.903887,38.7337352 278.392469,42.5949981 277.362628,45.9587116 C276.353804,49.0701467 274.665425,51.9853651 272.276474,54.6903514 C266.882068,60.766059 260.023466,63.800409 251.693663,63.800409 C243.567026,63.800409 236.610344,60.8641673 230.809606,54.9916841 C225.015874,49.0981776 222.122511,42.0203637 222.122511,33.76525 C222.122511,25.3349428 225.07192,18.1800438 230.963732,12.3075605 C236.855544,6.41405406 244.036409,3.46379696 252.48531,3.46379696 C257.025017,3.46379696 261.270485,4.39582592 265.207701,6.25287612 C268.969773,8.10992632 272.668794,11.123253 276.304764,15.2858486 L270.062666,21.2704556 C265.291769,14.9214463 259.484026,11.7469416 252.639436,11.7469416 C246.488412,11.7469416 241.332201,13.8702858 237.170802,18.1099664 C233.009403,22.272562 230.928704,27.4933257 230.928704,33.76525 C230.928704,40.2403986 233.247598,45.5732861 237.885385,49.7639126 C242.228933,53.6532064 246.929772,55.5943494 251.994909,55.5943494 C256.310434,55.5943494 260.184598,54.143748 263.624407,51.2285295 C267.064217,48.2922879 268.983785,44.7814119 269.383111,40.6888937 L254.895278,40.6888937 L254.895278,32.4477955 Z" id="Fill-123" fill="#4B4A4A"></path>
                    <path d="M317.847293,40.3518216 L309.230255,20.5900044 L300.19988,40.3518216 L317.847293,40.3518216 Z M321.420211,48.5929198 L296.549899,48.5929198 L290.076612,62.7065013 L280.632899,62.7065013 L309.384381,0.940311012 L337.113028,62.7065013 L327.515189,62.7065013 L321.420211,48.5929198 Z" id="Fill-124" fill="#4B4A4A"></path>
                    <path d="M353.14282,31.2810073 L355.924092,31.2810073 C364.232878,31.2810073 368.380265,28.1065027 368.380265,21.7574933 C368.380265,15.807925 364.34497,12.8366446 356.267372,12.8366446 L353.14282,12.8366446 L353.14282,31.2810073 Z M364.057735,37.9453648 L382.041423,62.7107059 L371.315663,62.7107059 L354.726114,38.9194402 L353.14282,38.9194402 L353.14282,62.7107059 L344.378662,62.7107059 L344.378662,4.59554642 L354.649051,4.59554642 C362.327322,4.59554642 367.868848,6.03914015 371.280634,8.92632763 C375.042707,12.135871 376.927246,16.3755516 376.927246,21.6453695 C376.927246,25.7589109 375.743279,29.2978179 373.389357,32.2620905 C371.028428,35.2193553 367.917888,37.1184519 364.057735,37.9453648 L364.057735,37.9453648 Z" id="Fill-125" fill="#4B4A4A"></path>
                    <polygon id="Fill-126" fill="#4B4A4A" points="406.123592 12.8380462 406.123592 62.7121075 397.359434 62.7121075 397.359434 12.8380462 383.999522 12.8380462 383.999522 4.59694796 419.441469 4.59694796 419.441469 12.8380462"></polygon>
                    <polygon id="Fill-127" fill="#4B4A4A" points="427.275968 62.7072021 436.040126 62.7072021 436.040126 4.59204255 427.275968 4.59204255"></polygon>
                    <path d="M479.874927,32.4477955 L503.883536,32.4477955 L503.883536,34.3679153 C503.883536,38.7337352 503.372118,42.5949981 502.342277,45.9587116 C501.333453,49.0701467 499.645074,51.9853651 497.256123,54.6903514 C491.861717,60.766059 485.003116,63.800409 476.673312,63.800409 C468.546675,63.800409 461.589993,60.8641673 455.789256,54.9916841 C449.995524,49.0981776 447.10216,42.0203637 447.10216,33.76525 C447.10216,25.3349428 450.051569,18.1800438 455.943381,12.3075605 C461.835193,6.41405406 469.016058,3.46379696 477.464959,3.46379696 C482.004667,3.46379696 486.250134,4.39582592 490.18735,6.25287612 C493.949422,8.10992632 497.648444,11.123253 501.284413,15.2858486 L495.042315,21.2704556 C490.271418,14.9214463 484.463675,11.7469416 477.619085,11.7469416 C471.468061,11.7469416 466.31185,13.8702858 462.150451,18.1099664 C457.989052,22.272562 455.908353,27.4933257 455.908353,33.76525 C455.908353,40.2403986 458.227247,45.5732861 462.865035,49.7639126 C467.208582,53.6532064 471.909421,55.5943494 476.974558,55.5943494 C481.290083,55.5943494 485.164247,54.143748 488.604057,51.2285295 C492.043866,48.2922879 493.963434,44.7814119 494.36276,40.6888937 L479.874927,40.6888937 L479.874927,32.4477955 Z" id="Fill-128" fill="#4B4A4A"></path>
                    <path d="M82.3240327,120.82096 L85.1053042,120.82096 C93.4070846,120.82096 97.5614777,117.646455 97.5614777,111.297446 C97.5614777,105.347878 93.5261819,102.376597 85.4415789,102.376597 L82.3240327,102.376597 L82.3240327,120.82096 Z M93.2389473,127.485318 L111.222635,152.250659 L100.496875,152.250659 L83.9073258,128.459393 L82.3240327,128.459393 L82.3240327,152.250659 L73.5528689,152.250659 L73.5528689,94.1354991 L83.8302629,94.1354991 C91.508534,94.1354991 97.05006,95.5790929 100.461846,98.4662803 C104.223919,101.675824 106.108458,105.915504 106.108458,111.185322 C106.108458,115.298864 104.924491,118.837771 102.570569,121.802043 C100.209641,124.759308 97.0920943,126.658405 93.2389473,127.485318 L93.2389473,127.485318 Z" id="Fill-129" fill="#4B4A4A"></path>
                    <path d="M145.163956,82.8432324 C145.163956,81.3856232 145.689386,80.1312383 146.747249,79.0800778 C147.798108,78.0289173 149.066143,77.4963294 150.544351,77.4963294 C152.022558,77.4963294 153.290594,78.0289173 154.348458,79.0800778 C155.399316,80.1312383 155.924745,81.4136541 155.924745,82.9203175 C155.924745,84.3989499 155.399316,85.6673502 154.348458,86.7185107 C153.290594,87.7766789 152.022558,88.3022592 150.544351,88.3022592 C149.038121,88.3022592 147.756073,87.7766789 146.705215,86.7185107 C145.675374,85.6182961 145.163956,84.3218648 145.163956,82.8432324 L145.163956,82.8432324 Z M150.509322,129.893176 L141.885279,110.131359 L132.854903,129.893176 L150.509322,129.893176 Z M128.266155,82.8432324 C128.266155,81.3856232 128.791584,80.1312383 129.842443,79.0800778 C130.900307,78.0289173 132.161337,77.4963294 133.611521,77.4963294 C135.110746,77.4963294 136.378781,78.0289173 137.415628,79.0800778 C138.466486,80.1312383 138.991915,81.4136541 138.991915,82.9203175 C138.991915,84.3989499 138.466486,85.6673502 137.415628,86.7185107 C136.378781,87.7766789 135.124757,88.3022592 133.64655,88.3022592 C132.147325,88.3022592 130.865278,87.7766789 129.81442,86.7185107 C128.777573,85.6182961 128.266155,84.3218648 128.266155,82.8432324 L128.266155,82.8432324 Z M154.075235,138.134274 L129.211928,138.134274 L122.738641,152.247856 L113.287922,152.247856 L142.039404,90.4816653 L169.775057,152.247856 L160.177218,152.247856 L154.075235,138.134274 Z" id="Fill-130" fill="#4B4A4A"></path>
                    <polygon id="Fill-131" fill="#4B4A4A" points="187.081992 144.006757 214.95776 144.006757 214.95776 152.247856 172.664217 152.247856 201.191516 102.380802 177.330028 102.380802 177.330028 94.132696 215.602286 94.132696"></polygon>
                    <polygon id="Fill-132" fill="#4B4A4A" points="225.195921 152.25206 233.967085 152.25206 233.967085 94.1369007 225.195921 94.1369007"></polygon>
                    <path d="M280.776516,102.792156 L273.658703,107.010814 C272.334621,104.69826 271.066586,103.191597 269.861602,102.490823 C268.607577,101.684934 266.989256,101.285493 265.006636,101.285493 C262.575651,101.285493 260.550997,101.979259 258.953693,103.359783 C257.342377,104.712276 256.543724,106.422164 256.543724,108.475431 C256.543724,111.313564 258.652447,113.598086 262.862885,115.328997 L268.663623,117.697612 C273.371468,119.603716 276.825289,121.930285 279.004069,124.677317 C281.189854,127.431358 282.282746,130.795072 282.282746,134.782474 C282.282746,140.129377 280.496287,144.544251 276.937381,148.034104 C273.343445,151.551987 268.901818,153.303921 263.577469,153.303921 C258.533349,153.303921 254.371951,151.811274 251.086267,148.825978 C247.849624,145.840682 245.831976,141.63604 245.026318,136.21906 L253.909573,134.256893 C254.308899,137.669661 255.009471,140.031268 256.018295,141.334707 C257.825771,143.843477 260.459923,145.097862 263.920749,145.097862 C266.645975,145.097862 268.922835,144.179848 270.723305,142.350829 C272.530782,140.52181 273.43452,138.195241 273.43452,135.385139 C273.43452,134.256893 273.280394,133.226756 272.972142,132.280712 C272.656885,131.341675 272.166484,130.472716 271.50094,129.687849 C270.835397,128.895975 269.973693,128.153155 268.922835,127.466397 C267.864971,126.772631 266.617952,126.113903 265.160762,125.490215 L259.556185,123.156639 C251.597685,119.792925 247.62544,114.873494 247.62544,108.398345 C247.62544,104.032526 249.292802,100.381495 252.627526,97.4452531 C255.962249,94.4879883 260.116642,93.0093559 265.083699,93.0093559 C271.781169,93.0093559 277.014444,96.2679534 280.776516,102.792156" id="Fill-133" fill="#4B4A4A"></path>
                    <polygon id="Fill-134" fill="#4B4A4A" points="324.911163 102.377999 301.624143 102.377999 301.624143 116.344418 324.231608 116.344418 324.231608 124.585516 301.624143 124.585516 301.624143 144.003954 324.911163 144.003954 324.911163 152.25206 292.852979 152.25206 292.852979 94.1369007 324.911163 94.1369007"></polygon>
                </g>
            </g>
        </g>
    </g>
</svg>