<?xml version="1.0" encoding="UTF-8"?>
<svg width="685px" height="170px" viewBox="0 0 685 170" version="1.1" xmlns="http://www.w3.org/2000/svg" xmlns:xlink="http://www.w3.org/1999/xlink">
    <!-- Generator: Sketch 44.1 (41455) - http://www.bohemiancoding.com/sketch -->
    <title>wortpaare/mitarbeiter/eloquent-problemloesend-pos</title>
    <desc>Created with Sketch.</desc>
    <defs></defs>
    <g id="Page-1" stroke="none" stroke-width="1" fill="none" fill-rule="evenodd">
        <g id="Wortpaare-Copy" transform="translate(-1070.000000, -783.000000)">
            <g id="wortpaare/mitarbeiter/eloquent-problemloesend/pos" transform="translate(1069.000000, 783.000000)">
                <g id="Group-2">
                    <path d="M49.3795883,122.632393 L49.3795883,122.415153 C49.3795883,112.751484 42.864267,106.339405 35.157973,106.339405 C27.4446733,106.339405 21.0414435,112.751484 21.0414435,122.415153 L21.0414435,122.632393 C21.0414435,132.303069 27.4446733,138.70814 35.157973,138.70814 C42.864267,138.70814 49.3795883,132.408185 49.3795883,122.632393 L49.3795883,122.632393 Z M4.74613455,93.4171388 L21.2586209,93.4171388 L21.2586209,101.777369 C25.2728995,96.3533804 30.8144255,92.3309396 39.389429,92.3309396 C52.9595122,92.3309396 65.8780633,102.975692 65.8780633,122.415153 L65.8780633,122.632393 C65.8780633,142.071854 53.1766896,152.716606 39.389429,152.716606 C30.5902424,152.716606 25.160808,148.701173 21.2586209,144.03402 L21.2586209,169.009593 L4.74613455,169.009593 L4.74613455,93.4171388 Z" id="Fill-473" fill="#DB071A"></path>
                    <path d="M42.6681068,28.5752529 C41.6803001,21.0909902 37.2877125,16.0314044 30.246962,16.0314044 C23.3112974,16.0314044 18.7996125,20.9788665 17.4825368,28.5752529 L42.6681068,28.5752529 Z M1.08214203,33.5297227 L1.08214203,33.3054751 C1.08214203,16.4658841 13.0829435,2.60458113 30.246962,2.60458113 C49.9330404,2.60458113 58.9494044,17.9024701 58.9494044,34.6299373 C58.9494044,35.9473918 58.8443185,37.4890939 58.7392327,39.0307959 L17.6997142,39.0307959 C19.3530646,46.6271824 24.6283731,50.5795458 32.110484,50.5795458 C37.7220672,50.5795458 41.7923916,48.8206039 46.416168,44.5318691 L55.985984,53.0042227 C50.4864924,59.8227504 42.563021,64.0063691 31.8933067,64.0063691 C14.1758361,64.0063691 1.08214203,51.5746444 1.08214203,33.5297227 L1.08214203,33.5297227 Z" id="Fill-474" fill="#DB071A"></path>
                    <polygon id="Fill-475" fill="#4B4A4A" points="76.1743726 4.54081875 76.1743726 54.41488 93.2543225 54.41488 93.2543225 62.6559783 67.4102146 62.6559783 67.4102146 4.54081875"></polygon>
                    <path d="M105.147936,33.4477322 C105.147936,39.8738266 107.305699,45.1506523 111.621223,49.2922246 C115.908725,53.4337969 120.86177,55.5010792 126.480359,55.5010792 C132.582343,55.5010792 137.717537,53.3987582 141.913965,49.1801008 C146.103386,44.9123892 148.198097,39.7196564 148.198097,33.5948946 C148.198097,27.4000555 146.124403,22.2073227 141.984022,18.0166962 C137.871663,13.7980388 132.778503,11.6957178 126.711548,11.6957178 C120.66561,11.6957178 115.558439,13.7980388 111.39704,18.0166962 C107.228636,22.1792917 105.147936,27.3229704 105.147936,33.4477322 M96.3067155,33.3356084 C96.3067155,25.1505721 99.3051644,18.12882 105.295057,12.2563367 C111.270937,6.38385347 118.444796,3.44761184 126.82364,3.44761184 C135.097397,3.44761184 142.201199,6.41188441 148.121034,12.3334218 C154.061886,18.2549592 157.039318,25.3678119 157.039318,33.6719797 C157.039318,42.0322095 154.047875,49.1170312 148.079,54.9404603 C142.082102,60.7849126 134.852197,63.7071388 126.368268,63.7071388 C118.86514,63.7071388 112.132641,61.1142762 106.163766,55.9215434 C99.592399,50.1751994 96.3067155,42.6418826 96.3067155,33.3356084" id="Fill-476" fill="#4B4A4A"></path>
                    <path d="M203.057102,39.6579883 L211.484986,48.0532568 C215.198018,44.1849862 217.054535,39.4057098 217.054535,33.70842 C217.054535,27.4645267 214.987847,22.2297474 210.847465,18.0180978 C206.707084,13.7994403 201.564884,11.6901116 195.420866,11.6901116 C189.192779,11.6901116 184.078602,13.7994403 180.064323,18.0180978 C176.029028,22.2087242 174.01138,27.5135808 174.01138,33.9396753 C174.01138,40.2115995 176.092079,45.3412627 180.253478,49.3286648 C184.597025,53.4492139 189.550071,55.5024808 195.11962,55.5024808 C198.902709,55.5024808 202.328507,54.6405292 205.390008,52.9096182 L191.72885,39.6579883 L203.057102,39.6579883 Z M227.177803,63.7085403 L216.150797,63.7085403 L211.597077,59.0413877 C206.756124,62.1528228 201.361718,63.7085403 195.420866,63.7085403 C187.721577,63.7085403 180.876987,61.1016623 174.908112,55.8808985 C168.413808,50.1345545 165.163153,42.7974543 165.163153,33.8625902 C165.163153,25.1029194 168.238665,17.8008579 174.382683,11.9564056 C180.351558,6.2871467 187.40632,3.44901339 195.532957,3.44901339 C202.909982,3.44901339 209.516378,5.93675987 215.35915,10.8982374 C222.385889,16.8758367 225.895756,24.661432 225.895756,34.2760466 C225.895756,41.8023557 223.128496,48.4877364 217.579964,54.3391965 L227.177803,63.7085403 Z" id="Fill-477" fill="#4B4A4A"></path>
                    <path d="M245.690423,4.54081875 L245.690423,39.544463 C245.690423,44.5409792 246.503086,48.19201 248.13542,50.4975553 C250.566405,53.8332379 253.992203,55.5010792 258.405808,55.5010792 C262.847435,55.5010792 266.287245,53.8332379 268.71823,50.4975553 C270.350564,48.2620873 271.163227,44.6110566 271.163227,39.544463 L271.163227,4.54081875 L279.934391,4.54081875 L279.934391,41.9551244 C279.934391,48.0728784 278.028835,53.1184488 274.210716,57.0848277 C269.923215,61.4997017 264.654912,63.7071388 258.405808,63.7071388 C252.16371,63.7071388 246.909418,61.4997017 242.642934,57.0848277 C238.831821,53.1184488 236.926265,48.0728784 236.926265,41.9551244 L236.926265,4.54081875 L245.690423,4.54081875 Z" id="Fill-478" fill="#4B4A4A"></path>
                    <polygon id="Fill-479" fill="#4B4A4A" points="325.913644 12.7840193 302.619619 12.7840193 302.619619 26.7504383 325.234089 26.7504383 325.234089 34.9915365 302.619619 34.9915365 302.619619 54.4099746 325.913644 54.4099746 325.913644 62.6580806 293.855461 62.6580806 293.855461 4.54292107 325.913644 4.54292107"></polygon>
                    <polygon id="Fill-480" fill="#4B4A4A" points="337.428248 62.6559783 337.428248 0.58845531 379.798854 44.9264047 379.798854 4.54081875 388.563012 4.54081875 388.563012 66.1948852 346.192406 21.9690596 346.192406 62.6559783"></polygon>
                    <polygon id="Fill-481" fill="#4B4A4A" points="418.517377 12.7840193 418.517377 62.6580806 409.753219 62.6580806 409.753219 12.7840193 396.393307 12.7840193 396.393307 4.54292107 431.835254 4.54292107 431.835254 12.7840193"></polygon>
                    <path d="M83.3923678,120.767634 L86.1736394,120.767634 C94.4754198,120.767634 98.6298128,117.593129 98.6298128,111.24412 C98.6298128,105.294552 94.5945171,102.323271 86.5099141,102.323271 L83.3923678,102.323271 L83.3923678,120.767634 Z M94.3072825,127.431991 L112.29097,152.197333 L101.56521,152.197333 L84.975661,128.406067 L83.3923678,128.406067 L83.3923678,152.197333 L74.6212041,152.197333 L74.6212041,94.082173 L84.898598,94.082173 C92.5768692,94.082173 98.1183951,95.5257667 101.530182,98.4129542 C105.292254,101.622498 107.176793,105.862178 107.176793,111.131996 C107.176793,115.245537 105.992826,118.784444 103.638904,121.748717 C101.277976,124.705982 98.1604295,126.605079 94.3072825,127.431991 L94.3072825,127.431991 Z" id="Fill-482" fill="#4B4A4A"></path>
                    <path d="M125.645277,122.988386 C125.645277,129.41448 127.810045,134.691306 132.118564,138.832878 C136.406066,142.97445 141.359111,145.041733 146.984706,145.041733 C153.079684,145.041733 158.214878,142.939412 162.411306,138.720754 C166.600727,134.453043 168.695438,129.26031 168.695438,123.135548 C168.695438,116.940709 166.62875,111.747976 162.488368,107.55735 C158.369004,103.338692 153.275844,101.236371 147.208889,101.236371 C141.162951,101.236371 136.05578,103.338692 131.894381,107.55735 C127.732982,111.719945 125.645277,116.863624 125.645277,122.988386 M116.804056,122.876262 C116.804056,114.691226 119.802505,107.669473 125.792398,101.79699 C131.768278,95.9245069 138.942137,92.9882653 147.320981,92.9882653 C155.594738,92.9882653 162.69854,95.9525379 168.618375,101.874075 C174.559227,107.795613 177.536659,114.908465 177.536659,123.212633 C177.536659,131.572863 174.545216,138.657685 168.583346,144.481114 C162.579443,150.325566 155.349538,153.247792 146.865609,153.247792 C139.369486,153.247792 132.629982,150.65493 126.668113,145.462197 C120.08974,139.715853 116.804056,132.182536 116.804056,122.876262" id="Fill-483" fill="#4B4A4A"></path>
                    <path d="M197.330625,143.953431 L202.746048,143.953431 C206.711287,143.953431 209.618662,143.175572 211.482184,141.619855 C213.43678,139.937998 214.410575,137.807646 214.410575,135.221791 C214.410575,132.713022 213.471809,130.603693 211.587269,128.900813 C209.758776,127.218956 206.487104,126.378028 201.772253,126.378028 L197.330625,126.378028 L197.330625,143.953431 Z M197.330625,119.03392 L200.076868,119.03392 C203.334529,119.03392 205.72348,118.312123 207.243722,116.868529 C208.763963,115.431943 209.520581,113.301591 209.520581,110.491489 C209.520581,107.758472 208.742946,105.684182 207.187676,104.261611 C205.632406,102.846048 203.369558,102.138267 200.413143,102.138267 L197.330625,102.138267 L197.330625,119.03392 Z M188.559462,152.194529 L188.559462,94.0793699 L197.288591,94.0793699 C201.183772,94.0793699 204.273296,94.3807026 206.585184,94.9833679 C208.918089,95.5860333 210.893703,96.6021551 212.491007,98.0317333 C214.123341,99.5173735 215.412393,101.360408 216.372177,103.567845 C217.345973,105.803313 217.836373,108.059804 217.836373,110.344327 C217.836373,114.506922 216.239069,118.031814 213.058471,120.919001 C216.147994,121.970162 218.571974,123.813196 220.358433,126.448105 C222.165909,129.061991 223.069647,132.096341 223.069647,135.558163 C223.069647,140.099176 221.458331,143.939416 218.249711,147.078882 C216.316132,149.013017 214.144358,150.351495 211.741395,151.10833 C209.107244,151.837135 205.807549,152.194529 201.849316,152.194529 L188.559462,152.194529 Z" id="Fill-484" fill="#4B4A4A"></path>
                    <polygon id="Fill-485" fill="#4B4A4A" points="242.89514 94.0814722 242.89514 143.955534 259.975089 143.955534 259.975089 152.196632 234.130982 152.196632 234.130982 94.0814722"></polygon>
                    <polygon id="Fill-486" fill="#4B4A4A" points="300.357471 102.323972 277.063446 102.323972 277.063446 116.290391 299.677916 116.290391 299.677916 124.531489 277.063446 124.531489 277.063446 143.949927 300.357471 143.949927 300.357471 152.198033 268.299288 152.198033 268.299288 94.0828738 300.357471 94.0828738"></polygon>
                    <polygon id="Fill-487" fill="#4B4A4A" points="309.839716 152.195931 322.0647 89.7149516 342.00999 134.879814 362.669864 89.7149516 373.654836 152.195931 364.659489 152.195931 359.054912 117.115202 341.855865 154.865879 325.154224 117.080163 318.90512 152.195931"></polygon>
                    <polygon id="Fill-488" fill="#4B4A4A" points="394.729448 94.0814722 394.729448 143.955534 411.809398 143.955534 411.809398 152.196632 385.958285 152.196632 385.958285 94.0814722"></polygon>
                    <path d="M448.387673,82.7892055 C448.387673,81.3315963 448.913102,80.0772114 449.970966,79.0260509 C451.021824,77.9748905 452.28986,77.4423025 453.768067,77.4423025 C455.246275,77.4423025 456.51431,77.9748905 457.572174,79.0260509 C458.623033,80.0772114 459.148462,81.3596272 459.148462,82.8662906 C459.148462,84.344923 458.623033,85.6133233 457.572174,86.6644838 C456.51431,87.722652 455.246275,88.2482323 453.768067,88.2482323 C452.261837,88.2482323 450.97979,87.722652 449.928932,86.6644838 C448.899091,85.5642692 448.387673,84.2678379 448.387673,82.7892055 M431.489872,82.7892055 C431.489872,81.3315963 432.015301,80.0772114 433.066159,79.0260509 C434.124023,77.9748905 435.385053,77.4423025 436.835238,77.4423025 C438.334462,77.4423025 439.602498,77.9748905 440.639345,79.0260509 C441.690203,80.0772114 442.215632,81.3596272 442.215632,82.8662906 C442.215632,84.344923 441.690203,85.6133233 440.639345,86.6644838 C439.602498,87.722652 438.348474,88.2482323 436.870266,88.2482323 C435.371042,88.2482323 434.088995,87.722652 433.038137,86.6644838 C432.00129,85.5642692 431.489872,84.2678379 431.489872,82.7892055 M423.706515,122.985583 C423.706515,129.411677 425.857272,134.69551 430.172796,138.837083 C434.467304,142.971647 439.420349,145.045937 445.031932,145.045937 C451.133916,145.045937 456.276116,142.936609 460.465537,138.717951 C464.654959,134.457247 466.74967,129.257507 466.74967,123.139753 C466.74967,116.944914 464.675976,111.745173 460.535595,107.554547 C456.423236,103.342897 451.337082,101.233568 445.263121,101.233568 C439.217183,101.233568 434.110012,103.342897 429.948613,107.554547 C425.780209,111.717142 423.706515,116.867829 423.706515,122.985583 M414.858288,122.873459 C414.858288,114.69543 417.856737,107.66667 423.853635,101.794187 C429.82251,95.9287116 436.996369,92.99247 445.375213,92.99247 C453.655976,92.99247 460.752772,95.9497348 466.672607,101.871272 C472.620465,107.79281 475.590891,114.905662 475.590891,123.216838 C475.590891,131.57006 472.606453,138.661889 466.630573,144.478311 C460.640681,150.329771 453.40377,153.251997 444.926846,153.251997 C437.423718,153.251997 430.69122,150.652127 424.715339,145.459394 C418.150978,139.71305 414.858288,132.186741 414.858288,122.873459" id="Fill-489" fill="#4B4A4A"></path>
                    <path d="M519.464224,102.738129 L512.353416,106.956787 C511.022329,104.644234 509.754293,103.13757 508.549309,102.436797 C507.302291,101.630907 505.676963,101.231466 503.70135,101.231466 C501.263359,101.231466 499.245711,101.925232 497.6414,103.305756 C496.03709,104.658249 495.231432,106.368137 495.231432,108.421404 C495.231432,111.259537 497.340154,113.544059 501.550593,115.27497 L507.351331,117.643585 C512.066182,119.549689 515.520002,121.876258 517.698782,124.623291 C519.884567,127.377331 520.970454,130.741045 520.970454,134.728447 C520.970454,140.07535 519.191001,144.490224 515.625088,147.980077 C512.038159,151.49796 507.589525,153.249895 502.272183,153.249895 C497.228063,153.249895 493.059658,151.757247 489.78098,148.771951 C486.544337,145.786655 484.526689,141.582013 483.714025,136.165033 L492.597281,134.202867 C493.003613,137.615634 493.704185,139.977241 494.706003,141.28068 C496.513479,143.78945 499.147631,145.043835 502.608457,145.043835 C505.340689,145.043835 507.617548,144.125822 509.418019,142.296802 C511.225495,140.467783 512.129233,138.141214 512.129233,135.331112 C512.129233,134.202867 511.975107,133.172729 511.65985,132.226685 C511.344592,131.287648 510.854192,130.418689 510.188648,129.633822 C509.523105,128.841948 508.668407,128.099128 507.617548,127.41237 C506.559684,126.718604 505.30566,126.059877 503.84847,125.436188 L498.243892,123.102612 C490.292398,119.738898 486.320154,114.819467 486.320154,108.344319 C486.320154,103.978499 487.987516,100.327468 491.315234,97.3912262 C494.656963,94.4339614 498.811356,92.955329 503.778413,92.955329 C510.475883,92.955329 515.702151,96.2139265 519.464224,102.738129" id="Fill-490" fill="#4B4A4A"></path>
                    <polygon id="Fill-491" fill="#4B4A4A" points="563.605876 102.323972 540.311851 102.323972 540.311851 116.290391 562.926321 116.290391 562.926321 124.531489 540.311851 124.531489 540.311851 143.949927 563.605876 143.949927 563.605876 152.198033 531.547693 152.198033 531.547693 94.0828738 563.605876 94.0828738"></polygon>
                    <polygon id="Fill-492" fill="#4B4A4A" points="575.11978 152.195931 575.11978 90.128408 617.490385 134.466357 617.490385 94.0807715 626.254544 94.0807715 626.254544 155.734838 583.883938 111.509012 583.883938 152.195931"></polygon>
                    <path d="M648.946777,143.953431 L652.890998,143.953431 C656.83522,143.953431 660.106892,143.539975 662.720026,142.713062 C665.326155,141.830087 667.687083,140.442555 669.795805,138.536451 C674.104324,134.598103 676.262087,129.461432 676.262087,123.140454 C676.262087,116.763413 674.132347,111.598711 669.865862,107.632332 C666.026727,104.093425 660.373109,102.327476 652.890998,102.327476 L648.946777,102.327476 L648.946777,143.953431 Z M640.175613,152.194529 L640.175613,94.0793699 L652.365569,94.0793699 C658.215347,94.0793699 662.825112,94.661012 666.215881,95.8102808 C669.851851,96.9455342 673.151546,98.8586463 676.114966,101.57064 C682.104859,107.043683 685.103307,114.23362 685.103307,123.140454 C685.103307,132.075318 681.985761,139.300294 675.736657,144.822391 C672.598094,147.583439 669.31241,149.503559 665.879607,150.575742 C662.66398,151.654934 658.117267,152.194529 652.218449,152.194529 L640.175613,152.194529 Z" id="Fill-493" fill="#4B4A4A"></path>
                </g>
            </g>
        </g>
    </g>
</svg>