<?xml version="1.0" encoding="UTF-8"?>
<svg width="492px" height="170px" viewBox="0 0 492 170" version="1.1" xmlns="http://www.w3.org/2000/svg" xmlns:xlink="http://www.w3.org/1999/xlink">
    <!-- Generator: Sketch 44.1 (41455) - http://www.bohemiancoding.com/sketch -->
    <title>wortpaare/mitarbeiter/empathisch-pfiffig-pos</title>
    <desc>Created with Sketch.</desc>
    <defs></defs>
    <g id="Page-1" stroke="none" stroke-width="1" fill="none" fill-rule="evenodd">
        <g id="Wortpaare-Copy" transform="translate(-1780.000000, -783.000000)">
            <g id="wortpaare/mitarbeiter/empathisch-pfiffig/pos" transform="translate(1780.000000, 783.000000)">
                <g id="Group-3">
                    <path d="M48.6862443,122.632393 L48.6862443,122.415153 C48.6862443,112.751484 42.170923,106.339405 34.464629,106.339405 C26.7513293,106.339405 20.3480995,112.751484 20.3480995,122.415153 L20.3480995,122.632393 C20.3480995,132.303069 26.7513293,138.70814 34.464629,138.70814 C42.170923,138.70814 48.6862443,132.408185 48.6862443,122.632393 L48.6862443,122.632393 Z M4.05279055,93.4171388 L20.5652769,93.4171388 L20.5652769,101.777369 C24.5795555,96.3533804 30.1210815,92.3309396 38.696085,92.3309396 C52.2661682,92.3309396 65.1847193,102.975692 65.1847193,122.415153 L65.1847193,122.632393 C65.1847193,142.071854 52.4833456,152.716606 38.696085,152.716606 C29.8968984,152.716606 24.467464,148.701173 20.5652769,144.03402 L20.5652769,169.009593 L4.05279055,169.009593 L4.05279055,93.4171388 Z" id="Fill-494" fill="#DB071A"></path>
                    <path d="M41.9747628,28.5752529 C40.986956,21.0909902 36.5943685,16.0314044 29.553618,16.0314044 C22.6179534,16.0314044 18.1062685,20.9788665 16.7891928,28.5752529 L41.9747628,28.5752529 Z M0.388798028,33.5297227 L0.388798028,33.3054751 C0.388798028,16.4658841 12.3895995,2.60458113 29.553618,2.60458113 C49.2396964,2.60458113 58.2560604,17.9024701 58.2560604,34.6299373 C58.2560604,35.9473918 58.1509745,37.4890939 58.0458887,39.0307959 L17.0063702,39.0307959 C18.6597206,46.6271824 23.9350291,50.5795458 31.41714,50.5795458 C37.0287232,50.5795458 41.0990476,48.8206039 45.722824,44.5318691 L55.29264,53.0042227 C49.7931484,59.8227504 41.869677,64.0063691 31.1999626,64.0063691 C13.4824921,64.0063691 0.388798028,51.5746444 0.388798028,33.5297227 L0.388798028,33.5297227 Z" id="Fill-495" fill="#DB071A"></path>
                    <polygon id="Fill-496" fill="#4B4A4A" points="64.6817084 62.6559783 76.9136988 0.174998851 96.8519831 45.3398612 117.511857 0.174998851 128.496829 62.6559783 119.508487 62.6559783 113.896904 27.5752489 96.7048629 65.3259259 79.9962164 27.5402102 73.7471125 62.6559783"></polygon>
                    <path d="M149.571441,30.9256478 L152.843113,30.9256478 C160.899693,30.9256478 164.920978,27.8282282 164.920978,21.6263813 C164.920978,15.6277588 160.77359,12.6354553 152.47181,12.6354553 L149.571441,12.6354553 L149.571441,30.9256478 Z M149.571441,39.0546222 L149.571441,62.656679 L140.807283,62.656679 L140.807283,4.54151952 L150.741397,4.54151952 C155.603368,4.54151952 159.281371,4.87789088 161.761397,5.55764132 C164.269445,6.23739177 166.483254,7.51279983 168.38881,9.39788097 C171.723533,12.6564785 173.390895,16.7700199 173.390895,21.7385051 C173.390895,27.0643849 171.611442,31.2760346 168.045529,34.3874696 C164.486623,37.4989047 159.680698,39.0546222 153.63476,39.0546222 L149.571441,39.0546222 Z" id="Fill-497" fill="#4B4A4A"></path>
                    <path d="M208.723553,40.2984955 L200.106515,20.5366783 L191.076139,40.2984955 L208.723553,40.2984955 Z M212.296471,48.5395937 L187.426158,48.5395937 L180.952871,62.6531752 L171.509158,62.6531752 L200.260641,0.886984889 L227.989288,62.6531752 L218.391449,62.6531752 L212.296471,48.5395937 Z" id="Fill-498" fill="#4B4A4A"></path>
                    <polygon id="Fill-499" fill="#4B4A4A" points="248.044568 12.7840193 248.044568 62.6580806 239.28041 62.6580806 239.28041 12.7840193 225.920498 12.7840193 225.920498 4.54292107 261.362445 4.54292107 261.362445 12.7840193"></polygon>
                    <polygon id="Fill-500" fill="#4B4A4A" points="277.9597 27.2753178 303.019167 27.2753178 303.019167 4.54222029 311.790331 4.54222029 311.790331 62.6573798 303.019167 62.6573798 303.019167 35.516416 277.9597 35.516416 277.9597 62.6573798 269.195542 62.6573798 269.195542 4.54222029 277.9597 4.54222029"></polygon>
                    <polygon id="Fill-501" fill="#4B4A4A" points="325.711401 62.656679 334.475559 62.656679 334.475559 4.54151952 325.711401 4.54151952"></polygon>
                    <path d="M381.287092,13.1981765 L374.176284,17.416834 C372.845197,15.1042809 371.577161,13.5976175 370.372177,12.8968439 C369.118153,12.0909541 367.499831,11.6915132 365.524218,11.6915132 C363.086226,11.6915132 361.068579,12.3852791 359.464268,13.7658032 C357.859958,15.1182964 357.0543,16.8281841 357.0543,18.8814509 C357.0543,21.7195842 359.163022,24.0041063 363.373461,25.7350173 L369.174199,28.1036322 C373.88905,30.0097366 377.335865,32.3363051 379.52165,35.0833379 C381.700429,37.8373784 382.793322,41.2010919 382.793322,45.188494 C382.793322,50.5353971 381.006863,54.9502711 377.447956,58.4401239 C373.861027,61.9580077 369.412393,63.7099419 364.088045,63.7099419 C359.050931,63.7099419 354.882526,62.217294 351.596843,59.2319982 C348.360199,56.2467024 346.342551,52.0420604 345.536893,46.6250801 L354.420149,44.6629138 C354.819475,48.0756815 355.527053,50.4372888 356.528871,51.7407278 C358.336347,54.2494975 360.970498,55.5038823 364.431325,55.5038823 C367.163557,55.5038823 369.43341,54.5858688 371.240887,52.7568496 C373.048363,50.9278303 373.952101,48.6012618 373.952101,45.7911594 C373.952101,44.6629138 373.790969,43.6327765 373.482718,42.6867321 C373.16746,41.7476954 372.67706,40.878736 372.011516,40.0938696 C371.345972,39.3019953 370.484269,38.5591752 369.43341,37.8724171 C368.382552,37.1786511 367.128528,36.5199239 365.671338,35.8962353 L360.06676,33.5626591 C352.10826,30.1989455 348.136016,25.2795144 348.136016,18.8043658 C348.136016,14.4385459 349.803378,10.7875151 353.138101,7.85127351 C356.472825,4.89400867 360.627218,3.41537625 365.594275,3.41537625 C372.291745,3.41537625 377.525019,6.67397376 381.287092,13.1981765" id="Fill-502" fill="#4B4A4A"></path>
                    <path d="M436.299522,7.66486772 L436.299522,18.0503333 C431.234386,13.8106527 425.9871,11.6943163 420.571677,11.6943163 C414.602802,11.6943163 409.572694,13.8386837 405.481352,18.1274184 C401.368993,22.39513 399.309311,27.6158938 399.309311,33.7897097 C399.309311,39.8864405 401.368993,45.0301192 405.481352,49.2207457 C409.593711,53.4113722 414.637831,55.5066854 420.606706,55.5066854 C423.696229,55.5066854 426.316369,55.0021284 428.474131,54.000022 C429.679115,53.495465 430.926134,52.8157146 432.215187,51.9677784 C433.511245,51.1128346 434.870355,50.0826973 436.299522,48.8773666 L436.299522,59.4590488 C431.283426,62.2901744 426.015123,63.7127449 420.494614,63.7127449 C412.192834,63.7127449 405.103043,60.811542 399.232248,55.0161438 C393.389476,49.1646838 390.46809,42.1219085 390.46809,33.8597871 C390.46809,26.4596172 392.913087,19.8583294 397.803081,14.0629312 C403.828002,6.96409406 411.618364,3.41117161 421.174169,3.41117161 C426.386426,3.41117161 431.430546,4.8267344 436.299522,7.66486772" id="Fill-503" fill="#4B4A4A"></path>
                    <polygon id="Fill-504" fill="#4B4A4A" points="457.74824 27.2753178 482.807707 27.2753178 482.807707 4.54222029 491.578871 4.54222029 491.578871 62.6573798 482.807707 62.6573798 482.807707 35.516416 457.74824 35.516416 457.74824 62.6573798 448.984082 62.6573798 448.984082 4.54222029 457.74824 4.54222029"></polygon>
                    <polygon id="Fill-505" fill="#4B4A4A" points="102.942758 102.323972 82.6962216 102.323972 82.6962216 116.290391 102.221168 116.290391 102.221168 124.531489 82.6962216 124.531489 82.6962216 152.198033 73.9250578 152.198033 73.9250578 94.0828738 102.942758 94.0828738"></polygon>
                    <polygon id="Fill-506" fill="#4B4A4A" points="113.101755 152.194529 121.865913 152.194529 121.865913 94.0793699 113.101755 94.0793699"></polygon>
                    <polygon id="Fill-507" fill="#4B4A4A" points="164.83831 102.323972 144.591774 102.323972 144.591774 116.290391 164.123726 116.290391 164.123726 124.531489 144.591774 124.531489 144.591774 152.198033 135.827616 152.198033 135.827616 94.0828738 164.83831 94.0828738"></polygon>
                    <polygon id="Fill-508" fill="#4B4A4A" points="204.012905 102.323972 183.766369 102.323972 183.766369 116.290391 203.291316 116.290391 203.291316 124.531489 183.766369 124.531489 183.766369 152.198033 174.995206 152.198033 174.995206 94.0828738 204.012905 94.0828738"></polygon>
                    <polygon id="Fill-509" fill="#4B4A4A" points="214.173304 152.194529 222.937462 152.194529 222.937462 94.0793699 214.173304 94.0793699"></polygon>
                    <path d="M266.777167,121.934422 L290.785776,121.934422 L290.785776,123.854542 C290.785776,128.220362 290.274358,132.081625 289.237511,135.445338 C288.235693,138.556773 286.540309,141.471992 284.158363,144.176978 C278.763957,150.252686 271.905356,153.287036 263.575552,153.287036 C255.448915,153.287036 248.492233,150.350794 242.691496,144.478311 C236.897764,138.584804 233.997395,131.50699 233.997395,123.251877 C233.997395,114.821569 236.946804,107.66667 242.845621,101.794187 C248.737434,95.9006806 255.911293,92.9504235 264.367199,92.9504235 C268.906907,92.9504235 273.145368,93.8824525 277.08959,95.7395027 C280.851662,97.5965529 284.550684,100.60988 288.186653,104.772475 L281.937549,110.757082 C277.173658,104.408073 271.365915,101.233568 264.521325,101.233568 C258.370301,101.233568 253.21409,103.356912 249.052691,107.596593 C244.891292,111.759189 242.803587,116.979952 242.803587,123.251877 C242.803587,129.727025 245.122481,135.059913 249.767275,139.250539 C254.103816,143.139833 258.811662,145.080976 263.876798,145.080976 C268.192323,145.080976 272.066487,143.630375 275.506297,140.715156 C278.9391,137.778914 280.865674,134.268038 281.257994,130.17552 L266.777167,130.17552 L266.777167,121.934422 Z" id="Fill-510" fill="#4B4A4A"></path>
                </g>
            </g>
        </g>
    </g>
</svg>