<?xml version="1.0" encoding="UTF-8"?>
<svg width="498px" height="170px" viewBox="0 0 498 170" version="1.1" xmlns="http://www.w3.org/2000/svg" xmlns:xlink="http://www.w3.org/1999/xlink">
    <!-- Generator: Sketch 44.1 (41455) - http://www.bohemiancoding.com/sketch -->
    <title>wortpaare/mitarbeiter/entsetzlich-proaktiv-pos</title>
    <desc>Created with Sketch.</desc>
    <defs></defs>
    <g id="Page-1" stroke="none" stroke-width="1" fill="none" fill-rule="evenodd">
        <g id="Wortpaare-Copy" transform="translate(-230.000000, -1462.000000)">
            <g id="wortpaare/mitarbeiter/entsetzlich-proaktiv/pos" transform="translate(229.000000, 1462.000000)">
                <g id="Group-8">
                    <path d="M49.4057551,122.689923 L49.4057551,122.472684 C49.4057551,112.809015 42.8904338,106.396936 35.1841398,106.396936 C27.4708401,106.396936 21.0676103,112.809015 21.0676103,122.472684 L21.0676103,122.689923 C21.0676103,132.353592 27.4708401,138.758663 35.1841398,138.758663 C42.8904338,138.758663 49.4057551,132.465716 49.4057551,122.689923 L49.4057551,122.689923 Z M4.77230134,93.4746696 L21.2847877,93.4746696 L21.2847877,101.834899 C25.2990663,96.4109112 30.8405923,92.3884704 39.4155958,92.3884704 C52.985679,92.3884704 65.9042301,103.033222 65.9042301,122.472684 L65.9042301,122.689923 C65.9042301,142.129385 53.2028564,152.774137 39.4155958,152.774137 C30.6164092,152.774137 25.1869748,148.751696 21.2847877,144.084543 L21.2847877,169.067124 L4.77230134,169.067124 L4.77230134,93.4746696 Z" id="Fill-98" fill="#DB071A"></path>
                    <path d="M42.6942736,28.6292798 C41.7064668,21.1450171 37.3068735,16.0854313 30.2731288,16.0854313 C23.3374642,16.0854313 18.8257793,21.0399011 17.5087036,28.6292798 L42.6942736,28.6292798 Z M1.10830882,33.5837496 L1.10830882,33.359502 C1.10830882,16.519911 13.1091103,2.65860802 30.2731288,2.65860802 C49.9592072,2.65860802 58.9755712,17.956497 58.9755712,34.6839642 C58.9755712,36.0014187 58.8704853,37.5431208 58.7653995,39.0848228 L17.725881,39.0848228 C19.3792314,46.6812093 24.6545399,50.6405804 32.1366508,50.6405804 C37.748234,50.6405804 41.8185584,48.8746308 46.4423348,44.585896 L56.0121508,53.0582496 C50.5126592,59.883785 42.5891878,64.060396 31.9194734,64.060396 C14.2020029,64.060396 1.10830882,51.6286713 1.10830882,33.5837496 L1.10830882,33.5837496 Z" id="Fill-99" fill="#DB071A"></path>
                    <polygon id="Fill-100" fill="#4B4A4A" points="67.4328786 62.7100052 67.4328786 0.642482207 109.803484 44.9804316 109.803484 4.59484564 118.567642 4.59484564 118.567642 66.2489121 76.1970366 22.0230865 76.1970366 62.7100052"></polygon>
                    <polygon id="Fill-101" fill="#4B4A4A" points="148.522007 12.8380462 148.522007 62.7121075 139.757849 62.7121075 139.757849 12.8380462 126.397938 12.8380462 126.397938 4.59694796 161.839884 4.59694796 161.839884 12.8380462"></polygon>
                    <path d="M202.443647,13.2522034 L195.332839,17.4708608 C194.001752,15.1583078 192.733716,13.6516444 191.528732,12.9508708 C190.274708,12.144981 188.656386,11.7455401 186.680773,11.7455401 C184.242782,11.7455401 182.225134,12.439306 180.620823,13.8198301 C179.016513,15.1723232 178.210855,16.882211 178.210855,18.9354778 C178.210855,21.7736111 180.319577,24.0581332 184.530016,25.7890442 L190.330754,28.1576591 C195.045605,30.0637635 198.49242,32.390332 200.678205,35.1373648 C202.856984,37.8914053 203.949877,41.2551188 203.949877,45.2425209 C203.949877,50.589424 202.163418,55.004298 198.604511,58.4941508 C195.017582,62.0120346 190.568948,63.7639687 185.2446,63.7639687 C180.207486,63.7639687 176.039081,62.2713209 172.753398,59.2860251 C169.516754,56.3007293 167.499106,52.0960873 166.693448,46.6791069 L175.576704,44.7169407 C175.97603,48.1297084 176.683608,50.4913157 177.685426,51.7947547 C179.492902,54.3035244 182.127054,55.5579092 185.58788,55.5579092 C188.320112,55.5579092 190.589966,54.6398957 192.397442,52.8108765 C194.204918,50.9818572 195.108656,48.6552887 195.108656,45.8451863 C195.108656,44.7169407 194.947524,43.6868034 194.639273,42.740759 C194.324015,41.8017223 193.833615,40.9327629 193.168071,40.1478964 C192.502528,39.3560222 191.640824,38.6132021 190.589966,37.9264439 C189.539107,37.232678 188.285083,36.5739508 186.827893,35.9502622 L181.223315,33.6166859 C173.264815,30.2529724 169.292571,25.3335413 169.292571,18.8583927 C169.292571,14.4925728 170.959933,10.841542 174.294657,7.90530041 C177.62938,4.94803557 181.783773,3.46940315 186.75083,3.46940315 C193.4483,3.46940315 198.681574,6.72800066 202.443647,13.2522034" id="Fill-102" fill="#4B4A4A"></path>
                    <polygon id="Fill-103" fill="#4B4A4A" points="246.581796 12.8380462 223.287771 12.8380462 223.287771 26.8044652 245.902241 26.8044652 245.902241 35.0455634 223.287771 35.0455634 223.287771 54.4640015 246.581796 54.4640015 246.581796 62.7121075 214.523613 62.7121075 214.523613 4.59694796 246.581796 4.59694796"></polygon>
                    <polygon id="Fill-104" fill="#4B4A4A" points="274.125492 12.8380462 274.125492 62.7121075 265.361334 62.7121075 265.361334 12.8380462 252.001423 12.8380462 252.001423 4.59694796 287.443369 4.59694796 287.443369 12.8380462"></polygon>
                    <polygon id="Fill-105" fill="#4B4A4A" points="305.31987 54.4668046 333.202643 54.4668046 333.202643 62.7079028 290.9091 62.7079028 319.429393 12.8408493 295.574911 12.8408493 295.574911 4.59274332 333.840163 4.59274332"></polygon>
                    <polygon id="Fill-106" fill="#4B4A4A" points="352.204962 4.59484564 352.204962 54.4689069 369.284912 54.4689069 369.284912 62.7100052 343.440804 62.7100052 343.440804 4.59484564"></polygon>
                    <polygon id="Fill-107" fill="#4B4A4A" points="377.605608 62.7072021 386.369766 62.7072021 386.369766 4.59204255 377.605608 4.59204255"></polygon>
                    <path d="M443.265335,7.71889461 L443.265335,18.1043602 C438.200198,13.8646796 432.952912,11.7483432 427.537489,11.7483432 C421.568614,11.7483432 416.538506,13.8927105 412.447165,18.1814453 C408.334806,22.4491569 406.275124,27.6699207 406.275124,33.8437366 C406.275124,39.9404674 408.334806,45.0841461 412.447165,49.2747726 C416.559523,53.4653991 421.603643,55.5607123 427.572518,55.5607123 C430.662041,55.5607123 433.282181,55.0561553 435.439944,54.0540489 C436.644928,53.5494919 437.891946,52.8697414 439.180999,52.0218053 C440.477058,51.1668615 441.836168,50.1367242 443.265335,48.9313935 L443.265335,59.5130757 C438.249238,62.3442013 432.980935,63.7667718 427.460426,63.7667718 C419.158646,63.7667718 412.068856,60.8655689 406.198061,55.0701707 C400.355289,49.2187107 397.433903,42.1759354 397.433903,33.913814 C397.433903,26.5136441 399.8789,19.9123563 404.768893,14.1169581 C410.793814,7.01812095 418.584177,3.4651985 428.139981,3.4651985 C433.352238,3.4651985 438.396358,4.8807613 443.265335,7.71889461" id="Fill-108" fill="#4B4A4A"></path>
                    <polygon id="Fill-109" fill="#4B4A4A" points="464.713352 27.3286439 489.772819 27.3286439 489.772819 4.59554642 498.543983 4.59554642 498.543983 62.7107059 489.772819 62.7107059 489.772819 35.5697421 464.713352 35.5697421 464.713352 62.7107059 455.949194 62.7107059 455.949194 4.59554642 464.713352 4.59554642"></polygon>
                    <path d="M83.4185346,120.82096 L86.1998062,120.82096 C94.5085923,120.82096 98.6559796,117.646455 98.6559796,111.297446 C98.6559796,105.347878 94.6206838,102.376597 86.5430866,102.376597 L83.4185346,102.376597 L83.4185346,120.82096 Z M94.3334492,127.485318 L112.317137,152.250659 L101.591377,152.250659 L85.0018278,128.459393 L83.4185346,128.459393 L83.4185346,152.250659 L74.6543766,152.250659 L74.6543766,94.1354991 L84.9247648,94.1354991 C92.603036,94.1354991 98.1445619,95.5790929 101.556348,98.4662803 C105.318421,101.675824 107.20296,105.915504 107.20296,111.185322 C107.20296,115.298864 106.018993,118.837771 103.665071,121.802043 C101.304142,124.759308 98.193602,126.658405 94.3334492,127.485318 L94.3334492,127.485318 Z" id="Fill-110" fill="#4B4A4A"></path>
                    <path d="M125.674947,123.041712 C125.674947,129.467806 127.832709,134.744632 132.148234,138.886204 C136.435736,143.027777 141.388781,145.095059 147.00737,145.095059 C153.109354,145.095059 158.244548,142.992738 162.440975,138.77408 C166.630397,134.506369 168.725108,129.313636 168.725108,123.188874 C168.725108,116.994035 166.651414,111.801302 162.511032,107.610676 C158.398674,103.392018 153.305514,101.289697 147.238559,101.289697 C141.192621,101.289697 136.08545,103.392018 131.924051,107.610676 C127.755646,111.773271 125.674947,116.91695 125.674947,123.041712 M116.833726,122.929588 C116.833726,114.744552 119.832175,107.7228 125.822067,101.850316 C131.797948,95.9778331 138.971807,93.0415914 147.35065,93.0415914 C155.624408,93.0415914 162.72821,96.005864 168.648045,101.927401 C174.588897,107.848939 177.566329,114.961791 177.566329,123.265959 C177.566329,131.626189 174.574885,138.711011 168.60601,144.53444 C162.609113,150.378892 155.379208,153.301118 146.895278,153.301118 C139.39215,153.301118 132.659652,150.708256 126.690777,145.515523 C120.11941,139.769179 116.833726,132.235862 116.833726,122.929588" id="Fill-111" fill="#4B4A4A"></path>
                    <path d="M216.20919,129.892475 L207.592152,110.130658 L198.561776,129.892475 L216.20919,129.892475 Z M219.782108,138.133573 L194.911795,138.133573 L188.438508,152.247155 L178.994795,152.247155 L207.746278,90.4809645 L235.474925,152.247155 L225.877086,152.247155 L219.782108,138.133573 Z" id="Fill-112" fill="#4B4A4A"></path>
                    <polygon id="Fill-113" fill="#4B4A4A" points="251.504016 117.320596 274.118486 94.1319953 285.818042 94.1319953 259.553591 120.446046 285.972168 152.247155 274.230578 152.247155 253.311493 126.388607 251.504016 128.196603 251.504016 152.247155 242.739858 152.247155 242.739858 94.1319953 251.504016 94.1319953"></polygon>
                    <polygon id="Fill-114" fill="#4B4A4A" points="312.989033 102.377999 312.989033 152.25206 304.224875 152.25206 304.224875 102.377999 290.864964 102.377999 290.864964 94.1369007 326.306911 94.1369007 326.306911 102.377999"></polygon>
                    <polygon id="Fill-115" fill="#4B4A4A" points="334.14211 152.25206 342.906268 152.25206 342.906268 94.1369007 334.14211 94.1369007"></polygon>
                    <polygon id="Fill-116" fill="#4B4A4A" points="359.798464 94.1347983 375.862585 134.408261 392.157894 94.1347983 401.755732 94.1347983 375.680436 156.615778 350.200625 94.1347983"></polygon>
                </g>
            </g>
        </g>
    </g>
</svg>