<?xml version="1.0" encoding="UTF-8"?>
<svg width="533px" height="158px" viewBox="0 0 533 158" version="1.1" xmlns="http://www.w3.org/2000/svg" xmlns:xlink="http://www.w3.org/1999/xlink">
    <!-- Generator: Sketch 45.1 (43504) - http://www.bohemiancoding.com/sketch -->
    <title>wortpaare/mitarbeiter/entspannt-pragmatisch-pos</title>
    <desc>Created with Sketch.</desc>
    <defs>
        <polygon id="path-1" points="0 1.66142308 0 58.9514231 54.0057308 58.9514231 54.0057308 1.66142308"></polygon>
        <polygon id="path-3" points="50.7737692 6.31615385 3.04953846 6.31615385 3.04953846 67.5285769 50.7737692 67.5285769 50.7737692 6.31615385"></polygon>
        <polygon id="path-5" points="53.8932692 6.31615385 6.16903846 6.31615385 6.16903846 67.5285769 53.8932692 67.5285769 53.8932692 6.31615385"></polygon>
        <polygon id="path-7" points="49.2287308 6.31615385 1.5045 6.31615385 1.5045 67.5285769 49.2287308 67.5285769 49.2287308 6.31615385"></polygon>
        <polygon id="path-9" points="0 163.683846 532.237308 163.683846 532.237308 6.53846154 0 6.53846154"></polygon>
    </defs>
    <g id="Page-1" stroke="none" stroke-width="1" fill="none" fill-rule="evenodd">
        <g id="Wortpaare-Copy" transform="translate(-3382.000000, -1468.000000)">
            <g id="wortpaare/mitarbeiter/entspannt-pragmatisch/pos" transform="translate(3382.000000, 1462.000000)">
                <g id="Page-1">
                    <path d="M45.0741923,120.412308 L45.0741923,120.209615 C45.0741923,111.193077 38.9934231,105.210385 31.8011154,105.210385 C24.6022692,105.210385 18.6261154,111.193077 18.6261154,120.209615 L18.6261154,120.412308 C18.6261154,129.428846 24.6022692,135.405 31.8011154,135.405 C38.9934231,135.405 45.0741923,129.533462 45.0741923,120.412308 Z M3.41765385,93.1534615 L18.8288077,93.1534615 L18.8288077,100.953846 C22.5753462,95.8930769 27.7472692,92.14 35.7503462,92.14 C48.4153462,92.14 60.4722692,102.071923 60.4722692,120.209615 L60.4722692,120.412308 C60.4722692,138.55 48.6180385,148.481923 35.7503462,148.481923 C27.5380385,148.481923 22.4707308,144.728846 18.8288077,140.374231 L18.8288077,163.683846 L3.41765385,163.683846 L3.41765385,93.1534615 Z" id="Fill-1" fill="#DB081A"></path>
                    <g id="Group-5" transform="translate(0.000000, 6.760769)">
                        <mask id="mask-2" fill="white">
                            <use xlink:href="#path-1"></use>
                        </mask>
                        <g id="Clip-4"></g>
                        <path d="M38.8103462,25.8929615 C37.8884231,18.9098846 33.7822692,14.1891154 27.2176538,14.1891154 C20.7445769,14.1891154 16.5338077,18.8052692 15.3045769,25.8929615 L38.8103462,25.8929615 Z M-0.00196153846,30.5156538 L-0.00196153846,30.3064231 C-0.00196153846,14.5945 11.1918846,1.66142308 27.2176538,1.66142308 C45.5907308,1.66142308 54.0057308,15.9348846 54.0057308,31.5421923 C54.0057308,32.7714231 53.9076538,34.2098846 53.8030385,35.6483462 L15.5072692,35.6483462 C17.0503462,42.7295 21.9738077,46.4237308 28.9568846,46.4237308 C34.1941923,46.4237308 37.9930385,44.7825769 42.3018846,40.7810385 L51.2334231,48.6795 C46.1072692,55.0479615 38.7122692,58.9514231 28.7541923,58.9514231 C12.2184231,58.9514231 -0.00196153846,47.3521923 -0.00196153846,30.5156538 L-0.00196153846,30.5156538 Z" id="Fill-3" fill="#DB081A" mask="url(#mask-2)"></path>
                    </g>
                    <g id="Group-8" transform="translate(58.846154, 0.222308)">
                        <mask id="mask-4" fill="white">
                            <use xlink:href="#path-3"></use>
                        </mask>
                        <g id="Clip-7"></g>
                        <polygon id="Fill-6" fill="#4B4A4A" mask="url(#mask-4)" points="3.04953846 64.2266538 3.04953846 6.3155 42.5941538 47.6843462 42.5941538 10.0031923 50.7737692 10.0031923 50.7737692 67.5285769 11.2291538 26.2643462 11.2291538 64.2266538"></polygon>
                    </g>
                    <polygon id="Fill-9" fill="#4B4A4A" points="137.576423 17.9166923 137.576423 64.4509231 129.396808 64.4509231 129.396808 17.9166923 116.927962 17.9166923 116.927962 10.2274615 150.006038 10.2274615 150.006038 17.9166923"></polygon>
                    <path d="M187.901654,18.3031154 L181.265115,22.2392692 C180.022808,20.0815769 178.839346,18.6758077 177.714731,18.0219615 C176.544346,17.2700385 175.033962,16.8973462 173.190115,16.8973462 C170.914731,16.8973462 169.031654,17.5446538 167.534346,18.8327308 C166.037038,20.0946538 165.285115,21.6900385 165.285115,23.6058077 C165.285115,26.2538846 167.253192,28.3854231 171.182808,30.0004231 L176.596654,32.2104231 C180.997038,33.9888846 184.213962,36.1596538 186.253962,38.7227308 C188.287423,41.2923462 189.307423,44.4308077 189.307423,48.1511923 C189.307423,53.1400385 187.640115,57.2592692 184.318577,60.5154231 C180.970885,63.7977308 176.818962,65.4323462 171.849731,65.4323462 C167.148577,65.4323462 163.258192,64.0396538 160.191654,61.2542692 C157.170885,58.4688846 155.287808,54.5458077 154.535885,49.4915769 L162.826654,47.6608077 C163.199346,50.8450385 163.859731,53.0485 164.794731,54.2646538 C166.481654,56.6054231 168.940115,57.7758077 172.170115,57.7758077 C174.720115,57.7758077 176.838577,56.9192692 178.5255,55.2127308 C180.212423,53.5061923 181.055885,51.3354231 181.055885,48.7135 C181.055885,47.6608077 180.9055,46.6996538 180.617808,45.8169615 C180.323577,44.9408077 179.865885,44.1300385 179.244731,43.3977308 C178.623577,42.6588846 177.819346,41.9658077 176.838577,41.3250385 C175.857808,40.6777308 174.687423,40.0631154 173.327423,39.4811923 L168.096654,37.3038846 C160.668962,34.1654231 156.961654,29.5754231 156.961654,23.5338846 C156.961654,19.4604231 158.517808,16.0538846 161.630115,13.3142692 C164.742423,10.5550385 168.619731,9.17542308 173.2555,9.17542308 C179.506269,9.17542308 184.3905,12.2158077 187.901654,18.3031154" id="Fill-11" fill="#4B4A4A"></path>
                    <path d="M207.3575,34.8441154 L210.410962,34.8441154 C217.930192,34.8441154 221.683269,31.9541154 221.683269,26.1675769 C221.683269,20.5706538 217.8125,17.7787308 210.064423,17.7787308 L207.3575,17.7787308 L207.3575,34.8441154 Z M207.3575,42.4287308 L207.3575,64.4502692 L199.177885,64.4502692 L199.177885,10.2268077 L208.449423,10.2268077 C212.987115,10.2268077 216.419808,10.5406538 218.734423,11.1748846 C221.075192,11.8091154 223.141346,12.9991154 224.919808,14.7579615 C228.032115,17.7983462 229.588269,21.6364231 229.588269,26.2721923 C229.588269,31.2414231 227.9275,35.1710385 224.599423,38.0741154 C221.277885,40.9771923 216.7925,42.4287308 211.149808,42.4287308 L207.3575,42.4287308 Z" id="Fill-13" fill="#4B4A4A"></path>
                    <path d="M262.564346,43.5886538 L254.522038,25.1501923 L246.093962,43.5886538 L262.564346,43.5886538 Z M265.898962,51.2778846 L242.687423,51.2778846 L236.645885,64.4463462 L227.832038,64.4463462 L254.665885,6.81634615 L280.545115,64.4463462 L271.587423,64.4463462 L265.898962,51.2778846 Z" id="Fill-15" fill="#4B4A4A"></path>
                    <g id="Group-19" transform="translate(281.153846, 0.222308)">
                        <mask id="mask-6" fill="white">
                            <use xlink:href="#path-5"></use>
                        </mask>
                        <g id="Clip-18"></g>
                        <polygon id="Fill-17" fill="#4B4A4A" mask="url(#mask-6)" points="6.16903846 64.2266538 6.16903846 6.3155 45.7136538 47.6843462 45.7136538 10.0031923 53.8932692 10.0031923 53.8932692 67.5285769 14.3486538 26.2643462 14.3486538 64.2266538"></polygon>
                    </g>
                    <g id="Group-22" transform="translate(346.538462, 0.222308)">
                        <mask id="mask-8" fill="white">
                            <use xlink:href="#path-7"></use>
                        </mask>
                        <g id="Clip-21"></g>
                        <polygon id="Fill-20" fill="#4B4A4A" mask="url(#mask-8)" points="1.5045 64.2266538 1.5045 6.3155 41.0491154 47.6843462 41.0491154 10.0031923 49.2287308 10.0031923 49.2287308 67.5285769 9.68411538 26.2643462 9.68411538 64.2266538"></polygon>
                    </g>
                    <polygon id="Fill-23" fill="#4B4A4A" points="423.723692 17.9166923 423.723692 64.4509231 415.544077 64.4509231 415.544077 17.9166923 403.075231 17.9166923 403.075231 10.2274615 436.153308 10.2274615 436.153308 17.9166923"></polygon>
                    <path d="M76.8151538,118.669154 L79.4109231,118.669154 C87.1655385,118.669154 91.0363077,115.707231 91.0363077,109.783385 C91.0363077,104.232231 87.2701538,101.459923 79.7313077,101.459923 L76.8151538,101.459923 L76.8151538,118.669154 Z M87.0020769,124.887231 L103.786308,147.994154 L93.7759231,147.994154 L78.2928462,125.796077 L76.8151538,125.796077 L76.8151538,147.994154 L68.6355385,147.994154 L68.6355385,93.7706923 L78.2209231,93.7706923 C85.3870769,93.7706923 90.559,95.1176154 93.7432308,97.8114615 C97.2543846,100.806077 99.0132308,104.761846 99.0132308,109.678769 C99.0132308,113.516846 97.9082308,116.818769 95.7113077,119.584538 C93.5078462,122.343769 90.6047692,124.115692 87.0020769,124.887231 L87.0020769,124.887231 Z" id="Fill-25" fill="#4B4A4A"></path>
                    <path d="M140.450077,127.133192 L132.407769,108.694731 L123.979692,127.133192 L140.450077,127.133192 Z M143.784692,134.828962 L120.573154,134.828962 L114.531615,147.990885 L105.717769,147.990885 L132.551615,90.3608846 L158.430846,147.990885 L149.473154,147.990885 L143.784692,134.828962 Z" id="Fill-27" fill="#4B4A4A"></path>
                    <path d="M190.634731,119.757808 L213.042038,119.757808 L213.042038,121.549346 C213.042038,125.622808 212.564731,129.2255 211.603577,132.3705 C210.662038,135.267038 209.086269,137.987038 206.856654,140.517423 C201.822038,146.179731 195.420885,149.017423 187.646654,149.017423 C180.062038,149.017423 173.569346,146.277808 168.1555,140.798577 C162.748192,135.293192 160.047808,128.689346 160.047808,120.987038 C160.047808,113.121269 162.8005,106.4455 168.299346,100.966269 C173.798192,95.4674231 180.500115,92.7147308 188.3855,92.7147308 C192.622423,92.7147308 196.584731,93.5843462 200.259346,95.3170385 C203.7705,97.0497308 207.222808,99.8612692 210.616269,103.745115 L204.7905,109.328962 C200.337808,103.405115 194.917423,100.443192 188.529346,100.443192 C182.788577,100.443192 177.976269,102.424346 174.092423,106.380115 C170.208577,110.263962 168.266654,115.135115 168.266654,120.987038 C168.266654,127.028577 170.430885,132.004346 174.759346,135.914346 C178.813192,139.543192 183.2005,141.360885 187.927808,141.360885 C191.9555,141.360885 195.571269,140.000885 198.781654,137.287423 C201.992038,134.547808 203.783577,131.2655 204.156269,127.453577 L190.634731,127.453577 L190.634731,119.757808 Z" id="Fill-29" fill="#4B4A4A"></path>
                    <polygon id="Fill-31" fill="#4B4A4A" points="221.4335 147.9935 232.849654 89.6965769 251.458115 131.836962 270.740038 89.6965769 280.992346 147.9935 272.6035 147.9935 267.366192 115.261962 251.320808 150.491192 235.726577 115.229269 229.894269 147.9935"></polygon>
                    <path d="M320.995308,127.133192 L312.953,108.694731 L304.524923,127.133192 L320.995308,127.133192 Z M324.329923,134.828962 L301.118385,134.828962 L295.076846,147.990885 L286.263,147.990885 L313.096846,90.3608846 L338.976077,147.990885 L330.018385,147.990885 L324.329923,134.828962 Z" id="Fill-33" fill="#4B4A4A"></path>
                    <polygon id="Fill-35" fill="#4B4A4A" points="357.694385 101.461231 357.694385 147.995462 349.514769 147.995462 349.514769 101.461231 337.045923 101.461231 337.045923 93.772 370.124 93.772 370.124 101.461231"></polygon>
                    <mask id="mask-10" fill="white">
                        <use xlink:href="#path-9"></use>
                    </mask>
                    <g id="Clip-38"></g>
                    <polygon id="Fill-37" fill="#4B4A4A" mask="url(#mask-10)" points="377.432692 147.991538 385.612308 147.991538 385.612308 93.7680769 377.432692 93.7680769"></polygon>
                    <path d="M429.301,101.847654 L422.664462,105.783808 C421.422154,103.626115 420.238692,102.220346 419.114077,101.5665 C417.943692,100.814577 416.433308,100.441885 414.589462,100.441885 C412.314077,100.441885 410.431,101.089192 408.933692,102.377269 C407.436385,103.639192 406.684462,105.234577 406.684462,107.150346 C406.684462,109.798423 408.652538,111.929962 412.582154,113.544962 L417.996,115.754962 C422.396385,117.533423 425.613308,119.704192 427.653308,122.267269 C429.686769,124.836885 430.706769,127.975346 430.706769,131.695731 C430.706769,136.684577 429.039462,140.810346 425.717923,144.059962 C422.370231,147.342269 418.218308,148.976885 413.249077,148.976885 C408.547923,148.976885 404.657538,147.584192 401.591,144.798808 C398.570231,142.013423 396.687154,138.090346 395.935231,133.036115 L404.226,131.205346 C404.598692,134.396115 405.259077,136.593038 406.194077,137.809192 C407.881,140.149962 410.339462,141.320346 413.569462,141.320346 C416.119462,141.320346 418.237923,140.463808 419.924846,138.763808 C421.611769,137.050731 422.455231,134.8865 422.455231,132.258038 C422.455231,131.205346 422.304846,130.244192 422.017154,129.3615 C421.722923,128.485346 421.265231,127.674577 420.644077,126.942269 C420.022923,126.203423 419.218692,125.510346 418.237923,124.869577 C417.257154,124.228808 416.086769,123.607654 414.726769,123.025731 L409.496,120.848423 C402.068308,117.709962 398.361,113.119962 398.361,107.078423 C398.361,103.004962 399.917154,99.5984231 403.029462,96.8588077 C406.141769,94.0995769 410.019077,92.7199615 414.654846,92.7199615 C420.905615,92.7199615 425.789846,95.7603462 429.301,101.847654" id="Fill-39" fill="#4B4A4A" mask="url(#mask-10)"></path>
                    <path d="M480.644923,96.6848846 L480.644923,106.374885 C475.917615,102.419115 471.020308,100.4445 465.966077,100.4445 C460.395308,100.4445 455.700692,102.445269 451.882231,106.446808 C448.044154,110.428731 446.121846,115.299885 446.121846,121.060269 C446.121846,126.748731 448.044154,131.547962 451.882231,135.457962 C455.720308,139.367962 460.428,141.322962 465.998769,141.322962 C468.882231,141.322962 471.327615,140.852192 473.341462,139.917192 C474.466077,139.452962 475.629923,138.818731 476.833,138.021038 C478.042615,137.229885 479.311077,136.262192 480.644923,135.137577 L480.644923,145.010654 C475.963385,147.652192 471.046462,148.9795 465.894154,148.9795 C458.146077,148.9795 451.529154,146.272577 446.049923,140.865269 C440.596846,135.405654 437.870308,128.8345 437.870308,121.125654 C437.870308,114.221038 440.152231,108.061808 444.716077,102.6545 C450.339154,96.0310385 457.609923,92.7160385 466.528385,92.7160385 C471.393,92.7160385 476.100692,94.0368077 480.644923,96.6848846" id="Fill-40" fill="#4B4A4A" mask="url(#mask-10)"></path>
                    <polygon id="Fill-41" fill="#4B4A4A" mask="url(#mask-10)" points="500.662423 114.982115 524.0505 114.982115 524.0505 93.7713462 532.236654 93.7713462 532.236654 147.994808 524.0505 147.994808 524.0505 122.671346 500.662423 122.671346 500.662423 147.994808 492.482808 147.994808 492.482808 93.7713462 500.662423 93.7713462"></polygon>
                </g>
            </g>
        </g>
    </g>
</svg>