<?xml version="1.0" encoding="UTF-8"?>
<svg width="533px" height="170px" viewBox="0 0 533 170" version="1.1" xmlns="http://www.w3.org/2000/svg" xmlns:xlink="http://www.w3.org/1999/xlink">
    <!-- Generator: Sketch 44.1 (41455) - http://www.bohemiancoding.com/sketch -->
    <title>wortpaare/mitarbeiter/erfrischend-plemplem-pos</title>
    <desc>Created with Sketch.</desc>
    <defs></defs>
    <g id="Page-1" stroke="none" stroke-width="1" fill="none" fill-rule="evenodd">
        <g id="Wortpaare-Copy" transform="translate(-4029.000000, -783.000000)">
            <g id="wortpaare/mitarbeiter/erfrischend-plemplem/pos" transform="translate(4029.000000, 783.000000)">
                <g id="Group-7">
                    <path d="M49.1705862,122.632393 L49.1705862,122.415153 C49.1705862,112.751484 42.6552649,106.339405 34.9489709,106.339405 C27.2356711,106.339405 20.8324414,112.751484 20.8324414,122.415153 L20.8324414,122.632393 C20.8324414,132.303069 27.2356711,138.70814 34.9489709,138.70814 C42.6552649,138.70814 49.1705862,132.408185 49.1705862,122.632393 L49.1705862,122.632393 Z M4.53713239,93.4171388 L21.0496187,93.4171388 L21.0496187,101.777369 C25.0638974,96.3533804 30.6054233,92.3309396 39.1804269,92.3309396 C52.75051,92.3309396 65.6690611,102.975692 65.6690611,122.415153 L65.6690611,122.632393 C65.6690611,142.071854 52.9676874,152.716606 39.1804269,152.716606 C30.3812402,152.716606 24.9518058,148.701173 21.0496187,144.03402 L21.0496187,169.009593 L4.53713239,169.009593 L4.53713239,93.4171388 Z" id="Fill-454" fill="#DB071A"></path>
                    <path d="M42.4591047,28.5752529 C41.4712979,21.0909902 37.0717046,16.0314044 30.0379599,16.0314044 C23.1022952,16.0314044 18.5906104,20.9788665 17.2735347,28.5752529 L42.4591047,28.5752529 Z M0.873139869,33.5297227 L0.873139869,33.3054751 C0.873139869,16.4658841 12.8669356,2.60458113 30.0379599,2.60458113 C49.7240382,2.60458113 58.7404022,17.9024701 58.7404022,34.6299373 C58.7404022,35.9473918 58.6353164,37.4890939 58.5232248,39.0307959 L17.4907121,39.0307959 C19.1440624,46.6271824 24.4193709,50.5795458 31.9014819,50.5795458 C37.5130651,50.5795458 41.5833894,48.8206039 46.2001601,44.5318691 L55.7769819,53.0042227 C50.2774902,59.8227504 42.3540188,64.0063691 31.6843045,64.0063691 C13.966834,64.0063691 0.873139869,51.5746444 0.873139869,33.5297227 L0.873139869,33.5297227 Z" id="Fill-455" fill="#DB071A"></path>
                    <path d="M75.9653705,31.2269804 L78.746642,31.2269804 C87.0554281,31.2269804 91.2028155,28.0524758 91.2028155,21.7034664 C91.2028155,15.7538981 87.1675197,12.7826177 79.0899224,12.7826177 L75.9653705,12.7826177 L75.9653705,31.2269804 Z M86.8802851,37.8913379 L104.863973,62.656679 L94.1382129,62.656679 L77.5486636,38.8654133 L75.9653705,38.8654133 L75.9653705,62.656679 L67.2012125,62.656679 L67.2012125,4.54151952 L77.4716007,4.54151952 C85.1498718,4.54151952 90.6913978,5.98511326 94.1031843,8.87230073 C97.8652569,12.0818441 99.7497961,16.3215247 99.7497961,21.5913426 C99.7497961,25.704884 98.5658291,29.243791 96.2119066,32.2080636 C93.8509783,35.1653284 90.7404378,37.064425 86.8802851,37.8913379 L86.8802851,37.8913379 Z" id="Fill-456" fill="#4B4A4A"></path>
                    <polygon id="Fill-457" fill="#4B4A4A" points="142.605198 12.7840193 122.358662 12.7840193 122.358662 26.7504383 141.890614 26.7504383 141.890614 34.9915365 122.358662 34.9915365 122.358662 62.6580806 113.594504 62.6580806 113.594504 4.54292107 142.605198 4.54292107"></polygon>
                    <path d="M161.532556,31.2269804 L164.313828,31.2269804 C172.622614,31.2269804 176.770001,28.0524758 176.770001,21.7034664 C176.770001,15.7538981 172.734706,12.7826177 164.657108,12.7826177 L161.532556,12.7826177 L161.532556,31.2269804 Z M172.447471,37.8913379 L190.431159,62.656679 L179.705399,62.656679 L163.11585,38.8654133 L161.532556,38.8654133 L161.532556,62.656679 L152.768398,62.656679 L152.768398,4.54151952 L163.038787,4.54151952 C170.717058,4.54151952 176.258584,5.98511326 179.67037,8.87230073 C183.432443,12.0818441 185.316982,16.3215247 185.316982,21.5913426 C185.316982,25.704884 184.133015,29.243791 181.779092,32.2080636 C179.418164,35.1653284 176.307624,37.064425 172.447471,37.8913379 L172.447471,37.8913379 Z" id="Fill-458" fill="#4B4A4A"></path>
                    <polygon id="Fill-459" fill="#4B4A4A" points="199.163091 62.656679 207.927249 62.656679 207.927249 4.54151952 199.163091 4.54151952"></polygon>
                    <path d="M254.738081,13.1981765 L247.627273,17.416834 C246.296186,15.1042809 245.02815,13.5976175 243.823166,12.8968439 C242.569142,12.0909541 240.95082,11.6915132 238.975207,11.6915132 C236.537215,11.6915132 234.519568,12.3852791 232.915257,13.7658032 C231.310947,15.1182964 230.505289,16.8281841 230.505289,18.8814509 C230.505289,21.7195842 232.614011,24.0041063 236.82445,25.7350173 L242.625188,28.1036322 C247.340039,30.0097366 250.786854,32.3363051 252.972639,35.0833379 C255.151418,37.8373784 256.244311,41.2010919 256.244311,45.188494 C256.244311,50.5353971 254.457852,54.9502711 250.898945,58.4401239 C247.312016,61.9580077 242.863382,63.7099419 237.539034,63.7099419 C232.50192,63.7099419 228.333515,62.217294 225.047832,59.2319982 C221.811188,56.2467024 219.79354,52.0420604 218.987882,46.6250801 L227.871138,44.6629138 C228.270464,48.0756815 228.978042,50.4372888 229.97986,51.7407278 C231.787336,54.2494975 234.421487,55.5038823 237.882314,55.5038823 C240.614546,55.5038823 242.884399,54.5858688 244.691876,52.7568496 C246.499352,50.9278303 247.40309,48.6012618 247.40309,45.7911594 C247.40309,44.6629138 247.241958,43.6327765 246.933707,42.6867321 C246.618449,41.7476954 246.128049,40.878736 245.462505,40.0938696 C244.796961,39.3019953 243.935258,38.5591752 242.884399,37.8724171 C241.833541,37.1786511 240.579517,36.5199239 239.122327,35.8962353 L233.517749,33.5626591 C225.559249,30.1989455 221.587005,25.2795144 221.587005,18.8043658 C221.587005,14.4385459 223.254367,10.7875151 226.58909,7.85127351 C229.923814,4.89400867 234.078207,3.41537625 239.045264,3.41537625 C245.742734,3.41537625 250.976008,6.67397376 254.738081,13.1981765" id="Fill-460" fill="#4B4A4A"></path>
                    <path d="M309.750511,7.66486772 L309.750511,18.0503333 C304.685375,13.8106527 299.438089,11.6943163 294.022666,11.6943163 C288.053791,11.6943163 283.023683,13.8386837 278.932341,18.1274184 C274.819982,22.39513 272.7603,27.6158938 272.7603,33.7897097 C272.7603,39.8864405 274.819982,45.0301192 278.932341,49.2207457 C283.0447,53.4113722 288.08882,55.5066854 294.057695,55.5066854 C297.147218,55.5066854 299.767358,55.0021284 301.92512,54.000022 C303.130104,53.495465 304.377123,52.8157146 305.666176,51.9677784 C306.962234,51.1128346 308.321344,50.0826973 309.750511,48.8773666 L309.750511,59.4590488 C304.734415,62.2901744 299.466112,63.7127449 293.945603,63.7127449 C285.643823,63.7127449 278.554032,60.811542 272.683237,55.0161438 C266.840465,49.1646838 263.919079,42.1219085 263.919079,33.8597871 C263.919079,26.4596172 266.364076,19.8583294 271.25407,14.0629312 C277.278991,6.96409406 285.069353,3.41117161 294.625158,3.41117161 C299.837415,3.41117161 304.881535,4.8267344 309.750511,7.66486772" id="Fill-461" fill="#4B4A4A"></path>
                    <polygon id="Fill-462" fill="#4B4A4A" points="331.198529 27.2753178 356.257996 27.2753178 356.257996 4.54222029 365.02916 4.54222029 365.02916 62.6573798 356.257996 62.6573798 356.257996 35.516416 331.198529 35.516416 331.198529 62.6573798 322.434371 62.6573798 322.434371 4.54222029 331.198529 4.54222029"></polygon>
                    <polygon id="Fill-463" fill="#4B4A4A" points="411.008413 12.7840193 387.714387 12.7840193 387.714387 26.7504383 410.328858 26.7504383 410.328858 34.9915365 387.714387 34.9915365 387.714387 54.4099746 411.008413 54.4099746 411.008413 62.6580806 378.950229 62.6580806 378.950229 4.54292107 411.008413 4.54292107"></polygon>
                    <polygon id="Fill-464" fill="#4B4A4A" points="422.523017 62.6559783 422.523017 0.58845531 464.893623 44.9264047 464.893623 4.54081875 473.657781 4.54081875 473.657781 66.1948852 431.287175 21.9690596 431.287175 62.6559783"></polygon>
                    <path d="M496.350014,54.4127777 L500.301241,54.4127777 C504.238457,54.4127777 507.510129,53.9993213 510.123263,53.1724083 C512.729392,52.2894335 515.09032,50.9019017 517.199042,48.9957973 C521.507561,45.0574494 523.665324,39.9207785 523.665324,33.5998001 C523.665324,27.2227598 521.535584,22.0580579 517.2691,18.091679 C513.429964,14.552772 507.776347,12.7868224 500.301241,12.7868224 L496.350014,12.7868224 L496.350014,54.4127777 Z M487.585856,62.6538759 L487.585856,4.53871642 L499.775812,4.53871642 C505.618584,4.53871642 510.235355,5.12035856 513.619119,6.26962736 C517.255088,7.40488069 520.561789,9.31799278 523.518203,12.0299868 C529.515101,17.5030291 532.51355,24.6929669 532.51355,33.5998001 C532.51355,42.5346642 529.388998,49.7596406 523.139894,55.2817371 C520.001331,58.0427853 516.722653,59.9629051 513.282844,61.0350888 C510.067218,62.1142802 505.520504,62.6538759 499.621686,62.6538759 L487.585856,62.6538759 Z" id="Fill-465" fill="#4B4A4A"></path>
                    <polygon id="Fill-466" fill="#4B4A4A" points="83.1833657 94.0814722 83.1833657 143.955534 100.263316 143.955534 100.263316 152.196632 74.4122019 152.196632 74.4122019 94.0814722"></polygon>
                    <polygon id="Fill-467" fill="#4B4A4A" points="140.637991 102.323972 117.350972 102.323972 117.350972 116.290391 139.958436 116.290391 139.958436 124.531489 117.350972 124.531489 117.350972 143.949927 140.637991 143.949927 140.637991 152.198033 108.579808 152.198033 108.579808 94.0828738 140.637991 94.0828738"></polygon>
                    <polygon id="Fill-468" fill="#4B4A4A" points="150.120936 152.195931 162.352926 89.7149516 182.298216 134.879814 202.951084 89.7149516 213.936056 152.195931 204.947715 152.195931 199.336132 117.115202 182.144091 154.865879 165.44245 117.080163 159.193346 152.195931"></polygon>
                    <path d="M235.009968,120.466301 L238.288646,120.466301 C246.33822,120.466301 250.359505,117.368882 250.359505,111.167035 C250.359505,105.168412 246.212117,102.176109 237.910337,102.176109 L235.009968,102.176109 L235.009968,120.466301 Z M235.009968,128.595276 L235.009968,152.197333 L226.24581,152.197333 L226.24581,94.082173 L236.179924,94.082173 C241.041895,94.082173 244.719899,94.4185444 247.199924,95.0982948 C249.714978,95.7780453 251.921781,97.0534533 253.827337,98.9385345 C257.162061,102.197132 258.829422,106.310673 258.829422,111.279159 C258.829422,116.605038 257.049969,120.816688 253.491062,123.928123 C249.92515,127.039558 245.119225,128.595276 239.073287,128.595276 L235.009968,128.595276 Z" id="Fill-469" fill="#4B4A4A"></path>
                    <polygon id="Fill-470" fill="#4B4A4A" points="276.627459 94.0814722 276.627459 143.955534 293.707408 143.955534 293.707408 152.196632 267.863301 152.196632 267.863301 94.0814722"></polygon>
                    <polygon id="Fill-471" fill="#4B4A4A" points="334.08909 102.323972 310.795065 102.323972 310.795065 116.290391 333.409535 116.290391 333.409535 124.531489 310.795065 124.531489 310.795065 143.949927 334.08909 143.949927 334.08909 152.198033 302.030907 152.198033 302.030907 94.0828738 334.08909 94.0828738"></polygon>
                    <polygon id="Fill-472" fill="#4B4A4A" points="343.571334 152.195931 355.796319 89.7149516 375.741609 134.879814 396.401483 89.7149516 407.386454 152.195931 398.391108 152.195931 392.78653 117.115202 375.587483 154.865879 358.885842 117.080163 352.636738 152.195931"></polygon>
                </g>
            </g>
        </g>
    </g>
</svg>