<?xml version="1.0" encoding="UTF-8"?>
<svg width="540px" height="540px" viewBox="0 0 540 540" version="1.1" xmlns="http://www.w3.org/2000/svg" xmlns:xlink="http://www.w3.org/1999/xlink">
    <!-- Generator: Sketch 43.2 (39069) - http://www.bohemiancoding.com/sketch -->
    <title>ep-icon-end</title>
    <desc>Created with Sketch.</desc>
    <defs></defs>
    <g id="Page-1" stroke="none" stroke-width="1" fill="none" fill-rule="evenodd" opacity="0.3">
        <g id="Desktop-Baustellenseite-Copy-4" transform="translate(-450.000000, -218.000000)" fill-rule="nonzero" fill="#FFFFFF">
            <path d="M545.937639,673.668963 C591.454042,716.357126 652.674023,742.5 720,742.5 C860.556469,742.5 974.5,628.556469 974.5,488 C974.5,420.674023 948.357126,359.454042 905.668963,313.937639 L545.937639,673.668963 Z M535.301738,663.09166 L895.09166,303.301738 C849.47097,260.039525 787.834804,233.5 720,233.5 C579.443531,233.5 465.5,347.443531 465.5,488 C465.5,555.834804 492.039525,617.47097 535.301738,663.09166 Z M720,757.5 C571.15926,757.5 450.5,636.84074 450.5,488 C450.5,339.15926 571.15926,218.5 720,218.5 C868.84074,218.5 989.5,339.15926 989.5,488 C989.5,636.84074 868.84074,757.5 720,757.5 Z" id="ep-icon-end"></path>
        </g>
    </g>
</svg>