<?xml version="1.0" encoding="UTF-8"?>
<svg width="289px" height="28px" viewBox="0 0 289 28" version="1.1" xmlns="http://www.w3.org/2000/svg" xmlns:xlink="http://www.w3.org/1999/xlink">
    <!-- Generator: Sketch 43.2 (39069) - http://www.bohemiancoding.com/sketch -->
    <title>Logo ep on red</title>
    <desc>Created with Sketch.</desc>
    <defs></defs>
    <g id="Page-1" stroke="none" stroke-width="1" fill="none" fill-rule="evenodd">
        <g id="Desktop-Baustellenseite-Copy-3" transform="translate(-52.000000, -43.000000)">
            <g id="Logo-ep-on-red" transform="translate(52.000000, 43.000000)">
                <g id="Logo-ep-solo-negativ" transform="translate(0.000000, -0.500000)" fill="#FFFFFF">
                    <path d="M14.1888453,10.4955774 C13.851327,7.93806792 12.3520077,6.20946415 9.94929964,6.20946415 C7.58403504,6.20946415 6.04516277,7.90003019 5.59478686,10.4955774 L14.1888453,10.4955774 Z M-0.000105474453,12.1877283 L-0.000105474453,12.1116528 C-0.000105474453,6.35844528 4.09283066,1.62169057 9.94929964,1.62169057 C16.6669675,1.62169057 19.744712,6.84765283 19.744712,12.5638792 C19.744712,13.0150491 19.707796,13.541766 19.6714073,14.0674264 L5.66809161,14.0674264 C6.23343467,16.6629736 8.03388358,18.0148981 10.5853106,18.0148981 C12.5007266,18.0148981 13.8903526,17.4136906 15.4656135,15.9481811 L18.7316299,18.8427472 C16.8552394,21.1741434 14.1524566,22.6032 10.5120058,22.6032 C4.46673759,22.6032 -0.000105474453,18.3545962 -0.000105474453,12.1877283 L-0.000105474453,12.1877283 Z" id="Fill-1"></path>
                    <path d="M38.3552573,12.1117057 L38.3552573,12.0366868 C38.3552573,8.69042264 36.102323,6.47155472 33.4380383,6.47155472 C30.7716442,6.47155472 28.557208,8.69042264 28.557208,12.0366868 L28.557208,12.1117057 C28.557208,15.4590264 30.7716442,17.677366 33.4380383,17.677366 C36.102323,17.677366 38.3552573,15.4960075 38.3552573,12.1117057 L38.3552573,12.1117057 Z M22.925927,1.99683774 L28.6331496,1.99683774 L28.6331496,4.89193208 C30.0201387,3.01223396 31.9360821,1.6217434 34.900969,1.6217434 C39.593,1.6217434 44.0598431,5.30612075 44.0598431,12.0366868 L44.0598431,12.1117057 C44.0598431,18.8428 39.6689416,22.528234 34.900969,22.528234 C31.8601405,22.528234 29.98375,21.1366868 28.6331496,19.520083 L28.6331496,28.1683849 L22.925927,28.1683849 L22.925927,1.99683774 Z" id="Fill-4"></path>
                </g>
                <path d="M63.6524082,3.09549434 L63.6524082,6.6953434 C61.8988954,5.22613585 60.0847349,4.49126792 58.2099265,4.49126792 C56.1442093,4.49126792 54.4038808,5.23458868 52.9889411,6.72123019 C51.5655633,8.19994717 50.8536108,10.0083245 50.8536108,12.1474189 C50.8536108,14.2600981 51.5655633,16.0425887 52.9889411,17.4948906 C54.4123188,18.9466642 56.1573936,19.6730792 58.2231108,19.6730792 C59.2905122,19.6730792 60.1981199,19.4987396 60.9443516,19.151117 C61.3609757,18.9773057 61.7928936,18.7427396 62.2395779,18.4468906 C62.6867896,18.1515698 63.157733,17.794966 63.6524082,17.3776075 L63.6524082,21.0424377 C61.9162987,22.0256075 60.0937002,22.5164 58.1840852,22.5164 C55.3109611,22.5164 52.8592075,21.5120981 50.8277695,19.5034943 C48.8052969,17.4774566 47.7943243,15.0340604 47.7943243,12.1733057 C47.7943243,9.6084 48.6407568,7.32138113 50.3330943,5.31277736 C52.4162148,2.85194717 55.1116144,1.62153208 58.4182385,1.62153208 C60.2239611,1.62153208 61.9685086,2.11285283 63.6524082,3.09549434" id="Fill-6" fill="#3F3F3F"></path>
                <path d="M69.3038876,12.0668 C69.3038876,14.2925358 70.0506467,16.1231019 71.5431102,17.5574415 C73.0276631,18.9923094 74.7421504,19.7097434 76.6860445,19.7097434 C78.7955336,19.7097434 80.5748876,18.9791019 82.0241066,17.5188755 C83.4738529,16.0401585 84.1984624,14.240234 84.1984624,12.1191019 C84.1984624,9.97102642 83.4822909,8.17110189 82.0499478,6.7188 C80.6265701,5.25804528 78.8646193,4.52793208 76.7640956,4.52793208 C74.6725372,4.52793208 72.9058401,5.25804528 71.4650591,6.7188 C70.0242781,8.16264906 69.3038876,9.94513962 69.3038876,12.0668 M66.2440737,12.0277057 C66.2440737,9.19283774 67.281415,6.75842264 69.3560974,4.72340377 C71.4218146,2.68891321 73.9041558,1.67140377 76.8031212,1.67140377 C79.6678073,1.67140377 82.1243073,2.69736604 84.1726212,4.74981887 C86.2299004,6.8017434 87.2582763,9.2668 87.2582763,12.1449887 C87.2582763,15.0406113 86.225154,17.4972151 84.1594369,19.5142717 C82.0847544,21.5403094 79.5807909,22.5530642 76.647019,22.5530642 C74.0518201,22.5530642 71.7208347,21.653366 69.6556449,19.8534415 C67.3810883,17.8617434 66.2440737,15.253517 66.2440737,12.0277057" id="Fill-8" fill="#3F3F3F"></path>
                <polygon id="Fill-10" fill="#3F3F3F" points="88.8053228 22.1512377 93.0369578 0.500369811 99.9370965 16.1518415 107.085628 0.500369811 110.887454 22.1512377 107.77543 22.1512377 105.835228 9.99501132 99.8854141 23.0773509 94.1043593 9.98233208 91.9431878 22.1512377"></polygon>
                <polygon id="Fill-12" fill="#3F3F3F" points="114.441574 22.1512377 118.673209 0.500369811 125.573348 16.1518415 132.721351 0.500369811 136.523178 22.1512377 133.411682 22.1512377 131.471479 9.99501132 125.521665 23.0773509 119.740611 9.98233208 117.579439 22.1512377"></polygon>
                <path d="M142.551729,2.07550189 L142.551729,14.2053132 C142.551729,15.9360302 142.833873,17.2007849 143.398161,18.000634 C144.240375,19.1570868 145.424853,19.7355774 146.95265,19.7355774 C148.488886,19.7355774 149.67811,19.1570868 150.519796,18.000634 C151.084612,17.2266717 151.366229,15.961917 151.366229,14.2053132 L151.366229,2.07550189 L154.400201,2.07550189 L154.400201,15.0405585 C154.400201,17.1616906 153.740459,18.9098415 152.420973,20.2834264 C150.93642,21.813917 149.113822,22.5788981 146.95265,22.5788981 C144.791479,22.5788981 142.972572,21.813917 141.496984,20.2834264 C140.178026,18.9098415 139.518283,17.1616906 139.518283,15.0405585 L139.518283,2.07550189 L142.551729,2.07550189 Z" id="Fill-14" fill="#3F3F3F"></path>
                <polygon id="Fill-16" fill="#3F3F3F" points="158.385237 22.1512377 158.385237 0.643539623 173.045659 16.0081434 173.045659 2.01289811 176.079104 2.01289811 176.079104 23.3768981 161.418682 8.05191698 161.418682 22.1512377"></polygon>
                <polygon id="Fill-18" fill="#3F3F3F" points="180.896597 22.1510792 183.930569 22.1510792 183.930569 2.01273962 180.896597 2.01273962"></polygon>
                <path d="M203.616163,3.09549434 L203.616163,6.6953434 C201.863178,5.22613585 200.04849,4.49126792 198.174209,4.49126792 C196.108491,4.49126792 194.367636,5.23458868 192.952696,6.72123019 C191.529318,8.19994717 190.817366,10.0083245 190.817366,12.1474189 C190.817366,14.2600981 191.529318,16.0425887 192.952696,17.4948906 C194.376074,18.9466642 196.121148,19.6730792 198.186866,19.6730792 C199.254267,19.6730792 200.161347,19.4987396 200.908106,19.151117 C201.32473,18.9773057 201.756648,18.7427396 202.203333,18.4468906 C202.650544,18.1515698 203.122015,17.794966 203.616163,17.3776075 L203.616163,21.0424377 C201.880053,22.0256075 200.057455,22.5164 198.14784,22.5164 C195.275243,22.5164 192.822435,21.5120981 190.792052,19.5034943 C188.769579,17.4774566 187.758079,15.0340604 187.758079,12.1733057 C187.758079,9.6084 188.604511,7.32138113 190.296849,5.31277736 C192.37997,2.85194717 195.075369,1.62153208 198.381993,1.62153208 C200.187716,1.62153208 201.932791,2.11285283 203.616163,3.09549434" id="Fill-20" fill="#3F3F3F"></path>
                <path d="M218.497975,14.4036377 L215.51674,7.55631698 L212.392059,14.4036377 L218.497975,14.4036377 Z M219.735191,17.260166 L211.128475,17.260166 L208.889253,22.1511849 L205.621654,22.1511849 L215.568422,0.747562264 L225.164488,22.1511849 L221.844152,22.1511849 L219.735191,17.260166 Z" id="Fill-21" fill="#3F3F3F"></path>
                <polygon id="Fill-22" fill="#3F3F3F" points="232.104074 4.86947925 232.104074 22.1512906 229.070102 22.1512906 229.070102 4.86947925 224.448211 4.86947925 224.448211 2.01295094 236.71278 2.01295094 236.71278 4.86947925"></polygon>
                <polygon id="Fill-23" fill="#3F3F3F" points="241.515929 22.1510792 244.549374 22.1510792 244.549374 2.01273962 241.515929 2.01273962"></polygon>
                <path d="M250.389547,12.0299245 C250.389547,14.2556604 251.136306,16.0862264 252.62877,17.5210943 C254.113323,18.955434 255.82781,19.6733962 257.771704,19.6733962 C259.881193,19.6733962 261.660547,18.9427547 263.110294,17.4814717 C264.559513,16.003283 265.284122,14.2038868 265.284122,12.0822264 C265.284122,9.93415094 264.568478,8.13422642 263.136135,6.68245283 C261.712757,5.22169811 259.950806,4.4910566 257.849755,4.4910566 C255.758197,4.4910566 253.992027,5.22169811 252.551246,6.68245283 C251.109938,8.12577358 250.389547,9.90826415 250.389547,12.0299245 M247.329733,11.9908302 C247.329733,9.15649057 248.367075,6.72154717 250.441757,4.6870566 C252.508002,2.65203774 254.990343,1.6345283 257.889308,1.6345283 C260.753467,1.6345283 263.209967,2.66101887 265.258281,4.7129434 C267.31556,6.76486792 268.343936,9.22992453 268.343936,12.1081132 C268.343936,15.0037358 267.311341,17.4598113 265.245624,19.4773962 C263.170414,21.503434 260.666451,22.516717 257.733206,22.516717 C255.13748,22.516717 252.807022,21.6164906 250.741305,19.816566 C248.466748,17.8253962 247.329733,15.2166415 247.329733,11.9908302" id="Fill-24" fill="#3F3F3F"></path>
                <polygon id="Fill-25" fill="#3F3F3F" points="271.111586 22.1512377 271.111586 0.643539623 285.772007 16.0081434 285.772007 2.01289811 288.805452 2.01289811 288.805452 23.3768981 274.145031 8.05191698 274.145031 22.1512377"></polygon>
            </g>
        </g>
    </g>
</svg>