<?xml version="1.0" encoding="UTF-8"?>
<svg width="502px" height="502px" viewBox="0 0 502 502" version="1.1" xmlns="http://www.w3.org/2000/svg" xmlns:xlink="http://www.w3.org/1999/xlink">
    <!-- Generator: Sketch 43.2 (39069) - http://www.bohemiancoding.com/sketch -->
    <title>start-icon-kontakt</title>
    <desc>Created with Sketch.</desc>
    <defs></defs>
    <g id="Page-1" stroke="none" stroke-width="1" fill="none" fill-rule="evenodd" opacity="0.3">
        <g id="Desktop-Intro-Kontakt-Copy" transform="translate(-446.000000, -261.000000)" fill-rule="nonzero" fill="#FFFFFF">
            <g id="start-icon-kontakt" transform="translate(446.000000, 261.000000)">
                <path d="M251.011719,501.523437 C112.657917,501.523437 0.5,389.365521 0.5,251.011719 C0.5,112.657917 112.657917,0.5 251.011719,0.5 C389.365521,0.5 501.523437,112.657917 501.523437,251.011719 C501.523437,389.365521 389.365521,501.523437 251.011719,501.523437 Z M251.011719,486.523437 C381.081249,486.523437 486.523437,381.081249 486.523437,251.011719 C486.523437,120.942188 381.081249,15.5 251.011719,15.5 C120.942188,15.5 15.5,120.942188 15.5,251.011719 C15.5,381.081249 120.942188,486.523437 251.011719,486.523437 Z" id="Oval-2"></path>
                <path d="M395.839087,307.619602 C364.650931,350.964817 310.469975,377.862028 250.963477,377.862028 C191.456982,377.862028 137.276031,350.96482 106.087865,307.619601 C103.668638,304.257366 98.9818363,303.492907 95.619601,305.912135 C92.2573658,308.331362 91.4929071,313.018164 93.9121346,316.380399 C127.961503,363.702109 186.700393,392.862028 250.963477,392.862028 C315.226564,392.862028 373.96546,363.702105 408.014819,316.380398 C410.434046,313.018163 409.669587,308.331361 406.307351,305.912134 C402.945116,303.492907 398.258314,304.257366 395.839087,307.619602 Z" id="Combined-Shape"></path>
                <path d="M329.008608,218.517217 C312.711454,218.517217 299.5,205.305763 299.5,189.008608 C299.5,172.711454 312.711454,159.5 329.008608,159.5 C345.305763,159.5 358.517217,172.711454 358.517217,189.008608 C358.517217,205.305763 345.305763,218.517217 329.008608,218.517217 Z M329.008608,203.517217 C337.021492,203.517217 343.517217,197.021492 343.517217,189.008608 C343.517217,180.995725 337.021492,174.5 329.008608,174.5 C320.995725,174.5 314.5,180.995725 314.5,189.008608 C314.5,197.021492 320.995725,203.517217 329.008608,203.517217 Z" id="Oval-Copy"></path>
                <path d="M199.143831,180 L151.458513,180 C147.316377,180 143.958513,183.357864 143.958513,187.5 C143.958513,191.642136 147.316377,195 151.458513,195 L199.143831,195 C203.285967,195 206.643831,191.642136 206.643831,187.5 C206.643831,183.357864 203.285967,180 199.143831,180 Z" id="Line"></path>
            </g>
        </g>
    </g>
</svg>