<?xml version="1.0" encoding="UTF-8"?>
<svg width="583px" height="472px" viewBox="0 0 583 472" version="1.1" xmlns="http://www.w3.org/2000/svg" xmlns:xlink="http://www.w3.org/1999/xlink">
    <!-- Generator: Sketch 43.2 (39069) - http://www.bohemiancoding.com/sketch -->
    <title>start-icon-projekte</title>
    <desc>Created with Sketch.</desc>
    <defs></defs>
    <g id="Page-1" stroke="none" stroke-width="1" fill="none" fill-rule="evenodd" opacity="0.3">
        <g id="Desktop-Intro-Projekte" transform="translate(-429.000000, -298.000000)" fill="#FFFFFF">
            <g id="start-icon-projekte" transform="translate(429.000000, 298.000000)">
                <rect id="Rectangle-2-Copy-12" x="30" y="176" width="553" height="15"></rect>
                <rect id="Rectangle-2-Copy-21" x="30" y="457" width="553" height="15"></rect>
                <rect id="Rectangle-2-Copy-13" x="0" y="141" width="553" height="15"></rect>
                <rect id="Rectangle-2-Copy-22" x="0" y="422" width="553" height="15"></rect>
                <rect id="Rectangle-2-Copy-14" x="30" y="106" width="553" height="15"></rect>
                <rect id="Rectangle-2-Copy-23" x="30" y="387" width="553" height="15"></rect>
                <rect id="Rectangle-2-Copy-15" x="0" y="70" width="553" height="15"></rect>
                <rect id="Rectangle-2-Copy-24" x="0" y="351" width="553" height="15"></rect>
                <rect id="Rectangle-2-Copy-16" x="30" y="35" width="553" height="15"></rect>
                <rect id="Rectangle-2-Copy-25" x="30" y="316" width="553" height="15"></rect>
                <rect id="Rectangle-2-Copy-17" x="0" y="0" width="553" height="15"></rect>
                <rect id="Rectangle-2-Copy-26" x="0" y="281" width="553" height="15"></rect>
                <rect id="Rectangle-2-Copy-27" x="30" y="246" width="553" height="15"></rect>
                <rect id="Rectangle-2-Copy-28" x="0" y="211" width="553" height="15"></rect>
                <rect id="Rectangle-2-Copy-29" x="0" y="211" width="553" height="15"></rect>
            </g>
        </g>
    </g>
</svg>