<?xml version="1.0" encoding="UTF-8"?>
<svg width="614px" height="561px" viewBox="0 0 614 561" version="1.1" xmlns="http://www.w3.org/2000/svg" xmlns:xlink="http://www.w3.org/1999/xlink">
    <!-- Generator: Sketch 43.2 (39069) - http://www.bohemiancoding.com/sketch -->
    <title>start-icon-leistungen</title>
    <desc>Created with Sketch.</desc>
    <defs></defs>
    <g id="Page-1" stroke="none" stroke-width="1" fill="none" fill-rule="evenodd" opacity="0.3">
        <g id="Desktop-Intro-Leistungen" transform="translate(-414.000000, -241.000000)" fill-rule="nonzero" fill="#FFFFFF">
            <path d="M964.423622,537.417578 C1028.70926,473.13194 1028.70926,368.904329 964.423622,304.618691 C900.137985,240.333054 795.910373,240.333054 731.624736,304.618691 L721.018134,315.225293 L710.411533,304.618691 C646.125895,240.333054 541.898284,240.333054 477.612647,304.618691 C413.327009,368.904329 413.327009,473.13194 477.612647,537.417578 L721.018134,780.823065 L964.423622,537.417578 Z M975.030224,294.01209 C1045.17373,364.155591 1045.17373,477.880678 975.030224,548.024179 L721.018134,802.036269 L467.006045,548.024179 C396.862543,477.880678 396.862543,364.155591 467.006045,294.01209 C537.149547,223.868588 650.874633,223.868588 721.018134,294.01209 C791.161636,223.868588 904.886722,223.868588 975.030224,294.01209 Z" id="start-icon-leistungen"></path>
        </g>
    </g>
</svg>