<?xml version="1.0" encoding="UTF-8"?>
<svg width="610px" height="244px" viewBox="0 0 610 244" version="1.1" xmlns="http://www.w3.org/2000/svg" xmlns:xlink="http://www.w3.org/1999/xlink">
    <!-- Generator: Sketch 43.2 (39069) - http://www.bohemiancoding.com/sketch -->
    <title>wortpaar-endgueltig-passe-negativ</title>
    <desc>Created with Sketch.</desc>
    <defs>
        <polygon id="path-1" points="0 243.526231 609.805 243.526231 609.805 -0.00376923077 0 -0.00376923077"></polygon>
    </defs>
    <g id="Page-1" stroke="none" stroke-width="1" fill="none" fill-rule="evenodd">
        <g id="Desktop-Baustellenseite" transform="translate(-272.000000, -319.000000)">
            <g id="wortpaar-/-endgueltig-passe-/-negativ" transform="translate(272.000000, 319.000000)">
                <g id="Page-1">
                    <path d="M64.9579808,181.164308 L64.9579808,180.872192 C64.9579808,167.877769 56.1945192,159.255654 45.8291346,159.255654 C35.4543269,159.255654 26.8416346,167.877769 26.8416346,180.872192 L26.8416346,181.164308 C26.8416346,194.168154 35.4543269,202.780846 45.8291346,202.780846 C56.1945192,202.780846 64.9579808,194.3095 64.9579808,181.164308 Z M4.92355769,141.8795 L27.13375,141.8795 L27.13375,153.121231 C32.5331731,145.818346 39.9868269,140.418923 51.5206731,140.418923 C69.7731731,140.418923 87.15875,154.732577 87.15875,180.872192 L87.15875,181.164308 C87.15875,207.303923 70.0652885,221.617577 51.5206731,221.617577 C39.6852885,221.617577 32.3824038,216.218154 27.13375,209.942385 L27.13375,243.526231 L4.92355769,243.526231 L4.92355769,141.8795 Z" id="Fill-1" fill="#FFFFFF"></path>
                    <path d="M55.9353846,54.6887115 C54.5973077,44.6248654 48.6890385,37.8214038 39.2188462,37.8214038 C29.8994231,37.8214038 23.8309615,44.4740962 22.0594231,54.6887115 L55.9353846,54.6887115 Z M0,61.3414038 L0,61.0492885 C0,38.4056346 16.1323077,19.7667885 39.2188462,19.7667885 C65.7071154,19.7667885 77.8346154,40.3373654 77.8346154,62.8208269 C77.8346154,64.6017885 77.6932692,66.6748654 77.5425,68.7385192 L22.3421154,68.7385192 C24.5753846,78.9531346 31.6709615,84.2865962 41.7253846,84.2865962 C49.2732692,84.2865962 54.7575,81.9119808 60.9673077,76.1450577 L73.8392308,87.5281346 C66.4421154,96.7062115 55.7846154,102.331788 41.4426923,102.331788 C17.6117308,102.331788 0,85.61525 0,61.3414038 L0,61.3414038 Z" id="Fill-3" fill="#FFFFFF"></path>
                    <polygon id="Fill-5" fill="#FFFFFF" points="89.2054423 100.515962 89.2054423 17.0557692 146.196212 76.6755769 146.196212 22.3703846 157.984481 22.3703846 157.984481 105.274615 100.993712 45.7961538 100.993712 100.515962"></polygon>
                    <path d="M188.506769,89.4278269 L193.821385,89.4278269 C199.117154,89.4278269 203.517731,88.8718654 207.032538,87.7599423 C210.537923,86.5726346 213.7135,84.7068654 216.549846,82.1437885 C222.345038,76.8480192 225.247346,69.9503269 225.247346,61.4412885 C225.247346,52.8662885 222.382731,45.9214808 216.644077,40.5880192 C211.480231,35.8387885 203.875808,33.45475 193.821385,33.45475 L188.506769,33.45475 L188.506769,89.4278269 Z M176.7185,100.518788 L176.7185,22.3732115 L193.114654,22.3732115 C200.9735,22.3732115 207.183308,23.1459038 211.734654,24.7007115 C216.625231,26.2178269 221.072923,28.7903269 225.049462,32.4370577 C233.115615,39.7964808 237.148692,49.4645577 237.148692,61.4412885 C237.148692,73.4557115 232.946,83.1709038 224.540615,90.5962885 C220.319077,94.3089808 215.909077,96.8909038 211.282346,98.3326346 C206.957154,99.7932115 200.841577,100.518788 192.907346,100.518788 L176.7185,100.518788 Z" id="Fill-7" fill="#FFFFFF"></path>
                    <path d="M292.160615,59.8242885 L324.4535,59.8242885 L324.4535,62.3967885 C324.4535,68.2673654 323.765615,73.4689038 322.380423,77.9919808 C321.0235,82.1758269 318.752538,86.0864038 315.539269,89.7331346 C308.2835,97.9029423 299.058308,101.983135 287.854269,101.983135 C276.9235,101.983135 267.566385,98.0348654 259.764077,90.1383269 C251.971192,82.2135192 248.079462,72.6962115 248.079462,61.5864038 C248.079462,50.2504423 252.046577,40.6389038 259.971385,32.7423654 C267.896192,24.8175577 277.554846,20.8504423 288.919077,20.8504423 C295.025231,20.8504423 300.735615,22.0942885 306.031385,24.6008269 C311.091577,27.0885192 316.066962,31.1404423 320.957538,36.7471731 L312.561577,44.7850577 C306.144462,36.2571731 298.332731,31.9885192 289.126385,31.9885192 C280.852923,31.9885192 273.917538,34.8437115 268.320231,40.53525 C262.722923,46.1419808 259.924269,53.1621731 259.924269,61.5864038 C259.924269,70.2933269 263.043308,77.4642885 269.281385,83.1087115 C275.123692,88.3290962 281.446577,90.9487115 288.259462,90.9487115 C294.064077,90.9487115 299.275038,88.9981346 303.901769,85.0781346 C308.5285,81.1298654 311.110423,76.4089038 311.647538,70.9058269 L292.160615,70.9058269 L292.160615,59.8242885 Z" id="Fill-9" fill="#FFFFFF"></path>
                    <path d="M372.229442,7.18698077 C372.229442,5.22698077 372.936173,3.54025 374.359058,2.12678846 C375.772519,0.713326923 377.478096,-0.00282692308 379.466365,-0.00282692308 C381.454635,-0.00282692308 383.160212,0.713326923 384.583096,2.12678846 C385.996558,3.54025 386.703288,5.26467308 386.703288,7.29063462 C386.703288,9.27890385 385.996558,10.9750577 384.583096,12.3979423 C383.160212,13.8114038 381.454635,14.5181346 379.466365,14.5181346 C377.440404,14.5181346 375.725404,13.8114038 374.302519,12.3979423 C372.917327,10.9185192 372.229442,9.17525 372.229442,7.18698077 L372.229442,7.18698077 Z M349.500981,7.18698077 C349.500981,5.22698077 350.217135,3.54025 351.630596,2.12678846 C353.044058,0.713326923 354.740212,-0.00282692308 356.690788,-0.00282692308 C358.71675,-0.00282692308 360.422327,0.713326923 361.807519,2.12678846 C363.220981,3.54025 363.927712,5.26467308 363.927712,7.29063462 C363.927712,9.27890385 363.220981,10.9750577 361.807519,12.3979423 C360.422327,13.8114038 358.735596,14.5181346 356.737904,14.5181346 C354.721365,14.5181346 352.996942,13.8114038 351.583481,12.3979423 C350.198288,10.9185192 349.500981,9.17525 349.500981,7.18698077 L349.500981,7.18698077 Z M351.074635,22.3675577 L351.074635,69.4358269 C351.074635,76.1450577 352.167712,81.0639038 354.363288,84.1640962 C357.633096,88.6589038 362.240981,90.9015962 368.177519,90.9015962 C374.15175,90.9015962 378.778481,88.6589038 382.048288,84.1640962 C384.243865,81.1675577 385.336942,76.2487115 385.336942,69.4358269 L385.336942,22.3675577 L397.134635,22.3675577 L397.134635,72.6773654 C397.134635,80.9037115 394.571558,87.6883269 389.435981,93.0217885 C383.669058,98.9583269 376.582904,101.936019 368.177519,101.936019 C359.781558,101.936019 352.71425,98.9583269 346.975596,93.0217885 C341.840019,87.6883269 339.276942,80.9037115 339.276942,72.6773654 L339.276942,22.3675577 L351.074635,22.3675577 Z" id="Fill-11" fill="#FFFFFF"></path>
                    <polygon id="Fill-13" fill="#FFFFFF" points="427.649385 22.3713269 427.649385 89.4259423 450.622846 89.4259423 450.622846 100.516904 415.861115 100.516904 415.861115 22.3713269"></polygon>
                    <polygon id="Fill-15" fill="#FFFFFF" points="478.312558 33.4500385 478.312558 100.514077 466.524288 100.514077 466.524288 33.4500385 448.554481 33.4500385 448.554481 22.3685 496.225827 22.3685 496.225827 33.4500385"></polygon>
                    <mask id="mask-2" fill="white">
                        <use xlink:href="#path-1"></use>
                    </mask>
                    <g id="Clip-18"></g>
                    <polygon id="Fill-17" fill="#FFFFFF" mask="url(#mask-2)" points="506.763654 100.512192 518.551923 100.512192 518.551923 22.3666154 506.763654 22.3666154"></polygon>
                    <path d="M577.512115,59.8242885 L609.805,59.8242885 L609.805,62.3967885 C609.805,68.2673654 609.117115,73.4689038 607.731923,77.9919808 C606.375,82.1758269 604.104038,86.0864038 600.890769,89.7331346 C593.635,97.9029423 584.409808,101.983135 573.205769,101.983135 C562.275,101.983135 552.917885,98.0348654 545.115577,90.1383269 C537.322692,82.2135192 533.430962,72.6962115 533.430962,61.5864038 C533.430962,50.2504423 537.398077,40.6389038 545.322885,32.7423654 C553.247692,24.8175577 562.906346,20.8504423 574.270577,20.8504423 C580.376731,20.8504423 586.087115,22.0942885 591.382885,24.6008269 C596.443077,27.0885192 601.418462,31.1404423 606.309038,36.7471731 L597.913077,44.7850577 C591.495962,36.2571731 583.684231,31.9885192 574.477885,31.9885192 C566.204423,31.9885192 559.269038,34.8437115 553.671731,40.53525 C548.074423,46.1419808 545.275769,53.1621731 545.275769,61.5864038 C545.275769,70.2933269 548.394808,77.4642885 554.632885,83.1087115 C560.475192,88.3290962 566.798077,90.9487115 573.610962,90.9487115 C579.415577,90.9487115 584.626538,88.9981346 589.253269,85.0781346 C593.88,81.1298654 596.461923,76.4089038 596.999038,70.9058269 L577.512115,70.9058269 L577.512115,59.8242885 Z" id="Fill-19" fill="#FFFFFF" mask="url(#mask-2)"></path>
                    <path d="M140.006192,190.854058 L128.415808,164.280981 L116.269462,190.854058 L140.006192,190.854058 Z M144.811962,201.935596 L111.360038,201.935596 L102.653115,220.913673 L89.9508077,220.913673 L128.623115,137.858673 L165.919654,220.913673 L153.010038,220.913673 L144.811962,201.935596 Z" id="Fill-20" fill="#FFFFFF" mask="url(#mask-2)"></path>
                    <path d="M219.872423,154.414077 L210.308,160.086769 C208.517615,156.967731 206.812038,154.951192 205.191269,154.008885 C203.504538,152.925231 201.327808,152.388115 198.6705,152.388115 C195.391269,152.388115 192.677423,153.321 190.519538,155.167923 C188.361654,156.986577 187.278,159.295231 187.278,162.056192 C187.278,165.872538 190.114346,168.935038 195.777615,171.262538 L203.579923,174.456962 C209.921654,177.010615 214.557808,180.1485 217.497808,183.842346 C220.428385,187.545615 221.898385,192.068692 221.898385,197.430423 C221.898385,204.620231 219.4955,210.556769 214.708577,215.249462 C209.883962,219.970423 203.900308,222.335615 196.738769,222.335615 C189.963577,222.335615 184.356846,220.3285 179.937423,216.304846 C175.583962,212.300038 172.870115,206.646192 171.786462,199.362154 L183.734923,196.723692 C184.272038,201.312731 185.223769,204.478885 186.571269,206.241 C189.002423,209.605038 192.5455,211.301192 197.2005,211.301192 C200.8755,211.301192 203.928577,210.066769 206.359731,207.607346 C208.790885,205.147923 210.006462,202.019462 210.006462,198.240808 C210.006462,196.723692 209.789731,195.3385 209.375115,194.066385 C208.951077,192.803692 208.291462,191.635231 207.396269,190.579846 C206.501077,189.515038 205.342038,188.516192 203.928577,187.592731 C202.515115,186.659846 200.828385,185.774077 198.868385,184.926 L191.329923,181.788115 C180.625308,177.274462 175.282423,170.659462 175.282423,161.952538 C175.282423,156.081962 177.525115,151.172538 182.0105,147.224269 C186.495885,143.238308 192.083769,141.259462 198.764731,141.259462 C207.773192,141.259462 214.812231,145.631769 219.872423,154.414077" id="Fill-21" fill="#FFFFFF" mask="url(#mask-2)"></path>
                    <path d="M280.303558,154.414077 L270.739135,160.086769 C268.94875,156.967731 267.243173,154.951192 265.622404,154.008885 C263.935673,152.925231 261.758942,152.388115 259.101635,152.388115 C255.822404,152.388115 253.108558,153.321 250.950673,155.167923 C248.792788,156.986577 247.709135,159.295231 247.709135,162.056192 C247.709135,165.872538 250.545481,168.935038 256.20875,171.262538 L264.011058,174.456962 C270.352788,177.010615 274.988942,180.1485 277.928942,183.842346 C280.859519,187.545615 282.329519,192.068692 282.329519,197.430423 C282.329519,204.620231 279.926635,210.556769 275.139712,215.249462 C270.315096,219.970423 264.331442,222.335615 257.169904,222.335615 C250.394712,222.335615 244.787981,220.3285 240.368558,216.304846 C236.015096,212.300038 233.30125,206.646192 232.217596,199.362154 L244.166058,196.723692 C244.703173,201.312731 245.654904,204.478885 247.002404,206.241 C249.433558,209.605038 252.976635,211.301192 257.631635,211.301192 C261.306635,211.301192 264.359712,210.066769 266.790865,207.607346 C269.222019,205.147923 270.437596,202.019462 270.437596,198.240808 C270.437596,196.723692 270.220865,195.3385 269.80625,194.066385 C269.382212,192.803692 268.722596,191.635231 267.827404,190.579846 C266.932212,189.515038 265.773173,188.516192 264.359712,187.592731 C262.94625,186.659846 261.259519,185.774077 259.299519,184.926 L251.761058,181.788115 C241.056442,177.274462 235.713558,170.659462 235.713558,161.952538 C235.713558,156.081962 237.95625,151.172538 242.441635,147.224269 C246.927019,143.238308 252.514904,141.259462 259.195865,141.259462 C268.204327,141.259462 275.243365,145.631769 280.303558,154.414077" id="Fill-22" fill="#FFFFFF" mask="url(#mask-2)"></path>
                    <path d="M335.876154,121.764058 L315.230192,135.729058 L309.604615,131.026942 L325.859423,114.734442 L335.876154,121.764058 Z M339.673654,153.849635 L308.341923,153.849635 L308.341923,172.629827 L338.759615,172.629827 L338.759615,183.711365 L308.341923,183.711365 L308.341923,209.832135 L339.673654,209.832135 L339.673654,220.913673 L296.553654,220.913673 L296.553654,142.768096 L339.673654,142.768096 L339.673654,153.849635 Z" id="Fill-23" fill="#FFFFFF" mask="url(#mask-2)"></path>
                </g>
            </g>
        </g>
    </g>
</svg>